M48
; DRILL file {KiCad 8.0.9-8.0.9-0~ubuntu22.04.1} date 2025-06-30T15:02:06+0200
; FORMAT={-:-/ absolute / metric / decimal}
; #@! TF.CreationDate,2025-06-30T15:02:06+02:00
; #@! TF.GenerationSoftware,Kicad,Pcbnew,8.0.9-8.0.9-0~ubuntu22.04.1
; #@! TF.FileFunction,MixedPlating,1,2
FMAT,2
METRIC
; #@! TA.AperFunction,Plated,PTH,ViaDrill
T1C0.300
; #@! TA.AperFunction,Plated,PTH,ComponentDrill
T2C1.000
; #@! TA.AperFunction,Plated,PTH,ComponentDrill
T3C1.300
; #@! TA.AperFunction,Plated,PTH,ComponentDrill
T4C1.400
; #@! TA.AperFunction,NonPlated,NPTH,ComponentDrill
T5C2.500
; #@! TA.AperFunction,NonPlated,NPTH,ComponentDrill
T6C2.850
%
G90
G05
T1
X15.565Y-72.6
X15.58Y-71.146
T2
X7.31Y-26.88
X11.755Y-97.365
X11.755Y-101.175
X13.025Y-26.88
X16.2Y-104.35
X18.74Y-26.88
X20.01Y-92.92
X21.28Y-104.34
X24.455Y-26.88
X25.725Y-98.0
X25.725Y-100.54
X28.265Y-80.855
X28.265Y-84.03
X31.44Y-31.96
X31.44Y-95.46
X36.52Y-26.88
X36.52Y-29.42
X36.52Y-31.96
X36.52Y-34.5
X36.52Y-37.04
X36.52Y-39.58
X36.52Y-42.12
X36.52Y-44.66
X36.52Y-47.2
X36.52Y-49.74
X36.52Y-52.28
X36.52Y-54.82
X36.52Y-57.36
X36.52Y-59.9
X36.52Y-62.44
X36.52Y-64.98
X36.52Y-67.52
X36.52Y-70.06
X36.52Y-72.6
X36.52Y-75.14
X36.52Y-77.68
X36.52Y-80.22
X36.52Y-82.76
X36.52Y-85.3
X36.52Y-87.84
X36.52Y-90.38
X36.52Y-92.92
X36.52Y-95.46
X36.52Y-98.0
X36.52Y-100.54
X36.52Y-103.08
X36.52Y-105.62
X41.6Y-26.88
X41.6Y-29.42
X41.6Y-31.96
X41.6Y-34.5
X41.6Y-37.04
X41.6Y-39.58
X41.6Y-42.12
X41.6Y-44.66
X41.6Y-47.2
X41.6Y-49.74
X41.6Y-52.28
X41.6Y-54.82
X41.6Y-57.36
X41.6Y-59.9
X41.6Y-62.44
X41.6Y-64.98
X41.6Y-67.52
X41.6Y-70.06
X41.6Y-72.6
X41.6Y-75.14
X41.6Y-77.68
X41.6Y-80.22
X41.6Y-82.76
X41.6Y-85.3
X41.6Y-87.84
X41.6Y-90.38
X41.6Y-92.92
X41.6Y-95.46
X41.6Y-98.0
X41.6Y-100.54
X41.6Y-103.08
X41.6Y-105.62
X46.68Y-31.96
X46.68Y-95.46
X46.69Y-82.76
X47.315Y-98.0
X47.315Y-100.54
X50.49Y-98.0
X50.49Y-100.54
X56.205Y-95.46
X56.84Y-31.96
X61.92Y-26.88
X61.92Y-29.42
X61.92Y-31.96
X61.92Y-34.5
X61.92Y-37.04
X61.92Y-39.58
X61.92Y-42.12
X61.92Y-44.66
X61.92Y-47.2
X61.92Y-49.74
X61.92Y-52.28
X61.92Y-54.82
X61.92Y-57.36
X61.92Y-59.9
X61.92Y-62.44
X61.92Y-64.98
X61.92Y-67.52
X61.92Y-70.06
X61.92Y-72.6
X61.92Y-75.14
X61.92Y-77.68
X61.92Y-80.22
X61.92Y-82.76
X61.92Y-85.3
X61.92Y-87.84
X61.92Y-90.38
X61.92Y-92.92
X61.92Y-95.46
X61.92Y-98.0
X61.92Y-100.54
X61.92Y-103.08
X61.92Y-105.62
X67.0Y-26.88
X67.0Y-29.42
X67.0Y-31.96
X67.0Y-34.5
X67.0Y-37.04
X67.0Y-39.58
X67.0Y-42.12
X67.0Y-44.66
X67.0Y-47.2
X67.0Y-49.74
X67.0Y-52.28
X67.0Y-54.82
X67.0Y-57.36
X67.0Y-59.9
X67.0Y-62.44
X67.0Y-64.98
X67.0Y-67.52
X67.0Y-70.06
X67.0Y-72.6
X67.0Y-75.14
X67.0Y-77.68
X67.0Y-80.22
X67.0Y-82.76
X67.0Y-85.3
X67.0Y-87.84
X67.0Y-90.38
X67.0Y-92.92
X67.0Y-95.46
X67.0Y-98.0
X67.0Y-100.54
X67.0Y-103.08
X67.0Y-105.62
X72.08Y-31.96
X72.08Y-82.76
X72.08Y-95.46
X72.715Y-98.0
X72.715Y-100.54
X75.89Y-98.0
X75.89Y-100.54
X82.24Y-31.96
X82.24Y-95.46
X87.32Y-26.88
X87.32Y-29.42
X87.32Y-31.96
X87.32Y-34.5
X87.32Y-37.04
X87.32Y-39.58
X87.32Y-42.12
X87.32Y-44.66
X87.32Y-47.2
X87.32Y-49.74
X87.32Y-52.28
X87.32Y-54.82
X87.32Y-57.36
X87.32Y-59.9
X87.32Y-62.44
X87.32Y-64.98
X87.32Y-67.52
X87.32Y-70.06
X87.32Y-72.6
X87.32Y-75.14
X87.32Y-77.68
X87.32Y-80.22
X87.32Y-82.76
X87.32Y-85.3
X87.32Y-87.84
X87.32Y-90.38
X87.32Y-92.92
X87.32Y-95.46
X87.32Y-98.0
X87.32Y-100.54
X87.32Y-103.08
X87.32Y-105.62
X92.4Y-26.88
X92.4Y-29.42
X92.4Y-31.96
X92.4Y-34.5
X92.4Y-37.04
X92.4Y-39.58
X92.4Y-42.12
X92.4Y-44.66
X92.4Y-47.2
X92.4Y-49.74
X92.4Y-52.28
X92.4Y-54.82
X92.4Y-57.36
X92.4Y-59.9
X92.4Y-62.44
X92.4Y-64.98
X92.4Y-67.52
X92.4Y-70.06
X92.4Y-72.6
X92.4Y-75.14
X92.4Y-77.68
X92.4Y-80.22
X92.4Y-82.76
X92.4Y-85.3
X92.4Y-87.84
X92.4Y-90.38
X92.4Y-92.92
X92.4Y-95.46
X92.4Y-98.0
X92.4Y-100.54
X92.4Y-103.08
X92.4Y-105.62
X97.48Y-31.96
X97.48Y-82.76
X97.48Y-95.46
X98.115Y-98.0
X98.115Y-100.54
X101.29Y-98.0
X101.29Y-100.54
X107.461Y-31.96
X107.64Y-95.46
X112.72Y-26.88
X112.72Y-29.42
X112.72Y-31.96
X112.72Y-34.5
X112.72Y-37.04
X112.72Y-39.58
X112.72Y-42.12
X112.72Y-44.66
X112.72Y-47.2
X112.72Y-49.74
X112.72Y-52.28
X112.72Y-54.82
X112.72Y-57.36
X112.72Y-59.9
X112.72Y-62.44
X112.72Y-64.98
X112.72Y-67.52
X112.72Y-70.06
X112.72Y-72.6
X112.72Y-75.14
X112.72Y-77.68
X112.72Y-80.22
X112.72Y-82.76
X112.72Y-85.3
X112.72Y-87.84
X112.72Y-90.38
X112.72Y-92.92
X112.72Y-95.46
X112.72Y-98.0
X112.72Y-100.54
X112.72Y-103.08
X112.72Y-105.62
X117.8Y-26.88
X117.8Y-29.42
X117.8Y-31.96
X117.8Y-34.5
X117.8Y-37.04
X117.8Y-39.58
X117.8Y-42.12
X117.8Y-44.66
X117.8Y-47.2
X117.8Y-49.74
X117.8Y-52.28
X117.8Y-54.82
X117.8Y-57.36
X117.8Y-59.9
X117.8Y-62.44
X117.8Y-64.98
X117.8Y-67.52
X117.8Y-70.06
X117.8Y-72.6
X117.8Y-75.14
X117.8Y-77.68
X117.8Y-80.22
X117.8Y-82.76
X117.8Y-85.3
X117.8Y-87.84
X117.8Y-90.38
X117.8Y-92.92
X117.8Y-95.46
X117.8Y-98.0
X117.8Y-100.54
X117.8Y-103.08
X117.8Y-105.62
X122.88Y-31.96
X122.88Y-82.76
X122.88Y-95.46
X123.515Y-98.0
X123.515Y-100.54
X126.69Y-98.0
X126.69Y-100.54
X133.04Y-95.46
X133.266Y-31.948
X138.12Y-26.88
X138.12Y-29.42
X138.12Y-31.96
X138.12Y-34.5
X138.12Y-37.04
X138.12Y-39.58
X138.12Y-42.12
X138.12Y-44.66
X138.12Y-47.2
X138.12Y-49.74
X138.12Y-52.28
X138.12Y-54.82
X138.12Y-57.36
X138.12Y-59.9
X138.12Y-62.44
X138.12Y-64.98
X138.12Y-67.52
X138.12Y-70.06
X138.12Y-72.6
X138.12Y-75.14
X138.12Y-77.68
X138.12Y-80.22
X138.12Y-82.76
X138.12Y-85.3
X138.12Y-87.84
X138.12Y-90.38
X138.12Y-92.92
X138.12Y-95.46
X138.12Y-98.0
X138.12Y-100.54
X138.12Y-103.08
X138.12Y-105.62
X143.2Y-26.88
X143.2Y-29.42
X143.2Y-31.96
X143.2Y-34.5
X143.2Y-37.04
X143.2Y-39.58
X143.2Y-42.12
X143.2Y-44.66
X143.2Y-47.2
X143.2Y-49.74
X143.2Y-52.28
X143.2Y-54.82
X143.2Y-57.36
X143.2Y-59.9
X143.2Y-62.44
X143.2Y-64.98
X143.2Y-67.52
X143.2Y-70.06
X143.2Y-72.6
X143.2Y-75.14
X143.2Y-77.68
X143.2Y-80.22
X143.2Y-82.76
X143.2Y-85.3
X143.2Y-87.84
X143.2Y-90.38
X143.2Y-92.92
X143.2Y-95.46
X143.2Y-98.0
X143.2Y-100.54
X143.2Y-103.08
X143.2Y-105.62
X148.28Y-31.96
X148.28Y-82.76
X148.28Y-95.46
X148.915Y-98.0
X148.915Y-100.54
X152.09Y-98.0
X152.09Y-100.54
X158.44Y-31.96
X158.44Y-95.46
X163.52Y-26.88
X163.52Y-29.42
X163.52Y-31.96
X163.52Y-34.5
X163.52Y-37.04
X163.52Y-39.58
X163.52Y-42.12
X163.52Y-44.66
X163.52Y-47.2
X163.52Y-49.74
X163.52Y-52.28
X163.52Y-54.82
X163.52Y-57.36
X163.52Y-59.9
X163.52Y-62.44
X163.52Y-64.98
X163.52Y-67.52
X163.52Y-70.06
X163.52Y-72.6
X163.52Y-75.14
X163.52Y-77.68
X163.52Y-80.22
X163.52Y-82.76
X163.52Y-85.3
X163.52Y-87.84
X163.52Y-90.38
X163.52Y-92.92
X163.52Y-95.46
X163.52Y-98.0
X163.52Y-100.54
X163.52Y-103.08
X163.52Y-105.62
X168.6Y-26.88
X168.6Y-29.42
X168.6Y-31.96
X168.6Y-34.5
X168.6Y-37.04
X168.6Y-39.58
X168.6Y-42.12
X168.6Y-44.66
X168.6Y-47.2
X168.6Y-49.74
X168.6Y-52.28
X168.6Y-54.82
X168.6Y-57.36
X168.6Y-59.9
X168.6Y-62.44
X168.6Y-64.98
X168.6Y-67.52
X168.6Y-70.06
X168.6Y-72.6
X168.6Y-75.14
X168.6Y-77.68
X168.6Y-80.22
X168.6Y-82.76
X168.6Y-85.3
X168.6Y-87.84
X168.6Y-90.38
X168.6Y-92.92
X168.6Y-95.46
X168.6Y-98.0
X168.6Y-100.54
X168.6Y-103.08
X168.6Y-105.62
X173.68Y-31.96
X173.68Y-82.76
X173.68Y-95.46
X174.315Y-98.0
X174.315Y-100.54
X177.49Y-98.0
X177.49Y-100.54
X183.84Y-31.96
X183.84Y-95.46
X188.92Y-26.88
X188.92Y-29.42
X188.92Y-31.96
X188.92Y-34.5
X188.92Y-37.04
X188.92Y-39.58
X188.92Y-42.12
X188.92Y-44.66
X188.92Y-47.2
X188.92Y-49.74
X188.92Y-52.28
X188.92Y-54.82
X188.92Y-57.36
X188.92Y-59.9
X188.92Y-62.44
X188.92Y-64.98
X188.92Y-67.52
X188.92Y-70.06
X188.92Y-72.6
X188.92Y-75.14
X188.92Y-77.68
X188.92Y-80.22
X188.92Y-82.76
X188.92Y-85.3
X188.92Y-87.84
X188.92Y-90.38
X188.92Y-92.92
X188.92Y-95.46
X188.92Y-98.0
X188.92Y-100.54
X188.92Y-103.08
X188.92Y-105.62
X194.0Y-26.88
X194.0Y-29.42
X194.0Y-31.96
X194.0Y-34.5
X194.0Y-37.04
X194.0Y-39.58
X194.0Y-42.12
X194.0Y-44.66
X194.0Y-47.2
X194.0Y-49.74
X194.0Y-52.28
X194.0Y-54.82
X194.0Y-57.36
X194.0Y-59.9
X194.0Y-62.44
X194.0Y-64.98
X194.0Y-67.52
X194.0Y-70.06
X194.0Y-72.6
X194.0Y-75.14
X194.0Y-77.68
X194.0Y-80.22
X194.0Y-82.76
X194.0Y-85.3
X194.0Y-87.84
X194.0Y-90.38
X194.0Y-92.92
X194.0Y-95.46
X194.0Y-98.0
X194.0Y-100.54
X194.0Y-103.08
X194.0Y-105.62
X199.08Y-31.96
X199.08Y-82.76
X199.08Y-95.46
X199.715Y-98.0
X199.715Y-100.54
X202.89Y-98.0
X202.89Y-100.54
X209.24Y-31.96
X209.24Y-95.46
X214.32Y-26.88
X214.32Y-29.42
X214.32Y-31.96
X214.32Y-34.5
X214.32Y-37.04
X214.32Y-39.58
X214.32Y-42.12
X214.32Y-44.66
X214.32Y-47.2
X214.32Y-49.74
X214.32Y-52.28
X214.32Y-54.82
X214.32Y-57.36
X214.32Y-59.9
X214.32Y-62.44
X214.32Y-64.98
X214.32Y-67.52
X214.32Y-70.06
X214.32Y-72.6
X214.32Y-75.14
X214.32Y-77.68
X214.32Y-80.22
X214.32Y-82.76
X214.32Y-85.3
X214.32Y-87.84
X214.32Y-90.38
X214.32Y-92.92
X214.32Y-95.46
X214.32Y-98.0
X214.32Y-100.54
X214.32Y-103.08
X214.32Y-105.62
X219.4Y-26.88
X219.4Y-29.42
X219.4Y-31.96
X219.4Y-34.5
X219.4Y-37.04
X219.4Y-39.58
X219.4Y-42.12
X219.4Y-44.66
X219.4Y-47.2
X219.4Y-49.74
X219.4Y-52.28
X219.4Y-54.82
X219.4Y-57.36
X219.4Y-59.9
X219.4Y-62.44
X219.4Y-64.98
X219.4Y-67.52
X219.4Y-70.06
X219.4Y-72.6
X219.4Y-75.14
X219.4Y-77.68
X219.4Y-80.22
X219.4Y-82.76
X219.4Y-85.3
X219.4Y-87.84
X219.4Y-90.38
X219.4Y-92.92
X219.4Y-95.46
X219.4Y-98.0
X219.4Y-100.54
X219.4Y-103.08
X219.4Y-105.62
X224.48Y-31.96
X224.48Y-82.76
T3
X24.455Y-65.615
X24.455Y-80.855
T4
X7.525Y-41.685
X7.525Y-45.885
X7.525Y-50.085
X7.525Y-54.285
X7.525Y-58.485
X7.525Y-62.685
X7.525Y-66.885
X7.525Y-71.085
X7.525Y-75.285
X7.525Y-79.485
X7.525Y-83.685
X7.525Y-87.885
X13.025Y-41.685
X13.025Y-45.885
X13.025Y-50.085
X13.025Y-54.285
X13.025Y-58.485
X13.025Y-62.685
X13.025Y-66.885
X13.025Y-71.085
X13.025Y-75.285
X13.025Y-79.485
X13.025Y-83.685
X13.025Y-87.885
T5
X9.5Y-5.0
X9.5Y-131.0
X38.6Y-5.0
X39.0Y-127.5
X65.0Y-137.0
X65.5Y-1.0
X89.0Y-1.5
X90.0Y-136.5
X114.5Y-1.5
X116.0Y-135.0
X140.5Y-134.5
X141.5Y-3.0
X167.0Y-2.5
X167.0Y-134.0
X192.0Y-3.5
X192.5Y-134.0
X216.86Y-0.845
X217.495Y-136.1
T6
X38.76Y-21.25
X38.76Y-111.25
X64.16Y-21.25
X64.16Y-111.25
X89.56Y-21.25
X89.56Y-111.25
X114.96Y-21.25
X114.96Y-111.25
X140.36Y-21.25
X140.36Y-111.25
X165.76Y-21.25
X165.76Y-111.25
X191.16Y-21.25
X191.16Y-111.25
X216.56Y-21.25
X216.56Y-111.25
M30
