%TF.GenerationSoftware,KiCad,Pcbnew,8.0.9-8.0.9-0~ubuntu22.04.1*%
%TF.CreationDate,2025-06-30T15:02:04+02:00*%
%TF.ProjectId,CPU09BP8,43505530-3942-4503-982e-6b696361645f,rev?*%
%TF.SameCoordinates,Original*%
%TF.FileFunction,Soldermask,Top*%
%TF.FilePolarity,Negative*%
%FSLAX46Y46*%
G04 Gerber Fmt 4.6, Leading zero omitted, Abs format (unit mm)*
G04 Created by KiCad (PCBNEW 8.0.9-8.0.9-0~ubuntu22.04.1) date 2025-06-30 15:02:04*
%MOMM*%
%LPD*%
G01*
G04 APERTURE LIST*
G04 Aperture macros list*
%AMRoundRect*
0 Rectangle with rounded corners*
0 $1 Rounding radius*
0 $2 $3 $4 $5 $6 $7 $8 $9 X,Y pos of 4 corners*
0 Add a 4 corners polygon primitive as box body*
4,1,4,$2,$3,$4,$5,$6,$7,$8,$9,$2,$3,0*
0 Add four circle primitives for the rounded corners*
1,1,$1+$1,$2,$3*
1,1,$1+$1,$4,$5*
1,1,$1+$1,$6,$7*
1,1,$1+$1,$8,$9*
0 Add four rect primitives between the rounded corners*
20,1,$1+$1,$2,$3,$4,$5,0*
20,1,$1+$1,$4,$5,$6,$7,0*
20,1,$1+$1,$6,$7,$8,$9,0*
20,1,$1+$1,$8,$9,$2,$3,0*%
G04 Aperture macros list end*
%ADD10R,1.700000X1.700000*%
%ADD11C,2.850000*%
%ADD12RoundRect,0.249999X-0.525001X-0.525001X0.525001X-0.525001X0.525001X0.525001X-0.525001X0.525001X0*%
%ADD13C,1.550000*%
%ADD14C,2.500000*%
%ADD15R,2.600000X2.600000*%
%ADD16O,2.600000X2.600000*%
%ADD17RoundRect,0.250001X-1.399999X1.099999X-1.399999X-1.099999X1.399999X-1.099999X1.399999X1.099999X0*%
%ADD18O,3.300000X2.700000*%
%ADD19C,2.000000*%
G04 APERTURE END LIST*
D10*
%TO.C,J89*%
X199715000Y-100540000D03*
%TD*%
%TO.C,J88*%
X199715000Y-98000000D03*
%TD*%
%TO.C,J85*%
X224480000Y-82760000D03*
%TD*%
%TO.C,J84*%
X224480000Y-31960000D03*
%TD*%
D11*
%TO.C,J83*%
X216560000Y-21250000D03*
X216560000Y-111250000D03*
D12*
X214320000Y-26880000D03*
D13*
X214320000Y-29420000D03*
X214320000Y-31960000D03*
X214320000Y-34500000D03*
X214320000Y-37040000D03*
X214320000Y-39580000D03*
X214320000Y-42120000D03*
X214320000Y-44660000D03*
X214320000Y-47200000D03*
X214320000Y-49740000D03*
X214320000Y-52280000D03*
X214320000Y-54820000D03*
X214320000Y-57360000D03*
X214320000Y-59900000D03*
X214320000Y-62440000D03*
X214320000Y-64980000D03*
X214320000Y-67520000D03*
X214320000Y-70060000D03*
X214320000Y-72600000D03*
X214320000Y-75140000D03*
X214320000Y-77680000D03*
X214320000Y-80220000D03*
X214320000Y-82760000D03*
X214320000Y-85300000D03*
X214320000Y-87840000D03*
X214320000Y-90380000D03*
X214320000Y-92920000D03*
X214320000Y-95460000D03*
X214320000Y-98000000D03*
X214320000Y-100540000D03*
X214320000Y-103080000D03*
X214320000Y-105620000D03*
X219400000Y-26880000D03*
X219400000Y-29420000D03*
X219400000Y-31960000D03*
X219400000Y-34500000D03*
X219400000Y-37040000D03*
X219400000Y-39580000D03*
X219400000Y-42120000D03*
X219400000Y-44660000D03*
X219400000Y-47200000D03*
X219400000Y-49740000D03*
X219400000Y-52280000D03*
X219400000Y-54820000D03*
X219400000Y-57360000D03*
X219400000Y-59900000D03*
X219400000Y-62440000D03*
X219400000Y-64980000D03*
X219400000Y-67520000D03*
X219400000Y-70060000D03*
X219400000Y-72600000D03*
X219400000Y-75140000D03*
X219400000Y-77680000D03*
X219400000Y-80220000D03*
X219400000Y-82760000D03*
X219400000Y-85300000D03*
X219400000Y-87840000D03*
X219400000Y-90380000D03*
X219400000Y-92920000D03*
X219400000Y-95460000D03*
X219400000Y-98000000D03*
X219400000Y-100540000D03*
X219400000Y-103080000D03*
X219400000Y-105620000D03*
%TD*%
D10*
%TO.C,J82*%
X202890000Y-100540000D03*
%TD*%
%TO.C,J81*%
X202890000Y-98000000D03*
%TD*%
%TO.C,J79*%
X209240000Y-95460000D03*
%TD*%
%TO.C,J78*%
X209240000Y-31960000D03*
%TD*%
D14*
%TO.C,H18*%
X217495000Y-136100000D03*
%TD*%
%TO.C,H17*%
X216860000Y-845000D03*
%TD*%
%TO.C,H6*%
X90000000Y-136500000D03*
%TD*%
%TO.C,H8*%
X116000000Y-135000000D03*
%TD*%
D11*
%TO.C,J80*%
X38760000Y-21250000D03*
X38760000Y-111250000D03*
D12*
X36520000Y-26880000D03*
D13*
X36520000Y-29420000D03*
X36520000Y-31960000D03*
X36520000Y-34500000D03*
X36520000Y-37040000D03*
X36520000Y-39580000D03*
X36520000Y-42120000D03*
X36520000Y-44660000D03*
X36520000Y-47200000D03*
X36520000Y-49740000D03*
X36520000Y-52280000D03*
X36520000Y-54820000D03*
X36520000Y-57360000D03*
X36520000Y-59900000D03*
X36520000Y-62440000D03*
X36520000Y-64980000D03*
X36520000Y-67520000D03*
X36520000Y-70060000D03*
X36520000Y-72600000D03*
X36520000Y-75140000D03*
X36520000Y-77680000D03*
X36520000Y-80220000D03*
X36520000Y-82760000D03*
X36520000Y-85300000D03*
X36520000Y-87840000D03*
X36520000Y-90380000D03*
X36520000Y-92920000D03*
X36520000Y-95460000D03*
X36520000Y-98000000D03*
X36520000Y-100540000D03*
X36520000Y-103080000D03*
X36520000Y-105620000D03*
X41600000Y-26880000D03*
X41600000Y-29420000D03*
X41600000Y-31960000D03*
X41600000Y-34500000D03*
X41600000Y-37040000D03*
X41600000Y-39580000D03*
X41600000Y-42120000D03*
X41600000Y-44660000D03*
X41600000Y-47200000D03*
X41600000Y-49740000D03*
X41600000Y-52280000D03*
X41600000Y-54820000D03*
X41600000Y-57360000D03*
X41600000Y-59900000D03*
X41600000Y-62440000D03*
X41600000Y-64980000D03*
X41600000Y-67520000D03*
X41600000Y-70060000D03*
X41600000Y-72600000D03*
X41600000Y-75140000D03*
X41600000Y-77680000D03*
X41600000Y-80220000D03*
X41600000Y-82760000D03*
X41600000Y-85300000D03*
X41600000Y-87840000D03*
X41600000Y-90380000D03*
X41600000Y-92920000D03*
X41600000Y-95460000D03*
X41600000Y-98000000D03*
X41600000Y-100540000D03*
X41600000Y-103080000D03*
X41600000Y-105620000D03*
%TD*%
D11*
%TO.C,J74*%
X191160000Y-21250000D03*
X191160000Y-111250000D03*
D12*
X188920000Y-26880000D03*
D13*
X188920000Y-29420000D03*
X188920000Y-31960000D03*
X188920000Y-34500000D03*
X188920000Y-37040000D03*
X188920000Y-39580000D03*
X188920000Y-42120000D03*
X188920000Y-44660000D03*
X188920000Y-47200000D03*
X188920000Y-49740000D03*
X188920000Y-52280000D03*
X188920000Y-54820000D03*
X188920000Y-57360000D03*
X188920000Y-59900000D03*
X188920000Y-62440000D03*
X188920000Y-64980000D03*
X188920000Y-67520000D03*
X188920000Y-70060000D03*
X188920000Y-72600000D03*
X188920000Y-75140000D03*
X188920000Y-77680000D03*
X188920000Y-80220000D03*
X188920000Y-82760000D03*
X188920000Y-85300000D03*
X188920000Y-87840000D03*
X188920000Y-90380000D03*
X188920000Y-92920000D03*
X188920000Y-95460000D03*
X188920000Y-98000000D03*
X188920000Y-100540000D03*
X188920000Y-103080000D03*
X188920000Y-105620000D03*
X194000000Y-26880000D03*
X194000000Y-29420000D03*
X194000000Y-31960000D03*
X194000000Y-34500000D03*
X194000000Y-37040000D03*
X194000000Y-39580000D03*
X194000000Y-42120000D03*
X194000000Y-44660000D03*
X194000000Y-47200000D03*
X194000000Y-49740000D03*
X194000000Y-52280000D03*
X194000000Y-54820000D03*
X194000000Y-57360000D03*
X194000000Y-59900000D03*
X194000000Y-62440000D03*
X194000000Y-64980000D03*
X194000000Y-67520000D03*
X194000000Y-70060000D03*
X194000000Y-72600000D03*
X194000000Y-75140000D03*
X194000000Y-77680000D03*
X194000000Y-80220000D03*
X194000000Y-82760000D03*
X194000000Y-85300000D03*
X194000000Y-87840000D03*
X194000000Y-90380000D03*
X194000000Y-92920000D03*
X194000000Y-95460000D03*
X194000000Y-98000000D03*
X194000000Y-100540000D03*
X194000000Y-103080000D03*
X194000000Y-105620000D03*
%TD*%
D14*
%TO.C,H14*%
X192500000Y-134000000D03*
%TD*%
%TO.C,H15*%
X9500000Y-5000000D03*
%TD*%
%TO.C,H10*%
X140500000Y-134500000D03*
%TD*%
D11*
%TO.C,J64*%
X165760000Y-21250000D03*
X165760000Y-111250000D03*
D12*
X163520000Y-26880000D03*
D13*
X163520000Y-29420000D03*
X163520000Y-31960000D03*
X163520000Y-34500000D03*
X163520000Y-37040000D03*
X163520000Y-39580000D03*
X163520000Y-42120000D03*
X163520000Y-44660000D03*
X163520000Y-47200000D03*
X163520000Y-49740000D03*
X163520000Y-52280000D03*
X163520000Y-54820000D03*
X163520000Y-57360000D03*
X163520000Y-59900000D03*
X163520000Y-62440000D03*
X163520000Y-64980000D03*
X163520000Y-67520000D03*
X163520000Y-70060000D03*
X163520000Y-72600000D03*
X163520000Y-75140000D03*
X163520000Y-77680000D03*
X163520000Y-80220000D03*
X163520000Y-82760000D03*
X163520000Y-85300000D03*
X163520000Y-87840000D03*
X163520000Y-90380000D03*
X163520000Y-92920000D03*
X163520000Y-95460000D03*
X163520000Y-98000000D03*
X163520000Y-100540000D03*
X163520000Y-103080000D03*
X163520000Y-105620000D03*
X168600000Y-26880000D03*
X168600000Y-29420000D03*
X168600000Y-31960000D03*
X168600000Y-34500000D03*
X168600000Y-37040000D03*
X168600000Y-39580000D03*
X168600000Y-42120000D03*
X168600000Y-44660000D03*
X168600000Y-47200000D03*
X168600000Y-49740000D03*
X168600000Y-52280000D03*
X168600000Y-54820000D03*
X168600000Y-57360000D03*
X168600000Y-59900000D03*
X168600000Y-62440000D03*
X168600000Y-64980000D03*
X168600000Y-67520000D03*
X168600000Y-70060000D03*
X168600000Y-72600000D03*
X168600000Y-75140000D03*
X168600000Y-77680000D03*
X168600000Y-80220000D03*
X168600000Y-82760000D03*
X168600000Y-85300000D03*
X168600000Y-87840000D03*
X168600000Y-90380000D03*
X168600000Y-92920000D03*
X168600000Y-95460000D03*
X168600000Y-98000000D03*
X168600000Y-100540000D03*
X168600000Y-103080000D03*
X168600000Y-105620000D03*
%TD*%
D14*
%TO.C,H13*%
X192000000Y-3500000D03*
%TD*%
%TO.C,H1*%
X38600000Y-5000000D03*
%TD*%
%TO.C,H2*%
X39000000Y-127500000D03*
%TD*%
%TO.C,H9*%
X141500000Y-3000000D03*
%TD*%
%TO.C,H5*%
X89000000Y-1500000D03*
%TD*%
D11*
%TO.C,J54*%
X140360000Y-21250000D03*
X140360000Y-111250000D03*
D12*
X138120000Y-26880000D03*
D13*
X138120000Y-29420000D03*
X138120000Y-31960000D03*
X138120000Y-34500000D03*
X138120000Y-37040000D03*
X138120000Y-39580000D03*
X138120000Y-42120000D03*
X138120000Y-44660000D03*
X138120000Y-47200000D03*
X138120000Y-49740000D03*
X138120000Y-52280000D03*
X138120000Y-54820000D03*
X138120000Y-57360000D03*
X138120000Y-59900000D03*
X138120000Y-62440000D03*
X138120000Y-64980000D03*
X138120000Y-67520000D03*
X138120000Y-70060000D03*
X138120000Y-72600000D03*
X138120000Y-75140000D03*
X138120000Y-77680000D03*
X138120000Y-80220000D03*
X138120000Y-82760000D03*
X138120000Y-85300000D03*
X138120000Y-87840000D03*
X138120000Y-90380000D03*
X138120000Y-92920000D03*
X138120000Y-95460000D03*
X138120000Y-98000000D03*
X138120000Y-100540000D03*
X138120000Y-103080000D03*
X138120000Y-105620000D03*
X143200000Y-26880000D03*
X143200000Y-29420000D03*
X143200000Y-31960000D03*
X143200000Y-34500000D03*
X143200000Y-37040000D03*
X143200000Y-39580000D03*
X143200000Y-42120000D03*
X143200000Y-44660000D03*
X143200000Y-47200000D03*
X143200000Y-49740000D03*
X143200000Y-52280000D03*
X143200000Y-54820000D03*
X143200000Y-57360000D03*
X143200000Y-59900000D03*
X143200000Y-62440000D03*
X143200000Y-64980000D03*
X143200000Y-67520000D03*
X143200000Y-70060000D03*
X143200000Y-72600000D03*
X143200000Y-75140000D03*
X143200000Y-77680000D03*
X143200000Y-80220000D03*
X143200000Y-82760000D03*
X143200000Y-85300000D03*
X143200000Y-87840000D03*
X143200000Y-90380000D03*
X143200000Y-92920000D03*
X143200000Y-95460000D03*
X143200000Y-98000000D03*
X143200000Y-100540000D03*
X143200000Y-103080000D03*
X143200000Y-105620000D03*
%TD*%
D14*
%TO.C,H16*%
X9500000Y-131000000D03*
%TD*%
D15*
%TO.C,D1*%
X24455000Y-65615000D03*
D16*
X24455000Y-80855000D03*
%TD*%
D14*
%TO.C,H7*%
X114500000Y-1500000D03*
%TD*%
%TO.C,H11*%
X167000000Y-2500000D03*
%TD*%
D11*
%TO.C,J44*%
X114960000Y-21250000D03*
X114960000Y-111250000D03*
D12*
X112720000Y-26880000D03*
D13*
X112720000Y-29420000D03*
X112720000Y-31960000D03*
X112720000Y-34500000D03*
X112720000Y-37040000D03*
X112720000Y-39580000D03*
X112720000Y-42120000D03*
X112720000Y-44660000D03*
X112720000Y-47200000D03*
X112720000Y-49740000D03*
X112720000Y-52280000D03*
X112720000Y-54820000D03*
X112720000Y-57360000D03*
X112720000Y-59900000D03*
X112720000Y-62440000D03*
X112720000Y-64980000D03*
X112720000Y-67520000D03*
X112720000Y-70060000D03*
X112720000Y-72600000D03*
X112720000Y-75140000D03*
X112720000Y-77680000D03*
X112720000Y-80220000D03*
X112720000Y-82760000D03*
X112720000Y-85300000D03*
X112720000Y-87840000D03*
X112720000Y-90380000D03*
X112720000Y-92920000D03*
X112720000Y-95460000D03*
X112720000Y-98000000D03*
X112720000Y-100540000D03*
X112720000Y-103080000D03*
X112720000Y-105620000D03*
X117800000Y-26880000D03*
X117800000Y-29420000D03*
X117800000Y-31960000D03*
X117800000Y-34500000D03*
X117800000Y-37040000D03*
X117800000Y-39580000D03*
X117800000Y-42120000D03*
X117800000Y-44660000D03*
X117800000Y-47200000D03*
X117800000Y-49740000D03*
X117800000Y-52280000D03*
X117800000Y-54820000D03*
X117800000Y-57360000D03*
X117800000Y-59900000D03*
X117800000Y-62440000D03*
X117800000Y-64980000D03*
X117800000Y-67520000D03*
X117800000Y-70060000D03*
X117800000Y-72600000D03*
X117800000Y-75140000D03*
X117800000Y-77680000D03*
X117800000Y-80220000D03*
X117800000Y-82760000D03*
X117800000Y-85300000D03*
X117800000Y-87840000D03*
X117800000Y-90380000D03*
X117800000Y-92920000D03*
X117800000Y-95460000D03*
X117800000Y-98000000D03*
X117800000Y-100540000D03*
X117800000Y-103080000D03*
X117800000Y-105620000D03*
%TD*%
D14*
%TO.C,H12*%
X167000000Y-134000000D03*
%TD*%
%TO.C,H4*%
X65000000Y-137000000D03*
%TD*%
%TO.C,H3*%
X65500000Y-1000000D03*
%TD*%
D11*
%TO.C,J24*%
X64160000Y-21250000D03*
X64160000Y-111250000D03*
D12*
X61920000Y-26880000D03*
D13*
X61920000Y-29420000D03*
X61920000Y-31960000D03*
X61920000Y-34500000D03*
X61920000Y-37040000D03*
X61920000Y-39580000D03*
X61920000Y-42120000D03*
X61920000Y-44660000D03*
X61920000Y-47200000D03*
X61920000Y-49740000D03*
X61920000Y-52280000D03*
X61920000Y-54820000D03*
X61920000Y-57360000D03*
X61920000Y-59900000D03*
X61920000Y-62440000D03*
X61920000Y-64980000D03*
X61920000Y-67520000D03*
X61920000Y-70060000D03*
X61920000Y-72600000D03*
X61920000Y-75140000D03*
X61920000Y-77680000D03*
X61920000Y-80220000D03*
X61920000Y-82760000D03*
X61920000Y-85300000D03*
X61920000Y-87840000D03*
X61920000Y-90380000D03*
X61920000Y-92920000D03*
X61920000Y-95460000D03*
X61920000Y-98000000D03*
X61920000Y-100540000D03*
X61920000Y-103080000D03*
X61920000Y-105620000D03*
X67000000Y-26880000D03*
X67000000Y-29420000D03*
X67000000Y-31960000D03*
X67000000Y-34500000D03*
X67000000Y-37040000D03*
X67000000Y-39580000D03*
X67000000Y-42120000D03*
X67000000Y-44660000D03*
X67000000Y-47200000D03*
X67000000Y-49740000D03*
X67000000Y-52280000D03*
X67000000Y-54820000D03*
X67000000Y-57360000D03*
X67000000Y-59900000D03*
X67000000Y-62440000D03*
X67000000Y-64980000D03*
X67000000Y-67520000D03*
X67000000Y-70060000D03*
X67000000Y-72600000D03*
X67000000Y-75140000D03*
X67000000Y-77680000D03*
X67000000Y-80220000D03*
X67000000Y-82760000D03*
X67000000Y-85300000D03*
X67000000Y-87840000D03*
X67000000Y-90380000D03*
X67000000Y-92920000D03*
X67000000Y-95460000D03*
X67000000Y-98000000D03*
X67000000Y-100540000D03*
X67000000Y-103080000D03*
X67000000Y-105620000D03*
%TD*%
D11*
%TO.C,J34*%
X89560000Y-21250000D03*
X89560000Y-111250000D03*
D12*
X87320000Y-26880000D03*
D13*
X87320000Y-29420000D03*
X87320000Y-31960000D03*
X87320000Y-34500000D03*
X87320000Y-37040000D03*
X87320000Y-39580000D03*
X87320000Y-42120000D03*
X87320000Y-44660000D03*
X87320000Y-47200000D03*
X87320000Y-49740000D03*
X87320000Y-52280000D03*
X87320000Y-54820000D03*
X87320000Y-57360000D03*
X87320000Y-59900000D03*
X87320000Y-62440000D03*
X87320000Y-64980000D03*
X87320000Y-67520000D03*
X87320000Y-70060000D03*
X87320000Y-72600000D03*
X87320000Y-75140000D03*
X87320000Y-77680000D03*
X87320000Y-80220000D03*
X87320000Y-82760000D03*
X87320000Y-85300000D03*
X87320000Y-87840000D03*
X87320000Y-90380000D03*
X87320000Y-92920000D03*
X87320000Y-95460000D03*
X87320000Y-98000000D03*
X87320000Y-100540000D03*
X87320000Y-103080000D03*
X87320000Y-105620000D03*
X92400000Y-26880000D03*
X92400000Y-29420000D03*
X92400000Y-31960000D03*
X92400000Y-34500000D03*
X92400000Y-37040000D03*
X92400000Y-39580000D03*
X92400000Y-42120000D03*
X92400000Y-44660000D03*
X92400000Y-47200000D03*
X92400000Y-49740000D03*
X92400000Y-52280000D03*
X92400000Y-54820000D03*
X92400000Y-57360000D03*
X92400000Y-59900000D03*
X92400000Y-62440000D03*
X92400000Y-64980000D03*
X92400000Y-67520000D03*
X92400000Y-70060000D03*
X92400000Y-72600000D03*
X92400000Y-75140000D03*
X92400000Y-77680000D03*
X92400000Y-80220000D03*
X92400000Y-82760000D03*
X92400000Y-85300000D03*
X92400000Y-87840000D03*
X92400000Y-90380000D03*
X92400000Y-92920000D03*
X92400000Y-95460000D03*
X92400000Y-98000000D03*
X92400000Y-100540000D03*
X92400000Y-103080000D03*
X92400000Y-105620000D03*
%TD*%
D10*
%TO.C,J63*%
X152090000Y-100540000D03*
%TD*%
%TO.C,J7*%
X7310000Y-26880000D03*
%TD*%
%TO.C,J45*%
X122880000Y-31960000D03*
%TD*%
%TO.C,J33*%
X75890000Y-100540000D03*
%TD*%
%TO.C,J25*%
X72080000Y-31960000D03*
%TD*%
%TO.C,J36*%
X97480000Y-82760000D03*
%TD*%
%TO.C,J57*%
X148280000Y-95460000D03*
%TD*%
%TO.C,J53*%
X126690000Y-100540000D03*
%TD*%
%TO.C,J50*%
X133265585Y-31948200D03*
%TD*%
%TO.C,J40*%
X107461145Y-31960000D03*
%TD*%
%TO.C,J70*%
X183840000Y-31960000D03*
%TD*%
%TO.C,J38*%
X98115000Y-98000000D03*
%TD*%
%TO.C,J51*%
X133040000Y-95460000D03*
%TD*%
%TO.C,J14*%
X46680000Y-95460000D03*
%TD*%
%TO.C,J56*%
X148280000Y-82760000D03*
%TD*%
%TO.C,J67*%
X173680000Y-95460000D03*
%TD*%
%TO.C,J71*%
X183840000Y-95460000D03*
%TD*%
%TO.C,J5*%
X13025000Y-26880000D03*
%TD*%
%TO.C,J46*%
X122880000Y-82760000D03*
%TD*%
%TO.C,J75*%
X199080000Y-31960000D03*
%TD*%
%TO.C,J28*%
X72715000Y-98000000D03*
%TD*%
%TO.C,J62*%
X152090000Y-98000000D03*
%TD*%
D17*
%TO.C,J1*%
X7525000Y-41685000D03*
D18*
X7525000Y-45885000D03*
X7525000Y-50085000D03*
X7525000Y-54285000D03*
X7525000Y-58485000D03*
X7525000Y-62685000D03*
X7525000Y-66885000D03*
X7525000Y-71085000D03*
X7525000Y-75285000D03*
X7525000Y-79485000D03*
X7525000Y-83685000D03*
X7525000Y-87885000D03*
X13025000Y-41685000D03*
X13025000Y-45885000D03*
X13025000Y-50085000D03*
X13025000Y-54285000D03*
X13025000Y-58485000D03*
X13025000Y-62685000D03*
X13025000Y-66885000D03*
X13025000Y-71085000D03*
X13025000Y-75285000D03*
X13025000Y-79485000D03*
X13025000Y-83685000D03*
X13025000Y-87885000D03*
%TD*%
D10*
%TO.C,J30*%
X82240000Y-31960000D03*
%TD*%
%TO.C,J60*%
X158440000Y-31960000D03*
%TD*%
%TO.C,J77*%
X199080000Y-95460000D03*
%TD*%
%TO.C,J39*%
X98115000Y-100540000D03*
%TD*%
%TO.C,J32*%
X75890000Y-98000000D03*
%TD*%
%TO.C,J68*%
X174315000Y-98000000D03*
%TD*%
%TO.C,J66*%
X173680000Y-82760000D03*
%TD*%
%TO.C,J29*%
X72715000Y-100540000D03*
%TD*%
%TO.C,J23*%
X50490000Y-100540000D03*
%TD*%
%TO.C,J31*%
X82240000Y-95460000D03*
%TD*%
%TO.C,J61*%
X158440000Y-95460000D03*
%TD*%
%TO.C,J47*%
X122880000Y-95460000D03*
%TD*%
%TO.C,J55*%
X148280000Y-31960000D03*
%TD*%
%TO.C,J27*%
X72080000Y-95460000D03*
%TD*%
%TO.C,J10*%
X28265000Y-84030000D03*
%TD*%
%TO.C,J8*%
X24455000Y-26880000D03*
%TD*%
%TO.C,J41*%
X107640000Y-95460000D03*
%TD*%
%TO.C,J4*%
X20010000Y-92920000D03*
%TD*%
%TO.C,J13*%
X46680000Y-31960000D03*
%TD*%
%TO.C,J49*%
X123515000Y-100540000D03*
%TD*%
%TO.C,J76*%
X199080000Y-82760000D03*
%TD*%
%TO.C,J18*%
X47315000Y-98000000D03*
%TD*%
%TO.C,J42*%
X101290000Y-98000000D03*
%TD*%
%TO.C,J59*%
X148915000Y-100540000D03*
%TD*%
%TO.C,J11*%
X46690000Y-82760000D03*
%TD*%
%TO.C,J72*%
X177490000Y-98000000D03*
%TD*%
D19*
%TO.C,F1*%
X16200000Y-104350000D03*
X21280000Y-104340000D03*
%TD*%
D10*
%TO.C,J9*%
X28265000Y-80855000D03*
%TD*%
%TO.C,J2*%
X11755000Y-97365000D03*
%TD*%
%TO.C,J43*%
X101290000Y-100540000D03*
%TD*%
%TO.C,J69*%
X174315000Y-100540000D03*
%TD*%
%TO.C,J19*%
X47315000Y-100540000D03*
%TD*%
%TO.C,J65*%
X173680000Y-31960000D03*
%TD*%
%TO.C,J37*%
X97480000Y-95460000D03*
%TD*%
%TO.C,J21*%
X56205000Y-95460000D03*
%TD*%
%TO.C,J12*%
X31440000Y-31960000D03*
%TD*%
%TO.C,J22*%
X50490000Y-98000000D03*
%TD*%
%TO.C,J20*%
X56840000Y-31960000D03*
%TD*%
%TO.C,J16*%
X25725000Y-98000000D03*
%TD*%
%TO.C,J6*%
X18740000Y-26880000D03*
%TD*%
%TO.C,J26*%
X72080000Y-82760000D03*
%TD*%
%TO.C,J58*%
X148915000Y-98000000D03*
%TD*%
%TO.C,J73*%
X177490000Y-100540000D03*
%TD*%
%TO.C,J52*%
X126690000Y-98000000D03*
%TD*%
%TO.C,J35*%
X97480000Y-31960000D03*
%TD*%
%TO.C,J48*%
X123515000Y-98000000D03*
%TD*%
%TO.C,J17*%
X25725000Y-100540000D03*
%TD*%
%TO.C,J15*%
X31440000Y-95460000D03*
%TD*%
%TO.C,J3*%
X11755000Y-101175000D03*
%TD*%
M02*
