M48
; DRILL file {KiCad 8.0.9-8.0.9-0~ubuntu22.04.1} date 2025-03-29T10:13:00+0100
; FORMAT={-:-/ absolute / inch / decimal}
; #@! TF.CreationDate,2025-03-29T10:13:00+01:00
; #@! TF.GenerationSoftware,Kicad,Pcbnew,8.0.9-8.0.9-0~ubuntu22.04.1
; #@! TF.FileFunction,MixedPlating,1,2
FMAT,2
INCH
; #@! TA.AperFunction,Plated,PTH,ViaDrill
T1C0.0157
; #@! TA.AperFunction,Plated,PTH,ComponentDrill
T2C0.0315
; #@! TA.AperFunction,Plated,PTH,ComponentDrill
T3C0.0354
; #@! TA.AperFunction,Plated,PTH,ComponentDrill
T4C0.0394
; #@! TA.AperFunction,Plated,PTH,ComponentDrill
T5C0.0472
; #@! TA.AperFunction,Plated,PTH,ComponentDrill
T6C0.0630
; #@! TA.AperFunction,NonPlated,NPTH,ComponentDrill
T7C0.1122
; #@! TA.AperFunction,NonPlated,NPTH,ComponentDrill
T8C0.1181
%
G90
G05
T1
X2.665Y-5.315
X2.67Y-2.535
X2.67Y-3.6
X2.67Y-4.395
X2.67Y-4.885
X2.67Y-4.98
X2.67Y-5.1
X2.675Y-2.22
X2.675Y-3.16
X2.675Y-3.46
X2.675Y-3.985
X2.675Y-4.14
X2.675Y-4.285
X2.675Y-4.595
X2.675Y-4.67
X2.675Y-4.775
X2.675Y-5.205
X2.675Y-5.435
X2.68Y-2.44
X2.68Y-2.63
X2.68Y-3.03
X2.68Y-3.325
X2.68Y-3.895
X2.68Y-4.48
X2.685Y-2.82
X2.685Y-3.765
X2.695Y-5.635
X2.875Y-5.825
X2.94Y-2.555
X2.95Y-3.25
X2.98Y-4.737
X3.1Y-4.675
X3.125Y-3.775
X3.125Y-4.15
X3.145Y-5.065
X3.15Y-2.115
X3.155Y-4.815
X3.24Y-4.145
X3.24Y-4.2
X3.24Y-4.6
X3.24Y-5.135
X3.2549Y-4.06
X3.3461Y-4.687
X3.365Y-2.025
X3.425Y-3.2972
X3.44Y-4.73
X3.47Y-4.78
X3.485Y-5.36
X3.49Y-4.83
X3.5Y-3.8
X3.505Y-3.535
X3.52Y-4.87
X3.5444Y-4.935
X3.5644Y-4.9868
X3.59Y-5.0368
X3.595Y-4.16
X3.615Y-3.595
X3.615Y-3.945
X3.635Y-5.085
X3.64Y-3.425
X3.645Y-2.535
X3.645Y-2.94
X3.655Y-3.085
X3.655Y-3.24
X3.66Y-2.8
X3.68Y-3.53
X3.705Y-3.345
X3.7199Y-3.575
X3.72Y-3.295
X3.735Y-3.245
X3.7357Y-3.626
X3.745Y-2.5
X3.7514Y-3.1956
X3.7514Y-3.675
X3.7672Y-3.1458
X3.7672Y-3.725
X3.78Y-3.775
X3.785Y-3.0956
X3.8Y-2.255
X3.8006Y-3.8238
X3.805Y-2.805
X3.81Y-2.58
X3.81Y-3.065
X3.8144Y-3.8608
X3.8494Y-2.9956
X3.86Y-3.925
X3.8706Y-3.3956
X3.875Y-2.75
X3.915Y-3.03
X3.95Y-2.02
X3.955Y-2.85
X3.955Y-3.5
X3.965Y-5.335
X3.965Y-5.575
X3.98Y-2.585
X4.0439Y-3.925
X4.055Y-2.82
X4.075Y-5.585
X4.09Y-5.35
X4.125Y-3.7
X4.125Y-3.6487
X4.13Y-3.75
X4.143Y-4.725
X4.155Y-2.55
X4.1551Y-2.5
X4.1551Y-2.75
X4.18Y-4.875
X4.2Y-3.075
X4.2Y-3.925
X4.235Y-3.12
X4.24Y-3.34
X4.26Y-2.945
X4.335Y-5.63
X4.35Y-2.6
X4.4061Y-3.475
X4.42Y-2.2
X4.425Y-2.035
X4.445Y-2.55
X4.46Y-2.67
X4.47Y-2.815
X4.485Y-3.99
X4.49Y-4.62
X4.495Y-4.325
X4.5Y-4.135
X4.5Y-4.42
X4.5Y-4.725
X4.505Y-2.125
X4.505Y-4.215
X4.515Y-4.83
X4.515Y-5.125
X4.525Y-3.4
X4.525Y-3.925
X4.525Y-4.525
X4.565Y-5.63
X4.615Y-4.62
X4.62Y-2.665
X4.62Y-4.73
X4.62Y-4.96
X4.625Y-3.41
X4.625Y-3.485
X4.63Y-2.44
X4.63Y-2.95
X4.635Y-2.225
X4.635Y-4.435
X4.635Y-4.52
X4.64Y-2.815
X4.645Y-4.33
X4.645Y-4.825
X4.65Y-4.12
X4.65Y-4.22
X4.67Y-3.985
X4.6974Y-4.725
X4.7132Y-3.4
X4.7132Y-4.075
X4.715Y-5.4256
X4.7224Y-2.425
X4.75Y-3.825
X4.8Y-3.3
X4.8Y-3.35
X4.825Y-3.875
X4.875Y-2.495
X4.875Y-3.25
X4.925Y-3.15
X4.95Y-3.2
X4.95Y-5.19
X5.0Y-2.9421
X5.0014Y-5.2156
X5.05Y-3.0
X5.05Y-5.2456
X5.1Y-3.1
X5.1Y-5.2656
X5.125Y-5.3106
X5.15Y-2.9421
X5.2Y-2.6
X5.2Y-3.05
X5.2Y-4.725
X5.2Y-5.3506
X5.225Y-4.225
X5.225Y-5.025
X5.245Y-2.55
X5.25Y-5.375
X5.275Y-3.55
X5.275Y-5.415
X5.3Y-2.605
X5.325Y-3.6
X5.35Y-3.9
X5.375Y-3.65
X5.4Y-3.85
X5.425Y-3.7
X5.45Y-3.8
X5.4756Y-3.75
X5.495Y-5.46
X5.5Y-2.475
X5.5Y-3.4579
X5.525Y-4.625
X5.5545Y-4.125
X5.725Y-3.935
X5.74Y-5.485
X5.7474Y-4.65
X5.7632Y-3.575
X5.7724Y-2.4
X5.8Y-3.82
X5.825Y-3.32
X5.85Y-3.36
X5.875Y-3.875
X5.925Y-2.51
X5.925Y-3.225
X5.975Y-3.155
X5.9957Y-5.1762
X6.0Y-3.19
X6.05Y-3.045
X6.05Y-5.2
X6.1Y-3.075
X6.1Y-5.22
X6.15Y-3.125
X6.15Y-5.26
X6.2Y-3.05
X6.2Y-5.32
X6.235Y-5.355
X6.25Y-3.1
X6.25Y-4.575
X6.275Y-3.95
X6.275Y-4.025
X6.275Y-5.375
X6.295Y-2.55
X6.325Y-3.375
X6.325Y-5.42
X6.35Y-2.61
X6.375Y-3.325
X6.375Y-3.545
X6.4Y-3.92
X6.425Y-3.685
X6.425Y-3.1
X6.45Y-3.275
X6.45Y-3.89
X6.475Y-3.1
X6.475Y-3.73
X6.5Y-3.225
X6.5Y-3.85
X6.525Y-3.125
X6.525Y-3.78
X6.55Y-2.425
X6.55Y-3.175
X6.55Y-3.4579
X6.55Y-5.5
X6.5526Y-4.65
X6.66Y-5.66
X6.715Y-5.645
X6.725Y-2.59
X7.03Y-3.785
X7.08Y-4.98
X7.105Y-2.26
X7.105Y-5.625
X7.145Y-4.35
X7.17Y-3.225
X7.4728Y-2.5344
X7.615Y-4.975
X7.615Y-5.655
X7.665Y-2.84
X7.755Y-3.165
X7.785Y-4.795
X7.785Y-5.59
X7.88Y-3.625
X7.94Y-4.325
X7.98Y-5.145
X8.075Y-5.345
X8.115Y-4.935
X8.2759Y-5.145
X8.28Y-4.88
X8.28Y-5.445
X8.45Y-4.95
X8.485Y-5.35
X8.585Y-5.145
T2
X3.25Y-2.45
X3.25Y-2.55
X3.25Y-2.65
X3.25Y-2.75
X3.25Y-2.85
X3.25Y-2.95
X3.25Y-3.05
X3.25Y-3.15
X3.25Y-3.25
X3.25Y-3.35
X3.55Y-2.45
X3.55Y-2.55
X3.55Y-2.65
X3.55Y-2.75
X3.55Y-2.85
X3.55Y-2.95
X3.55Y-3.05
X3.55Y-3.15
X3.55Y-3.25
X3.55Y-3.35
X4.4Y-4.075
X4.4Y-4.175
X4.4Y-4.275
X4.4Y-4.375
X4.4Y-4.475
X4.4Y-4.575
X4.4Y-4.675
X4.4Y-4.775
X4.4Y-4.875
X8.065Y-2.3044
X8.065Y-2.4044
X8.065Y-2.5044
X8.065Y-2.6044
X8.065Y-2.7044
X8.065Y-2.8044
X8.065Y-2.9044
X8.065Y-3.0044
X8.065Y-3.1044
X8.215Y-2.405
X8.215Y-2.505
X8.215Y-2.605
X8.215Y-2.705
X8.215Y-2.805
X8.215Y-2.905
X8.215Y-3.005
X8.215Y-3.105
X8.515Y-2.405
X8.515Y-2.505
X8.515Y-2.605
X8.515Y-2.705
X8.515Y-2.805
X8.515Y-2.905
X8.515Y-3.005
X8.515Y-3.105
T3
X8.525Y-3.27
X8.525Y-3.37
T4
X2.5709Y-2.3871
X2.5709Y-2.4871
X2.5709Y-2.5871
X2.5709Y-2.6871
X2.5709Y-2.7871
X2.5709Y-2.8871
X2.5709Y-2.9871
X2.5709Y-3.0871
X2.5709Y-3.1871
X2.5709Y-3.2871
X2.5709Y-3.3871
X2.5709Y-3.4871
X2.5709Y-3.5871
X2.5709Y-3.6871
X2.5709Y-3.7871
X2.5709Y-3.8871
X2.5709Y-3.9871
X2.5709Y-4.0871
X2.5709Y-4.1871
X2.5709Y-4.2871
X2.5709Y-4.3871
X2.5709Y-4.4871
X2.5709Y-4.5871
X2.5709Y-4.6871
X2.5709Y-4.7871
X2.5709Y-4.8871
X2.5709Y-4.9871
X2.5709Y-5.0871
X2.5709Y-5.1871
X2.5709Y-5.2871
X2.5709Y-5.3871
X2.5709Y-5.4871
X2.7709Y-2.3871
X2.7709Y-2.4871
X2.7709Y-2.5871
X2.7709Y-2.6871
X2.7709Y-2.7871
X2.7709Y-2.8871
X2.7709Y-2.9871
X2.7709Y-3.0871
X2.7709Y-3.1871
X2.7709Y-3.2871
X2.7709Y-3.3871
X2.7709Y-3.4871
X2.7709Y-3.5871
X2.7709Y-3.6871
X2.7709Y-3.7871
X2.7709Y-3.8871
X2.7709Y-3.9871
X2.7709Y-4.0871
X2.7709Y-4.1871
X2.7709Y-4.2871
X2.7709Y-4.3871
X2.7709Y-4.4871
X2.7709Y-4.5871
X2.7709Y-4.6871
X2.7709Y-4.7871
X2.7709Y-4.8871
X2.7709Y-4.9871
X2.7709Y-5.0871
X2.7709Y-5.1871
X2.7709Y-5.2871
X2.7709Y-5.3871
X2.7709Y-5.4871
X8.215Y-3.965
X8.215Y-4.065
X8.37Y-3.965
X8.37Y-4.065
X8.52Y-3.965
X8.52Y-4.065
T5
X3.21Y-5.28
X3.21Y-5.68
T6
X8.555Y-4.63
T7
X2.4709Y-2.1871
X2.4709Y-5.6871
T8
X2.4709Y-2.187
X2.4709Y-5.687
X3.0122Y-2.187
X3.0122Y-5.687
X8.5209Y-2.187
X8.5209Y-5.687
M30
