G04 #@! TF.GenerationSoftware,KiCad,Pcbnew,8.0.9-8.0.9-0~ubuntu22.04.1*
G04 #@! TF.CreationDate,2025-03-29T10:12:52+01:00*
G04 #@! TF.ProjectId,CPU09RAM,43505530-3952-4414-9d2e-6b696361645f,rev?*
G04 #@! TF.SameCoordinates,Original*
G04 #@! TF.FileFunction,Paste,Bot*
G04 #@! TF.FilePolarity,Positive*
%FSLAX46Y46*%
G04 Gerber Fmt 4.6, Leading zero omitted, Abs format (unit mm)*
G04 Created by KiCad (PCBNEW 8.0.9-8.0.9-0~ubuntu22.04.1) date 2025-03-29 10:12:52*
%MOMM*%
%LPD*%
G01*
G04 APERTURE LIST*
G04 Aperture macros list*
%AMRoundRect*
0 Rectangle with rounded corners*
0 $1 Rounding radius*
0 $2 $3 $4 $5 $6 $7 $8 $9 X,Y pos of 4 corners*
0 Add a 4 corners polygon primitive as box body*
4,1,4,$2,$3,$4,$5,$6,$7,$8,$9,$2,$3,0*
0 Add four circle primitives for the rounded corners*
1,1,$1+$1,$2,$3*
1,1,$1+$1,$4,$5*
1,1,$1+$1,$6,$7*
1,1,$1+$1,$8,$9*
0 Add four rect primitives between the rounded corners*
20,1,$1+$1,$2,$3,$4,$5,0*
20,1,$1+$1,$4,$5,$6,$7,0*
20,1,$1+$1,$6,$7,$8,$9,0*
20,1,$1+$1,$8,$9,$2,$3,0*%
G04 Aperture macros list end*
%ADD10RoundRect,0.150000X0.800000X0.150000X-0.800000X0.150000X-0.800000X-0.150000X0.800000X-0.150000X0*%
%ADD11RoundRect,0.150000X0.875000X0.150000X-0.875000X0.150000X-0.875000X-0.150000X0.875000X-0.150000X0*%
%ADD12RoundRect,0.250000X-0.412500X-0.650000X0.412500X-0.650000X0.412500X0.650000X-0.412500X0.650000X0*%
%ADD13RoundRect,0.150000X-0.800000X-0.150000X0.800000X-0.150000X0.800000X0.150000X-0.800000X0.150000X0*%
%ADD14RoundRect,0.250000X0.400000X0.625000X-0.400000X0.625000X-0.400000X-0.625000X0.400000X-0.625000X0*%
%ADD15R,5.100000X5.100000*%
%ADD16RoundRect,0.150000X0.825000X0.150000X-0.825000X0.150000X-0.825000X-0.150000X0.825000X-0.150000X0*%
G04 APERTURE END LIST*
D10*
X84892000Y-105410000D03*
X84892000Y-106680000D03*
X84892000Y-107950000D03*
X84892000Y-109220000D03*
X84892000Y-110490000D03*
X84892000Y-111760000D03*
X84892000Y-113030000D03*
X84892000Y-114300000D03*
X84892000Y-115570000D03*
X84892000Y-116840000D03*
X75692000Y-116840000D03*
X75692000Y-115570000D03*
X75692000Y-114300000D03*
X75692000Y-113030000D03*
X75692000Y-111760000D03*
X75692000Y-110490000D03*
X75692000Y-109220000D03*
X75692000Y-107950000D03*
X75692000Y-106680000D03*
X75692000Y-105410000D03*
D11*
X85030598Y-119045828D03*
X85030598Y-120315828D03*
X85030598Y-121585828D03*
X85030598Y-122855828D03*
X85030598Y-124125828D03*
X85030598Y-125395828D03*
X85030598Y-126665828D03*
X85030598Y-127935828D03*
X85030598Y-129205828D03*
X85030598Y-130475828D03*
X75730598Y-130475828D03*
X75730598Y-129205828D03*
X75730598Y-127935828D03*
X75730598Y-126665828D03*
X75730598Y-125395828D03*
X75730598Y-124125828D03*
X75730598Y-122855828D03*
X75730598Y-121585828D03*
X75730598Y-120315828D03*
X75730598Y-119045828D03*
D12*
X154940000Y-60325000D03*
X158065000Y-60325000D03*
D13*
X102733624Y-86247398D03*
X102733624Y-84977398D03*
X102733624Y-83707398D03*
X102733624Y-82437398D03*
X102733624Y-81167398D03*
X102733624Y-79897398D03*
X102733624Y-78627398D03*
X102733624Y-77357398D03*
X102733624Y-76087398D03*
X102733624Y-74817398D03*
X111933624Y-74817398D03*
X111933624Y-76087398D03*
X111933624Y-77357398D03*
X111933624Y-78627398D03*
X111933624Y-79897398D03*
X111933624Y-81167398D03*
X111933624Y-82437398D03*
X111933624Y-83707398D03*
X111933624Y-84977398D03*
X111933624Y-86247398D03*
D14*
X211507000Y-85852000D03*
X208407000Y-85852000D03*
D12*
X154647500Y-139700000D03*
X157772500Y-139700000D03*
X154990000Y-119380000D03*
X158115000Y-119380000D03*
X128358500Y-138938000D03*
X131483500Y-138938000D03*
D13*
X102715000Y-99695000D03*
X102715000Y-98425000D03*
X102715000Y-97155000D03*
X102715000Y-95885000D03*
X102715000Y-94615000D03*
X102715000Y-93345000D03*
X102715000Y-92075000D03*
X102715000Y-90805000D03*
X102715000Y-89535000D03*
X102715000Y-88265000D03*
X111915000Y-88265000D03*
X111915000Y-89535000D03*
X111915000Y-90805000D03*
X111915000Y-92075000D03*
X111915000Y-93345000D03*
X111915000Y-94615000D03*
X111915000Y-95885000D03*
X111915000Y-97155000D03*
X111915000Y-98425000D03*
X111915000Y-99695000D03*
D15*
X210207244Y-143483000D03*
X210207244Y-117883000D03*
D12*
X128320000Y-116840000D03*
X131445000Y-116840000D03*
X155625000Y-92075000D03*
X158750000Y-92075000D03*
D10*
X199009000Y-64374000D03*
X199009000Y-65644000D03*
X199009000Y-66914000D03*
X199009000Y-68184000D03*
X199009000Y-69454000D03*
X199009000Y-70724000D03*
X199009000Y-71994000D03*
X199009000Y-73264000D03*
X199009000Y-74534000D03*
X199009000Y-75804000D03*
X189809000Y-75804000D03*
X189809000Y-74534000D03*
X189809000Y-73264000D03*
X189809000Y-71994000D03*
X189809000Y-70724000D03*
X189809000Y-69454000D03*
X189809000Y-68184000D03*
X189809000Y-66914000D03*
X189809000Y-65644000D03*
X189809000Y-64374000D03*
D12*
X128270000Y-60960000D03*
X131395000Y-60960000D03*
X128320000Y-87630000D03*
X131445000Y-87630000D03*
D16*
X82674000Y-95504000D03*
X82674000Y-96774000D03*
X82674000Y-98044000D03*
X82674000Y-99314000D03*
X82674000Y-100584000D03*
X82674000Y-101854000D03*
X82674000Y-103124000D03*
X77724000Y-103124000D03*
X77724000Y-101854000D03*
X77724000Y-100584000D03*
X77724000Y-99314000D03*
X77724000Y-98044000D03*
X77724000Y-96774000D03*
X77724000Y-95504000D03*
M02*
