G04 #@! TF.GenerationSoftware,KiCad,Pcbnew,8.0.9-8.0.9-0~ubuntu22.04.1*
G04 #@! TF.CreationDate,2025-03-29T10:12:52+01:00*
G04 #@! TF.ProjectId,CPU09RAM,43505530-3952-4414-9d2e-6b696361645f,rev?*
G04 #@! TF.SameCoordinates,Original*
G04 #@! TF.FileFunction,Soldermask,Top*
G04 #@! TF.FilePolarity,Negative*
%FSLAX46Y46*%
G04 Gerber Fmt 4.6, Leading zero omitted, Abs format (unit mm)*
G04 Created by KiCad (PCBNEW 8.0.9-8.0.9-0~ubuntu22.04.1) date 2025-03-29 10:12:52*
%MOMM*%
%LPD*%
G01*
G04 APERTURE LIST*
G04 Aperture macros list*
%AMRoundRect*
0 Rectangle with rounded corners*
0 $1 Rounding radius*
0 $2 $3 $4 $5 $6 $7 $8 $9 X,Y pos of 4 corners*
0 Add a 4 corners polygon primitive as box body*
4,1,4,$2,$3,$4,$5,$6,$7,$8,$9,$2,$3,0*
0 Add four circle primitives for the rounded corners*
1,1,$1+$1,$2,$3*
1,1,$1+$1,$4,$5*
1,1,$1+$1,$6,$7*
1,1,$1+$1,$8,$9*
0 Add four rect primitives between the rounded corners*
20,1,$1+$1,$2,$3,$4,$5,0*
20,1,$1+$1,$4,$5,$6,$7,0*
20,1,$1+$1,$6,$7,$8,$9,0*
20,1,$1+$1,$8,$9,$2,$3,0*%
%AMFreePoly0*
4,1,40,0.636777,0.930194,0.706366,0.874698,0.744986,0.794504,0.750000,0.750000,0.750000,-0.750000,0.730194,-0.836777,0.674698,-0.906366,0.594504,-0.944986,0.550000,-0.950000,0.000000,-0.950000,-0.022297,-0.944911,-0.071157,-0.944911,-0.127504,-0.936810,-0.264055,-0.896715,-0.315837,-0.873066,-0.435559,-0.796125,-0.478580,-0.758847,-0.571777,-0.651292,-0.602554,-0.603402,-0.661673,-0.473948,
-0.677710,-0.419330,-0.697964,-0.278464,-0.700000,-0.250000,-0.700000,0.250000,-0.697964,0.278464,-0.677710,0.419330,-0.661673,0.473948,-0.602554,0.603402,-0.571777,0.651292,-0.478580,0.758847,-0.435559,0.796125,-0.315837,0.873066,-0.264055,0.896715,-0.127504,0.936810,-0.071157,0.944911,-0.044660,0.944911,-0.044504,0.944986,0.000000,0.950000,0.550000,0.950000,0.636777,0.930194,
0.636777,0.930194,$1*%
%AMFreePoly1*
4,1,40,0.022297,0.944911,0.071157,0.944911,0.127504,0.936810,0.264055,0.896715,0.315837,0.873066,0.435559,0.796125,0.478580,0.758847,0.571777,0.651292,0.602554,0.603402,0.661673,0.473948,0.677710,0.419330,0.697964,0.278464,0.700000,0.250000,0.700000,-0.250000,0.697964,-0.278464,0.677710,-0.419330,0.661673,-0.473948,0.602554,-0.603402,0.571777,-0.651292,0.478580,-0.758847,
0.435559,-0.796125,0.315837,-0.873066,0.264055,-0.896715,0.127504,-0.936810,0.071157,-0.944911,0.044660,-0.944911,0.044504,-0.944986,0.000000,-0.950000,-0.550000,-0.950000,-0.636777,-0.930194,-0.706366,-0.874698,-0.744986,-0.794504,-0.750000,-0.750000,-0.750000,0.750000,-0.730194,0.836777,-0.674698,0.906366,-0.594504,0.944986,-0.550000,0.950000,0.000000,0.950000,0.022297,0.944911,
0.022297,0.944911,$1*%
G04 Aperture macros list end*
%ADD10RoundRect,0.250000X0.925000X0.250000X-0.925000X0.250000X-0.925000X-0.250000X0.925000X-0.250000X0*%
%ADD11RoundRect,0.250000X0.250000X-0.975000X0.250000X0.975000X-0.250000X0.975000X-0.250000X-0.975000X0*%
%ADD12RoundRect,0.325471X0.537029X0.774529X-0.537029X0.774529X-0.537029X-0.774529X0.537029X-0.774529X0*%
%ADD13FreePoly0,0.000000*%
%ADD14RoundRect,0.200000X-0.500000X-0.750000X0.500000X-0.750000X0.500000X0.750000X-0.500000X0.750000X0*%
%ADD15FreePoly1,0.000000*%
%ADD16C,3.200000*%
%ADD17RoundRect,0.200000X-0.850000X-0.850000X0.850000X-0.850000X0.850000X0.850000X-0.850000X0.850000X0*%
%ADD18O,2.100000X2.100000*%
%ADD19RoundRect,0.250000X-0.925000X-0.250000X0.925000X-0.250000X0.925000X0.250000X-0.925000X0.250000X0*%
%ADD20C,3.400000*%
%ADD21RoundRect,0.200000X-0.800000X-0.800000X0.800000X-0.800000X0.800000X0.800000X-0.800000X0.800000X0*%
%ADD22O,2.000000X2.000000*%
%ADD23RoundRect,0.200000X0.900000X-0.900000X0.900000X0.900000X-0.900000X0.900000X-0.900000X-0.900000X0*%
%ADD24C,2.200000*%
%ADD25RoundRect,0.294444X1.030556X1.180556X-1.030556X1.180556X-1.030556X-1.180556X1.030556X-1.180556X0*%
%ADD26RoundRect,0.200000X1.200000X-1.200000X1.200000X1.200000X-1.200000X1.200000X-1.200000X-1.200000X0*%
%ADD27O,2.800000X2.800000*%
%ADD28RoundRect,0.200000X-0.800000X0.800000X-0.800000X-0.800000X0.800000X-0.800000X0.800000X0.800000X0*%
%ADD29C,3.250000*%
%ADD30RoundRect,0.314516X0.660484X-0.660484X0.660484X0.660484X-0.660484X0.660484X-0.660484X-0.660484X0*%
%ADD31C,1.950000*%
%ADD32RoundRect,0.325471X-0.774529X0.537029X-0.774529X-0.537029X0.774529X-0.537029X0.774529X0.537029X0*%
%ADD33RoundRect,0.200000X-2.550000X2.550000X-2.550000X-2.550000X2.550000X-2.550000X2.550000X2.550000X0*%
%ADD34C,18.200000*%
G04 APERTURE END LIST*
D10*
X106615000Y-133350000D03*
X106615000Y-132080000D03*
X106615000Y-130810000D03*
X106615000Y-129540000D03*
X101665000Y-129540000D03*
X101665000Y-130810000D03*
X101665000Y-132080000D03*
X101665000Y-133350000D03*
D11*
X120015000Y-123825000D03*
X121285000Y-123825000D03*
X122555000Y-123825000D03*
X123825000Y-123825000D03*
X125095000Y-123825000D03*
X126365000Y-123825000D03*
X127635000Y-123825000D03*
X128905000Y-123825000D03*
X130175000Y-123825000D03*
X131445000Y-123825000D03*
X132715000Y-123825000D03*
X133985000Y-123825000D03*
X135255000Y-123825000D03*
X136525000Y-123825000D03*
X137795000Y-123825000D03*
X139065000Y-123825000D03*
X139065000Y-110725000D03*
X137795000Y-110725000D03*
X136525000Y-110725000D03*
X135255000Y-110725000D03*
X133985000Y-110725000D03*
X132715000Y-110725000D03*
X131445000Y-110725000D03*
X130175000Y-110725000D03*
X128905000Y-110725000D03*
X127635000Y-110725000D03*
X126365000Y-110725000D03*
X125095000Y-110725000D03*
X123825000Y-110725000D03*
X122555000Y-110725000D03*
X121285000Y-110725000D03*
X120015000Y-110725000D03*
D12*
X90882000Y-58928000D03*
X87757000Y-58928000D03*
X112599000Y-76708000D03*
X109474000Y-76708000D03*
D13*
X102713000Y-125857000D03*
D14*
X104013000Y-125857000D03*
D15*
X105313000Y-125857000D03*
D16*
X217297000Y-117602000D03*
D17*
X216408000Y-100711000D03*
D18*
X216408000Y-103251000D03*
D11*
X120015000Y-142875000D03*
X121285000Y-142875000D03*
X122555000Y-142875000D03*
X123825000Y-142875000D03*
X125095000Y-142875000D03*
X126365000Y-142875000D03*
X127635000Y-142875000D03*
X128905000Y-142875000D03*
X130175000Y-142875000D03*
X131445000Y-142875000D03*
X132715000Y-142875000D03*
X133985000Y-142875000D03*
X135255000Y-142875000D03*
X136525000Y-142875000D03*
X137795000Y-142875000D03*
X139065000Y-142875000D03*
X139065000Y-129775000D03*
X137795000Y-129775000D03*
X136525000Y-129775000D03*
X135255000Y-129775000D03*
X133985000Y-129775000D03*
X132715000Y-129775000D03*
X131445000Y-129775000D03*
X130175000Y-129775000D03*
X128905000Y-129775000D03*
X127635000Y-129775000D03*
X126365000Y-129775000D03*
X125095000Y-129775000D03*
X123825000Y-129775000D03*
X122555000Y-129775000D03*
X121285000Y-129775000D03*
X120015000Y-129775000D03*
D19*
X105540000Y-62230000D03*
X105540000Y-63500000D03*
X105540000Y-64770000D03*
X105540000Y-66040000D03*
X105540000Y-67310000D03*
X105540000Y-68580000D03*
X105540000Y-69850000D03*
X105540000Y-71120000D03*
X110490000Y-71120000D03*
X110490000Y-69850000D03*
X110490000Y-68580000D03*
X110490000Y-67310000D03*
X110490000Y-66040000D03*
X110490000Y-64770000D03*
X110490000Y-63500000D03*
X110490000Y-62230000D03*
D12*
X109805000Y-58674000D03*
X106680000Y-58674000D03*
D11*
X147320000Y-68780000D03*
X148590000Y-68780000D03*
X149860000Y-68780000D03*
X151130000Y-68780000D03*
X152400000Y-68780000D03*
X153670000Y-68780000D03*
X154940000Y-68780000D03*
X156210000Y-68780000D03*
X157480000Y-68780000D03*
X158750000Y-68780000D03*
X160020000Y-68780000D03*
X161290000Y-68780000D03*
X162560000Y-68780000D03*
X163830000Y-68780000D03*
X165100000Y-68780000D03*
X166370000Y-68780000D03*
X166370000Y-55680000D03*
X165100000Y-55680000D03*
X163830000Y-55680000D03*
X162560000Y-55680000D03*
X161290000Y-55680000D03*
X160020000Y-55680000D03*
X158750000Y-55680000D03*
X157480000Y-55680000D03*
X156210000Y-55680000D03*
X154940000Y-55680000D03*
X153670000Y-55680000D03*
X152400000Y-55680000D03*
X151130000Y-55680000D03*
X149860000Y-55680000D03*
X148590000Y-55680000D03*
X147320000Y-55680000D03*
D17*
X212598000Y-100711000D03*
D18*
X212598000Y-103251000D03*
D20*
X62760000Y-55550000D03*
X62760000Y-144450000D03*
X76510000Y-55550000D03*
X76510000Y-144450000D03*
X216430000Y-55550000D03*
X216430000Y-144450000D03*
D12*
X105233000Y-120015000D03*
X102108000Y-120015000D03*
D11*
X146685000Y-123825000D03*
X147955000Y-123825000D03*
X149225000Y-123825000D03*
X150495000Y-123825000D03*
X151765000Y-123825000D03*
X153035000Y-123825000D03*
X154305000Y-123825000D03*
X155575000Y-123825000D03*
X156845000Y-123825000D03*
X158115000Y-123825000D03*
X159385000Y-123825000D03*
X160655000Y-123825000D03*
X161925000Y-123825000D03*
X163195000Y-123825000D03*
X164465000Y-123825000D03*
X165735000Y-123825000D03*
X165735000Y-110725000D03*
X164465000Y-110725000D03*
X163195000Y-110725000D03*
X161925000Y-110725000D03*
X160655000Y-110725000D03*
X159385000Y-110725000D03*
X158115000Y-110725000D03*
X156845000Y-110725000D03*
X155575000Y-110725000D03*
X154305000Y-110725000D03*
X153035000Y-110725000D03*
X151765000Y-110725000D03*
X150495000Y-110725000D03*
X149225000Y-110725000D03*
X147955000Y-110725000D03*
X146685000Y-110725000D03*
X120650000Y-87830000D03*
X121920000Y-87830000D03*
X123190000Y-87830000D03*
X124460000Y-87830000D03*
X125730000Y-87830000D03*
X127000000Y-87830000D03*
X128270000Y-87830000D03*
X129540000Y-87830000D03*
X130810000Y-87830000D03*
X132080000Y-87830000D03*
X133350000Y-87830000D03*
X134620000Y-87830000D03*
X135890000Y-87830000D03*
X137160000Y-87830000D03*
X138430000Y-87830000D03*
X139700000Y-87830000D03*
X139700000Y-74730000D03*
X138430000Y-74730000D03*
X137160000Y-74730000D03*
X135890000Y-74730000D03*
X134620000Y-74730000D03*
X133350000Y-74730000D03*
X132080000Y-74730000D03*
X130810000Y-74730000D03*
X129540000Y-74730000D03*
X128270000Y-74730000D03*
X127000000Y-74730000D03*
X125730000Y-74730000D03*
X124460000Y-74730000D03*
X123190000Y-74730000D03*
X121920000Y-74730000D03*
X120650000Y-74730000D03*
D21*
X82550000Y-62230000D03*
D22*
X82550000Y-64770000D03*
X82550000Y-67310000D03*
X82550000Y-69850000D03*
X82550000Y-72390000D03*
X82550000Y-74930000D03*
X82550000Y-77470000D03*
X82550000Y-80010000D03*
X82550000Y-82550000D03*
X82550000Y-85090000D03*
X90170000Y-85090000D03*
X90170000Y-82550000D03*
X90170000Y-80010000D03*
X90170000Y-77470000D03*
X90170000Y-74930000D03*
X90170000Y-72390000D03*
X90170000Y-69850000D03*
X90170000Y-67310000D03*
X90170000Y-64770000D03*
X90170000Y-62230000D03*
D23*
X216535000Y-85598000D03*
D24*
X216535000Y-83058000D03*
D11*
X147320000Y-87830000D03*
X148590000Y-87830000D03*
X149860000Y-87830000D03*
X151130000Y-87830000D03*
X152400000Y-87830000D03*
X153670000Y-87830000D03*
X154940000Y-87830000D03*
X156210000Y-87830000D03*
X157480000Y-87830000D03*
X158750000Y-87830000D03*
X160020000Y-87830000D03*
X161290000Y-87830000D03*
X162560000Y-87830000D03*
X163830000Y-87830000D03*
X165100000Y-87830000D03*
X166370000Y-87830000D03*
X166370000Y-74730000D03*
X165100000Y-74730000D03*
X163830000Y-74730000D03*
X162560000Y-74730000D03*
X161290000Y-74730000D03*
X160020000Y-74730000D03*
X158750000Y-74730000D03*
X157480000Y-74730000D03*
X156210000Y-74730000D03*
X154940000Y-74730000D03*
X153670000Y-74730000D03*
X152400000Y-74730000D03*
X151130000Y-74730000D03*
X149860000Y-74730000D03*
X148590000Y-74730000D03*
X147320000Y-74730000D03*
D25*
X198120000Y-58547000D03*
X191720000Y-58547000D03*
D26*
X81534000Y-144272000D03*
D27*
X81534000Y-134112000D03*
D12*
X107900000Y-102616000D03*
X104775000Y-102616000D03*
D21*
X208661000Y-61087000D03*
D22*
X208661000Y-63627000D03*
X208661000Y-66167000D03*
X208661000Y-68707000D03*
X208661000Y-71247000D03*
X208661000Y-73787000D03*
X208661000Y-76327000D03*
X208661000Y-78867000D03*
X216281000Y-78867000D03*
X216281000Y-76327000D03*
X216281000Y-73787000D03*
X216281000Y-71247000D03*
X216281000Y-68707000D03*
X216281000Y-66167000D03*
X216281000Y-63627000D03*
X216281000Y-61087000D03*
D28*
X204851000Y-58532000D03*
D22*
X204851000Y-61072000D03*
X204851000Y-63612000D03*
X204851000Y-66152000D03*
X204851000Y-68692000D03*
X204851000Y-71232000D03*
X204851000Y-73772000D03*
X204851000Y-76312000D03*
X204851000Y-78852000D03*
D29*
X62760000Y-144453000D03*
X62760000Y-55553000D03*
D30*
X65300000Y-139373000D03*
D31*
X65300000Y-136833000D03*
X65300000Y-134293000D03*
X65300000Y-131753000D03*
X65300000Y-129213000D03*
X65300000Y-126673000D03*
X65300000Y-124133000D03*
X65300000Y-121593000D03*
X65300000Y-119053000D03*
X65300000Y-116513000D03*
X65300000Y-113973000D03*
X65300000Y-111433000D03*
X65300000Y-108893000D03*
X65300000Y-106353000D03*
X65300000Y-103813000D03*
X65300000Y-101273000D03*
X65300000Y-98733000D03*
X65300000Y-96193000D03*
X65300000Y-93653000D03*
X65300000Y-91113000D03*
X65300000Y-88573000D03*
X65300000Y-86033000D03*
X65300000Y-83493000D03*
X65300000Y-80953000D03*
X65300000Y-78413000D03*
X65300000Y-75873000D03*
X65300000Y-73333000D03*
X65300000Y-70793000D03*
X65300000Y-68253000D03*
X65300000Y-65713000D03*
X65300000Y-63173000D03*
X65300000Y-60633000D03*
X70380000Y-139373000D03*
X70380000Y-136833000D03*
X70380000Y-134293000D03*
X70380000Y-131753000D03*
X70380000Y-129213000D03*
X70380000Y-126673000D03*
X70380000Y-124133000D03*
X70380000Y-121593000D03*
X70380000Y-119053000D03*
X70380000Y-116513000D03*
X70380000Y-113973000D03*
X70380000Y-111433000D03*
X70380000Y-108893000D03*
X70380000Y-106353000D03*
X70380000Y-103813000D03*
X70380000Y-101273000D03*
X70380000Y-98733000D03*
X70380000Y-96193000D03*
X70380000Y-93653000D03*
X70380000Y-91113000D03*
X70380000Y-88573000D03*
X70380000Y-86033000D03*
X70380000Y-83493000D03*
X70380000Y-80953000D03*
X70380000Y-78413000D03*
X70380000Y-75873000D03*
X70380000Y-73333000D03*
X70380000Y-70793000D03*
X70380000Y-68253000D03*
X70380000Y-65713000D03*
X70380000Y-63173000D03*
X70380000Y-60633000D03*
D19*
X101095000Y-108585000D03*
X101095000Y-109855000D03*
X101095000Y-111125000D03*
X101095000Y-112395000D03*
X101095000Y-113665000D03*
X101095000Y-114935000D03*
X101095000Y-116205000D03*
X101095000Y-117475000D03*
X106045000Y-117475000D03*
X106045000Y-116205000D03*
X106045000Y-114935000D03*
X106045000Y-113665000D03*
X106045000Y-112395000D03*
X106045000Y-111125000D03*
X106045000Y-109855000D03*
X106045000Y-108585000D03*
D32*
X194691000Y-69011000D03*
X194691000Y-72136000D03*
D28*
X111760000Y-103505000D03*
D22*
X111760000Y-106045000D03*
X111760000Y-108585000D03*
X111760000Y-111125000D03*
X111760000Y-113665000D03*
X111760000Y-116205000D03*
X111760000Y-118745000D03*
X111760000Y-121285000D03*
X111760000Y-123825000D03*
D11*
X146685000Y-142875000D03*
X147955000Y-142875000D03*
X149225000Y-142875000D03*
X150495000Y-142875000D03*
X151765000Y-142875000D03*
X153035000Y-142875000D03*
X154305000Y-142875000D03*
X155575000Y-142875000D03*
X156845000Y-142875000D03*
X158115000Y-142875000D03*
X159385000Y-142875000D03*
X160655000Y-142875000D03*
X161925000Y-142875000D03*
X163195000Y-142875000D03*
X164465000Y-142875000D03*
X165735000Y-142875000D03*
X165735000Y-129775000D03*
X164465000Y-129775000D03*
X163195000Y-129775000D03*
X161925000Y-129775000D03*
X160655000Y-129775000D03*
X159385000Y-129775000D03*
X158115000Y-129775000D03*
X156845000Y-129775000D03*
X155575000Y-129775000D03*
X154305000Y-129775000D03*
X153035000Y-129775000D03*
X151765000Y-129775000D03*
X150495000Y-129775000D03*
X149225000Y-129775000D03*
X147955000Y-129775000D03*
X146685000Y-129775000D03*
X120650000Y-68780000D03*
X121920000Y-68780000D03*
X123190000Y-68780000D03*
X124460000Y-68780000D03*
X125730000Y-68780000D03*
X127000000Y-68780000D03*
X128270000Y-68780000D03*
X129540000Y-68780000D03*
X130810000Y-68780000D03*
X132080000Y-68780000D03*
X133350000Y-68780000D03*
X134620000Y-68780000D03*
X135890000Y-68780000D03*
X137160000Y-68780000D03*
X138430000Y-68780000D03*
X139700000Y-68780000D03*
X139700000Y-55680000D03*
X138430000Y-55680000D03*
X137160000Y-55680000D03*
X135890000Y-55680000D03*
X134620000Y-55680000D03*
X133350000Y-55680000D03*
X132080000Y-55680000D03*
X130810000Y-55680000D03*
X129540000Y-55680000D03*
X128270000Y-55680000D03*
X127000000Y-55680000D03*
X125730000Y-55680000D03*
X124460000Y-55680000D03*
X123190000Y-55680000D03*
X121920000Y-55680000D03*
X120650000Y-55680000D03*
D33*
X210207244Y-117883000D03*
X210207244Y-143483000D03*
D34*
X210207244Y-130683000D03*
D17*
X208661000Y-100711000D03*
D18*
X208661000Y-103251000D03*
M02*
