G04 #@! TF.GenerationSoftware,KiCad,Pcbnew,9.0.4-9.0.4-0~ubuntu22.04.1*
G04 #@! TF.CreationDate,2025-09-12T13:32:57+02:00*
G04 #@! TF.ProjectId,Exorset_Floppy,45786f72-7365-4745-9f46-6c6f7070792e,rev?*
G04 #@! TF.SameCoordinates,Original*
G04 #@! TF.FileFunction,Paste,Bot*
G04 #@! TF.FilePolarity,Positive*
%FSLAX46Y46*%
G04 Gerber Fmt 4.6, Leading zero omitted, Abs format (unit mm)*
G04 Created by KiCad (PCBNEW 9.0.4-9.0.4-0~ubuntu22.04.1) date 2025-09-12 13:32:57*
%MOMM*%
%LPD*%
G01*
G04 APERTURE LIST*
G04 Aperture macros list*
%AMRoundRect*
0 Rectangle with rounded corners*
0 $1 Rounding radius*
0 $2 $3 $4 $5 $6 $7 $8 $9 X,Y pos of 4 corners*
0 Add a 4 corners polygon primitive as box body*
4,1,4,$2,$3,$4,$5,$6,$7,$8,$9,$2,$3,0*
0 Add four circle primitives for the rounded corners*
1,1,$1+$1,$2,$3*
1,1,$1+$1,$4,$5*
1,1,$1+$1,$6,$7*
1,1,$1+$1,$8,$9*
0 Add four rect primitives between the rounded corners*
20,1,$1+$1,$2,$3,$4,$5,0*
20,1,$1+$1,$4,$5,$6,$7,0*
20,1,$1+$1,$6,$7,$8,$9,0*
20,1,$1+$1,$8,$9,$2,$3,0*%
G04 Aperture macros list end*
%ADD10RoundRect,0.250000X-0.625000X0.400000X-0.625000X-0.400000X0.625000X-0.400000X0.625000X0.400000X0*%
%ADD11RoundRect,0.250000X0.400000X0.625000X-0.400000X0.625000X-0.400000X-0.625000X0.400000X-0.625000X0*%
%ADD12RoundRect,0.250001X0.624999X-0.462499X0.624999X0.462499X-0.624999X0.462499X-0.624999X-0.462499X0*%
%ADD13RoundRect,0.200000X0.750000X0.200000X-0.750000X0.200000X-0.750000X-0.200000X0.750000X-0.200000X0*%
%ADD14RoundRect,0.250000X-0.412500X-0.650000X0.412500X-0.650000X0.412500X0.650000X-0.412500X0.650000X0*%
%ADD15RoundRect,0.250000X-0.650000X0.412500X-0.650000X-0.412500X0.650000X-0.412500X0.650000X0.412500X0*%
%ADD16RoundRect,0.250000X0.650000X-0.412500X0.650000X0.412500X-0.650000X0.412500X-0.650000X-0.412500X0*%
%ADD17RoundRect,0.250000X-0.400000X-0.625000X0.400000X-0.625000X0.400000X0.625000X-0.400000X0.625000X0*%
%ADD18RoundRect,0.250001X-0.872499X-1.044999X0.872499X-1.044999X0.872499X1.044999X-0.872499X1.044999X0*%
%ADD19RoundRect,0.250001X0.872499X1.044999X-0.872499X1.044999X-0.872499X-1.044999X0.872499X-1.044999X0*%
%ADD20RoundRect,0.250000X0.412500X0.650000X-0.412500X0.650000X-0.412500X-0.650000X0.412500X-0.650000X0*%
G04 APERTURE END LIST*
D10*
X79756000Y-138912000D03*
X79756000Y-142012000D03*
D11*
X168682000Y-128778000D03*
X165582000Y-128778000D03*
D12*
X116713000Y-115751000D03*
X116713000Y-112776000D03*
D13*
X175339000Y-137607000D03*
X175339000Y-139507000D03*
X172339000Y-138557000D03*
D12*
X135255000Y-124895000D03*
X135255000Y-121920000D03*
D14*
X164045500Y-135636000D03*
X167170500Y-135636000D03*
X113461000Y-134112000D03*
X116586000Y-134112000D03*
D11*
X170714000Y-119380000D03*
X167614000Y-119380000D03*
D15*
X107188000Y-70535000D03*
X107188000Y-73660000D03*
D10*
X160274000Y-118592000D03*
X160274000Y-121692000D03*
D14*
X144741500Y-102616000D03*
X147866500Y-102616000D03*
D16*
X162814000Y-121704500D03*
X162814000Y-118579500D03*
D17*
X162026000Y-105283000D03*
X165126000Y-105283000D03*
D11*
X170688000Y-121666000D03*
X167588000Y-121666000D03*
D14*
X172427500Y-144526000D03*
X175552500Y-144526000D03*
D18*
X138270500Y-113411000D03*
X144685500Y-113411000D03*
D11*
X142800000Y-56642000D03*
X139700000Y-56642000D03*
D14*
X103555000Y-89662000D03*
X106680000Y-89662000D03*
D18*
X145636500Y-56642000D03*
X152051500Y-56642000D03*
D10*
X134874000Y-111226000D03*
X134874000Y-114326000D03*
D11*
X164592000Y-97536000D03*
X161492000Y-97536000D03*
D19*
X126143500Y-112776000D03*
X119728500Y-112776000D03*
D14*
X172427500Y-141986000D03*
X175552500Y-141986000D03*
D10*
X132334000Y-111226000D03*
X132334000Y-114326000D03*
D11*
X175566000Y-147066000D03*
X172466000Y-147066000D03*
D14*
X67741000Y-57658000D03*
X70866000Y-57658000D03*
D20*
X175552500Y-113792000D03*
X172427500Y-113792000D03*
M02*
