M48
; DRILL file {KiCad 9.0.4-9.0.4-0~ubuntu22.04.1} date 2025-09-15T11:16:44+0200
; FORMAT={-:-/ absolute / metric / decimal}
; #@! TF.CreationDate,2025-09-15T11:16:44+02:00
; #@! TF.GenerationSoftware,Kicad,Pcbnew,9.0.4-9.0.4-0~ubuntu22.04.1
; #@! TF.FileFunction,MixedPlating,1,2
FMAT,2
METRIC
; #@! TA.AperFunction,Plated,PTH,ViaDrill
T1C0.400
; #@! TA.AperFunction,Plated,PTH,ComponentDrill
T2C0.650
; #@! TA.AperFunction,Plated,PTH,ComponentDrill
T3C0.800
; #@! TA.AperFunction,Plated,PTH,ComponentDrill
T4C1.000
; #@! TA.AperFunction,Plated,PTH,ComponentDrill
T5C1.100
; #@! TA.AperFunction,NonPlated,NPTH,ComponentDrill
T6C2.850
%
G90
G05
T1
X66.675Y-69.723
X67.33Y-100.223
X67.437Y-53.594
X67.686Y-132.842
X67.945Y-120.396
X68.286Y-101.346
X68.286Y-103.886
X68.326Y-141.986
X68.707Y-53.594
X69.088Y-51.308
X69.215Y-148.082
X70.104Y-145.288
X70.104Y-146.812
X71.628Y-144.526
X71.882Y-72.136
X72.39Y-67.691
X72.408Y-115.57
X72.898Y-65.532
X72.898Y-143.51
X73.134Y-83.566
X73.266Y-116.62
X73.279Y-69.469
X73.406Y-91.44
X73.739Y-67.524
X74.023Y-101.6
X74.034Y-87.275
X74.041Y-85.979
X74.168Y-148.59
X74.422Y-119.053
X74.462Y-76.454
X74.676Y-55.796
X74.923Y-142.084
X75.438Y-63.627
X75.692Y-71.247
X75.692Y-140.97
X75.888Y-117.556
X75.946Y-82.677
X75.946Y-106.426
X76.2Y-56.939
X76.962Y-90.17
X77.216Y-85.09
X77.216Y-117.602
X77.47Y-77.216
X78.486Y-92.202
X78.486Y-106.426
X78.74Y-76.2
X78.994Y-63.119
X78.994Y-71.247
X79.248Y-55.288
X79.589Y-84.376
X79.756Y-133.35
X79.883Y-117.602
X80.264Y-91.186
X80.518Y-59.476
X80.971Y-76.541
X81.067Y-104.648
X81.28Y-82.042
X81.737Y-71.744
X81.788Y-89.154
X82.296Y-87.376
X82.296Y-102.87
X82.931Y-63.881
X83.566Y-90.17
X83.566Y-92.877
X83.835Y-56.635
X84.709Y-63.119
X84.836Y-86.614
X84.836Y-88.646
X84.836Y-138.684
X85.09Y-141.478
X85.471Y-68.453
X85.598Y-70.739
X86.106Y-102.616
X86.614Y-104.902
X87.122Y-88.646
X87.63Y-102.87
X88.9Y-57.825
X88.9Y-70.866
X88.9Y-83.82
X89.916Y-85.344
X89.969Y-93.891
X90.17Y-102.87
X90.17Y-106.426
X90.551Y-63.5
X90.678Y-76.534
X90.932Y-89.154
X91.186Y-103.886
X91.694Y-107.188
X92.202Y-90.17
X92.456Y-75.819
X92.71Y-103.124
X92.964Y-140.97
X93.582Y-106.209
X93.726Y-97.282
X93.853Y-82.296
X94.488Y-55.285
X94.966Y-75.859
X94.996Y-83.566
X94.996Y-104.648
X95.377Y-62.484
X95.377Y-70.612
X95.504Y-139.954
X95.885Y-98.171
X96.012Y-109.416
X96.266Y-92.289
X97.028Y-63.032
X97.282Y-121.92
X97.536Y-76.454
X97.536Y-104.902
X97.536Y-107.696
X97.536Y-109.474
X97.79Y-71.628
X97.79Y-84.582
X99.06Y-69.723
X99.481Y-83.531
X99.608Y-88.9
X99.822Y-76.875
X99.949Y-121.793
X100.076Y-90.932
X100.076Y-104.648
X100.076Y-140.97
X100.33Y-110.744
X100.584Y-84.582
X101.346Y-108.712
X101.6Y-69.85
X102.266Y-92.298
X102.489Y-117.856
X102.66Y-77.647
X102.87Y-135.382
X103.378Y-111.506
X103.759Y-126.365
X103.822Y-68.644
X105.918Y-57.912
X106.426Y-140.462
X106.68Y-104.648
X106.68Y-128.651
X106.934Y-68.58
X106.957Y-92.71
X107.188Y-82.55
X107.188Y-100.584
X107.251Y-87.694
X107.348Y-66.871
X107.569Y-106.68
X107.823Y-86.233
X107.938Y-77.724
X107.95Y-121.666
X108.013Y-109.664
X108.077Y-108.204
X108.077Y-111.125
X108.077Y-112.395
X108.204Y-113.792
X108.701Y-78.098
X108.712Y-126.111
X109.043Y-56.301
X109.093Y-75.692
X109.22Y-70.866
X109.728Y-76.454
X109.728Y-137.922
X109.818Y-71.469
X110.236Y-121.932
X110.617Y-125.73
X111.125Y-56.388
X111.379Y-69.977
X111.76Y-138.684
X111.862Y-121.141
X112.268Y-66.802
X112.522Y-122.682
X113.461Y-134.112
X113.792Y-78.232
X114.808Y-136.652
X114.935Y-57.912
X115.062Y-122.936
X115.385Y-81.026
X115.824Y-91.948
X115.824Y-138.938
X116.84Y-96.647
X117.094Y-109.22
X117.348Y-101.854
X117.856Y-62.992
X117.856Y-68.58
X117.856Y-88.9
X119.119Y-129.072
X119.126Y-136.906
X119.253Y-80.01
X119.507Y-91.44
X120.54Y-68.377
X121.642Y-55.586
X121.666Y-62.992
X121.666Y-80.01
X121.666Y-89.114
X121.666Y-104.013
X121.75Y-68.226
X121.757Y-69.576
X122.656Y-67.223
X122.936Y-51.943
X122.936Y-134.366
X123.571Y-122.936
X124.142Y-67.246
X124.206Y-57.912
X124.206Y-73.914
X124.206Y-103.886
X124.657Y-88.598
X125.476Y-123.952
X125.682Y-78.399
X125.73Y-55.626
X126.746Y-57.15
X126.746Y-77.724
X127.508Y-102.616
X127.889Y-78.867
X128.016Y-51.816
X128.016Y-89.114
X128.16Y-67.581
X128.27Y-91.694
X128.397Y-127.762
X128.414Y-115.934
X128.524Y-55.626
X128.524Y-139.446
X128.524Y-149.352
X129.341Y-68.689
X129.54Y-88.773
X129.667Y-109.728
X130.302Y-122.936
X130.556Y-67.31
X130.683Y-92.202
X131.417Y-132.583
X131.445Y-102.489
X131.658Y-81.559
X131.826Y-57.15
X131.826Y-121.932
X131.922Y-69.429
X131.953Y-89.027
X132.715Y-141.605
X133.604Y-67.096
X133.604Y-85.511
X133.858Y-96.52
X134.366Y-65.786
X134.366Y-87.884
X134.516Y-56.936
X134.62Y-98.298
X134.703Y-70.779
X135.128Y-72.39
X135.509Y-64.389
X135.636Y-86.614
X135.89Y-133.114
X136.144Y-55.88
X136.652Y-82.296
X136.993Y-133.096
X137.033Y-117.856
X137.668Y-81.534
X137.668Y-137.668
X137.922Y-130.124
X138.557Y-90.972
X138.938Y-97.409
X139.319Y-141.224
X139.827Y-53.721
X140.716Y-144.78
X141.351Y-60.833
X141.351Y-130.175
X141.478Y-81.534
X141.478Y-102.616
X142.621Y-90.972
X142.8Y-56.642
X143.637Y-60.071
X143.891Y-95.718
X144.145Y-66.802
X145.27Y-90.972
X145.288Y-130.048
X145.415Y-144.018
X145.542Y-56.475
X146.414Y-69.596
X146.558Y-97.409
X146.558Y-117.983
X146.558Y-132.717
X146.701Y-92.075
X147.788Y-90.972
X147.828Y-123.952
X148.082Y-68.239
X149.098Y-70.246
X149.098Y-132.461
X149.733Y-145.288
X149.746Y-79.865
X149.931Y-90.972
X150.495Y-67.31
X151.003Y-132.08
X151.384Y-95.718
X151.384Y-149.519
X151.494Y-81.026
X151.578Y-110.49
X151.638Y-115.57
X152.146Y-60.198
X152.273Y-54.483
X152.908Y-68.58
X152.908Y-90.972
X153.035Y-80.391
X153.543Y-145.288
X153.718Y-77.557
X154.316Y-57.491
X154.432Y-95.718
X154.529Y-52.832
X155.702Y-92.623
X155.771Y-52.774
X155.829Y-80.518
X156.718Y-130.556
X156.718Y-139.446
X156.718Y-144.969
X157.226Y-54.991
X157.226Y-60.198
X157.572Y-85.511
X157.734Y-64.262
X157.734Y-72.136
X157.734Y-124.968
X158.242Y-65.786
X158.496Y-84.328
X158.623Y-93.726
X158.75Y-70.104
X158.75Y-87.122
X158.75Y-99.09
X158.75Y-113.03
X159.229Y-73.406
X159.512Y-80.518
X159.679Y-74.676
X160.02Y-135.636
X160.274Y-83.312
X160.274Y-128.016
X160.782Y-76.454
X163.195Y-70.358
X163.322Y-56.475
X163.576Y-67.183
X163.703Y-77.597
X165.735Y-80.518
X166.116Y-90.424
X166.734Y-96.012
X167.132Y-57.023
X167.132Y-80.518
X168.402Y-68.072
X168.656Y-131.064
X168.91Y-67.056
X169.547Y-79.315
X169.672Y-63.5
X170.942Y-58.166
X171.196Y-135.636
X172.807Y-80.566
X172.974Y-57.531
X173.101Y-129.159
X173.228Y-67.437
X173.228Y-118.872
X175.26Y-68.326
X177.038Y-78.994
X177.038Y-96.774
X177.038Y-149.519
X177.165Y-50.673
X177.165Y-67.945
X177.292Y-58.928
X178.054Y-96.774
X178.308Y-85.344
X178.562Y-56.134
X179.07Y-145.542
X184.277Y-68.707
X184.658Y-57.277
X184.912Y-149.352
X185.166Y-122.174
X185.928Y-128.524
X187.029Y-68.072
X187.325Y-70.866
X188.468Y-89.916
X188.595Y-79.121
X189.23Y-135.636
X189.992Y-133.096
X190.881Y-67.818
X193.294Y-133.477
X194.564Y-90.932
X195.707Y-57.15
X195.707Y-128.651
X195.834Y-132.08
X196.088Y-68.707
X196.723Y-142.367
X196.85Y-127.508
X196.878Y-137.188
X197.104Y-96.012
X197.993Y-80.01
X198.12Y-96.774
X198.755Y-109.728
X199.136Y-122.174
X201.168Y-123.698
X201.803Y-140.462
X202.184Y-57.658
X202.438Y-120.015
X202.438Y-147.32
X202.565Y-124.968
X203.581Y-136.652
X204.343Y-148.082
X206.248Y-103.632
X207.01Y-101.727
X210.439Y-103.632
X211.201Y-105.918
X211.201Y-108.458
X211.201Y-110.871
X211.201Y-113.665
X211.201Y-116.078
X211.201Y-118.491
X211.201Y-121.285
X211.201Y-123.698
X211.201Y-126.238
X211.201Y-128.905
X211.201Y-131.318
X211.201Y-133.858
X211.201Y-136.525
X211.201Y-138.938
X211.201Y-141.478
X211.201Y-144.018
X211.201Y-146.685
X211.328Y-112.268
X215.519Y-50.8
X217.932Y-101.981
T2
X83.82Y-76.327
X86.36Y-76.327
X89.027Y-76.327
X107.315Y-63.754
X109.855Y-63.754
X121.666Y-96.647
X141.478Y-125.603
X144.018Y-125.603
X149.606Y-122.301
X169.291Y-103.378
X173.736Y-96.901
X173.736Y-99.314
X179.197Y-93.98
X183.388Y-96.266
X189.738Y-124.333
X193.294Y-124.333
X204.47Y-84.963
T3
X73.66Y-53.34
X73.66Y-60.96
X76.2Y-53.34
X76.2Y-60.96
X76.2Y-66.04
X76.2Y-73.66
X77.216Y-80.264
X77.216Y-95.504
X77.216Y-100.33
X77.216Y-115.57
X77.216Y-119.385
X77.216Y-127.005
X77.216Y-130.302
X77.216Y-145.542
X78.74Y-53.34
X78.74Y-60.96
X78.74Y-66.04
X78.74Y-73.66
X79.756Y-80.264
X79.756Y-95.504
X79.756Y-100.33
X79.756Y-115.57
X79.756Y-119.385
X79.756Y-127.005
X79.756Y-130.302
X79.756Y-145.542
X81.28Y-53.34
X81.28Y-60.96
X81.28Y-66.04
X81.28Y-73.66
X82.296Y-80.264
X82.296Y-95.504
X82.296Y-100.33
X82.296Y-115.57
X82.296Y-119.385
X82.296Y-127.005
X82.296Y-130.302
X82.296Y-145.542
X83.82Y-53.34
X83.82Y-60.96
X83.82Y-66.04
X83.82Y-73.66
X84.836Y-80.264
X84.836Y-95.504
X84.836Y-100.33
X84.836Y-115.57
X84.836Y-119.385
X84.836Y-127.005
X84.836Y-130.302
X84.836Y-145.542
X86.36Y-53.34
X86.36Y-60.96
X86.36Y-66.04
X86.36Y-73.66
X87.376Y-80.264
X87.376Y-95.504
X87.376Y-100.33
X87.376Y-115.57
X87.376Y-119.385
X87.376Y-127.005
X87.376Y-130.302
X87.376Y-145.542
X88.9Y-53.34
X88.9Y-60.96
X88.9Y-66.04
X88.9Y-73.66
X89.916Y-80.264
X89.916Y-95.504
X89.916Y-100.33
X89.916Y-115.57
X89.916Y-119.385
X89.916Y-127.005
X89.916Y-130.302
X89.916Y-145.542
X91.44Y-66.04
X91.44Y-73.66
X92.075Y-53.345
X92.075Y-60.965
X92.456Y-80.264
X92.456Y-95.504
X92.456Y-100.33
X92.456Y-115.57
X92.456Y-119.385
X92.456Y-127.005
X92.456Y-130.302
X92.456Y-145.542
X93.98Y-66.04
X93.98Y-73.66
X94.615Y-53.345
X94.615Y-60.965
X94.996Y-80.264
X94.996Y-95.504
X94.996Y-100.33
X94.996Y-115.57
X94.996Y-119.385
X94.996Y-127.005
X94.996Y-130.302
X94.996Y-145.542
X96.52Y-66.04
X96.52Y-73.66
X97.155Y-53.345
X97.155Y-60.965
X97.536Y-80.264
X97.536Y-95.504
X97.536Y-100.33
X97.536Y-115.57
X97.536Y-119.385
X97.536Y-127.005
X97.536Y-130.302
X97.536Y-145.542
X99.06Y-66.04
X99.06Y-73.66
X99.695Y-53.345
X99.695Y-60.965
X100.076Y-80.264
X100.076Y-95.504
X100.076Y-100.33
X100.076Y-115.57
X100.076Y-119.385
X100.076Y-127.005
X100.076Y-130.302
X100.076Y-145.542
X101.6Y-66.04
X101.6Y-73.66
X102.235Y-53.345
X102.235Y-60.965
X102.616Y-80.264
X102.616Y-95.504
X102.616Y-100.33
X102.616Y-115.57
X102.616Y-130.302
X102.616Y-145.542
X104.14Y-66.04
X104.14Y-73.66
X104.775Y-53.345
X104.775Y-60.965
X105.156Y-80.264
X105.156Y-95.504
X105.156Y-100.33
X105.156Y-115.57
X105.156Y-130.302
X105.156Y-145.542
X107.315Y-53.345
X107.315Y-60.965
X107.696Y-130.302
X107.696Y-145.542
X109.855Y-53.345
X109.855Y-60.965
X110.236Y-130.302
X110.236Y-145.542
X112.395Y-53.345
X112.395Y-60.965
X112.776Y-130.302
X112.776Y-145.542
X114.3Y-118.11
X114.3Y-125.73
X114.935Y-53.345
X114.935Y-60.965
X115.316Y-130.302
X115.316Y-145.542
X116.586Y-64.77
X116.586Y-72.39
X116.586Y-75.692
X116.586Y-83.312
X116.586Y-86.614
X116.586Y-94.234
X116.586Y-99.06
X116.586Y-106.68
X116.84Y-118.11
X116.84Y-125.73
X117.856Y-130.302
X117.856Y-145.542
X119.126Y-53.34
X119.126Y-60.96
X119.126Y-64.77
X119.126Y-72.39
X119.126Y-75.692
X119.126Y-83.312
X119.126Y-86.614
X119.126Y-94.234
X119.126Y-99.06
X119.126Y-106.68
X119.38Y-118.11
X119.38Y-125.73
X120.396Y-130.302
X120.396Y-145.542
X120.857Y-112.649
X121.666Y-53.34
X121.666Y-60.96
X121.666Y-64.77
X121.666Y-72.39
X121.666Y-75.692
X121.666Y-83.312
X121.666Y-86.614
X121.666Y-94.234
X121.666Y-99.06
X121.666Y-106.68
X121.92Y-118.11
X121.92Y-125.73
X122.936Y-130.302
X122.936Y-145.542
X124.206Y-53.34
X124.206Y-60.96
X124.206Y-64.77
X124.206Y-72.39
X124.206Y-75.692
X124.206Y-83.312
X124.206Y-86.614
X124.206Y-94.234
X124.206Y-99.06
X124.206Y-106.68
X124.46Y-118.11
X124.46Y-125.73
X125.476Y-130.302
X125.476Y-145.542
X125.857Y-112.649
X126.746Y-53.34
X126.746Y-60.96
X126.746Y-64.77
X126.746Y-72.39
X126.746Y-75.692
X126.746Y-83.312
X126.746Y-86.614
X126.746Y-94.234
X126.746Y-99.06
X126.746Y-106.68
X127.0Y-118.11
X127.0Y-125.73
X129.286Y-53.34
X129.286Y-60.96
X129.286Y-64.77
X129.286Y-72.39
X129.286Y-75.692
X129.286Y-83.312
X129.286Y-86.614
X129.286Y-94.234
X129.286Y-99.06
X129.286Y-106.68
X129.54Y-118.11
X129.54Y-125.73
X131.318Y-128.27
X131.318Y-135.89
X131.318Y-139.446
X131.318Y-147.066
X131.826Y-53.34
X131.826Y-60.96
X131.826Y-64.77
X131.826Y-72.39
X131.826Y-75.692
X131.826Y-83.312
X131.826Y-86.614
X131.826Y-94.234
X131.826Y-99.06
X131.826Y-106.68
X132.08Y-118.11
X132.08Y-125.73
X133.858Y-128.27
X133.858Y-135.89
X133.858Y-139.446
X133.858Y-147.066
X134.366Y-53.34
X134.366Y-60.96
X134.366Y-75.692
X134.366Y-83.312
X136.398Y-128.27
X136.398Y-135.89
X136.398Y-139.446
X136.398Y-147.066
X137.668Y-64.77
X137.668Y-72.39
X137.668Y-86.614
X137.668Y-94.234
X137.668Y-99.06
X137.668Y-106.68
X138.303Y-113.411
X138.938Y-128.27
X138.938Y-135.89
X138.938Y-139.446
X138.938Y-147.066
X140.208Y-64.77
X140.208Y-72.39
X140.208Y-75.692
X140.208Y-83.312
X140.208Y-86.614
X140.208Y-94.234
X140.208Y-99.06
X140.208Y-106.68
X141.478Y-128.27
X141.478Y-135.89
X141.478Y-139.446
X141.478Y-147.066
X142.748Y-64.77
X142.748Y-72.39
X142.748Y-75.692
X142.748Y-83.312
X142.748Y-86.614
X142.748Y-94.234
X142.748Y-99.06
X142.748Y-106.68
X143.303Y-113.411
X144.018Y-128.27
X144.018Y-135.89
X144.018Y-139.446
X144.018Y-147.066
X145.288Y-64.77
X145.288Y-72.39
X145.288Y-75.692
X145.288Y-83.312
X145.288Y-86.614
X145.288Y-94.234
X145.288Y-99.06
X145.288Y-106.68
X146.558Y-128.27
X146.558Y-135.89
X146.558Y-139.446
X146.558Y-147.066
X147.828Y-64.77
X147.828Y-72.39
X147.828Y-75.692
X147.828Y-83.312
X147.828Y-86.614
X147.828Y-94.234
X147.828Y-99.06
X147.828Y-106.68
X149.098Y-128.27
X149.098Y-135.89
X149.098Y-139.446
X149.098Y-147.066
X150.368Y-64.77
X150.368Y-72.39
X150.368Y-75.692
X150.368Y-83.312
X150.368Y-86.614
X150.368Y-94.234
X150.368Y-99.06
X150.368Y-106.68
X151.638Y-128.27
X151.638Y-135.89
X151.638Y-139.446
X151.638Y-147.066
X152.908Y-64.77
X152.908Y-72.39
X152.908Y-75.692
X152.908Y-83.312
X152.908Y-86.614
X152.908Y-94.234
X152.908Y-99.06
X152.908Y-106.68
X154.178Y-128.27
X154.178Y-135.89
X154.178Y-139.446
X154.178Y-147.066
X155.448Y-64.77
X155.448Y-72.39
X155.448Y-75.692
X155.448Y-83.312
X155.448Y-86.614
X155.448Y-94.234
X160.528Y-139.451
X160.528Y-147.071
X160.782Y-53.34
X160.782Y-60.96
X160.782Y-86.36
X160.782Y-93.98
X161.417Y-100.33
X163.068Y-139.451
X163.068Y-147.071
X163.322Y-53.34
X163.322Y-60.96
X163.322Y-65.024
X163.322Y-72.644
X163.322Y-75.692
X163.322Y-83.312
X163.322Y-86.36
X163.322Y-93.98
X163.957Y-102.87
X165.608Y-116.586
X165.608Y-124.206
X165.608Y-139.451
X165.608Y-147.071
X165.862Y-53.34
X165.862Y-60.96
X165.862Y-65.024
X165.862Y-72.644
X165.862Y-75.692
X165.862Y-83.312
X165.862Y-86.36
X165.862Y-93.98
X166.497Y-100.33
X168.148Y-116.586
X168.148Y-124.206
X168.148Y-139.451
X168.148Y-147.071
X168.402Y-53.34
X168.402Y-60.96
X168.402Y-65.024
X168.402Y-72.644
X168.402Y-75.692
X168.402Y-83.312
X168.402Y-86.36
X168.402Y-93.98
X170.688Y-116.586
X170.688Y-124.206
X170.942Y-53.34
X170.942Y-60.96
X170.942Y-65.024
X170.942Y-72.644
X170.942Y-75.692
X170.942Y-83.312
X170.942Y-86.36
X170.942Y-93.98
X173.228Y-116.586
X173.228Y-124.206
X173.482Y-53.34
X173.482Y-60.96
X173.482Y-65.024
X173.482Y-72.644
X173.482Y-75.692
X173.482Y-83.312
X173.482Y-86.36
X173.482Y-93.98
X175.768Y-116.586
X175.768Y-124.206
X176.022Y-53.34
X176.022Y-60.96
X176.022Y-65.024
X176.022Y-72.644
X176.022Y-75.692
X176.022Y-83.312
X176.022Y-86.36
X176.022Y-93.98
X178.308Y-116.586
X178.308Y-124.206
X178.562Y-53.34
X178.562Y-60.96
X178.562Y-65.024
X178.562Y-72.644
X178.562Y-75.692
X178.562Y-83.312
X180.848Y-116.586
X180.848Y-124.206
X183.134Y-53.34
X183.134Y-60.96
X183.388Y-65.024
X183.388Y-72.644
X183.388Y-75.697
X183.388Y-83.317
X183.388Y-86.36
X183.388Y-93.98
X185.674Y-53.34
X185.674Y-60.96
X185.928Y-65.024
X185.928Y-72.644
X185.928Y-75.697
X185.928Y-83.317
X185.928Y-86.36
X185.928Y-93.98
X188.214Y-53.34
X188.214Y-60.96
X188.468Y-65.024
X188.468Y-72.644
X188.468Y-75.697
X188.468Y-83.317
X188.468Y-86.36
X188.468Y-93.98
X190.754Y-53.34
X190.754Y-60.96
X191.008Y-65.024
X191.008Y-72.644
X191.008Y-75.697
X191.008Y-83.317
X191.008Y-86.36
X191.008Y-93.98
X193.294Y-53.34
X193.294Y-60.96
X193.548Y-65.024
X193.548Y-72.644
X193.548Y-75.697
X193.548Y-83.317
X193.548Y-86.36
X193.548Y-93.98
X195.834Y-53.34
X195.834Y-60.96
X196.088Y-65.024
X196.088Y-72.644
X196.088Y-75.697
X196.088Y-83.317
X196.088Y-86.36
X196.088Y-93.98
X198.374Y-53.34
X198.374Y-60.96
X198.628Y-65.024
X198.628Y-72.644
X198.628Y-75.697
X198.628Y-83.317
X198.628Y-86.36
X198.628Y-93.98
X201.168Y-75.697
X201.168Y-83.317
X201.168Y-86.36
X201.168Y-93.98
X205.867Y-126.365
X205.867Y-128.905
X205.867Y-131.445
X205.867Y-133.985
X205.867Y-136.525
X205.867Y-139.065
X205.867Y-141.605
X205.867Y-144.145
X205.867Y-146.685
X208.026Y-54.61
X208.026Y-62.23
X215.646Y-54.61
X215.646Y-62.23
T4
X65.3Y-60.633
X65.3Y-63.173
X65.3Y-65.713
X65.3Y-68.253
X65.3Y-70.793
X65.3Y-73.333
X65.3Y-75.873
X65.3Y-78.413
X65.3Y-80.953
X65.3Y-83.493
X65.3Y-86.033
X65.3Y-88.573
X65.3Y-91.113
X65.3Y-93.653
X65.3Y-96.193
X65.3Y-98.733
X65.3Y-101.273
X65.3Y-103.813
X65.3Y-106.353
X65.3Y-108.893
X65.3Y-111.433
X65.3Y-113.973
X65.3Y-116.513
X65.3Y-119.053
X65.3Y-121.593
X65.3Y-124.133
X65.3Y-126.673
X65.3Y-129.213
X65.3Y-131.753
X65.3Y-134.293
X65.3Y-136.833
X65.3Y-139.373
X70.38Y-60.633
X70.38Y-63.173
X70.38Y-65.713
X70.38Y-68.253
X70.38Y-70.793
X70.38Y-73.333
X70.38Y-75.873
X70.38Y-78.413
X70.38Y-80.953
X70.38Y-83.493
X70.38Y-86.033
X70.38Y-88.573
X70.38Y-91.113
X70.38Y-93.653
X70.38Y-96.193
X70.38Y-98.733
X70.38Y-101.273
X70.38Y-103.813
X70.38Y-106.353
X70.38Y-108.893
X70.38Y-111.433
X70.38Y-113.973
X70.38Y-116.513
X70.38Y-119.053
X70.38Y-121.593
X70.38Y-124.133
X70.38Y-126.673
X70.38Y-129.213
X70.38Y-131.753
X70.38Y-134.293
X70.38Y-136.833
X70.38Y-139.373
X154.178Y-114.046
X181.356Y-100.711
X187.833Y-141.859
X187.833Y-145.415
X190.373Y-141.859
X190.373Y-145.415
X192.913Y-141.859
X192.913Y-145.415
X201.295Y-105.918
X201.295Y-108.458
X201.295Y-110.998
X209.296Y-105.918
X209.296Y-108.458
X209.296Y-110.998
X209.296Y-113.538
X209.296Y-116.078
X209.296Y-118.618
X209.296Y-121.158
X209.296Y-123.698
X209.296Y-126.238
X209.296Y-128.778
X209.296Y-131.318
X209.296Y-133.858
X209.296Y-136.398
X209.296Y-138.938
X209.296Y-141.478
X209.296Y-144.018
X209.296Y-146.558
X213.106Y-105.918
X213.106Y-108.458
X213.106Y-110.998
X213.106Y-113.538
X213.106Y-116.078
X213.106Y-118.618
X213.106Y-121.158
X213.106Y-123.698
X213.106Y-126.238
X213.106Y-128.778
X213.106Y-131.318
X213.106Y-133.858
X213.106Y-136.398
X213.106Y-138.938
X213.106Y-141.478
X213.106Y-144.018
X213.106Y-146.558
X215.646Y-105.918
X215.646Y-108.458
X215.646Y-110.998
X215.646Y-113.538
X215.646Y-116.078
X215.646Y-118.618
X215.646Y-121.158
X215.646Y-123.698
X215.646Y-126.238
X215.646Y-128.778
X215.646Y-131.318
X215.646Y-133.858
X215.646Y-136.398
X215.646Y-138.938
X215.646Y-141.478
X215.646Y-144.018
X215.646Y-146.558
T5
X159.512Y-108.966
X163.004Y-112.776
X166.497Y-108.966
T6
X62.76Y-55.553
X62.76Y-144.453
M30
