G04 #@! TF.GenerationSoftware,KiCad,Pcbnew,9.0.4-9.0.4-0~ubuntu22.04.1*
G04 #@! TF.CreationDate,2025-09-12T13:32:57+02:00*
G04 #@! TF.ProjectId,Exorset_Floppy,45786f72-7365-4745-9f46-6c6f7070792e,rev?*
G04 #@! TF.SameCoordinates,Original*
G04 #@! TF.FileFunction,Soldermask,Top*
G04 #@! TF.FilePolarity,Negative*
%FSLAX46Y46*%
G04 Gerber Fmt 4.6, Leading zero omitted, Abs format (unit mm)*
G04 Created by KiCad (PCBNEW 9.0.4-9.0.4-0~ubuntu22.04.1) date 2025-09-12 13:32:57*
%MOMM*%
%LPD*%
G01*
G04 APERTURE LIST*
G04 Aperture macros list*
%AMRoundRect*
0 Rectangle with rounded corners*
0 $1 Rounding radius*
0 $2 $3 $4 $5 $6 $7 $8 $9 X,Y pos of 4 corners*
0 Add a 4 corners polygon primitive as box body*
4,1,4,$2,$3,$4,$5,$6,$7,$8,$9,$2,$3,0*
0 Add four circle primitives for the rounded corners*
1,1,$1+$1,$2,$3*
1,1,$1+$1,$4,$5*
1,1,$1+$1,$6,$7*
1,1,$1+$1,$8,$9*
0 Add four rect primitives between the rounded corners*
20,1,$1+$1,$2,$3,$4,$5,0*
20,1,$1+$1,$4,$5,$6,$7,0*
20,1,$1+$1,$6,$7,$8,$9,0*
20,1,$1+$1,$8,$9,$2,$3,0*%
G04 Aperture macros list end*
%ADD10RoundRect,0.325471X0.774529X-0.537029X0.774529X0.537029X-0.774529X0.537029X-0.774529X-0.537029X0*%
%ADD11RoundRect,0.200000X-0.500000X-0.500000X0.500000X-0.500000X0.500000X0.500000X-0.500000X0.500000X0*%
%ADD12RoundRect,0.312500X-0.687500X0.687500X-0.687500X-0.687500X0.687500X-0.687500X0.687500X0.687500X0*%
%ADD13C,2.000000*%
%ADD14RoundRect,0.200000X0.850000X-0.850000X0.850000X0.850000X-0.850000X0.850000X-0.850000X-0.850000X0*%
%ADD15C,2.100000*%
%ADD16RoundRect,0.200000X0.500000X-0.500000X0.500000X0.500000X-0.500000X0.500000X-0.500000X-0.500000X0*%
%ADD17RoundRect,0.200000X0.850000X0.850000X-0.850000X0.850000X-0.850000X-0.850000X0.850000X-0.850000X0*%
%ADD18C,2.200000*%
%ADD19RoundRect,0.312500X0.687500X0.687500X-0.687500X0.687500X-0.687500X-0.687500X0.687500X-0.687500X0*%
%ADD20RoundRect,0.200000X-0.850000X-0.850000X0.850000X-0.850000X0.850000X0.850000X-0.850000X0.850000X0*%
%ADD21C,3.250000*%
%ADD22RoundRect,0.314516X0.660484X-0.660484X0.660484X0.660484X-0.660484X0.660484X-0.660484X-0.660484X0*%
%ADD23C,1.950000*%
%ADD24RoundRect,0.316667X0.633333X0.633333X-0.633333X0.633333X-0.633333X-0.633333X0.633333X-0.633333X0*%
%ADD25C,1.900000*%
%ADD26RoundRect,0.312500X-0.687500X-0.687500X0.687500X-0.687500X0.687500X0.687500X-0.687500X0.687500X0*%
%ADD27RoundRect,0.200000X-0.800000X0.800000X-0.800000X-0.800000X0.800000X-0.800000X0.800000X0.800000X0*%
G04 APERTURE END LIST*
D10*
X104394000Y-124537000D03*
X104394000Y-121412000D03*
D11*
X204470000Y-84963000D03*
X183388000Y-96266000D03*
D12*
X134366000Y-75692000D03*
D13*
X131826000Y-75692000D03*
X129286000Y-75692000D03*
X126746000Y-75692000D03*
X124206000Y-75692000D03*
X121666000Y-75692000D03*
X119126000Y-75692000D03*
X116586000Y-75692000D03*
X116586000Y-83312000D03*
X119126000Y-83312000D03*
X121666000Y-83312000D03*
X124206000Y-83312000D03*
X126746000Y-83312000D03*
X129286000Y-83312000D03*
X131826000Y-83312000D03*
X134366000Y-83312000D03*
D14*
X187833000Y-141859000D03*
D15*
X190373000Y-141859000D03*
X192913000Y-141859000D03*
D12*
X155448000Y-86614000D03*
D13*
X152908000Y-86614000D03*
X150368000Y-86614000D03*
X147828000Y-86614000D03*
X145288000Y-86614000D03*
X142748000Y-86614000D03*
X140208000Y-86614000D03*
X137668000Y-86614000D03*
X137668000Y-94234000D03*
X140208000Y-94234000D03*
X142748000Y-94234000D03*
X145288000Y-94234000D03*
X147828000Y-94234000D03*
X150368000Y-94234000D03*
X152908000Y-94234000D03*
X155448000Y-94234000D03*
D12*
X88900000Y-53340000D03*
D13*
X86360000Y-53340000D03*
X83820000Y-53340000D03*
X81280000Y-53340000D03*
X78740000Y-53340000D03*
X76200000Y-53340000D03*
X73660000Y-53340000D03*
X73660000Y-60960000D03*
X76200000Y-60960000D03*
X78740000Y-60960000D03*
X81280000Y-60960000D03*
X83820000Y-60960000D03*
X86360000Y-60960000D03*
X88900000Y-60960000D03*
D16*
X144018000Y-125603000D03*
D12*
X176022000Y-86360000D03*
D13*
X173482000Y-86360000D03*
X170942000Y-86360000D03*
X168402000Y-86360000D03*
X165862000Y-86360000D03*
X163322000Y-86360000D03*
X160782000Y-86360000D03*
X160782000Y-93980000D03*
X163322000Y-93980000D03*
X165862000Y-93980000D03*
X168402000Y-93980000D03*
X170942000Y-93980000D03*
X173482000Y-93980000D03*
X176022000Y-93980000D03*
D12*
X198628000Y-65024000D03*
D13*
X196088000Y-65024000D03*
X193548000Y-65024000D03*
X191008000Y-65024000D03*
X188468000Y-65024000D03*
X185928000Y-65024000D03*
X183388000Y-65024000D03*
X183388000Y-72644000D03*
X185928000Y-72644000D03*
X188468000Y-72644000D03*
X191008000Y-72644000D03*
X193548000Y-72644000D03*
X196088000Y-72644000D03*
X198628000Y-72644000D03*
D12*
X104140000Y-66040000D03*
D13*
X101600000Y-66040000D03*
X99060000Y-66040000D03*
X96520000Y-66040000D03*
X93980000Y-66040000D03*
X91440000Y-66040000D03*
X88900000Y-66040000D03*
X86360000Y-66040000D03*
X83820000Y-66040000D03*
X81280000Y-66040000D03*
X78740000Y-66040000D03*
X76200000Y-66040000D03*
X76200000Y-73660000D03*
X78740000Y-73660000D03*
X81280000Y-73660000D03*
X83820000Y-73660000D03*
X86360000Y-73660000D03*
X88900000Y-73660000D03*
X91440000Y-73660000D03*
X93980000Y-73660000D03*
X96520000Y-73660000D03*
X99060000Y-73660000D03*
X101600000Y-73660000D03*
X104140000Y-73660000D03*
D17*
X201295000Y-110998000D03*
D15*
X201295000Y-108458000D03*
X201295000Y-105918000D03*
D12*
X168148000Y-139451000D03*
D13*
X165608000Y-139451000D03*
X163068000Y-139451000D03*
X160528000Y-139451000D03*
X160528000Y-147071000D03*
X163068000Y-147071000D03*
X165608000Y-147071000D03*
X168148000Y-147071000D03*
D18*
X163004500Y-112776000D03*
X166497000Y-108966000D03*
X159512000Y-108966000D03*
D12*
X131826000Y-99060000D03*
D13*
X129286000Y-99060000D03*
X126746000Y-99060000D03*
X124206000Y-99060000D03*
X121666000Y-99060000D03*
X119126000Y-99060000D03*
X116586000Y-99060000D03*
X116586000Y-106680000D03*
X119126000Y-106680000D03*
X121666000Y-106680000D03*
X124206000Y-106680000D03*
X126746000Y-106680000D03*
X129286000Y-106680000D03*
X131826000Y-106680000D03*
D11*
X121666000Y-96647000D03*
D12*
X178562000Y-53340000D03*
D13*
X176022000Y-53340000D03*
X173482000Y-53340000D03*
X170942000Y-53340000D03*
X168402000Y-53340000D03*
X165862000Y-53340000D03*
X163322000Y-53340000D03*
X160782000Y-53340000D03*
X160782000Y-60960000D03*
X163322000Y-60960000D03*
X165862000Y-60960000D03*
X168402000Y-60960000D03*
X170942000Y-60960000D03*
X173482000Y-60960000D03*
X176022000Y-60960000D03*
X178562000Y-60960000D03*
D12*
X201168000Y-86360000D03*
D13*
X198628000Y-86360000D03*
X196088000Y-86360000D03*
X193548000Y-86360000D03*
X191008000Y-86360000D03*
X188468000Y-86360000D03*
X185928000Y-86360000D03*
X183388000Y-86360000D03*
X183388000Y-93980000D03*
X185928000Y-93980000D03*
X188468000Y-93980000D03*
X191008000Y-93980000D03*
X193548000Y-93980000D03*
X196088000Y-93980000D03*
X198628000Y-93980000D03*
X201168000Y-93980000D03*
D12*
X154178000Y-128270000D03*
D13*
X151638000Y-128270000D03*
X149098000Y-128270000D03*
X146558000Y-128270000D03*
X144018000Y-128270000D03*
X141478000Y-128270000D03*
X138938000Y-128270000D03*
X136398000Y-128270000D03*
X133858000Y-128270000D03*
X131318000Y-128270000D03*
X131318000Y-135890000D03*
X133858000Y-135890000D03*
X136398000Y-135890000D03*
X138938000Y-135890000D03*
X141478000Y-135890000D03*
X144018000Y-135890000D03*
X146558000Y-135890000D03*
X149098000Y-135890000D03*
X151638000Y-135890000D03*
X154178000Y-135890000D03*
D12*
X100076000Y-119385000D03*
D13*
X97536000Y-119385000D03*
X94996000Y-119385000D03*
X92456000Y-119385000D03*
X89916000Y-119385000D03*
X87376000Y-119385000D03*
X84836000Y-119385000D03*
X82296000Y-119385000D03*
X79756000Y-119385000D03*
X77216000Y-119385000D03*
X77216000Y-127005000D03*
X79756000Y-127005000D03*
X82296000Y-127005000D03*
X84836000Y-127005000D03*
X87376000Y-127005000D03*
X89916000Y-127005000D03*
X92456000Y-127005000D03*
X94996000Y-127005000D03*
X97536000Y-127005000D03*
X100076000Y-127005000D03*
D11*
X173736000Y-99314000D03*
D12*
X132080000Y-118110000D03*
D13*
X129540000Y-118110000D03*
X127000000Y-118110000D03*
X124460000Y-118110000D03*
X121920000Y-118110000D03*
X119380000Y-118110000D03*
X116840000Y-118110000D03*
X114300000Y-118110000D03*
X114300000Y-125730000D03*
X116840000Y-125730000D03*
X119380000Y-125730000D03*
X121920000Y-125730000D03*
X124460000Y-125730000D03*
X127000000Y-125730000D03*
X129540000Y-125730000D03*
X132080000Y-125730000D03*
D12*
X178562000Y-65024000D03*
D13*
X176022000Y-65024000D03*
X173482000Y-65024000D03*
X170942000Y-65024000D03*
X168402000Y-65024000D03*
X165862000Y-65024000D03*
X163322000Y-65024000D03*
X163322000Y-72644000D03*
X165862000Y-72644000D03*
X168402000Y-72644000D03*
X170942000Y-72644000D03*
X173482000Y-72644000D03*
X176022000Y-72644000D03*
X178562000Y-72644000D03*
D12*
X125476000Y-130302000D03*
D13*
X122936000Y-130302000D03*
X120396000Y-130302000D03*
X117856000Y-130302000D03*
X115316000Y-130302000D03*
X112776000Y-130302000D03*
X110236000Y-130302000D03*
X107696000Y-130302000D03*
X105156000Y-130302000D03*
X102616000Y-130302000D03*
X100076000Y-130302000D03*
X97536000Y-130302000D03*
X94996000Y-130302000D03*
X92456000Y-130302000D03*
X89916000Y-130302000D03*
X87376000Y-130302000D03*
X84836000Y-130302000D03*
X82296000Y-130302000D03*
X79756000Y-130302000D03*
X77216000Y-130302000D03*
X77216000Y-145542000D03*
X79756000Y-145542000D03*
X82296000Y-145542000D03*
X84836000Y-145542000D03*
X87376000Y-145542000D03*
X89916000Y-145542000D03*
X92456000Y-145542000D03*
X94996000Y-145542000D03*
X97536000Y-145542000D03*
X100076000Y-145542000D03*
X102616000Y-145542000D03*
X105156000Y-145542000D03*
X107696000Y-145542000D03*
X110236000Y-145542000D03*
X112776000Y-145542000D03*
X115316000Y-145542000D03*
X117856000Y-145542000D03*
X120396000Y-145542000D03*
X122936000Y-145542000D03*
X125476000Y-145542000D03*
D11*
X173736000Y-96901000D03*
D16*
X83820000Y-76327000D03*
D12*
X155448000Y-75692000D03*
D13*
X152908000Y-75692000D03*
X150368000Y-75692000D03*
X147828000Y-75692000D03*
X145288000Y-75692000D03*
X142748000Y-75692000D03*
X140208000Y-75692000D03*
X140208000Y-83312000D03*
X142748000Y-83312000D03*
X145288000Y-83312000D03*
X147828000Y-83312000D03*
X150368000Y-83312000D03*
X152908000Y-83312000D03*
X155448000Y-83312000D03*
D11*
X149606000Y-122301000D03*
D16*
X109855000Y-63754000D03*
D19*
X125857000Y-112649000D03*
D13*
X120857000Y-112649000D03*
D12*
X114935000Y-53345000D03*
D13*
X112395000Y-53345000D03*
X109855000Y-53345000D03*
X107315000Y-53345000D03*
X104775000Y-53345000D03*
X102235000Y-53345000D03*
X99695000Y-53345000D03*
X97155000Y-53345000D03*
X94615000Y-53345000D03*
X92075000Y-53345000D03*
X92075000Y-60965000D03*
X94615000Y-60965000D03*
X97155000Y-60965000D03*
X99695000Y-60965000D03*
X102235000Y-60965000D03*
X104775000Y-60965000D03*
X107315000Y-60965000D03*
X109855000Y-60965000D03*
X112395000Y-60965000D03*
X114935000Y-60965000D03*
D12*
X152908000Y-99060000D03*
D13*
X150368000Y-99060000D03*
X147828000Y-99060000D03*
X145288000Y-99060000D03*
X142748000Y-99060000D03*
X140208000Y-99060000D03*
X137668000Y-99060000D03*
X137668000Y-106680000D03*
X140208000Y-106680000D03*
X142748000Y-106680000D03*
X145288000Y-106680000D03*
X147828000Y-106680000D03*
X150368000Y-106680000D03*
X152908000Y-106680000D03*
D16*
X141478000Y-125603000D03*
D12*
X178562000Y-75692000D03*
D13*
X176022000Y-75692000D03*
X173482000Y-75692000D03*
X170942000Y-75692000D03*
X168402000Y-75692000D03*
X165862000Y-75692000D03*
X163322000Y-75692000D03*
X163322000Y-83312000D03*
X165862000Y-83312000D03*
X168402000Y-83312000D03*
X170942000Y-83312000D03*
X173482000Y-83312000D03*
X176022000Y-83312000D03*
X178562000Y-83312000D03*
D20*
X213106000Y-105918000D03*
D15*
X215646000Y-105918000D03*
X213106000Y-108458000D03*
X215646000Y-108458000D03*
X213106000Y-110998000D03*
X215646000Y-110998000D03*
X213106000Y-113538000D03*
X215646000Y-113538000D03*
X213106000Y-116078000D03*
X215646000Y-116078000D03*
X213106000Y-118618000D03*
X215646000Y-118618000D03*
X213106000Y-121158000D03*
X215646000Y-121158000D03*
X213106000Y-123698000D03*
X215646000Y-123698000D03*
X213106000Y-126238000D03*
X215646000Y-126238000D03*
X213106000Y-128778000D03*
X215646000Y-128778000D03*
X213106000Y-131318000D03*
X215646000Y-131318000D03*
X213106000Y-133858000D03*
X215646000Y-133858000D03*
X213106000Y-136398000D03*
X215646000Y-136398000D03*
X213106000Y-138938000D03*
X215646000Y-138938000D03*
X213106000Y-141478000D03*
X215646000Y-141478000D03*
X213106000Y-144018000D03*
X215646000Y-144018000D03*
X213106000Y-146558000D03*
X215646000Y-146558000D03*
D12*
X131826000Y-86614000D03*
D13*
X129286000Y-86614000D03*
X126746000Y-86614000D03*
X124206000Y-86614000D03*
X121666000Y-86614000D03*
X119126000Y-86614000D03*
X116586000Y-86614000D03*
X116586000Y-94234000D03*
X119126000Y-94234000D03*
X121666000Y-94234000D03*
X124206000Y-94234000D03*
X126746000Y-94234000D03*
X129286000Y-94234000D03*
X131826000Y-94234000D03*
D20*
X181356000Y-100711000D03*
D11*
X179197000Y-93980000D03*
D12*
X198374000Y-53340000D03*
D13*
X195834000Y-53340000D03*
X193294000Y-53340000D03*
X190754000Y-53340000D03*
X188214000Y-53340000D03*
X185674000Y-53340000D03*
X183134000Y-53340000D03*
X183134000Y-60960000D03*
X185674000Y-60960000D03*
X188214000Y-60960000D03*
X190754000Y-60960000D03*
X193294000Y-60960000D03*
X195834000Y-60960000D03*
X198374000Y-60960000D03*
D21*
X62760000Y-144453000D03*
X62760000Y-55553000D03*
D22*
X65300000Y-139373000D03*
D23*
X65300000Y-136833000D03*
X65300000Y-134293000D03*
X65300000Y-131753000D03*
X65300000Y-129213000D03*
X65300000Y-126673000D03*
X65300000Y-124133000D03*
X65300000Y-121593000D03*
X65300000Y-119053000D03*
X65300000Y-116513000D03*
X65300000Y-113973000D03*
X65300000Y-111433000D03*
X65300000Y-108893000D03*
X65300000Y-106353000D03*
X65300000Y-103813000D03*
X65300000Y-101273000D03*
X65300000Y-98733000D03*
X65300000Y-96193000D03*
X65300000Y-93653000D03*
X65300000Y-91113000D03*
X65300000Y-88573000D03*
X65300000Y-86033000D03*
X65300000Y-83493000D03*
X65300000Y-80953000D03*
X65300000Y-78413000D03*
X65300000Y-75873000D03*
X65300000Y-73333000D03*
X65300000Y-70793000D03*
X65300000Y-68253000D03*
X65300000Y-65713000D03*
X65300000Y-63173000D03*
X65300000Y-60633000D03*
X70380000Y-139373000D03*
X70380000Y-136833000D03*
X70380000Y-134293000D03*
X70380000Y-131753000D03*
X70380000Y-129213000D03*
X70380000Y-126673000D03*
X70380000Y-124133000D03*
X70380000Y-121593000D03*
X70380000Y-119053000D03*
X70380000Y-116513000D03*
X70380000Y-113973000D03*
X70380000Y-111433000D03*
X70380000Y-108893000D03*
X70380000Y-106353000D03*
X70380000Y-103813000D03*
X70380000Y-101273000D03*
X70380000Y-98733000D03*
X70380000Y-96193000D03*
X70380000Y-93653000D03*
X70380000Y-91113000D03*
X70380000Y-88573000D03*
X70380000Y-86033000D03*
X70380000Y-83493000D03*
X70380000Y-80953000D03*
X70380000Y-78413000D03*
X70380000Y-75873000D03*
X70380000Y-73333000D03*
X70380000Y-70793000D03*
X70380000Y-68253000D03*
X70380000Y-65713000D03*
X70380000Y-63173000D03*
X70380000Y-60633000D03*
D24*
X166497000Y-100330000D03*
D25*
X163957000Y-102870000D03*
X161417000Y-100330000D03*
D26*
X138303000Y-113411000D03*
D13*
X143303000Y-113411000D03*
D12*
X180848000Y-116586000D03*
D13*
X178308000Y-116586000D03*
X175768000Y-116586000D03*
X173228000Y-116586000D03*
X170688000Y-116586000D03*
X168148000Y-116586000D03*
X165608000Y-116586000D03*
X165608000Y-124206000D03*
X168148000Y-124206000D03*
X170688000Y-124206000D03*
X173228000Y-124206000D03*
X175768000Y-124206000D03*
X178308000Y-124206000D03*
X180848000Y-124206000D03*
D14*
X187833000Y-145415000D03*
D15*
X190373000Y-145415000D03*
X192913000Y-145415000D03*
D16*
X107315000Y-63754000D03*
D12*
X105156000Y-80264000D03*
D13*
X102616000Y-80264000D03*
X100076000Y-80264000D03*
X97536000Y-80264000D03*
X94996000Y-80264000D03*
X92456000Y-80264000D03*
X89916000Y-80264000D03*
X87376000Y-80264000D03*
X84836000Y-80264000D03*
X82296000Y-80264000D03*
X79756000Y-80264000D03*
X77216000Y-80264000D03*
X77216000Y-95504000D03*
X79756000Y-95504000D03*
X82296000Y-95504000D03*
X84836000Y-95504000D03*
X87376000Y-95504000D03*
X89916000Y-95504000D03*
X92456000Y-95504000D03*
X94996000Y-95504000D03*
X97536000Y-95504000D03*
X100076000Y-95504000D03*
X102616000Y-95504000D03*
X105156000Y-95504000D03*
D12*
X201168000Y-75697000D03*
D13*
X198628000Y-75697000D03*
X196088000Y-75697000D03*
X193548000Y-75697000D03*
X191008000Y-75697000D03*
X188468000Y-75697000D03*
X185928000Y-75697000D03*
X183388000Y-75697000D03*
X183388000Y-83317000D03*
X185928000Y-83317000D03*
X188468000Y-83317000D03*
X191008000Y-83317000D03*
X193548000Y-83317000D03*
X196088000Y-83317000D03*
X198628000Y-83317000D03*
X201168000Y-83317000D03*
D16*
X86360000Y-76327000D03*
D12*
X105156000Y-100330000D03*
D13*
X102616000Y-100330000D03*
X100076000Y-100330000D03*
X97536000Y-100330000D03*
X94996000Y-100330000D03*
X92456000Y-100330000D03*
X89916000Y-100330000D03*
X87376000Y-100330000D03*
X84836000Y-100330000D03*
X82296000Y-100330000D03*
X79756000Y-100330000D03*
X77216000Y-100330000D03*
X77216000Y-115570000D03*
X79756000Y-115570000D03*
X82296000Y-115570000D03*
X84836000Y-115570000D03*
X87376000Y-115570000D03*
X89916000Y-115570000D03*
X92456000Y-115570000D03*
X94996000Y-115570000D03*
X97536000Y-115570000D03*
X100076000Y-115570000D03*
X102616000Y-115570000D03*
X105156000Y-115570000D03*
D12*
X154178000Y-139446000D03*
D13*
X151638000Y-139446000D03*
X149098000Y-139446000D03*
X146558000Y-139446000D03*
X144018000Y-139446000D03*
X141478000Y-139446000D03*
X138938000Y-139446000D03*
X136398000Y-139446000D03*
X133858000Y-139446000D03*
X131318000Y-139446000D03*
X131318000Y-147066000D03*
X133858000Y-147066000D03*
X136398000Y-147066000D03*
X138938000Y-147066000D03*
X141478000Y-147066000D03*
X144018000Y-147066000D03*
X146558000Y-147066000D03*
X149098000Y-147066000D03*
X151638000Y-147066000D03*
X154178000Y-147066000D03*
D20*
X209296000Y-105918000D03*
D15*
X209296000Y-108458000D03*
X209296000Y-110998000D03*
X209296000Y-113538000D03*
X209296000Y-116078000D03*
X209296000Y-118618000D03*
X209296000Y-121158000D03*
X209296000Y-123698000D03*
X209296000Y-126238000D03*
X209296000Y-128778000D03*
X209296000Y-131318000D03*
X209296000Y-133858000D03*
X209296000Y-136398000D03*
X209296000Y-138938000D03*
X209296000Y-141478000D03*
X209296000Y-144018000D03*
X209296000Y-146558000D03*
D16*
X89027000Y-76327000D03*
D11*
X169291000Y-103378000D03*
D12*
X134366000Y-53340000D03*
D13*
X131826000Y-53340000D03*
X129286000Y-53340000D03*
X126746000Y-53340000D03*
X124206000Y-53340000D03*
X121666000Y-53340000D03*
X119126000Y-53340000D03*
X119126000Y-60960000D03*
X121666000Y-60960000D03*
X124206000Y-60960000D03*
X126746000Y-60960000D03*
X129286000Y-60960000D03*
X131826000Y-60960000D03*
X134366000Y-60960000D03*
D12*
X131826000Y-64770000D03*
D13*
X129286000Y-64770000D03*
X126746000Y-64770000D03*
X124206000Y-64770000D03*
X121666000Y-64770000D03*
X119126000Y-64770000D03*
X116586000Y-64770000D03*
X116586000Y-72390000D03*
X119126000Y-72390000D03*
X121666000Y-72390000D03*
X124206000Y-72390000D03*
X126746000Y-72390000D03*
X129286000Y-72390000D03*
X131826000Y-72390000D03*
D12*
X155448000Y-64770000D03*
D13*
X152908000Y-64770000D03*
X150368000Y-64770000D03*
X147828000Y-64770000D03*
X145288000Y-64770000D03*
X142748000Y-64770000D03*
X140208000Y-64770000D03*
X137668000Y-64770000D03*
X137668000Y-72390000D03*
X140208000Y-72390000D03*
X142748000Y-72390000D03*
X145288000Y-72390000D03*
X147828000Y-72390000D03*
X150368000Y-72390000D03*
X152908000Y-72390000D03*
X155448000Y-72390000D03*
D27*
X205867000Y-126365000D03*
D13*
X205867000Y-128905000D03*
X205867000Y-131445000D03*
X205867000Y-133985000D03*
X205867000Y-136525000D03*
X205867000Y-139065000D03*
X205867000Y-141605000D03*
X205867000Y-144145000D03*
X205867000Y-146685000D03*
D20*
X154178000Y-114046000D03*
M02*
