G04 #@! TF.GenerationSoftware,KiCad,Pcbnew,9.0.4-9.0.4-0~ubuntu22.04.1*
G04 #@! TF.CreationDate,2025-09-09T14:14:26+02:00*
G04 #@! TF.ProjectId,Exorset_Floppy,45786f72-7365-4745-9f46-6c6f7070792e,rev?*
G04 #@! TF.SameCoordinates,Original*
G04 #@! TF.FileFunction,Legend,Bot*
G04 #@! TF.FilePolarity,Positive*
%FSLAX46Y46*%
G04 Gerber Fmt 4.6, Leading zero omitted, Abs format (unit mm)*
G04 Created by KiCad (PCBNEW 9.0.4-9.0.4-0~ubuntu22.04.1) date 2025-09-09 14:14:26*
%MOMM*%
%LPD*%
G01*
G04 APERTURE LIST*
%ADD10C,0.150000*%
%ADD11C,0.120000*%
G04 APERTURE END LIST*
D10*
X144697220Y-115788099D02*
X144697220Y-116597622D01*
X144697220Y-116597622D02*
X144649601Y-116692860D01*
X144649601Y-116692860D02*
X144601982Y-116740480D01*
X144601982Y-116740480D02*
X144506744Y-116788099D01*
X144506744Y-116788099D02*
X144316268Y-116788099D01*
X144316268Y-116788099D02*
X144221030Y-116740480D01*
X144221030Y-116740480D02*
X144173411Y-116692860D01*
X144173411Y-116692860D02*
X144125792Y-116597622D01*
X144125792Y-116597622D02*
X144125792Y-115788099D01*
X143697220Y-115883337D02*
X143649601Y-115835718D01*
X143649601Y-115835718D02*
X143554363Y-115788099D01*
X143554363Y-115788099D02*
X143316268Y-115788099D01*
X143316268Y-115788099D02*
X143221030Y-115835718D01*
X143221030Y-115835718D02*
X143173411Y-115883337D01*
X143173411Y-115883337D02*
X143125792Y-115978575D01*
X143125792Y-115978575D02*
X143125792Y-116073813D01*
X143125792Y-116073813D02*
X143173411Y-116216670D01*
X143173411Y-116216670D02*
X143744839Y-116788099D01*
X143744839Y-116788099D02*
X143125792Y-116788099D01*
X142173411Y-116788099D02*
X142744839Y-116788099D01*
X142459125Y-116788099D02*
X142459125Y-115788099D01*
X142459125Y-115788099D02*
X142554363Y-115930956D01*
X142554363Y-115930956D02*
X142649601Y-116026194D01*
X142649601Y-116026194D02*
X142744839Y-116073813D01*
X140982934Y-116788099D02*
X140982934Y-116121432D01*
X140982934Y-115788099D02*
X141030553Y-115835718D01*
X141030553Y-115835718D02*
X140982934Y-115883337D01*
X140982934Y-115883337D02*
X140935315Y-115835718D01*
X140935315Y-115835718D02*
X140982934Y-115788099D01*
X140982934Y-115788099D02*
X140982934Y-115883337D01*
X140554363Y-116740480D02*
X140459125Y-116788099D01*
X140459125Y-116788099D02*
X140268649Y-116788099D01*
X140268649Y-116788099D02*
X140173411Y-116740480D01*
X140173411Y-116740480D02*
X140125792Y-116645241D01*
X140125792Y-116645241D02*
X140125792Y-116597622D01*
X140125792Y-116597622D02*
X140173411Y-116502384D01*
X140173411Y-116502384D02*
X140268649Y-116454765D01*
X140268649Y-116454765D02*
X140411506Y-116454765D01*
X140411506Y-116454765D02*
X140506744Y-116407146D01*
X140506744Y-116407146D02*
X140554363Y-116311908D01*
X140554363Y-116311908D02*
X140554363Y-116264289D01*
X140554363Y-116264289D02*
X140506744Y-116169051D01*
X140506744Y-116169051D02*
X140411506Y-116121432D01*
X140411506Y-116121432D02*
X140268649Y-116121432D01*
X140268649Y-116121432D02*
X140173411Y-116169051D01*
X144792458Y-117398043D02*
X144125792Y-117398043D01*
X144125792Y-117398043D02*
X144554363Y-118398043D01*
X143316268Y-117731376D02*
X143316268Y-118398043D01*
X143554363Y-117350424D02*
X143792458Y-118064709D01*
X143792458Y-118064709D02*
X143173411Y-118064709D01*
X142316268Y-118398043D02*
X142792458Y-118398043D01*
X142792458Y-118398043D02*
X142792458Y-117398043D01*
X142030553Y-118350424D02*
X141887696Y-118398043D01*
X141887696Y-118398043D02*
X141649601Y-118398043D01*
X141649601Y-118398043D02*
X141554363Y-118350424D01*
X141554363Y-118350424D02*
X141506744Y-118302804D01*
X141506744Y-118302804D02*
X141459125Y-118207566D01*
X141459125Y-118207566D02*
X141459125Y-118112328D01*
X141459125Y-118112328D02*
X141506744Y-118017090D01*
X141506744Y-118017090D02*
X141554363Y-117969471D01*
X141554363Y-117969471D02*
X141649601Y-117921852D01*
X141649601Y-117921852D02*
X141840077Y-117874233D01*
X141840077Y-117874233D02*
X141935315Y-117826614D01*
X141935315Y-117826614D02*
X141982934Y-117778995D01*
X141982934Y-117778995D02*
X142030553Y-117683757D01*
X142030553Y-117683757D02*
X142030553Y-117588519D01*
X142030553Y-117588519D02*
X141982934Y-117493281D01*
X141982934Y-117493281D02*
X141935315Y-117445662D01*
X141935315Y-117445662D02*
X141840077Y-117398043D01*
X141840077Y-117398043D02*
X141601982Y-117398043D01*
X141601982Y-117398043D02*
X141459125Y-117445662D01*
X140601982Y-117398043D02*
X140792458Y-117398043D01*
X140792458Y-117398043D02*
X140887696Y-117445662D01*
X140887696Y-117445662D02*
X140935315Y-117493281D01*
X140935315Y-117493281D02*
X141030553Y-117636138D01*
X141030553Y-117636138D02*
X141078172Y-117826614D01*
X141078172Y-117826614D02*
X141078172Y-118207566D01*
X141078172Y-118207566D02*
X141030553Y-118302804D01*
X141030553Y-118302804D02*
X140982934Y-118350424D01*
X140982934Y-118350424D02*
X140887696Y-118398043D01*
X140887696Y-118398043D02*
X140697220Y-118398043D01*
X140697220Y-118398043D02*
X140601982Y-118350424D01*
X140601982Y-118350424D02*
X140554363Y-118302804D01*
X140554363Y-118302804D02*
X140506744Y-118207566D01*
X140506744Y-118207566D02*
X140506744Y-117969471D01*
X140506744Y-117969471D02*
X140554363Y-117874233D01*
X140554363Y-117874233D02*
X140601982Y-117826614D01*
X140601982Y-117826614D02*
X140697220Y-117778995D01*
X140697220Y-117778995D02*
X140887696Y-117778995D01*
X140887696Y-117778995D02*
X140982934Y-117826614D01*
X140982934Y-117826614D02*
X141030553Y-117874233D01*
X141030553Y-117874233D02*
X141078172Y-117969471D01*
X140125791Y-117493281D02*
X140078172Y-117445662D01*
X140078172Y-117445662D02*
X139982934Y-117398043D01*
X139982934Y-117398043D02*
X139744839Y-117398043D01*
X139744839Y-117398043D02*
X139649601Y-117445662D01*
X139649601Y-117445662D02*
X139601982Y-117493281D01*
X139601982Y-117493281D02*
X139554363Y-117588519D01*
X139554363Y-117588519D02*
X139554363Y-117683757D01*
X139554363Y-117683757D02*
X139601982Y-117826614D01*
X139601982Y-117826614D02*
X140173410Y-118398043D01*
X140173410Y-118398043D02*
X139554363Y-118398043D01*
X138697220Y-117731376D02*
X138697220Y-118398043D01*
X138935315Y-117350424D02*
X139173410Y-118064709D01*
X139173410Y-118064709D02*
X138554363Y-118064709D01*
X138173410Y-118302804D02*
X138125791Y-118350424D01*
X138125791Y-118350424D02*
X138173410Y-118398043D01*
X138173410Y-118398043D02*
X138221029Y-118350424D01*
X138221029Y-118350424D02*
X138173410Y-118302804D01*
X138173410Y-118302804D02*
X138173410Y-118398043D01*
X138173410Y-117778995D02*
X138125791Y-117826614D01*
X138125791Y-117826614D02*
X138173410Y-117874233D01*
X138173410Y-117874233D02*
X138221029Y-117826614D01*
X138221029Y-117826614D02*
X138173410Y-117778995D01*
X138173410Y-117778995D02*
X138173410Y-117874233D01*
X144411506Y-119007987D02*
X144411506Y-119722272D01*
X144411506Y-119722272D02*
X144459125Y-119865129D01*
X144459125Y-119865129D02*
X144554363Y-119960368D01*
X144554363Y-119960368D02*
X144697220Y-120007987D01*
X144697220Y-120007987D02*
X144792458Y-120007987D01*
X143935315Y-120007987D02*
X143935315Y-119007987D01*
X143935315Y-119007987D02*
X143554363Y-119007987D01*
X143554363Y-119007987D02*
X143459125Y-119055606D01*
X143459125Y-119055606D02*
X143411506Y-119103225D01*
X143411506Y-119103225D02*
X143363887Y-119198463D01*
X143363887Y-119198463D02*
X143363887Y-119341320D01*
X143363887Y-119341320D02*
X143411506Y-119436558D01*
X143411506Y-119436558D02*
X143459125Y-119484177D01*
X143459125Y-119484177D02*
X143554363Y-119531796D01*
X143554363Y-119531796D02*
X143935315Y-119531796D01*
X142982934Y-119103225D02*
X142935315Y-119055606D01*
X142935315Y-119055606D02*
X142840077Y-119007987D01*
X142840077Y-119007987D02*
X142601982Y-119007987D01*
X142601982Y-119007987D02*
X142506744Y-119055606D01*
X142506744Y-119055606D02*
X142459125Y-119103225D01*
X142459125Y-119103225D02*
X142411506Y-119198463D01*
X142411506Y-119198463D02*
X142411506Y-119293701D01*
X142411506Y-119293701D02*
X142459125Y-119436558D01*
X142459125Y-119436558D02*
X143030553Y-120007987D01*
X143030553Y-120007987D02*
X142411506Y-120007987D01*
X141982934Y-119912748D02*
X141935315Y-119960368D01*
X141935315Y-119960368D02*
X141982934Y-120007987D01*
X141982934Y-120007987D02*
X142030553Y-119960368D01*
X142030553Y-119960368D02*
X141982934Y-119912748D01*
X141982934Y-119912748D02*
X141982934Y-120007987D01*
X141982934Y-119388939D02*
X141935315Y-119436558D01*
X141935315Y-119436558D02*
X141982934Y-119484177D01*
X141982934Y-119484177D02*
X142030553Y-119436558D01*
X142030553Y-119436558D02*
X141982934Y-119388939D01*
X141982934Y-119388939D02*
X141982934Y-119484177D01*
X140221030Y-120007987D02*
X140792458Y-120007987D01*
X140506744Y-120007987D02*
X140506744Y-119007987D01*
X140506744Y-119007987D02*
X140601982Y-119150844D01*
X140601982Y-119150844D02*
X140697220Y-119246082D01*
X140697220Y-119246082D02*
X140792458Y-119293701D01*
X139792458Y-119627034D02*
X139030554Y-119627034D01*
X138601982Y-119103225D02*
X138554363Y-119055606D01*
X138554363Y-119055606D02*
X138459125Y-119007987D01*
X138459125Y-119007987D02*
X138221030Y-119007987D01*
X138221030Y-119007987D02*
X138125792Y-119055606D01*
X138125792Y-119055606D02*
X138078173Y-119103225D01*
X138078173Y-119103225D02*
X138030554Y-119198463D01*
X138030554Y-119198463D02*
X138030554Y-119293701D01*
X138030554Y-119293701D02*
X138078173Y-119436558D01*
X138078173Y-119436558D02*
X138649601Y-120007987D01*
X138649601Y-120007987D02*
X138030554Y-120007987D01*
X144411506Y-120617931D02*
X144411506Y-121332216D01*
X144411506Y-121332216D02*
X144459125Y-121475073D01*
X144459125Y-121475073D02*
X144554363Y-121570312D01*
X144554363Y-121570312D02*
X144697220Y-121617931D01*
X144697220Y-121617931D02*
X144792458Y-121617931D01*
X143935315Y-121617931D02*
X143935315Y-120617931D01*
X143935315Y-120617931D02*
X143554363Y-120617931D01*
X143554363Y-120617931D02*
X143459125Y-120665550D01*
X143459125Y-120665550D02*
X143411506Y-120713169D01*
X143411506Y-120713169D02*
X143363887Y-120808407D01*
X143363887Y-120808407D02*
X143363887Y-120951264D01*
X143363887Y-120951264D02*
X143411506Y-121046502D01*
X143411506Y-121046502D02*
X143459125Y-121094121D01*
X143459125Y-121094121D02*
X143554363Y-121141740D01*
X143554363Y-121141740D02*
X143935315Y-121141740D01*
X143030553Y-120617931D02*
X142411506Y-120617931D01*
X142411506Y-120617931D02*
X142744839Y-120998883D01*
X142744839Y-120998883D02*
X142601982Y-120998883D01*
X142601982Y-120998883D02*
X142506744Y-121046502D01*
X142506744Y-121046502D02*
X142459125Y-121094121D01*
X142459125Y-121094121D02*
X142411506Y-121189359D01*
X142411506Y-121189359D02*
X142411506Y-121427454D01*
X142411506Y-121427454D02*
X142459125Y-121522692D01*
X142459125Y-121522692D02*
X142506744Y-121570312D01*
X142506744Y-121570312D02*
X142601982Y-121617931D01*
X142601982Y-121617931D02*
X142887696Y-121617931D01*
X142887696Y-121617931D02*
X142982934Y-121570312D01*
X142982934Y-121570312D02*
X143030553Y-121522692D01*
X141982934Y-121522692D02*
X141935315Y-121570312D01*
X141935315Y-121570312D02*
X141982934Y-121617931D01*
X141982934Y-121617931D02*
X142030553Y-121570312D01*
X142030553Y-121570312D02*
X141982934Y-121522692D01*
X141982934Y-121522692D02*
X141982934Y-121617931D01*
X141982934Y-120998883D02*
X141935315Y-121046502D01*
X141935315Y-121046502D02*
X141982934Y-121094121D01*
X141982934Y-121094121D02*
X142030553Y-121046502D01*
X142030553Y-121046502D02*
X141982934Y-120998883D01*
X141982934Y-120998883D02*
X141982934Y-121094121D01*
X140792458Y-120713169D02*
X140744839Y-120665550D01*
X140744839Y-120665550D02*
X140649601Y-120617931D01*
X140649601Y-120617931D02*
X140411506Y-120617931D01*
X140411506Y-120617931D02*
X140316268Y-120665550D01*
X140316268Y-120665550D02*
X140268649Y-120713169D01*
X140268649Y-120713169D02*
X140221030Y-120808407D01*
X140221030Y-120808407D02*
X140221030Y-120903645D01*
X140221030Y-120903645D02*
X140268649Y-121046502D01*
X140268649Y-121046502D02*
X140840077Y-121617931D01*
X140840077Y-121617931D02*
X140221030Y-121617931D01*
X139792458Y-121236978D02*
X139030554Y-121236978D01*
X138649601Y-120617931D02*
X138030554Y-120617931D01*
X138030554Y-120617931D02*
X138363887Y-120998883D01*
X138363887Y-120998883D02*
X138221030Y-120998883D01*
X138221030Y-120998883D02*
X138125792Y-121046502D01*
X138125792Y-121046502D02*
X138078173Y-121094121D01*
X138078173Y-121094121D02*
X138030554Y-121189359D01*
X138030554Y-121189359D02*
X138030554Y-121427454D01*
X138030554Y-121427454D02*
X138078173Y-121522692D01*
X138078173Y-121522692D02*
X138125792Y-121570312D01*
X138125792Y-121570312D02*
X138221030Y-121617931D01*
X138221030Y-121617931D02*
X138506744Y-121617931D01*
X138506744Y-121617931D02*
X138601982Y-121570312D01*
X138601982Y-121570312D02*
X138649601Y-121522692D01*
X144411506Y-122227875D02*
X144411506Y-122942160D01*
X144411506Y-122942160D02*
X144459125Y-123085017D01*
X144459125Y-123085017D02*
X144554363Y-123180256D01*
X144554363Y-123180256D02*
X144697220Y-123227875D01*
X144697220Y-123227875D02*
X144792458Y-123227875D01*
X143935315Y-123227875D02*
X143935315Y-122227875D01*
X143935315Y-122227875D02*
X143554363Y-122227875D01*
X143554363Y-122227875D02*
X143459125Y-122275494D01*
X143459125Y-122275494D02*
X143411506Y-122323113D01*
X143411506Y-122323113D02*
X143363887Y-122418351D01*
X143363887Y-122418351D02*
X143363887Y-122561208D01*
X143363887Y-122561208D02*
X143411506Y-122656446D01*
X143411506Y-122656446D02*
X143459125Y-122704065D01*
X143459125Y-122704065D02*
X143554363Y-122751684D01*
X143554363Y-122751684D02*
X143935315Y-122751684D01*
X142506744Y-122227875D02*
X142697220Y-122227875D01*
X142697220Y-122227875D02*
X142792458Y-122275494D01*
X142792458Y-122275494D02*
X142840077Y-122323113D01*
X142840077Y-122323113D02*
X142935315Y-122465970D01*
X142935315Y-122465970D02*
X142982934Y-122656446D01*
X142982934Y-122656446D02*
X142982934Y-123037398D01*
X142982934Y-123037398D02*
X142935315Y-123132636D01*
X142935315Y-123132636D02*
X142887696Y-123180256D01*
X142887696Y-123180256D02*
X142792458Y-123227875D01*
X142792458Y-123227875D02*
X142601982Y-123227875D01*
X142601982Y-123227875D02*
X142506744Y-123180256D01*
X142506744Y-123180256D02*
X142459125Y-123132636D01*
X142459125Y-123132636D02*
X142411506Y-123037398D01*
X142411506Y-123037398D02*
X142411506Y-122799303D01*
X142411506Y-122799303D02*
X142459125Y-122704065D01*
X142459125Y-122704065D02*
X142506744Y-122656446D01*
X142506744Y-122656446D02*
X142601982Y-122608827D01*
X142601982Y-122608827D02*
X142792458Y-122608827D01*
X142792458Y-122608827D02*
X142887696Y-122656446D01*
X142887696Y-122656446D02*
X142935315Y-122704065D01*
X142935315Y-122704065D02*
X142982934Y-122799303D01*
X141982934Y-123132636D02*
X141935315Y-123180256D01*
X141935315Y-123180256D02*
X141982934Y-123227875D01*
X141982934Y-123227875D02*
X142030553Y-123180256D01*
X142030553Y-123180256D02*
X141982934Y-123132636D01*
X141982934Y-123132636D02*
X141982934Y-123227875D01*
X141982934Y-122608827D02*
X141935315Y-122656446D01*
X141935315Y-122656446D02*
X141982934Y-122704065D01*
X141982934Y-122704065D02*
X142030553Y-122656446D01*
X142030553Y-122656446D02*
X141982934Y-122608827D01*
X141982934Y-122608827D02*
X141982934Y-122704065D01*
X140792458Y-122323113D02*
X140744839Y-122275494D01*
X140744839Y-122275494D02*
X140649601Y-122227875D01*
X140649601Y-122227875D02*
X140411506Y-122227875D01*
X140411506Y-122227875D02*
X140316268Y-122275494D01*
X140316268Y-122275494D02*
X140268649Y-122323113D01*
X140268649Y-122323113D02*
X140221030Y-122418351D01*
X140221030Y-122418351D02*
X140221030Y-122513589D01*
X140221030Y-122513589D02*
X140268649Y-122656446D01*
X140268649Y-122656446D02*
X140840077Y-123227875D01*
X140840077Y-123227875D02*
X140221030Y-123227875D01*
X139792458Y-122846922D02*
X139030554Y-122846922D01*
X138649601Y-122227875D02*
X138030554Y-122227875D01*
X138030554Y-122227875D02*
X138363887Y-122608827D01*
X138363887Y-122608827D02*
X138221030Y-122608827D01*
X138221030Y-122608827D02*
X138125792Y-122656446D01*
X138125792Y-122656446D02*
X138078173Y-122704065D01*
X138078173Y-122704065D02*
X138030554Y-122799303D01*
X138030554Y-122799303D02*
X138030554Y-123037398D01*
X138030554Y-123037398D02*
X138078173Y-123132636D01*
X138078173Y-123132636D02*
X138125792Y-123180256D01*
X138125792Y-123180256D02*
X138221030Y-123227875D01*
X138221030Y-123227875D02*
X138506744Y-123227875D01*
X138506744Y-123227875D02*
X138601982Y-123180256D01*
X138601982Y-123180256D02*
X138649601Y-123132636D01*
X144411506Y-123837819D02*
X144411506Y-124552104D01*
X144411506Y-124552104D02*
X144459125Y-124694961D01*
X144459125Y-124694961D02*
X144554363Y-124790200D01*
X144554363Y-124790200D02*
X144697220Y-124837819D01*
X144697220Y-124837819D02*
X144792458Y-124837819D01*
X143935315Y-124837819D02*
X143935315Y-123837819D01*
X143935315Y-123837819D02*
X143554363Y-123837819D01*
X143554363Y-123837819D02*
X143459125Y-123885438D01*
X143459125Y-123885438D02*
X143411506Y-123933057D01*
X143411506Y-123933057D02*
X143363887Y-124028295D01*
X143363887Y-124028295D02*
X143363887Y-124171152D01*
X143363887Y-124171152D02*
X143411506Y-124266390D01*
X143411506Y-124266390D02*
X143459125Y-124314009D01*
X143459125Y-124314009D02*
X143554363Y-124361628D01*
X143554363Y-124361628D02*
X143935315Y-124361628D01*
X143030553Y-123837819D02*
X142363887Y-123837819D01*
X142363887Y-123837819D02*
X142792458Y-124837819D01*
X141982934Y-124742580D02*
X141935315Y-124790200D01*
X141935315Y-124790200D02*
X141982934Y-124837819D01*
X141982934Y-124837819D02*
X142030553Y-124790200D01*
X142030553Y-124790200D02*
X141982934Y-124742580D01*
X141982934Y-124742580D02*
X141982934Y-124837819D01*
X141982934Y-124218771D02*
X141935315Y-124266390D01*
X141935315Y-124266390D02*
X141982934Y-124314009D01*
X141982934Y-124314009D02*
X142030553Y-124266390D01*
X142030553Y-124266390D02*
X141982934Y-124218771D01*
X141982934Y-124218771D02*
X141982934Y-124314009D01*
X140221030Y-124837819D02*
X140792458Y-124837819D01*
X140506744Y-124837819D02*
X140506744Y-123837819D01*
X140506744Y-123837819D02*
X140601982Y-123980676D01*
X140601982Y-123980676D02*
X140697220Y-124075914D01*
X140697220Y-124075914D02*
X140792458Y-124123533D01*
X139792458Y-124456866D02*
X139030554Y-124456866D01*
X138601982Y-123933057D02*
X138554363Y-123885438D01*
X138554363Y-123885438D02*
X138459125Y-123837819D01*
X138459125Y-123837819D02*
X138221030Y-123837819D01*
X138221030Y-123837819D02*
X138125792Y-123885438D01*
X138125792Y-123885438D02*
X138078173Y-123933057D01*
X138078173Y-123933057D02*
X138030554Y-124028295D01*
X138030554Y-124028295D02*
X138030554Y-124123533D01*
X138030554Y-124123533D02*
X138078173Y-124266390D01*
X138078173Y-124266390D02*
X138649601Y-124837819D01*
X138649601Y-124837819D02*
X138030554Y-124837819D01*
X158159220Y-115280099D02*
X158159220Y-116089622D01*
X158159220Y-116089622D02*
X158111601Y-116184860D01*
X158111601Y-116184860D02*
X158063982Y-116232480D01*
X158063982Y-116232480D02*
X157968744Y-116280099D01*
X157968744Y-116280099D02*
X157778268Y-116280099D01*
X157778268Y-116280099D02*
X157683030Y-116232480D01*
X157683030Y-116232480D02*
X157635411Y-116184860D01*
X157635411Y-116184860D02*
X157587792Y-116089622D01*
X157587792Y-116089622D02*
X157587792Y-115280099D01*
X157159220Y-115375337D02*
X157111601Y-115327718D01*
X157111601Y-115327718D02*
X157016363Y-115280099D01*
X157016363Y-115280099D02*
X156778268Y-115280099D01*
X156778268Y-115280099D02*
X156683030Y-115327718D01*
X156683030Y-115327718D02*
X156635411Y-115375337D01*
X156635411Y-115375337D02*
X156587792Y-115470575D01*
X156587792Y-115470575D02*
X156587792Y-115565813D01*
X156587792Y-115565813D02*
X156635411Y-115708670D01*
X156635411Y-115708670D02*
X157206839Y-116280099D01*
X157206839Y-116280099D02*
X156587792Y-116280099D01*
X155635411Y-116280099D02*
X156206839Y-116280099D01*
X155921125Y-116280099D02*
X155921125Y-115280099D01*
X155921125Y-115280099D02*
X156016363Y-115422956D01*
X156016363Y-115422956D02*
X156111601Y-115518194D01*
X156111601Y-115518194D02*
X156206839Y-115565813D01*
X154444934Y-116280099D02*
X154444934Y-115613432D01*
X154444934Y-115280099D02*
X154492553Y-115327718D01*
X154492553Y-115327718D02*
X154444934Y-115375337D01*
X154444934Y-115375337D02*
X154397315Y-115327718D01*
X154397315Y-115327718D02*
X154444934Y-115280099D01*
X154444934Y-115280099D02*
X154444934Y-115375337D01*
X154016363Y-116232480D02*
X153921125Y-116280099D01*
X153921125Y-116280099D02*
X153730649Y-116280099D01*
X153730649Y-116280099D02*
X153635411Y-116232480D01*
X153635411Y-116232480D02*
X153587792Y-116137241D01*
X153587792Y-116137241D02*
X153587792Y-116089622D01*
X153587792Y-116089622D02*
X153635411Y-115994384D01*
X153635411Y-115994384D02*
X153730649Y-115946765D01*
X153730649Y-115946765D02*
X153873506Y-115946765D01*
X153873506Y-115946765D02*
X153968744Y-115899146D01*
X153968744Y-115899146D02*
X154016363Y-115803908D01*
X154016363Y-115803908D02*
X154016363Y-115756289D01*
X154016363Y-115756289D02*
X153968744Y-115661051D01*
X153968744Y-115661051D02*
X153873506Y-115613432D01*
X153873506Y-115613432D02*
X153730649Y-115613432D01*
X153730649Y-115613432D02*
X153635411Y-115661051D01*
X152397315Y-116280099D02*
X152397315Y-115280099D01*
X152397315Y-115280099D02*
X152063982Y-115994384D01*
X152063982Y-115994384D02*
X151730649Y-115280099D01*
X151730649Y-115280099D02*
X151730649Y-116280099D01*
X150683030Y-116184860D02*
X150730649Y-116232480D01*
X150730649Y-116232480D02*
X150873506Y-116280099D01*
X150873506Y-116280099D02*
X150968744Y-116280099D01*
X150968744Y-116280099D02*
X151111601Y-116232480D01*
X151111601Y-116232480D02*
X151206839Y-116137241D01*
X151206839Y-116137241D02*
X151254458Y-116042003D01*
X151254458Y-116042003D02*
X151302077Y-115851527D01*
X151302077Y-115851527D02*
X151302077Y-115708670D01*
X151302077Y-115708670D02*
X151254458Y-115518194D01*
X151254458Y-115518194D02*
X151206839Y-115422956D01*
X151206839Y-115422956D02*
X151111601Y-115327718D01*
X151111601Y-115327718D02*
X150968744Y-115280099D01*
X150968744Y-115280099D02*
X150873506Y-115280099D01*
X150873506Y-115280099D02*
X150730649Y-115327718D01*
X150730649Y-115327718D02*
X150683030Y-115375337D01*
X149825887Y-115613432D02*
X149825887Y-116280099D01*
X150063982Y-115232480D02*
X150302077Y-115946765D01*
X150302077Y-115946765D02*
X149683030Y-115946765D01*
X149111601Y-115280099D02*
X149016363Y-115280099D01*
X149016363Y-115280099D02*
X148921125Y-115327718D01*
X148921125Y-115327718D02*
X148873506Y-115375337D01*
X148873506Y-115375337D02*
X148825887Y-115470575D01*
X148825887Y-115470575D02*
X148778268Y-115661051D01*
X148778268Y-115661051D02*
X148778268Y-115899146D01*
X148778268Y-115899146D02*
X148825887Y-116089622D01*
X148825887Y-116089622D02*
X148873506Y-116184860D01*
X148873506Y-116184860D02*
X148921125Y-116232480D01*
X148921125Y-116232480D02*
X149016363Y-116280099D01*
X149016363Y-116280099D02*
X149111601Y-116280099D01*
X149111601Y-116280099D02*
X149206839Y-116232480D01*
X149206839Y-116232480D02*
X149254458Y-116184860D01*
X149254458Y-116184860D02*
X149302077Y-116089622D01*
X149302077Y-116089622D02*
X149349696Y-115899146D01*
X149349696Y-115899146D02*
X149349696Y-115661051D01*
X149349696Y-115661051D02*
X149302077Y-115470575D01*
X149302077Y-115470575D02*
X149254458Y-115375337D01*
X149254458Y-115375337D02*
X149206839Y-115327718D01*
X149206839Y-115327718D02*
X149111601Y-115280099D01*
X148397315Y-115375337D02*
X148349696Y-115327718D01*
X148349696Y-115327718D02*
X148254458Y-115280099D01*
X148254458Y-115280099D02*
X148016363Y-115280099D01*
X148016363Y-115280099D02*
X147921125Y-115327718D01*
X147921125Y-115327718D02*
X147873506Y-115375337D01*
X147873506Y-115375337D02*
X147825887Y-115470575D01*
X147825887Y-115470575D02*
X147825887Y-115565813D01*
X147825887Y-115565813D02*
X147873506Y-115708670D01*
X147873506Y-115708670D02*
X148444934Y-116280099D01*
X148444934Y-116280099D02*
X147825887Y-116280099D01*
X146968744Y-115613432D02*
X146968744Y-116280099D01*
X147206839Y-115232480D02*
X147444934Y-115946765D01*
X147444934Y-115946765D02*
X146825887Y-115946765D01*
X158016363Y-117890043D02*
X158111601Y-117842424D01*
X158111601Y-117842424D02*
X158159220Y-117794804D01*
X158159220Y-117794804D02*
X158206839Y-117699566D01*
X158206839Y-117699566D02*
X158206839Y-117413852D01*
X158206839Y-117413852D02*
X158159220Y-117318614D01*
X158159220Y-117318614D02*
X158111601Y-117270995D01*
X158111601Y-117270995D02*
X158016363Y-117223376D01*
X158016363Y-117223376D02*
X157873506Y-117223376D01*
X157873506Y-117223376D02*
X157778268Y-117270995D01*
X157778268Y-117270995D02*
X157730649Y-117318614D01*
X157730649Y-117318614D02*
X157683030Y-117413852D01*
X157683030Y-117413852D02*
X157683030Y-117699566D01*
X157683030Y-117699566D02*
X157730649Y-117794804D01*
X157730649Y-117794804D02*
X157778268Y-117842424D01*
X157778268Y-117842424D02*
X157873506Y-117890043D01*
X157873506Y-117890043D02*
X158016363Y-117890043D01*
X157254458Y-117890043D02*
X157254458Y-117223376D01*
X157254458Y-117413852D02*
X157206839Y-117318614D01*
X157206839Y-117318614D02*
X157159220Y-117270995D01*
X157159220Y-117270995D02*
X157063982Y-117223376D01*
X157063982Y-117223376D02*
X156968744Y-117223376D01*
X155968743Y-116890043D02*
X155302077Y-116890043D01*
X155302077Y-116890043D02*
X155730648Y-117890043D01*
X154492553Y-117223376D02*
X154492553Y-117890043D01*
X154730648Y-116842424D02*
X154968743Y-117556709D01*
X154968743Y-117556709D02*
X154349696Y-117556709D01*
X153492553Y-117890043D02*
X153968743Y-117890043D01*
X153968743Y-117890043D02*
X153968743Y-116890043D01*
X153206838Y-117842424D02*
X153063981Y-117890043D01*
X153063981Y-117890043D02*
X152825886Y-117890043D01*
X152825886Y-117890043D02*
X152730648Y-117842424D01*
X152730648Y-117842424D02*
X152683029Y-117794804D01*
X152683029Y-117794804D02*
X152635410Y-117699566D01*
X152635410Y-117699566D02*
X152635410Y-117604328D01*
X152635410Y-117604328D02*
X152683029Y-117509090D01*
X152683029Y-117509090D02*
X152730648Y-117461471D01*
X152730648Y-117461471D02*
X152825886Y-117413852D01*
X152825886Y-117413852D02*
X153016362Y-117366233D01*
X153016362Y-117366233D02*
X153111600Y-117318614D01*
X153111600Y-117318614D02*
X153159219Y-117270995D01*
X153159219Y-117270995D02*
X153206838Y-117175757D01*
X153206838Y-117175757D02*
X153206838Y-117080519D01*
X153206838Y-117080519D02*
X153159219Y-116985281D01*
X153159219Y-116985281D02*
X153111600Y-116937662D01*
X153111600Y-116937662D02*
X153016362Y-116890043D01*
X153016362Y-116890043D02*
X152778267Y-116890043D01*
X152778267Y-116890043D02*
X152635410Y-116937662D01*
X151778267Y-116890043D02*
X151968743Y-116890043D01*
X151968743Y-116890043D02*
X152063981Y-116937662D01*
X152063981Y-116937662D02*
X152111600Y-116985281D01*
X152111600Y-116985281D02*
X152206838Y-117128138D01*
X152206838Y-117128138D02*
X152254457Y-117318614D01*
X152254457Y-117318614D02*
X152254457Y-117699566D01*
X152254457Y-117699566D02*
X152206838Y-117794804D01*
X152206838Y-117794804D02*
X152159219Y-117842424D01*
X152159219Y-117842424D02*
X152063981Y-117890043D01*
X152063981Y-117890043D02*
X151873505Y-117890043D01*
X151873505Y-117890043D02*
X151778267Y-117842424D01*
X151778267Y-117842424D02*
X151730648Y-117794804D01*
X151730648Y-117794804D02*
X151683029Y-117699566D01*
X151683029Y-117699566D02*
X151683029Y-117461471D01*
X151683029Y-117461471D02*
X151730648Y-117366233D01*
X151730648Y-117366233D02*
X151778267Y-117318614D01*
X151778267Y-117318614D02*
X151873505Y-117270995D01*
X151873505Y-117270995D02*
X152063981Y-117270995D01*
X152063981Y-117270995D02*
X152159219Y-117318614D01*
X152159219Y-117318614D02*
X152206838Y-117366233D01*
X152206838Y-117366233D02*
X152254457Y-117461471D01*
X151302076Y-116985281D02*
X151254457Y-116937662D01*
X151254457Y-116937662D02*
X151159219Y-116890043D01*
X151159219Y-116890043D02*
X150921124Y-116890043D01*
X150921124Y-116890043D02*
X150825886Y-116937662D01*
X150825886Y-116937662D02*
X150778267Y-116985281D01*
X150778267Y-116985281D02*
X150730648Y-117080519D01*
X150730648Y-117080519D02*
X150730648Y-117175757D01*
X150730648Y-117175757D02*
X150778267Y-117318614D01*
X150778267Y-117318614D02*
X151349695Y-117890043D01*
X151349695Y-117890043D02*
X150730648Y-117890043D01*
X150397314Y-116890043D02*
X149730648Y-116890043D01*
X149730648Y-116890043D02*
X150159219Y-117890043D01*
X149349695Y-117794804D02*
X149302076Y-117842424D01*
X149302076Y-117842424D02*
X149349695Y-117890043D01*
X149349695Y-117890043D02*
X149397314Y-117842424D01*
X149397314Y-117842424D02*
X149349695Y-117794804D01*
X149349695Y-117794804D02*
X149349695Y-117890043D01*
X149349695Y-117270995D02*
X149302076Y-117318614D01*
X149302076Y-117318614D02*
X149349695Y-117366233D01*
X149349695Y-117366233D02*
X149397314Y-117318614D01*
X149397314Y-117318614D02*
X149349695Y-117270995D01*
X149349695Y-117270995D02*
X149349695Y-117366233D01*
X157873506Y-118499987D02*
X157873506Y-119214272D01*
X157873506Y-119214272D02*
X157921125Y-119357129D01*
X157921125Y-119357129D02*
X158016363Y-119452368D01*
X158016363Y-119452368D02*
X158159220Y-119499987D01*
X158159220Y-119499987D02*
X158254458Y-119499987D01*
X157397315Y-119499987D02*
X157397315Y-118499987D01*
X157397315Y-118499987D02*
X157016363Y-118499987D01*
X157016363Y-118499987D02*
X156921125Y-118547606D01*
X156921125Y-118547606D02*
X156873506Y-118595225D01*
X156873506Y-118595225D02*
X156825887Y-118690463D01*
X156825887Y-118690463D02*
X156825887Y-118833320D01*
X156825887Y-118833320D02*
X156873506Y-118928558D01*
X156873506Y-118928558D02*
X156921125Y-118976177D01*
X156921125Y-118976177D02*
X157016363Y-119023796D01*
X157016363Y-119023796D02*
X157397315Y-119023796D01*
X156444934Y-118595225D02*
X156397315Y-118547606D01*
X156397315Y-118547606D02*
X156302077Y-118499987D01*
X156302077Y-118499987D02*
X156063982Y-118499987D01*
X156063982Y-118499987D02*
X155968744Y-118547606D01*
X155968744Y-118547606D02*
X155921125Y-118595225D01*
X155921125Y-118595225D02*
X155873506Y-118690463D01*
X155873506Y-118690463D02*
X155873506Y-118785701D01*
X155873506Y-118785701D02*
X155921125Y-118928558D01*
X155921125Y-118928558D02*
X156492553Y-119499987D01*
X156492553Y-119499987D02*
X155873506Y-119499987D01*
X155444934Y-119404748D02*
X155397315Y-119452368D01*
X155397315Y-119452368D02*
X155444934Y-119499987D01*
X155444934Y-119499987D02*
X155492553Y-119452368D01*
X155492553Y-119452368D02*
X155444934Y-119404748D01*
X155444934Y-119404748D02*
X155444934Y-119499987D01*
X155444934Y-118880939D02*
X155397315Y-118928558D01*
X155397315Y-118928558D02*
X155444934Y-118976177D01*
X155444934Y-118976177D02*
X155492553Y-118928558D01*
X155492553Y-118928558D02*
X155444934Y-118880939D01*
X155444934Y-118880939D02*
X155444934Y-118976177D01*
X154254458Y-118595225D02*
X154206839Y-118547606D01*
X154206839Y-118547606D02*
X154111601Y-118499987D01*
X154111601Y-118499987D02*
X153873506Y-118499987D01*
X153873506Y-118499987D02*
X153778268Y-118547606D01*
X153778268Y-118547606D02*
X153730649Y-118595225D01*
X153730649Y-118595225D02*
X153683030Y-118690463D01*
X153683030Y-118690463D02*
X153683030Y-118785701D01*
X153683030Y-118785701D02*
X153730649Y-118928558D01*
X153730649Y-118928558D02*
X154302077Y-119499987D01*
X154302077Y-119499987D02*
X153683030Y-119499987D01*
X153254458Y-119119034D02*
X152492554Y-119119034D01*
X152111601Y-118499987D02*
X151492554Y-118499987D01*
X151492554Y-118499987D02*
X151825887Y-118880939D01*
X151825887Y-118880939D02*
X151683030Y-118880939D01*
X151683030Y-118880939D02*
X151587792Y-118928558D01*
X151587792Y-118928558D02*
X151540173Y-118976177D01*
X151540173Y-118976177D02*
X151492554Y-119071415D01*
X151492554Y-119071415D02*
X151492554Y-119309510D01*
X151492554Y-119309510D02*
X151540173Y-119404748D01*
X151540173Y-119404748D02*
X151587792Y-119452368D01*
X151587792Y-119452368D02*
X151683030Y-119499987D01*
X151683030Y-119499987D02*
X151968744Y-119499987D01*
X151968744Y-119499987D02*
X152063982Y-119452368D01*
X152063982Y-119452368D02*
X152111601Y-119404748D01*
X157873506Y-120109931D02*
X157873506Y-120824216D01*
X157873506Y-120824216D02*
X157921125Y-120967073D01*
X157921125Y-120967073D02*
X158016363Y-121062312D01*
X158016363Y-121062312D02*
X158159220Y-121109931D01*
X158159220Y-121109931D02*
X158254458Y-121109931D01*
X157397315Y-121109931D02*
X157397315Y-120109931D01*
X157397315Y-120109931D02*
X157016363Y-120109931D01*
X157016363Y-120109931D02*
X156921125Y-120157550D01*
X156921125Y-120157550D02*
X156873506Y-120205169D01*
X156873506Y-120205169D02*
X156825887Y-120300407D01*
X156825887Y-120300407D02*
X156825887Y-120443264D01*
X156825887Y-120443264D02*
X156873506Y-120538502D01*
X156873506Y-120538502D02*
X156921125Y-120586121D01*
X156921125Y-120586121D02*
X157016363Y-120633740D01*
X157016363Y-120633740D02*
X157397315Y-120633740D01*
X156492553Y-120109931D02*
X155873506Y-120109931D01*
X155873506Y-120109931D02*
X156206839Y-120490883D01*
X156206839Y-120490883D02*
X156063982Y-120490883D01*
X156063982Y-120490883D02*
X155968744Y-120538502D01*
X155968744Y-120538502D02*
X155921125Y-120586121D01*
X155921125Y-120586121D02*
X155873506Y-120681359D01*
X155873506Y-120681359D02*
X155873506Y-120919454D01*
X155873506Y-120919454D02*
X155921125Y-121014692D01*
X155921125Y-121014692D02*
X155968744Y-121062312D01*
X155968744Y-121062312D02*
X156063982Y-121109931D01*
X156063982Y-121109931D02*
X156349696Y-121109931D01*
X156349696Y-121109931D02*
X156444934Y-121062312D01*
X156444934Y-121062312D02*
X156492553Y-121014692D01*
X155444934Y-121014692D02*
X155397315Y-121062312D01*
X155397315Y-121062312D02*
X155444934Y-121109931D01*
X155444934Y-121109931D02*
X155492553Y-121062312D01*
X155492553Y-121062312D02*
X155444934Y-121014692D01*
X155444934Y-121014692D02*
X155444934Y-121109931D01*
X155444934Y-120490883D02*
X155397315Y-120538502D01*
X155397315Y-120538502D02*
X155444934Y-120586121D01*
X155444934Y-120586121D02*
X155492553Y-120538502D01*
X155492553Y-120538502D02*
X155444934Y-120490883D01*
X155444934Y-120490883D02*
X155444934Y-120586121D01*
X153683030Y-121109931D02*
X154254458Y-121109931D01*
X153968744Y-121109931D02*
X153968744Y-120109931D01*
X153968744Y-120109931D02*
X154063982Y-120252788D01*
X154063982Y-120252788D02*
X154159220Y-120348026D01*
X154159220Y-120348026D02*
X154254458Y-120395645D01*
X153254458Y-120728978D02*
X152492554Y-120728978D01*
X152063982Y-120205169D02*
X152016363Y-120157550D01*
X152016363Y-120157550D02*
X151921125Y-120109931D01*
X151921125Y-120109931D02*
X151683030Y-120109931D01*
X151683030Y-120109931D02*
X151587792Y-120157550D01*
X151587792Y-120157550D02*
X151540173Y-120205169D01*
X151540173Y-120205169D02*
X151492554Y-120300407D01*
X151492554Y-120300407D02*
X151492554Y-120395645D01*
X151492554Y-120395645D02*
X151540173Y-120538502D01*
X151540173Y-120538502D02*
X152111601Y-121109931D01*
X152111601Y-121109931D02*
X151492554Y-121109931D01*
X157873506Y-121719875D02*
X157873506Y-122434160D01*
X157873506Y-122434160D02*
X157921125Y-122577017D01*
X157921125Y-122577017D02*
X158016363Y-122672256D01*
X158016363Y-122672256D02*
X158159220Y-122719875D01*
X158159220Y-122719875D02*
X158254458Y-122719875D01*
X157397315Y-122719875D02*
X157397315Y-121719875D01*
X157397315Y-121719875D02*
X157016363Y-121719875D01*
X157016363Y-121719875D02*
X156921125Y-121767494D01*
X156921125Y-121767494D02*
X156873506Y-121815113D01*
X156873506Y-121815113D02*
X156825887Y-121910351D01*
X156825887Y-121910351D02*
X156825887Y-122053208D01*
X156825887Y-122053208D02*
X156873506Y-122148446D01*
X156873506Y-122148446D02*
X156921125Y-122196065D01*
X156921125Y-122196065D02*
X157016363Y-122243684D01*
X157016363Y-122243684D02*
X157397315Y-122243684D01*
X155968744Y-121719875D02*
X156159220Y-121719875D01*
X156159220Y-121719875D02*
X156254458Y-121767494D01*
X156254458Y-121767494D02*
X156302077Y-121815113D01*
X156302077Y-121815113D02*
X156397315Y-121957970D01*
X156397315Y-121957970D02*
X156444934Y-122148446D01*
X156444934Y-122148446D02*
X156444934Y-122529398D01*
X156444934Y-122529398D02*
X156397315Y-122624636D01*
X156397315Y-122624636D02*
X156349696Y-122672256D01*
X156349696Y-122672256D02*
X156254458Y-122719875D01*
X156254458Y-122719875D02*
X156063982Y-122719875D01*
X156063982Y-122719875D02*
X155968744Y-122672256D01*
X155968744Y-122672256D02*
X155921125Y-122624636D01*
X155921125Y-122624636D02*
X155873506Y-122529398D01*
X155873506Y-122529398D02*
X155873506Y-122291303D01*
X155873506Y-122291303D02*
X155921125Y-122196065D01*
X155921125Y-122196065D02*
X155968744Y-122148446D01*
X155968744Y-122148446D02*
X156063982Y-122100827D01*
X156063982Y-122100827D02*
X156254458Y-122100827D01*
X156254458Y-122100827D02*
X156349696Y-122148446D01*
X156349696Y-122148446D02*
X156397315Y-122196065D01*
X156397315Y-122196065D02*
X156444934Y-122291303D01*
X155444934Y-122624636D02*
X155397315Y-122672256D01*
X155397315Y-122672256D02*
X155444934Y-122719875D01*
X155444934Y-122719875D02*
X155492553Y-122672256D01*
X155492553Y-122672256D02*
X155444934Y-122624636D01*
X155444934Y-122624636D02*
X155444934Y-122719875D01*
X155444934Y-122100827D02*
X155397315Y-122148446D01*
X155397315Y-122148446D02*
X155444934Y-122196065D01*
X155444934Y-122196065D02*
X155492553Y-122148446D01*
X155492553Y-122148446D02*
X155444934Y-122100827D01*
X155444934Y-122100827D02*
X155444934Y-122196065D01*
X153683030Y-122719875D02*
X154254458Y-122719875D01*
X153968744Y-122719875D02*
X153968744Y-121719875D01*
X153968744Y-121719875D02*
X154063982Y-121862732D01*
X154063982Y-121862732D02*
X154159220Y-121957970D01*
X154159220Y-121957970D02*
X154254458Y-122005589D01*
X153254458Y-122338922D02*
X152492554Y-122338922D01*
X152063982Y-121815113D02*
X152016363Y-121767494D01*
X152016363Y-121767494D02*
X151921125Y-121719875D01*
X151921125Y-121719875D02*
X151683030Y-121719875D01*
X151683030Y-121719875D02*
X151587792Y-121767494D01*
X151587792Y-121767494D02*
X151540173Y-121815113D01*
X151540173Y-121815113D02*
X151492554Y-121910351D01*
X151492554Y-121910351D02*
X151492554Y-122005589D01*
X151492554Y-122005589D02*
X151540173Y-122148446D01*
X151540173Y-122148446D02*
X152111601Y-122719875D01*
X152111601Y-122719875D02*
X151492554Y-122719875D01*
X157873506Y-123329819D02*
X157873506Y-124044104D01*
X157873506Y-124044104D02*
X157921125Y-124186961D01*
X157921125Y-124186961D02*
X158016363Y-124282200D01*
X158016363Y-124282200D02*
X158159220Y-124329819D01*
X158159220Y-124329819D02*
X158254458Y-124329819D01*
X157397315Y-124329819D02*
X157397315Y-123329819D01*
X157397315Y-123329819D02*
X157016363Y-123329819D01*
X157016363Y-123329819D02*
X156921125Y-123377438D01*
X156921125Y-123377438D02*
X156873506Y-123425057D01*
X156873506Y-123425057D02*
X156825887Y-123520295D01*
X156825887Y-123520295D02*
X156825887Y-123663152D01*
X156825887Y-123663152D02*
X156873506Y-123758390D01*
X156873506Y-123758390D02*
X156921125Y-123806009D01*
X156921125Y-123806009D02*
X157016363Y-123853628D01*
X157016363Y-123853628D02*
X157397315Y-123853628D01*
X156492553Y-123329819D02*
X155825887Y-123329819D01*
X155825887Y-123329819D02*
X156254458Y-124329819D01*
X155444934Y-124234580D02*
X155397315Y-124282200D01*
X155397315Y-124282200D02*
X155444934Y-124329819D01*
X155444934Y-124329819D02*
X155492553Y-124282200D01*
X155492553Y-124282200D02*
X155444934Y-124234580D01*
X155444934Y-124234580D02*
X155444934Y-124329819D01*
X155444934Y-123710771D02*
X155397315Y-123758390D01*
X155397315Y-123758390D02*
X155444934Y-123806009D01*
X155444934Y-123806009D02*
X155492553Y-123758390D01*
X155492553Y-123758390D02*
X155444934Y-123710771D01*
X155444934Y-123710771D02*
X155444934Y-123806009D01*
X154254458Y-123425057D02*
X154206839Y-123377438D01*
X154206839Y-123377438D02*
X154111601Y-123329819D01*
X154111601Y-123329819D02*
X153873506Y-123329819D01*
X153873506Y-123329819D02*
X153778268Y-123377438D01*
X153778268Y-123377438D02*
X153730649Y-123425057D01*
X153730649Y-123425057D02*
X153683030Y-123520295D01*
X153683030Y-123520295D02*
X153683030Y-123615533D01*
X153683030Y-123615533D02*
X153730649Y-123758390D01*
X153730649Y-123758390D02*
X154302077Y-124329819D01*
X154302077Y-124329819D02*
X153683030Y-124329819D01*
X153254458Y-123948866D02*
X152492554Y-123948866D01*
X152111601Y-123329819D02*
X151492554Y-123329819D01*
X151492554Y-123329819D02*
X151825887Y-123710771D01*
X151825887Y-123710771D02*
X151683030Y-123710771D01*
X151683030Y-123710771D02*
X151587792Y-123758390D01*
X151587792Y-123758390D02*
X151540173Y-123806009D01*
X151540173Y-123806009D02*
X151492554Y-123901247D01*
X151492554Y-123901247D02*
X151492554Y-124139342D01*
X151492554Y-124139342D02*
X151540173Y-124234580D01*
X151540173Y-124234580D02*
X151587792Y-124282200D01*
X151587792Y-124282200D02*
X151683030Y-124329819D01*
X151683030Y-124329819D02*
X151968744Y-124329819D01*
X151968744Y-124329819D02*
X152063982Y-124282200D01*
X152063982Y-124282200D02*
X152111601Y-124234580D01*
X153711333Y-111744819D02*
X153711333Y-112459104D01*
X153711333Y-112459104D02*
X153758952Y-112601961D01*
X153758952Y-112601961D02*
X153854190Y-112697200D01*
X153854190Y-112697200D02*
X153997047Y-112744819D01*
X153997047Y-112744819D02*
X154092285Y-112744819D01*
X153235142Y-112744819D02*
X153235142Y-111744819D01*
X153235142Y-111744819D02*
X152854190Y-111744819D01*
X152854190Y-111744819D02*
X152758952Y-111792438D01*
X152758952Y-111792438D02*
X152711333Y-111840057D01*
X152711333Y-111840057D02*
X152663714Y-111935295D01*
X152663714Y-111935295D02*
X152663714Y-112078152D01*
X152663714Y-112078152D02*
X152711333Y-112173390D01*
X152711333Y-112173390D02*
X152758952Y-112221009D01*
X152758952Y-112221009D02*
X152854190Y-112268628D01*
X152854190Y-112268628D02*
X153235142Y-112268628D01*
X152330380Y-111744819D02*
X151663714Y-111744819D01*
X151663714Y-111744819D02*
X152092285Y-112744819D01*
X149992285Y-110944819D02*
X150563713Y-110944819D01*
X150277999Y-110944819D02*
X150277999Y-109944819D01*
X150277999Y-109944819D02*
X150373237Y-110087676D01*
X150373237Y-110087676D02*
X150468475Y-110182914D01*
X150468475Y-110182914D02*
X150563713Y-110230533D01*
X155811332Y-109944819D02*
X155192285Y-109944819D01*
X155192285Y-109944819D02*
X155525618Y-110325771D01*
X155525618Y-110325771D02*
X155382761Y-110325771D01*
X155382761Y-110325771D02*
X155287523Y-110373390D01*
X155287523Y-110373390D02*
X155239904Y-110421009D01*
X155239904Y-110421009D02*
X155192285Y-110516247D01*
X155192285Y-110516247D02*
X155192285Y-110754342D01*
X155192285Y-110754342D02*
X155239904Y-110849580D01*
X155239904Y-110849580D02*
X155287523Y-110897200D01*
X155287523Y-110897200D02*
X155382761Y-110944819D01*
X155382761Y-110944819D02*
X155668475Y-110944819D01*
X155668475Y-110944819D02*
X155763713Y-110897200D01*
X155763713Y-110897200D02*
X155811332Y-110849580D01*
X141011333Y-103870819D02*
X141011333Y-104585104D01*
X141011333Y-104585104D02*
X141058952Y-104727961D01*
X141058952Y-104727961D02*
X141154190Y-104823200D01*
X141154190Y-104823200D02*
X141297047Y-104870819D01*
X141297047Y-104870819D02*
X141392285Y-104870819D01*
X140535142Y-104870819D02*
X140535142Y-103870819D01*
X140535142Y-103870819D02*
X140154190Y-103870819D01*
X140154190Y-103870819D02*
X140058952Y-103918438D01*
X140058952Y-103918438D02*
X140011333Y-103966057D01*
X140011333Y-103966057D02*
X139963714Y-104061295D01*
X139963714Y-104061295D02*
X139963714Y-104204152D01*
X139963714Y-104204152D02*
X140011333Y-104299390D01*
X140011333Y-104299390D02*
X140058952Y-104347009D01*
X140058952Y-104347009D02*
X140154190Y-104394628D01*
X140154190Y-104394628D02*
X140535142Y-104394628D01*
X139106571Y-103870819D02*
X139297047Y-103870819D01*
X139297047Y-103870819D02*
X139392285Y-103918438D01*
X139392285Y-103918438D02*
X139439904Y-103966057D01*
X139439904Y-103966057D02*
X139535142Y-104108914D01*
X139535142Y-104108914D02*
X139582761Y-104299390D01*
X139582761Y-104299390D02*
X139582761Y-104680342D01*
X139582761Y-104680342D02*
X139535142Y-104775580D01*
X139535142Y-104775580D02*
X139487523Y-104823200D01*
X139487523Y-104823200D02*
X139392285Y-104870819D01*
X139392285Y-104870819D02*
X139201809Y-104870819D01*
X139201809Y-104870819D02*
X139106571Y-104823200D01*
X139106571Y-104823200D02*
X139058952Y-104775580D01*
X139058952Y-104775580D02*
X139011333Y-104680342D01*
X139011333Y-104680342D02*
X139011333Y-104442247D01*
X139011333Y-104442247D02*
X139058952Y-104347009D01*
X139058952Y-104347009D02*
X139106571Y-104299390D01*
X139106571Y-104299390D02*
X139201809Y-104251771D01*
X139201809Y-104251771D02*
X139392285Y-104251771D01*
X139392285Y-104251771D02*
X139487523Y-104299390D01*
X139487523Y-104299390D02*
X139535142Y-104347009D01*
X139535142Y-104347009D02*
X139582761Y-104442247D01*
X137292285Y-103070819D02*
X137863713Y-103070819D01*
X137577999Y-103070819D02*
X137577999Y-102070819D01*
X137577999Y-102070819D02*
X137673237Y-102213676D01*
X137673237Y-102213676D02*
X137768475Y-102308914D01*
X137768475Y-102308914D02*
X137863713Y-102356533D01*
X143111332Y-102070819D02*
X142492285Y-102070819D01*
X142492285Y-102070819D02*
X142825618Y-102451771D01*
X142825618Y-102451771D02*
X142682761Y-102451771D01*
X142682761Y-102451771D02*
X142587523Y-102499390D01*
X142587523Y-102499390D02*
X142539904Y-102547009D01*
X142539904Y-102547009D02*
X142492285Y-102642247D01*
X142492285Y-102642247D02*
X142492285Y-102880342D01*
X142492285Y-102880342D02*
X142539904Y-102975580D01*
X142539904Y-102975580D02*
X142587523Y-103023200D01*
X142587523Y-103023200D02*
X142682761Y-103070819D01*
X142682761Y-103070819D02*
X142968475Y-103070819D01*
X142968475Y-103070819D02*
X143063713Y-103023200D01*
X143063713Y-103023200D02*
X143111332Y-102975580D01*
X158204819Y-102798666D02*
X158919104Y-102798666D01*
X158919104Y-102798666D02*
X159061961Y-102751047D01*
X159061961Y-102751047D02*
X159157200Y-102655809D01*
X159157200Y-102655809D02*
X159204819Y-102512952D01*
X159204819Y-102512952D02*
X159204819Y-102417714D01*
X159204819Y-103274857D02*
X158204819Y-103274857D01*
X158204819Y-103274857D02*
X158204819Y-103655809D01*
X158204819Y-103655809D02*
X158252438Y-103751047D01*
X158252438Y-103751047D02*
X158300057Y-103798666D01*
X158300057Y-103798666D02*
X158395295Y-103846285D01*
X158395295Y-103846285D02*
X158538152Y-103846285D01*
X158538152Y-103846285D02*
X158633390Y-103798666D01*
X158633390Y-103798666D02*
X158681009Y-103751047D01*
X158681009Y-103751047D02*
X158728628Y-103655809D01*
X158728628Y-103655809D02*
X158728628Y-103274857D01*
X158204819Y-104179619D02*
X158204819Y-104798666D01*
X158204819Y-104798666D02*
X158585771Y-104465333D01*
X158585771Y-104465333D02*
X158585771Y-104608190D01*
X158585771Y-104608190D02*
X158633390Y-104703428D01*
X158633390Y-104703428D02*
X158681009Y-104751047D01*
X158681009Y-104751047D02*
X158776247Y-104798666D01*
X158776247Y-104798666D02*
X159014342Y-104798666D01*
X159014342Y-104798666D02*
X159109580Y-104751047D01*
X159109580Y-104751047D02*
X159157200Y-104703428D01*
X159157200Y-104703428D02*
X159204819Y-104608190D01*
X159204819Y-104608190D02*
X159204819Y-104322476D01*
X159204819Y-104322476D02*
X159157200Y-104227238D01*
X159157200Y-104227238D02*
X159109580Y-104179619D01*
X159204819Y-101975714D02*
X159204819Y-101404286D01*
X159204819Y-101690000D02*
X158204819Y-101690000D01*
X158204819Y-101690000D02*
X158347676Y-101594762D01*
X158347676Y-101594762D02*
X158442914Y-101499524D01*
X158442914Y-101499524D02*
X158490533Y-101404286D01*
X158204819Y-96156667D02*
X158204819Y-96775714D01*
X158204819Y-96775714D02*
X158585771Y-96442381D01*
X158585771Y-96442381D02*
X158585771Y-96585238D01*
X158585771Y-96585238D02*
X158633390Y-96680476D01*
X158633390Y-96680476D02*
X158681009Y-96728095D01*
X158681009Y-96728095D02*
X158776247Y-96775714D01*
X158776247Y-96775714D02*
X159014342Y-96775714D01*
X159014342Y-96775714D02*
X159109580Y-96728095D01*
X159109580Y-96728095D02*
X159157200Y-96680476D01*
X159157200Y-96680476D02*
X159204819Y-96585238D01*
X159204819Y-96585238D02*
X159204819Y-96299524D01*
X159204819Y-96299524D02*
X159157200Y-96204286D01*
X159157200Y-96204286D02*
X159109580Y-96156667D01*
X153741333Y-104102819D02*
X153741333Y-104817104D01*
X153741333Y-104817104D02*
X153788952Y-104959961D01*
X153788952Y-104959961D02*
X153884190Y-105055200D01*
X153884190Y-105055200D02*
X154027047Y-105102819D01*
X154027047Y-105102819D02*
X154122285Y-105102819D01*
X153265142Y-105102819D02*
X153265142Y-104102819D01*
X153265142Y-104102819D02*
X152884190Y-104102819D01*
X152884190Y-104102819D02*
X152788952Y-104150438D01*
X152788952Y-104150438D02*
X152741333Y-104198057D01*
X152741333Y-104198057D02*
X152693714Y-104293295D01*
X152693714Y-104293295D02*
X152693714Y-104436152D01*
X152693714Y-104436152D02*
X152741333Y-104531390D01*
X152741333Y-104531390D02*
X152788952Y-104579009D01*
X152788952Y-104579009D02*
X152884190Y-104626628D01*
X152884190Y-104626628D02*
X153265142Y-104626628D01*
X152312761Y-104198057D02*
X152265142Y-104150438D01*
X152265142Y-104150438D02*
X152169904Y-104102819D01*
X152169904Y-104102819D02*
X151931809Y-104102819D01*
X151931809Y-104102819D02*
X151836571Y-104150438D01*
X151836571Y-104150438D02*
X151788952Y-104198057D01*
X151788952Y-104198057D02*
X151741333Y-104293295D01*
X151741333Y-104293295D02*
X151741333Y-104388533D01*
X151741333Y-104388533D02*
X151788952Y-104531390D01*
X151788952Y-104531390D02*
X152360380Y-105102819D01*
X152360380Y-105102819D02*
X151741333Y-105102819D01*
X149992285Y-103070819D02*
X150563713Y-103070819D01*
X150277999Y-103070819D02*
X150277999Y-102070819D01*
X150277999Y-102070819D02*
X150373237Y-102213676D01*
X150373237Y-102213676D02*
X150468475Y-102308914D01*
X150468475Y-102308914D02*
X150563713Y-102356533D01*
X155811332Y-102070819D02*
X155192285Y-102070819D01*
X155192285Y-102070819D02*
X155525618Y-102451771D01*
X155525618Y-102451771D02*
X155382761Y-102451771D01*
X155382761Y-102451771D02*
X155287523Y-102499390D01*
X155287523Y-102499390D02*
X155239904Y-102547009D01*
X155239904Y-102547009D02*
X155192285Y-102642247D01*
X155192285Y-102642247D02*
X155192285Y-102880342D01*
X155192285Y-102880342D02*
X155239904Y-102975580D01*
X155239904Y-102975580D02*
X155287523Y-103023200D01*
X155287523Y-103023200D02*
X155382761Y-103070819D01*
X155382761Y-103070819D02*
X155668475Y-103070819D01*
X155668475Y-103070819D02*
X155763713Y-103023200D01*
X155763713Y-103023200D02*
X155811332Y-102975580D01*
X163173580Y-115142642D02*
X163221200Y-115095023D01*
X163221200Y-115095023D02*
X163268819Y-114952166D01*
X163268819Y-114952166D02*
X163268819Y-114856928D01*
X163268819Y-114856928D02*
X163221200Y-114714071D01*
X163221200Y-114714071D02*
X163125961Y-114618833D01*
X163125961Y-114618833D02*
X163030723Y-114571214D01*
X163030723Y-114571214D02*
X162840247Y-114523595D01*
X162840247Y-114523595D02*
X162697390Y-114523595D01*
X162697390Y-114523595D02*
X162506914Y-114571214D01*
X162506914Y-114571214D02*
X162411676Y-114618833D01*
X162411676Y-114618833D02*
X162316438Y-114714071D01*
X162316438Y-114714071D02*
X162268819Y-114856928D01*
X162268819Y-114856928D02*
X162268819Y-114952166D01*
X162268819Y-114952166D02*
X162316438Y-115095023D01*
X162316438Y-115095023D02*
X162364057Y-115142642D01*
X163268819Y-116095023D02*
X163268819Y-115523595D01*
X163268819Y-115809309D02*
X162268819Y-115809309D01*
X162268819Y-115809309D02*
X162411676Y-115714071D01*
X162411676Y-115714071D02*
X162506914Y-115618833D01*
X162506914Y-115618833D02*
X162554533Y-115523595D01*
X162697390Y-116666452D02*
X162649771Y-116571214D01*
X162649771Y-116571214D02*
X162602152Y-116523595D01*
X162602152Y-116523595D02*
X162506914Y-116475976D01*
X162506914Y-116475976D02*
X162459295Y-116475976D01*
X162459295Y-116475976D02*
X162364057Y-116523595D01*
X162364057Y-116523595D02*
X162316438Y-116571214D01*
X162316438Y-116571214D02*
X162268819Y-116666452D01*
X162268819Y-116666452D02*
X162268819Y-116856928D01*
X162268819Y-116856928D02*
X162316438Y-116952166D01*
X162316438Y-116952166D02*
X162364057Y-116999785D01*
X162364057Y-116999785D02*
X162459295Y-117047404D01*
X162459295Y-117047404D02*
X162506914Y-117047404D01*
X162506914Y-117047404D02*
X162602152Y-116999785D01*
X162602152Y-116999785D02*
X162649771Y-116952166D01*
X162649771Y-116952166D02*
X162697390Y-116856928D01*
X162697390Y-116856928D02*
X162697390Y-116666452D01*
X162697390Y-116666452D02*
X162745009Y-116571214D01*
X162745009Y-116571214D02*
X162792628Y-116523595D01*
X162792628Y-116523595D02*
X162887866Y-116475976D01*
X162887866Y-116475976D02*
X163078342Y-116475976D01*
X163078342Y-116475976D02*
X163173580Y-116523595D01*
X163173580Y-116523595D02*
X163221200Y-116571214D01*
X163221200Y-116571214D02*
X163268819Y-116666452D01*
X163268819Y-116666452D02*
X163268819Y-116856928D01*
X163268819Y-116856928D02*
X163221200Y-116952166D01*
X163221200Y-116952166D02*
X163173580Y-116999785D01*
X163173580Y-116999785D02*
X163078342Y-117047404D01*
X163078342Y-117047404D02*
X162887866Y-117047404D01*
X162887866Y-117047404D02*
X162792628Y-116999785D01*
X162792628Y-116999785D02*
X162745009Y-116952166D01*
X162745009Y-116952166D02*
X162697390Y-116856928D01*
X160982819Y-115155142D02*
X160506628Y-114821809D01*
X160982819Y-114583714D02*
X159982819Y-114583714D01*
X159982819Y-114583714D02*
X159982819Y-114964666D01*
X159982819Y-114964666D02*
X160030438Y-115059904D01*
X160030438Y-115059904D02*
X160078057Y-115107523D01*
X160078057Y-115107523D02*
X160173295Y-115155142D01*
X160173295Y-115155142D02*
X160316152Y-115155142D01*
X160316152Y-115155142D02*
X160411390Y-115107523D01*
X160411390Y-115107523D02*
X160459009Y-115059904D01*
X160459009Y-115059904D02*
X160506628Y-114964666D01*
X160506628Y-114964666D02*
X160506628Y-114583714D01*
X160982819Y-116107523D02*
X160982819Y-115536095D01*
X160982819Y-115821809D02*
X159982819Y-115821809D01*
X159982819Y-115821809D02*
X160125676Y-115726571D01*
X160125676Y-115726571D02*
X160220914Y-115631333D01*
X160220914Y-115631333D02*
X160268533Y-115536095D01*
X160982819Y-116583714D02*
X160982819Y-116774190D01*
X160982819Y-116774190D02*
X160935200Y-116869428D01*
X160935200Y-116869428D02*
X160887580Y-116917047D01*
X160887580Y-116917047D02*
X160744723Y-117012285D01*
X160744723Y-117012285D02*
X160554247Y-117059904D01*
X160554247Y-117059904D02*
X160173295Y-117059904D01*
X160173295Y-117059904D02*
X160078057Y-117012285D01*
X160078057Y-117012285D02*
X160030438Y-116964666D01*
X160030438Y-116964666D02*
X159982819Y-116869428D01*
X159982819Y-116869428D02*
X159982819Y-116678952D01*
X159982819Y-116678952D02*
X160030438Y-116583714D01*
X160030438Y-116583714D02*
X160078057Y-116536095D01*
X160078057Y-116536095D02*
X160173295Y-116488476D01*
X160173295Y-116488476D02*
X160411390Y-116488476D01*
X160411390Y-116488476D02*
X160506628Y-116536095D01*
X160506628Y-116536095D02*
X160554247Y-116583714D01*
X160554247Y-116583714D02*
X160601866Y-116678952D01*
X160601866Y-116678952D02*
X160601866Y-116869428D01*
X160601866Y-116869428D02*
X160554247Y-116964666D01*
X160554247Y-116964666D02*
X160506628Y-117012285D01*
X160506628Y-117012285D02*
X160411390Y-117059904D01*
X135582819Y-109027333D02*
X135106628Y-108694000D01*
X135582819Y-108455905D02*
X134582819Y-108455905D01*
X134582819Y-108455905D02*
X134582819Y-108836857D01*
X134582819Y-108836857D02*
X134630438Y-108932095D01*
X134630438Y-108932095D02*
X134678057Y-108979714D01*
X134678057Y-108979714D02*
X134773295Y-109027333D01*
X134773295Y-109027333D02*
X134916152Y-109027333D01*
X134916152Y-109027333D02*
X135011390Y-108979714D01*
X135011390Y-108979714D02*
X135059009Y-108932095D01*
X135059009Y-108932095D02*
X135106628Y-108836857D01*
X135106628Y-108836857D02*
X135106628Y-108455905D01*
X134916152Y-109884476D02*
X135582819Y-109884476D01*
X134535200Y-109646381D02*
X135249485Y-109408286D01*
X135249485Y-109408286D02*
X135249485Y-110027333D01*
X147486666Y-113643580D02*
X147534285Y-113691200D01*
X147534285Y-113691200D02*
X147677142Y-113738819D01*
X147677142Y-113738819D02*
X147772380Y-113738819D01*
X147772380Y-113738819D02*
X147915237Y-113691200D01*
X147915237Y-113691200D02*
X148010475Y-113595961D01*
X148010475Y-113595961D02*
X148058094Y-113500723D01*
X148058094Y-113500723D02*
X148105713Y-113310247D01*
X148105713Y-113310247D02*
X148105713Y-113167390D01*
X148105713Y-113167390D02*
X148058094Y-112976914D01*
X148058094Y-112976914D02*
X148010475Y-112881676D01*
X148010475Y-112881676D02*
X147915237Y-112786438D01*
X147915237Y-112786438D02*
X147772380Y-112738819D01*
X147772380Y-112738819D02*
X147677142Y-112738819D01*
X147677142Y-112738819D02*
X147534285Y-112786438D01*
X147534285Y-112786438D02*
X147486666Y-112834057D01*
X147153332Y-112738819D02*
X146486666Y-112738819D01*
X146486666Y-112738819D02*
X146915237Y-113738819D01*
X78380819Y-140295333D02*
X77904628Y-139962000D01*
X78380819Y-139723905D02*
X77380819Y-139723905D01*
X77380819Y-139723905D02*
X77380819Y-140104857D01*
X77380819Y-140104857D02*
X77428438Y-140200095D01*
X77428438Y-140200095D02*
X77476057Y-140247714D01*
X77476057Y-140247714D02*
X77571295Y-140295333D01*
X77571295Y-140295333D02*
X77714152Y-140295333D01*
X77714152Y-140295333D02*
X77809390Y-140247714D01*
X77809390Y-140247714D02*
X77857009Y-140200095D01*
X77857009Y-140200095D02*
X77904628Y-140104857D01*
X77904628Y-140104857D02*
X77904628Y-139723905D01*
X77380819Y-140628667D02*
X77380819Y-141295333D01*
X77380819Y-141295333D02*
X78380819Y-140866762D01*
X163482857Y-129232819D02*
X163816190Y-128756628D01*
X164054285Y-129232819D02*
X164054285Y-128232819D01*
X164054285Y-128232819D02*
X163673333Y-128232819D01*
X163673333Y-128232819D02*
X163578095Y-128280438D01*
X163578095Y-128280438D02*
X163530476Y-128328057D01*
X163530476Y-128328057D02*
X163482857Y-128423295D01*
X163482857Y-128423295D02*
X163482857Y-128566152D01*
X163482857Y-128566152D02*
X163530476Y-128661390D01*
X163530476Y-128661390D02*
X163578095Y-128709009D01*
X163578095Y-128709009D02*
X163673333Y-128756628D01*
X163673333Y-128756628D02*
X164054285Y-128756628D01*
X162530476Y-129232819D02*
X163101904Y-129232819D01*
X162816190Y-129232819D02*
X162816190Y-128232819D01*
X162816190Y-128232819D02*
X162911428Y-128375676D01*
X162911428Y-128375676D02*
X163006666Y-128470914D01*
X163006666Y-128470914D02*
X163101904Y-128518533D01*
X161673333Y-128232819D02*
X161863809Y-128232819D01*
X161863809Y-128232819D02*
X161959047Y-128280438D01*
X161959047Y-128280438D02*
X162006666Y-128328057D01*
X162006666Y-128328057D02*
X162101904Y-128470914D01*
X162101904Y-128470914D02*
X162149523Y-128661390D01*
X162149523Y-128661390D02*
X162149523Y-129042342D01*
X162149523Y-129042342D02*
X162101904Y-129137580D01*
X162101904Y-129137580D02*
X162054285Y-129185200D01*
X162054285Y-129185200D02*
X161959047Y-129232819D01*
X161959047Y-129232819D02*
X161768571Y-129232819D01*
X161768571Y-129232819D02*
X161673333Y-129185200D01*
X161673333Y-129185200D02*
X161625714Y-129137580D01*
X161625714Y-129137580D02*
X161578095Y-129042342D01*
X161578095Y-129042342D02*
X161578095Y-128804247D01*
X161578095Y-128804247D02*
X161625714Y-128709009D01*
X161625714Y-128709009D02*
X161673333Y-128661390D01*
X161673333Y-128661390D02*
X161768571Y-128613771D01*
X161768571Y-128613771D02*
X161959047Y-128613771D01*
X161959047Y-128613771D02*
X162054285Y-128661390D01*
X162054285Y-128661390D02*
X162101904Y-128709009D01*
X162101904Y-128709009D02*
X162149523Y-128804247D01*
X169838666Y-135995580D02*
X169886285Y-136043200D01*
X169886285Y-136043200D02*
X170029142Y-136090819D01*
X170029142Y-136090819D02*
X170124380Y-136090819D01*
X170124380Y-136090819D02*
X170267237Y-136043200D01*
X170267237Y-136043200D02*
X170362475Y-135947961D01*
X170362475Y-135947961D02*
X170410094Y-135852723D01*
X170410094Y-135852723D02*
X170457713Y-135662247D01*
X170457713Y-135662247D02*
X170457713Y-135519390D01*
X170457713Y-135519390D02*
X170410094Y-135328914D01*
X170410094Y-135328914D02*
X170362475Y-135233676D01*
X170362475Y-135233676D02*
X170267237Y-135138438D01*
X170267237Y-135138438D02*
X170124380Y-135090819D01*
X170124380Y-135090819D02*
X170029142Y-135090819D01*
X170029142Y-135090819D02*
X169886285Y-135138438D01*
X169886285Y-135138438D02*
X169838666Y-135186057D01*
X168981523Y-135090819D02*
X169171999Y-135090819D01*
X169171999Y-135090819D02*
X169267237Y-135138438D01*
X169267237Y-135138438D02*
X169314856Y-135186057D01*
X169314856Y-135186057D02*
X169410094Y-135328914D01*
X169410094Y-135328914D02*
X169457713Y-135519390D01*
X169457713Y-135519390D02*
X169457713Y-135900342D01*
X169457713Y-135900342D02*
X169410094Y-135995580D01*
X169410094Y-135995580D02*
X169362475Y-136043200D01*
X169362475Y-136043200D02*
X169267237Y-136090819D01*
X169267237Y-136090819D02*
X169076761Y-136090819D01*
X169076761Y-136090819D02*
X168981523Y-136043200D01*
X168981523Y-136043200D02*
X168933904Y-135995580D01*
X168933904Y-135995580D02*
X168886285Y-135900342D01*
X168886285Y-135900342D02*
X168886285Y-135662247D01*
X168886285Y-135662247D02*
X168933904Y-135567009D01*
X168933904Y-135567009D02*
X168981523Y-135519390D01*
X168981523Y-135519390D02*
X169076761Y-135471771D01*
X169076761Y-135471771D02*
X169267237Y-135471771D01*
X169267237Y-135471771D02*
X169362475Y-135519390D01*
X169362475Y-135519390D02*
X169410094Y-135567009D01*
X169410094Y-135567009D02*
X169457713Y-135662247D01*
X115190166Y-136321580D02*
X115237785Y-136369200D01*
X115237785Y-136369200D02*
X115380642Y-136416819D01*
X115380642Y-136416819D02*
X115475880Y-136416819D01*
X115475880Y-136416819D02*
X115618737Y-136369200D01*
X115618737Y-136369200D02*
X115713975Y-136273961D01*
X115713975Y-136273961D02*
X115761594Y-136178723D01*
X115761594Y-136178723D02*
X115809213Y-135988247D01*
X115809213Y-135988247D02*
X115809213Y-135845390D01*
X115809213Y-135845390D02*
X115761594Y-135654914D01*
X115761594Y-135654914D02*
X115713975Y-135559676D01*
X115713975Y-135559676D02*
X115618737Y-135464438D01*
X115618737Y-135464438D02*
X115475880Y-135416819D01*
X115475880Y-135416819D02*
X115380642Y-135416819D01*
X115380642Y-135416819D02*
X115237785Y-135464438D01*
X115237785Y-135464438D02*
X115190166Y-135512057D01*
X114285404Y-135416819D02*
X114761594Y-135416819D01*
X114761594Y-135416819D02*
X114809213Y-135893009D01*
X114809213Y-135893009D02*
X114761594Y-135845390D01*
X114761594Y-135845390D02*
X114666356Y-135797771D01*
X114666356Y-135797771D02*
X114428261Y-135797771D01*
X114428261Y-135797771D02*
X114333023Y-135845390D01*
X114333023Y-135845390D02*
X114285404Y-135893009D01*
X114285404Y-135893009D02*
X114237785Y-135988247D01*
X114237785Y-135988247D02*
X114237785Y-136226342D01*
X114237785Y-136226342D02*
X114285404Y-136321580D01*
X114285404Y-136321580D02*
X114333023Y-136369200D01*
X114333023Y-136369200D02*
X114428261Y-136416819D01*
X114428261Y-136416819D02*
X114666356Y-136416819D01*
X114666356Y-136416819D02*
X114761594Y-136369200D01*
X114761594Y-136369200D02*
X114809213Y-136321580D01*
X173870857Y-119834819D02*
X174204190Y-119358628D01*
X174442285Y-119834819D02*
X174442285Y-118834819D01*
X174442285Y-118834819D02*
X174061333Y-118834819D01*
X174061333Y-118834819D02*
X173966095Y-118882438D01*
X173966095Y-118882438D02*
X173918476Y-118930057D01*
X173918476Y-118930057D02*
X173870857Y-119025295D01*
X173870857Y-119025295D02*
X173870857Y-119168152D01*
X173870857Y-119168152D02*
X173918476Y-119263390D01*
X173918476Y-119263390D02*
X173966095Y-119311009D01*
X173966095Y-119311009D02*
X174061333Y-119358628D01*
X174061333Y-119358628D02*
X174442285Y-119358628D01*
X172918476Y-119834819D02*
X173489904Y-119834819D01*
X173204190Y-119834819D02*
X173204190Y-118834819D01*
X173204190Y-118834819D02*
X173299428Y-118977676D01*
X173299428Y-118977676D02*
X173394666Y-119072914D01*
X173394666Y-119072914D02*
X173489904Y-119120533D01*
X172585142Y-118834819D02*
X171918476Y-118834819D01*
X171918476Y-118834819D02*
X172347047Y-119834819D01*
X107547580Y-76033333D02*
X107595200Y-75985714D01*
X107595200Y-75985714D02*
X107642819Y-75842857D01*
X107642819Y-75842857D02*
X107642819Y-75747619D01*
X107642819Y-75747619D02*
X107595200Y-75604762D01*
X107595200Y-75604762D02*
X107499961Y-75509524D01*
X107499961Y-75509524D02*
X107404723Y-75461905D01*
X107404723Y-75461905D02*
X107214247Y-75414286D01*
X107214247Y-75414286D02*
X107071390Y-75414286D01*
X107071390Y-75414286D02*
X106880914Y-75461905D01*
X106880914Y-75461905D02*
X106785676Y-75509524D01*
X106785676Y-75509524D02*
X106690438Y-75604762D01*
X106690438Y-75604762D02*
X106642819Y-75747619D01*
X106642819Y-75747619D02*
X106642819Y-75842857D01*
X106642819Y-75842857D02*
X106690438Y-75985714D01*
X106690438Y-75985714D02*
X106738057Y-76033333D01*
X106738057Y-76414286D02*
X106690438Y-76461905D01*
X106690438Y-76461905D02*
X106642819Y-76557143D01*
X106642819Y-76557143D02*
X106642819Y-76795238D01*
X106642819Y-76795238D02*
X106690438Y-76890476D01*
X106690438Y-76890476D02*
X106738057Y-76938095D01*
X106738057Y-76938095D02*
X106833295Y-76985714D01*
X106833295Y-76985714D02*
X106928533Y-76985714D01*
X106928533Y-76985714D02*
X107071390Y-76938095D01*
X107071390Y-76938095D02*
X107642819Y-76366667D01*
X107642819Y-76366667D02*
X107642819Y-76985714D01*
X146946857Y-105007580D02*
X146994476Y-105055200D01*
X146994476Y-105055200D02*
X147137333Y-105102819D01*
X147137333Y-105102819D02*
X147232571Y-105102819D01*
X147232571Y-105102819D02*
X147375428Y-105055200D01*
X147375428Y-105055200D02*
X147470666Y-104959961D01*
X147470666Y-104959961D02*
X147518285Y-104864723D01*
X147518285Y-104864723D02*
X147565904Y-104674247D01*
X147565904Y-104674247D02*
X147565904Y-104531390D01*
X147565904Y-104531390D02*
X147518285Y-104340914D01*
X147518285Y-104340914D02*
X147470666Y-104245676D01*
X147470666Y-104245676D02*
X147375428Y-104150438D01*
X147375428Y-104150438D02*
X147232571Y-104102819D01*
X147232571Y-104102819D02*
X147137333Y-104102819D01*
X147137333Y-104102819D02*
X146994476Y-104150438D01*
X146994476Y-104150438D02*
X146946857Y-104198057D01*
X146613523Y-104102819D02*
X145994476Y-104102819D01*
X145994476Y-104102819D02*
X146327809Y-104483771D01*
X146327809Y-104483771D02*
X146184952Y-104483771D01*
X146184952Y-104483771D02*
X146089714Y-104531390D01*
X146089714Y-104531390D02*
X146042095Y-104579009D01*
X146042095Y-104579009D02*
X145994476Y-104674247D01*
X145994476Y-104674247D02*
X145994476Y-104912342D01*
X145994476Y-104912342D02*
X146042095Y-105007580D01*
X146042095Y-105007580D02*
X146089714Y-105055200D01*
X146089714Y-105055200D02*
X146184952Y-105102819D01*
X146184952Y-105102819D02*
X146470666Y-105102819D01*
X146470666Y-105102819D02*
X146565904Y-105055200D01*
X146565904Y-105055200D02*
X146613523Y-105007580D01*
X145423047Y-104531390D02*
X145518285Y-104483771D01*
X145518285Y-104483771D02*
X145565904Y-104436152D01*
X145565904Y-104436152D02*
X145613523Y-104340914D01*
X145613523Y-104340914D02*
X145613523Y-104293295D01*
X145613523Y-104293295D02*
X145565904Y-104198057D01*
X145565904Y-104198057D02*
X145518285Y-104150438D01*
X145518285Y-104150438D02*
X145423047Y-104102819D01*
X145423047Y-104102819D02*
X145232571Y-104102819D01*
X145232571Y-104102819D02*
X145137333Y-104150438D01*
X145137333Y-104150438D02*
X145089714Y-104198057D01*
X145089714Y-104198057D02*
X145042095Y-104293295D01*
X145042095Y-104293295D02*
X145042095Y-104340914D01*
X145042095Y-104340914D02*
X145089714Y-104436152D01*
X145089714Y-104436152D02*
X145137333Y-104483771D01*
X145137333Y-104483771D02*
X145232571Y-104531390D01*
X145232571Y-104531390D02*
X145423047Y-104531390D01*
X145423047Y-104531390D02*
X145518285Y-104579009D01*
X145518285Y-104579009D02*
X145565904Y-104626628D01*
X145565904Y-104626628D02*
X145613523Y-104721866D01*
X145613523Y-104721866D02*
X145613523Y-104912342D01*
X145613523Y-104912342D02*
X145565904Y-105007580D01*
X145565904Y-105007580D02*
X145518285Y-105055200D01*
X145518285Y-105055200D02*
X145423047Y-105102819D01*
X145423047Y-105102819D02*
X145232571Y-105102819D01*
X145232571Y-105102819D02*
X145137333Y-105055200D01*
X145137333Y-105055200D02*
X145089714Y-105007580D01*
X145089714Y-105007580D02*
X145042095Y-104912342D01*
X145042095Y-104912342D02*
X145042095Y-104721866D01*
X145042095Y-104721866D02*
X145089714Y-104626628D01*
X145089714Y-104626628D02*
X145137333Y-104579009D01*
X145137333Y-104579009D02*
X145232571Y-104531390D01*
X168282857Y-105610819D02*
X168616190Y-105134628D01*
X168854285Y-105610819D02*
X168854285Y-104610819D01*
X168854285Y-104610819D02*
X168473333Y-104610819D01*
X168473333Y-104610819D02*
X168378095Y-104658438D01*
X168378095Y-104658438D02*
X168330476Y-104706057D01*
X168330476Y-104706057D02*
X168282857Y-104801295D01*
X168282857Y-104801295D02*
X168282857Y-104944152D01*
X168282857Y-104944152D02*
X168330476Y-105039390D01*
X168330476Y-105039390D02*
X168378095Y-105087009D01*
X168378095Y-105087009D02*
X168473333Y-105134628D01*
X168473333Y-105134628D02*
X168854285Y-105134628D01*
X167330476Y-105610819D02*
X167901904Y-105610819D01*
X167616190Y-105610819D02*
X167616190Y-104610819D01*
X167616190Y-104610819D02*
X167711428Y-104753676D01*
X167711428Y-104753676D02*
X167806666Y-104848914D01*
X167806666Y-104848914D02*
X167901904Y-104896533D01*
X166473333Y-104944152D02*
X166473333Y-105610819D01*
X166711428Y-104563200D02*
X166949523Y-105277485D01*
X166949523Y-105277485D02*
X166330476Y-105277485D01*
X174072857Y-122322819D02*
X174406190Y-121846628D01*
X174644285Y-122322819D02*
X174644285Y-121322819D01*
X174644285Y-121322819D02*
X174263333Y-121322819D01*
X174263333Y-121322819D02*
X174168095Y-121370438D01*
X174168095Y-121370438D02*
X174120476Y-121418057D01*
X174120476Y-121418057D02*
X174072857Y-121513295D01*
X174072857Y-121513295D02*
X174072857Y-121656152D01*
X174072857Y-121656152D02*
X174120476Y-121751390D01*
X174120476Y-121751390D02*
X174168095Y-121799009D01*
X174168095Y-121799009D02*
X174263333Y-121846628D01*
X174263333Y-121846628D02*
X174644285Y-121846628D01*
X173120476Y-122322819D02*
X173691904Y-122322819D01*
X173406190Y-122322819D02*
X173406190Y-121322819D01*
X173406190Y-121322819D02*
X173501428Y-121465676D01*
X173501428Y-121465676D02*
X173596666Y-121560914D01*
X173596666Y-121560914D02*
X173691904Y-121608533D01*
X172549047Y-121751390D02*
X172644285Y-121703771D01*
X172644285Y-121703771D02*
X172691904Y-121656152D01*
X172691904Y-121656152D02*
X172739523Y-121560914D01*
X172739523Y-121560914D02*
X172739523Y-121513295D01*
X172739523Y-121513295D02*
X172691904Y-121418057D01*
X172691904Y-121418057D02*
X172644285Y-121370438D01*
X172644285Y-121370438D02*
X172549047Y-121322819D01*
X172549047Y-121322819D02*
X172358571Y-121322819D01*
X172358571Y-121322819D02*
X172263333Y-121370438D01*
X172263333Y-121370438D02*
X172215714Y-121418057D01*
X172215714Y-121418057D02*
X172168095Y-121513295D01*
X172168095Y-121513295D02*
X172168095Y-121560914D01*
X172168095Y-121560914D02*
X172215714Y-121656152D01*
X172215714Y-121656152D02*
X172263333Y-121703771D01*
X172263333Y-121703771D02*
X172358571Y-121751390D01*
X172358571Y-121751390D02*
X172549047Y-121751390D01*
X172549047Y-121751390D02*
X172644285Y-121799009D01*
X172644285Y-121799009D02*
X172691904Y-121846628D01*
X172691904Y-121846628D02*
X172739523Y-121941866D01*
X172739523Y-121941866D02*
X172739523Y-122132342D01*
X172739523Y-122132342D02*
X172691904Y-122227580D01*
X172691904Y-122227580D02*
X172644285Y-122275200D01*
X172644285Y-122275200D02*
X172549047Y-122322819D01*
X172549047Y-122322819D02*
X172358571Y-122322819D01*
X172358571Y-122322819D02*
X172263333Y-122275200D01*
X172263333Y-122275200D02*
X172215714Y-122227580D01*
X172215714Y-122227580D02*
X172168095Y-122132342D01*
X172168095Y-122132342D02*
X172168095Y-121941866D01*
X172168095Y-121941866D02*
X172215714Y-121846628D01*
X172215714Y-121846628D02*
X172263333Y-121799009D01*
X172263333Y-121799009D02*
X172358571Y-121751390D01*
X178950857Y-144885580D02*
X178998476Y-144933200D01*
X178998476Y-144933200D02*
X179141333Y-144980819D01*
X179141333Y-144980819D02*
X179236571Y-144980819D01*
X179236571Y-144980819D02*
X179379428Y-144933200D01*
X179379428Y-144933200D02*
X179474666Y-144837961D01*
X179474666Y-144837961D02*
X179522285Y-144742723D01*
X179522285Y-144742723D02*
X179569904Y-144552247D01*
X179569904Y-144552247D02*
X179569904Y-144409390D01*
X179569904Y-144409390D02*
X179522285Y-144218914D01*
X179522285Y-144218914D02*
X179474666Y-144123676D01*
X179474666Y-144123676D02*
X179379428Y-144028438D01*
X179379428Y-144028438D02*
X179236571Y-143980819D01*
X179236571Y-143980819D02*
X179141333Y-143980819D01*
X179141333Y-143980819D02*
X178998476Y-144028438D01*
X178998476Y-144028438D02*
X178950857Y-144076057D01*
X178569904Y-144076057D02*
X178522285Y-144028438D01*
X178522285Y-144028438D02*
X178427047Y-143980819D01*
X178427047Y-143980819D02*
X178188952Y-143980819D01*
X178188952Y-143980819D02*
X178093714Y-144028438D01*
X178093714Y-144028438D02*
X178046095Y-144076057D01*
X178046095Y-144076057D02*
X177998476Y-144171295D01*
X177998476Y-144171295D02*
X177998476Y-144266533D01*
X177998476Y-144266533D02*
X178046095Y-144409390D01*
X178046095Y-144409390D02*
X178617523Y-144980819D01*
X178617523Y-144980819D02*
X177998476Y-144980819D01*
X177046095Y-144980819D02*
X177617523Y-144980819D01*
X177331809Y-144980819D02*
X177331809Y-143980819D01*
X177331809Y-143980819D02*
X177427047Y-144123676D01*
X177427047Y-144123676D02*
X177522285Y-144218914D01*
X177522285Y-144218914D02*
X177617523Y-144266533D01*
X137580666Y-57096819D02*
X137913999Y-56620628D01*
X138152094Y-57096819D02*
X138152094Y-56096819D01*
X138152094Y-56096819D02*
X137771142Y-56096819D01*
X137771142Y-56096819D02*
X137675904Y-56144438D01*
X137675904Y-56144438D02*
X137628285Y-56192057D01*
X137628285Y-56192057D02*
X137580666Y-56287295D01*
X137580666Y-56287295D02*
X137580666Y-56430152D01*
X137580666Y-56430152D02*
X137628285Y-56525390D01*
X137628285Y-56525390D02*
X137675904Y-56573009D01*
X137675904Y-56573009D02*
X137771142Y-56620628D01*
X137771142Y-56620628D02*
X138152094Y-56620628D01*
X136628285Y-57096819D02*
X137199713Y-57096819D01*
X136913999Y-57096819D02*
X136913999Y-56096819D01*
X136913999Y-56096819D02*
X137009237Y-56239676D01*
X137009237Y-56239676D02*
X137104475Y-56334914D01*
X137104475Y-56334914D02*
X137199713Y-56382533D01*
X109132666Y-90021580D02*
X109180285Y-90069200D01*
X109180285Y-90069200D02*
X109323142Y-90116819D01*
X109323142Y-90116819D02*
X109418380Y-90116819D01*
X109418380Y-90116819D02*
X109561237Y-90069200D01*
X109561237Y-90069200D02*
X109656475Y-89973961D01*
X109656475Y-89973961D02*
X109704094Y-89878723D01*
X109704094Y-89878723D02*
X109751713Y-89688247D01*
X109751713Y-89688247D02*
X109751713Y-89545390D01*
X109751713Y-89545390D02*
X109704094Y-89354914D01*
X109704094Y-89354914D02*
X109656475Y-89259676D01*
X109656475Y-89259676D02*
X109561237Y-89164438D01*
X109561237Y-89164438D02*
X109418380Y-89116819D01*
X109418380Y-89116819D02*
X109323142Y-89116819D01*
X109323142Y-89116819D02*
X109180285Y-89164438D01*
X109180285Y-89164438D02*
X109132666Y-89212057D01*
X108799332Y-89116819D02*
X108180285Y-89116819D01*
X108180285Y-89116819D02*
X108513618Y-89497771D01*
X108513618Y-89497771D02*
X108370761Y-89497771D01*
X108370761Y-89497771D02*
X108275523Y-89545390D01*
X108275523Y-89545390D02*
X108227904Y-89593009D01*
X108227904Y-89593009D02*
X108180285Y-89688247D01*
X108180285Y-89688247D02*
X108180285Y-89926342D01*
X108180285Y-89926342D02*
X108227904Y-90021580D01*
X108227904Y-90021580D02*
X108275523Y-90069200D01*
X108275523Y-90069200D02*
X108370761Y-90116819D01*
X108370761Y-90116819D02*
X108656475Y-90116819D01*
X108656475Y-90116819D02*
X108751713Y-90069200D01*
X108751713Y-90069200D02*
X108799332Y-90021580D01*
X149010666Y-57001580D02*
X149058285Y-57049200D01*
X149058285Y-57049200D02*
X149201142Y-57096819D01*
X149201142Y-57096819D02*
X149296380Y-57096819D01*
X149296380Y-57096819D02*
X149439237Y-57049200D01*
X149439237Y-57049200D02*
X149534475Y-56953961D01*
X149534475Y-56953961D02*
X149582094Y-56858723D01*
X149582094Y-56858723D02*
X149629713Y-56668247D01*
X149629713Y-56668247D02*
X149629713Y-56525390D01*
X149629713Y-56525390D02*
X149582094Y-56334914D01*
X149582094Y-56334914D02*
X149534475Y-56239676D01*
X149534475Y-56239676D02*
X149439237Y-56144438D01*
X149439237Y-56144438D02*
X149296380Y-56096819D01*
X149296380Y-56096819D02*
X149201142Y-56096819D01*
X149201142Y-56096819D02*
X149058285Y-56144438D01*
X149058285Y-56144438D02*
X149010666Y-56192057D01*
X148058285Y-57096819D02*
X148629713Y-57096819D01*
X148343999Y-57096819D02*
X148343999Y-56096819D01*
X148343999Y-56096819D02*
X148439237Y-56239676D01*
X148439237Y-56239676D02*
X148534475Y-56334914D01*
X148534475Y-56334914D02*
X148629713Y-56382533D01*
X168028857Y-97990819D02*
X168362190Y-97514628D01*
X168600285Y-97990819D02*
X168600285Y-96990819D01*
X168600285Y-96990819D02*
X168219333Y-96990819D01*
X168219333Y-96990819D02*
X168124095Y-97038438D01*
X168124095Y-97038438D02*
X168076476Y-97086057D01*
X168076476Y-97086057D02*
X168028857Y-97181295D01*
X168028857Y-97181295D02*
X168028857Y-97324152D01*
X168028857Y-97324152D02*
X168076476Y-97419390D01*
X168076476Y-97419390D02*
X168124095Y-97467009D01*
X168124095Y-97467009D02*
X168219333Y-97514628D01*
X168219333Y-97514628D02*
X168600285Y-97514628D01*
X167076476Y-97990819D02*
X167647904Y-97990819D01*
X167362190Y-97990819D02*
X167362190Y-96990819D01*
X167362190Y-96990819D02*
X167457428Y-97133676D01*
X167457428Y-97133676D02*
X167552666Y-97228914D01*
X167552666Y-97228914D02*
X167647904Y-97276533D01*
X166743142Y-96990819D02*
X166124095Y-96990819D01*
X166124095Y-96990819D02*
X166457428Y-97371771D01*
X166457428Y-97371771D02*
X166314571Y-97371771D01*
X166314571Y-97371771D02*
X166219333Y-97419390D01*
X166219333Y-97419390D02*
X166171714Y-97467009D01*
X166171714Y-97467009D02*
X166124095Y-97562247D01*
X166124095Y-97562247D02*
X166124095Y-97800342D01*
X166124095Y-97800342D02*
X166171714Y-97895580D01*
X166171714Y-97895580D02*
X166219333Y-97943200D01*
X166219333Y-97943200D02*
X166314571Y-97990819D01*
X166314571Y-97990819D02*
X166600285Y-97990819D01*
X166600285Y-97990819D02*
X166695523Y-97943200D01*
X166695523Y-97943200D02*
X166743142Y-97895580D01*
X123301047Y-113643580D02*
X123348666Y-113691200D01*
X123348666Y-113691200D02*
X123491523Y-113738819D01*
X123491523Y-113738819D02*
X123586761Y-113738819D01*
X123586761Y-113738819D02*
X123729618Y-113691200D01*
X123729618Y-113691200D02*
X123824856Y-113595961D01*
X123824856Y-113595961D02*
X123872475Y-113500723D01*
X123872475Y-113500723D02*
X123920094Y-113310247D01*
X123920094Y-113310247D02*
X123920094Y-113167390D01*
X123920094Y-113167390D02*
X123872475Y-112976914D01*
X123872475Y-112976914D02*
X123824856Y-112881676D01*
X123824856Y-112881676D02*
X123729618Y-112786438D01*
X123729618Y-112786438D02*
X123586761Y-112738819D01*
X123586761Y-112738819D02*
X123491523Y-112738819D01*
X123491523Y-112738819D02*
X123348666Y-112786438D01*
X123348666Y-112786438D02*
X123301047Y-112834057D01*
X122348666Y-113738819D02*
X122920094Y-113738819D01*
X122634380Y-113738819D02*
X122634380Y-112738819D01*
X122634380Y-112738819D02*
X122729618Y-112881676D01*
X122729618Y-112881676D02*
X122824856Y-112976914D01*
X122824856Y-112976914D02*
X122920094Y-113024533D01*
X121491523Y-112738819D02*
X121681999Y-112738819D01*
X121681999Y-112738819D02*
X121777237Y-112786438D01*
X121777237Y-112786438D02*
X121824856Y-112834057D01*
X121824856Y-112834057D02*
X121920094Y-112976914D01*
X121920094Y-112976914D02*
X121967713Y-113167390D01*
X121967713Y-113167390D02*
X121967713Y-113548342D01*
X121967713Y-113548342D02*
X121920094Y-113643580D01*
X121920094Y-113643580D02*
X121872475Y-113691200D01*
X121872475Y-113691200D02*
X121777237Y-113738819D01*
X121777237Y-113738819D02*
X121586761Y-113738819D01*
X121586761Y-113738819D02*
X121491523Y-113691200D01*
X121491523Y-113691200D02*
X121443904Y-113643580D01*
X121443904Y-113643580D02*
X121396285Y-113548342D01*
X121396285Y-113548342D02*
X121396285Y-113310247D01*
X121396285Y-113310247D02*
X121443904Y-113215009D01*
X121443904Y-113215009D02*
X121491523Y-113167390D01*
X121491523Y-113167390D02*
X121586761Y-113119771D01*
X121586761Y-113119771D02*
X121777237Y-113119771D01*
X121777237Y-113119771D02*
X121872475Y-113167390D01*
X121872475Y-113167390D02*
X121920094Y-113215009D01*
X121920094Y-113215009D02*
X121967713Y-113310247D01*
X178950857Y-142345580D02*
X178998476Y-142393200D01*
X178998476Y-142393200D02*
X179141333Y-142440819D01*
X179141333Y-142440819D02*
X179236571Y-142440819D01*
X179236571Y-142440819D02*
X179379428Y-142393200D01*
X179379428Y-142393200D02*
X179474666Y-142297961D01*
X179474666Y-142297961D02*
X179522285Y-142202723D01*
X179522285Y-142202723D02*
X179569904Y-142012247D01*
X179569904Y-142012247D02*
X179569904Y-141869390D01*
X179569904Y-141869390D02*
X179522285Y-141678914D01*
X179522285Y-141678914D02*
X179474666Y-141583676D01*
X179474666Y-141583676D02*
X179379428Y-141488438D01*
X179379428Y-141488438D02*
X179236571Y-141440819D01*
X179236571Y-141440819D02*
X179141333Y-141440819D01*
X179141333Y-141440819D02*
X178998476Y-141488438D01*
X178998476Y-141488438D02*
X178950857Y-141536057D01*
X178569904Y-141536057D02*
X178522285Y-141488438D01*
X178522285Y-141488438D02*
X178427047Y-141440819D01*
X178427047Y-141440819D02*
X178188952Y-141440819D01*
X178188952Y-141440819D02*
X178093714Y-141488438D01*
X178093714Y-141488438D02*
X178046095Y-141536057D01*
X178046095Y-141536057D02*
X177998476Y-141631295D01*
X177998476Y-141631295D02*
X177998476Y-141726533D01*
X177998476Y-141726533D02*
X178046095Y-141869390D01*
X178046095Y-141869390D02*
X178617523Y-142440819D01*
X178617523Y-142440819D02*
X177998476Y-142440819D01*
X177379428Y-141440819D02*
X177284190Y-141440819D01*
X177284190Y-141440819D02*
X177188952Y-141488438D01*
X177188952Y-141488438D02*
X177141333Y-141536057D01*
X177141333Y-141536057D02*
X177093714Y-141631295D01*
X177093714Y-141631295D02*
X177046095Y-141821771D01*
X177046095Y-141821771D02*
X177046095Y-142059866D01*
X177046095Y-142059866D02*
X177093714Y-142250342D01*
X177093714Y-142250342D02*
X177141333Y-142345580D01*
X177141333Y-142345580D02*
X177188952Y-142393200D01*
X177188952Y-142393200D02*
X177284190Y-142440819D01*
X177284190Y-142440819D02*
X177379428Y-142440819D01*
X177379428Y-142440819D02*
X177474666Y-142393200D01*
X177474666Y-142393200D02*
X177522285Y-142345580D01*
X177522285Y-142345580D02*
X177569904Y-142250342D01*
X177569904Y-142250342D02*
X177617523Y-142059866D01*
X177617523Y-142059866D02*
X177617523Y-141821771D01*
X177617523Y-141821771D02*
X177569904Y-141631295D01*
X177569904Y-141631295D02*
X177522285Y-141536057D01*
X177522285Y-141536057D02*
X177474666Y-141488438D01*
X177474666Y-141488438D02*
X177379428Y-141440819D01*
X132788819Y-109079333D02*
X132312628Y-108746000D01*
X132788819Y-108507905D02*
X131788819Y-108507905D01*
X131788819Y-108507905D02*
X131788819Y-108888857D01*
X131788819Y-108888857D02*
X131836438Y-108984095D01*
X131836438Y-108984095D02*
X131884057Y-109031714D01*
X131884057Y-109031714D02*
X131979295Y-109079333D01*
X131979295Y-109079333D02*
X132122152Y-109079333D01*
X132122152Y-109079333D02*
X132217390Y-109031714D01*
X132217390Y-109031714D02*
X132265009Y-108984095D01*
X132265009Y-108984095D02*
X132312628Y-108888857D01*
X132312628Y-108888857D02*
X132312628Y-108507905D01*
X131788819Y-109412667D02*
X131788819Y-110031714D01*
X131788819Y-110031714D02*
X132169771Y-109698381D01*
X132169771Y-109698381D02*
X132169771Y-109841238D01*
X132169771Y-109841238D02*
X132217390Y-109936476D01*
X132217390Y-109936476D02*
X132265009Y-109984095D01*
X132265009Y-109984095D02*
X132360247Y-110031714D01*
X132360247Y-110031714D02*
X132598342Y-110031714D01*
X132598342Y-110031714D02*
X132693580Y-109984095D01*
X132693580Y-109984095D02*
X132741200Y-109936476D01*
X132741200Y-109936476D02*
X132788819Y-109841238D01*
X132788819Y-109841238D02*
X132788819Y-109555524D01*
X132788819Y-109555524D02*
X132741200Y-109460286D01*
X132741200Y-109460286D02*
X132693580Y-109412667D01*
X178474666Y-147520819D02*
X178807999Y-147044628D01*
X179046094Y-147520819D02*
X179046094Y-146520819D01*
X179046094Y-146520819D02*
X178665142Y-146520819D01*
X178665142Y-146520819D02*
X178569904Y-146568438D01*
X178569904Y-146568438D02*
X178522285Y-146616057D01*
X178522285Y-146616057D02*
X178474666Y-146711295D01*
X178474666Y-146711295D02*
X178474666Y-146854152D01*
X178474666Y-146854152D02*
X178522285Y-146949390D01*
X178522285Y-146949390D02*
X178569904Y-146997009D01*
X178569904Y-146997009D02*
X178665142Y-147044628D01*
X178665142Y-147044628D02*
X179046094Y-147044628D01*
X178093713Y-146616057D02*
X178046094Y-146568438D01*
X178046094Y-146568438D02*
X177950856Y-146520819D01*
X177950856Y-146520819D02*
X177712761Y-146520819D01*
X177712761Y-146520819D02*
X177617523Y-146568438D01*
X177617523Y-146568438D02*
X177569904Y-146616057D01*
X177569904Y-146616057D02*
X177522285Y-146711295D01*
X177522285Y-146711295D02*
X177522285Y-146806533D01*
X177522285Y-146806533D02*
X177569904Y-146949390D01*
X177569904Y-146949390D02*
X178141332Y-147520819D01*
X178141332Y-147520819D02*
X177522285Y-147520819D01*
X74556857Y-58017580D02*
X74604476Y-58065200D01*
X74604476Y-58065200D02*
X74747333Y-58112819D01*
X74747333Y-58112819D02*
X74842571Y-58112819D01*
X74842571Y-58112819D02*
X74985428Y-58065200D01*
X74985428Y-58065200D02*
X75080666Y-57969961D01*
X75080666Y-57969961D02*
X75128285Y-57874723D01*
X75128285Y-57874723D02*
X75175904Y-57684247D01*
X75175904Y-57684247D02*
X75175904Y-57541390D01*
X75175904Y-57541390D02*
X75128285Y-57350914D01*
X75128285Y-57350914D02*
X75080666Y-57255676D01*
X75080666Y-57255676D02*
X74985428Y-57160438D01*
X74985428Y-57160438D02*
X74842571Y-57112819D01*
X74842571Y-57112819D02*
X74747333Y-57112819D01*
X74747333Y-57112819D02*
X74604476Y-57160438D01*
X74604476Y-57160438D02*
X74556857Y-57208057D01*
X73604476Y-58112819D02*
X74175904Y-58112819D01*
X73890190Y-58112819D02*
X73890190Y-57112819D01*
X73890190Y-57112819D02*
X73985428Y-57255676D01*
X73985428Y-57255676D02*
X74080666Y-57350914D01*
X74080666Y-57350914D02*
X74175904Y-57398533D01*
X72699714Y-57112819D02*
X73175904Y-57112819D01*
X73175904Y-57112819D02*
X73223523Y-57589009D01*
X73223523Y-57589009D02*
X73175904Y-57541390D01*
X73175904Y-57541390D02*
X73080666Y-57493771D01*
X73080666Y-57493771D02*
X72842571Y-57493771D01*
X72842571Y-57493771D02*
X72747333Y-57541390D01*
X72747333Y-57541390D02*
X72699714Y-57589009D01*
X72699714Y-57589009D02*
X72652095Y-57684247D01*
X72652095Y-57684247D02*
X72652095Y-57922342D01*
X72652095Y-57922342D02*
X72699714Y-58017580D01*
X72699714Y-58017580D02*
X72747333Y-58065200D01*
X72747333Y-58065200D02*
X72842571Y-58112819D01*
X72842571Y-58112819D02*
X73080666Y-58112819D01*
X73080666Y-58112819D02*
X73175904Y-58065200D01*
X73175904Y-58065200D02*
X73223523Y-58017580D01*
X174632857Y-112301580D02*
X174680476Y-112349200D01*
X174680476Y-112349200D02*
X174823333Y-112396819D01*
X174823333Y-112396819D02*
X174918571Y-112396819D01*
X174918571Y-112396819D02*
X175061428Y-112349200D01*
X175061428Y-112349200D02*
X175156666Y-112253961D01*
X175156666Y-112253961D02*
X175204285Y-112158723D01*
X175204285Y-112158723D02*
X175251904Y-111968247D01*
X175251904Y-111968247D02*
X175251904Y-111825390D01*
X175251904Y-111825390D02*
X175204285Y-111634914D01*
X175204285Y-111634914D02*
X175156666Y-111539676D01*
X175156666Y-111539676D02*
X175061428Y-111444438D01*
X175061428Y-111444438D02*
X174918571Y-111396819D01*
X174918571Y-111396819D02*
X174823333Y-111396819D01*
X174823333Y-111396819D02*
X174680476Y-111444438D01*
X174680476Y-111444438D02*
X174632857Y-111492057D01*
X174299523Y-111396819D02*
X173680476Y-111396819D01*
X173680476Y-111396819D02*
X174013809Y-111777771D01*
X174013809Y-111777771D02*
X173870952Y-111777771D01*
X173870952Y-111777771D02*
X173775714Y-111825390D01*
X173775714Y-111825390D02*
X173728095Y-111873009D01*
X173728095Y-111873009D02*
X173680476Y-111968247D01*
X173680476Y-111968247D02*
X173680476Y-112206342D01*
X173680476Y-112206342D02*
X173728095Y-112301580D01*
X173728095Y-112301580D02*
X173775714Y-112349200D01*
X173775714Y-112349200D02*
X173870952Y-112396819D01*
X173870952Y-112396819D02*
X174156666Y-112396819D01*
X174156666Y-112396819D02*
X174251904Y-112349200D01*
X174251904Y-112349200D02*
X174299523Y-112301580D01*
X173204285Y-112396819D02*
X173013809Y-112396819D01*
X173013809Y-112396819D02*
X172918571Y-112349200D01*
X172918571Y-112349200D02*
X172870952Y-112301580D01*
X172870952Y-112301580D02*
X172775714Y-112158723D01*
X172775714Y-112158723D02*
X172728095Y-111968247D01*
X172728095Y-111968247D02*
X172728095Y-111587295D01*
X172728095Y-111587295D02*
X172775714Y-111492057D01*
X172775714Y-111492057D02*
X172823333Y-111444438D01*
X172823333Y-111444438D02*
X172918571Y-111396819D01*
X172918571Y-111396819D02*
X173109047Y-111396819D01*
X173109047Y-111396819D02*
X173204285Y-111444438D01*
X173204285Y-111444438D02*
X173251904Y-111492057D01*
X173251904Y-111492057D02*
X173299523Y-111587295D01*
X173299523Y-111587295D02*
X173299523Y-111825390D01*
X173299523Y-111825390D02*
X173251904Y-111920628D01*
X173251904Y-111920628D02*
X173204285Y-111968247D01*
X173204285Y-111968247D02*
X173109047Y-112015866D01*
X173109047Y-112015866D02*
X172918571Y-112015866D01*
X172918571Y-112015866D02*
X172823333Y-111968247D01*
X172823333Y-111968247D02*
X172775714Y-111920628D01*
X172775714Y-111920628D02*
X172728095Y-111825390D01*
D11*
X150828000Y-110190000D02*
X150828000Y-110790000D01*
X151478000Y-111490000D02*
X154278000Y-111490000D01*
X154278000Y-109490000D02*
X151478000Y-109490000D01*
X154928000Y-110790000D02*
X154928000Y-110190000D01*
X151528000Y-111490000D02*
G75*
G02*
X150828000Y-110790000I-1J699999D01*
G01*
X150828000Y-110190000D02*
G75*
G02*
X151528000Y-109490000I699999J1D01*
G01*
X154928000Y-110790000D02*
G75*
G02*
X154228000Y-111490000I-700000J0D01*
G01*
X154228000Y-109490000D02*
G75*
G02*
X154928000Y-110190000I0J-700000D01*
G01*
X138128000Y-102316000D02*
X138128000Y-102916000D01*
X138778000Y-103616000D02*
X141578000Y-103616000D01*
X141578000Y-101616000D02*
X138778000Y-101616000D01*
X142228000Y-102916000D02*
X142228000Y-102316000D01*
X138828000Y-103616000D02*
G75*
G02*
X138128000Y-102916000I-1J699999D01*
G01*
X138128000Y-102316000D02*
G75*
G02*
X138828000Y-101616000I699999J1D01*
G01*
X142228000Y-102916000D02*
G75*
G02*
X141528000Y-103616000I-700000J0D01*
G01*
X141528000Y-101616000D02*
G75*
G02*
X142228000Y-102316000I0J-700000D01*
G01*
X158450000Y-101140000D02*
X159050000Y-101140000D01*
X159750000Y-100490000D02*
X159750000Y-97690000D01*
X157750000Y-97690000D02*
X157750000Y-100490000D01*
X159050000Y-97040000D02*
X158450000Y-97040000D01*
X159750000Y-100440000D02*
G75*
G02*
X159050000Y-101140000I-699999J-1D01*
G01*
X158450000Y-101140000D02*
G75*
G02*
X157750000Y-100440000I-1J699999D01*
G01*
X159050000Y-97040000D02*
G75*
G02*
X159750000Y-97740000I0J-700000D01*
G01*
X157750000Y-97740000D02*
G75*
G02*
X158450000Y-97040000I700000J0D01*
G01*
X150828000Y-102316000D02*
X150828000Y-102916000D01*
X151478000Y-103616000D02*
X154278000Y-103616000D01*
X154278000Y-101616000D02*
X151478000Y-101616000D01*
X154928000Y-102916000D02*
X154928000Y-102316000D01*
X151528000Y-103616000D02*
G75*
G02*
X150828000Y-102916000I-1J699999D01*
G01*
X150828000Y-102316000D02*
G75*
G02*
X151528000Y-101616000I699999J1D01*
G01*
X154928000Y-102916000D02*
G75*
G02*
X154228000Y-103616000I-700000J0D01*
G01*
X154228000Y-101616000D02*
G75*
G02*
X154928000Y-102316000I0J-700000D01*
G01*
X161904000Y-120853252D02*
X161904000Y-119430748D01*
X163724000Y-120853252D02*
X163724000Y-119430748D01*
X159364000Y-119414936D02*
X159364000Y-120869064D01*
X161184000Y-119414936D02*
X161184000Y-120869064D01*
X133964000Y-112048936D02*
X133964000Y-113503064D01*
X135784000Y-112048936D02*
X135784000Y-113503064D01*
X136888000Y-115290000D02*
X136888000Y-110770000D01*
X136888000Y-110770000D02*
X145128000Y-110770000D01*
X145128000Y-115290000D02*
X136888000Y-115290000D01*
X78846000Y-139734936D02*
X78846000Y-141189064D01*
X80666000Y-139734936D02*
X80666000Y-141189064D01*
X167859064Y-127868000D02*
X166404936Y-127868000D01*
X167859064Y-129688000D02*
X166404936Y-129688000D01*
X164896748Y-134726000D02*
X166319252Y-134726000D01*
X164896748Y-136546000D02*
X166319252Y-136546000D01*
X114312248Y-133202000D02*
X115734752Y-133202000D01*
X114312248Y-135022000D02*
X115734752Y-135022000D01*
X169891064Y-118470000D02*
X168436936Y-118470000D01*
X169891064Y-120290000D02*
X168436936Y-120290000D01*
X106278000Y-71386248D02*
X106278000Y-72808752D01*
X108098000Y-71386248D02*
X108098000Y-72808752D01*
X145592748Y-101706000D02*
X147015252Y-101706000D01*
X145592748Y-103526000D02*
X147015252Y-103526000D01*
X162594936Y-104246000D02*
X164049064Y-104246000D01*
X162594936Y-106066000D02*
X164049064Y-106066000D01*
X169865064Y-120756000D02*
X168410936Y-120756000D01*
X169865064Y-122576000D02*
X168410936Y-122576000D01*
X173278748Y-143616000D02*
X174701252Y-143616000D01*
X173278748Y-145436000D02*
X174701252Y-145436000D01*
X141977064Y-55732000D02*
X140522936Y-55732000D01*
X141977064Y-57552000D02*
X140522936Y-57552000D01*
X104406248Y-88752000D02*
X105828752Y-88752000D01*
X104406248Y-90572000D02*
X105828752Y-90572000D01*
X144254000Y-54382000D02*
X152494000Y-54382000D01*
X152494000Y-58902000D02*
X144254000Y-58902000D01*
X144254000Y-58902000D02*
X144254000Y-54382000D01*
X163769064Y-96626000D02*
X162314936Y-96626000D01*
X163769064Y-98446000D02*
X162314936Y-98446000D01*
X119032000Y-111024000D02*
X127272000Y-111024000D01*
X127272000Y-111024000D02*
X127272000Y-115544000D01*
X127272000Y-115544000D02*
X119032000Y-115544000D01*
X173278748Y-141076000D02*
X174701252Y-141076000D01*
X173278748Y-142896000D02*
X174701252Y-142896000D01*
X131424000Y-112048936D02*
X131424000Y-113503064D01*
X133244000Y-112048936D02*
X133244000Y-113503064D01*
X174743064Y-146156000D02*
X173288936Y-146156000D01*
X174743064Y-147976000D02*
X173288936Y-147976000D01*
X68592248Y-56748000D02*
X70014752Y-56748000D01*
X68592248Y-58568000D02*
X70014752Y-58568000D01*
X174701252Y-112882000D02*
X173278748Y-112882000D01*
X174701252Y-114702000D02*
X173278748Y-114702000D01*
M02*
