M48
; DRILL file {KiCad 9.0.3-9.0.3-0~ubuntu22.04.1} date 2025-08-22T11:52:50+0200
; FORMAT={-:-/ absolute / metric / decimal}
; #@! TF.CreationDate,2025-08-22T11:52:50+02:00
; #@! TF.GenerationSoftware,Kicad,Pcbnew,9.0.3-9.0.3-0~ubuntu22.04.1
; #@! TF.FileFunction,MixedPlating,1,2
FMAT,2
METRIC
; #@! TA.AperFunction,Plated,PTH,ViaDrill
T1C0.400
; #@! TA.AperFunction,Plated,PTH,ComponentDrill
T2C0.800
; #@! TA.AperFunction,Plated,PTH,ComponentDrill
T3C0.900
; #@! TA.AperFunction,Plated,PTH,ComponentDrill
T4C1.000
; #@! TA.AperFunction,Plated,PTH,ComponentDrill
T5C1.200
; #@! TA.AperFunction,NonPlated,NPTH,ComponentDrill
T6C2.850
%
G90
G05
T1
X67.818Y-53.34
X67.818Y-61.976
X67.818Y-69.85
X67.818Y-78.486
X67.818Y-93.98
X67.818Y-110.49
X67.818Y-132.588
X67.818Y-142.24
X68.072Y-89.408
X68.072Y-101.092
X72.263Y-64.516
X75.438Y-136.398
X76.962Y-147.574
X78.994Y-63.373
X78.994Y-70.739
X78.994Y-74.168
X80.01Y-97.79
X80.264Y-76.454
X80.772Y-104.902
X81.28Y-72.136
X82.042Y-115.062
X82.042Y-143.002
X82.296Y-97.917
X83.566Y-103.886
X83.566Y-139.954
X83.693Y-96.774
X84.836Y-138.43
X86.106Y-103.124
X86.36Y-84.582
X86.614Y-59.055
X87.376Y-103.886
X87.376Y-110.617
X87.63Y-97.917
X88.138Y-64.516
X88.773Y-84.709
X88.9Y-99.568
X90.17Y-103.124
X90.17Y-115.57
X90.678Y-63.627
X91.059Y-97.155
X91.44Y-95.758
X91.44Y-98.552
X92.456Y-85.979
X92.456Y-108.458
X93.726Y-98.552
X94.234Y-105.918
X94.996Y-86.106
X95.25Y-77.724
X96.266Y-94.996
X97.536Y-89.916
X97.663Y-108.966
X98.806Y-90.17
X99.695Y-84.709
X99.923Y-55.245
X99.949Y-63.627
X100.076Y-110.617
X102.108Y-72.39
X102.108Y-74.676
X102.108Y-79.756
X104.013Y-72.263
X105.156Y-98.552
X105.41Y-79.756
X105.918Y-106.934
X106.172Y-68.58
X106.172Y-77.216
X106.934Y-74.676
X110.744Y-89.408
X111.506Y-88.646
X112.014Y-87.884
X112.395Y-63.5
X113.157Y-97.028
X113.538Y-103.378
X113.538Y-110.617
X114.046Y-59.69
X114.046Y-65.913
X114.046Y-70.231
X114.046Y-73.406
X114.046Y-75.946
X114.046Y-78.486
X114.046Y-81.28
X114.046Y-84.963
X114.427Y-102.616
X114.554Y-107.442
X117.856Y-98.933
X117.856Y-101.219
X117.856Y-110.617
X120.396Y-56.896
X121.793Y-57.023
X123.19Y-71.374
X124.714Y-65.532
X125.73Y-57.15
X125.73Y-58.166
X125.73Y-69.85
X127.215Y-123.317
X127.254Y-64.77
X129.54Y-64.095
X129.54Y-73.152
X130.81Y-57.15
X131.064Y-64.77
X131.064Y-115.062
X131.064Y-126.492
X131.064Y-129.032
X131.064Y-131.572
X131.318Y-90.932
X132.207Y-113.284
X133.35Y-65.532
X133.35Y-71.374
X134.62Y-69.762
X134.62Y-131.572
X137.16Y-129.032
X137.16Y-58.166
X137.16Y-73.152
X139.7Y-122.555
X139.7Y-143.002
X144.272Y-86.868
X144.272Y-101.6
X144.78Y-54.356
X144.78Y-71.628
X144.78Y-128.27
X145.034Y-147.574
X145.669Y-59.69
X145.669Y-67.31
X150.876Y-92.964
X152.146Y-134.62
X152.273Y-122.555
X154.178Y-67.31
X154.94Y-135.636
X155.956Y-63.587
X156.21Y-109.474
X157.226Y-97.536
X157.353Y-99.06
X158.496Y-136.652
X160.02Y-67.31
X161.036Y-62.372
X161.036Y-137.668
X163.576Y-62.738
X163.576Y-86.868
X163.576Y-110.744
X163.576Y-135.128
X163.576Y-138.43
X166.116Y-139.7
X168.656Y-140.716
X169.926Y-64.77
X169.926Y-115.316
X170.18Y-92.202
X170.18Y-113.284
X171.196Y-141.732
X172.212Y-64.77
X172.212Y-67.564
X172.466Y-115.316
X172.72Y-92.202
X172.72Y-113.284
X173.371Y-108.879
X173.736Y-60.706
X173.736Y-84.328
X173.736Y-132.588
X179.451Y-58.801
X179.451Y-82.55
X179.451Y-106.68
X179.578Y-131.064
X179.578Y-141.351
X179.832Y-147.066
X181.229Y-61.722
X182.372Y-97.536
X190.754Y-126.238
X191.77Y-77.724
X192.024Y-103.632
X192.786Y-56.134
X203.708Y-132.334
X207.264Y-135.128
T2
X77.851Y-60.579
X77.851Y-68.199
X79.756Y-80.264
X79.756Y-87.884
X79.756Y-93.726
X79.756Y-101.346
X79.756Y-113.792
X79.756Y-116.332
X79.756Y-118.872
X79.756Y-121.412
X79.756Y-123.952
X79.756Y-126.492
X79.756Y-129.032
X79.756Y-131.572
X79.756Y-134.112
X79.756Y-136.652
X80.391Y-60.579
X80.391Y-68.199
X82.296Y-80.264
X82.296Y-87.884
X82.296Y-93.726
X82.296Y-101.346
X82.931Y-60.579
X82.931Y-68.199
X84.836Y-80.264
X84.836Y-87.884
X84.836Y-93.726
X84.836Y-101.346
X85.471Y-60.579
X85.471Y-68.199
X87.376Y-80.264
X87.376Y-87.884
X87.376Y-93.726
X87.376Y-101.346
X87.376Y-113.792
X87.376Y-116.332
X87.376Y-118.872
X87.376Y-121.412
X87.376Y-123.952
X87.376Y-126.492
X87.376Y-129.032
X87.376Y-131.572
X87.376Y-134.112
X87.376Y-136.652
X88.011Y-60.579
X88.011Y-68.199
X89.916Y-80.264
X89.916Y-87.884
X89.916Y-93.726
X89.916Y-101.346
X90.551Y-60.579
X90.551Y-68.199
X92.456Y-80.264
X92.456Y-87.884
X92.456Y-93.726
X92.456Y-101.346
X92.456Y-113.792
X92.456Y-116.332
X92.456Y-118.872
X92.456Y-121.412
X92.456Y-123.952
X92.456Y-126.492
X92.456Y-129.032
X92.456Y-131.572
X92.456Y-134.112
X92.456Y-136.652
X93.091Y-60.579
X93.091Y-68.199
X94.996Y-80.264
X94.996Y-87.884
X94.996Y-93.726
X94.996Y-101.346
X97.536Y-80.264
X97.536Y-87.884
X97.536Y-93.726
X97.536Y-101.346
X100.076Y-93.726
X100.076Y-101.346
X100.076Y-113.792
X100.076Y-116.332
X100.076Y-118.872
X100.076Y-121.412
X100.076Y-123.952
X100.076Y-126.492
X100.076Y-129.032
X100.076Y-131.572
X100.076Y-134.112
X100.076Y-136.652
X102.616Y-93.726
X102.616Y-101.346
X105.156Y-93.726
X105.156Y-101.346
X105.918Y-113.792
X105.918Y-116.332
X105.918Y-118.872
X105.918Y-121.412
X105.918Y-123.952
X105.918Y-126.492
X105.918Y-129.032
X105.918Y-131.572
X105.918Y-134.112
X105.918Y-136.652
X107.696Y-93.726
X107.696Y-101.346
X113.538Y-113.792
X113.538Y-116.332
X113.538Y-118.872
X113.538Y-121.412
X113.538Y-123.952
X113.538Y-126.492
X113.538Y-129.032
X113.538Y-131.572
X113.538Y-134.112
X113.538Y-136.652
X120.65Y-74.93
X120.65Y-82.55
X120.65Y-86.614
X120.65Y-94.234
X120.65Y-98.806
X120.65Y-106.426
X120.65Y-110.998
X120.65Y-118.618
X123.19Y-60.452
X123.19Y-68.072
X123.19Y-74.93
X123.19Y-82.55
X123.19Y-86.614
X123.19Y-94.234
X123.19Y-98.806
X123.19Y-106.426
X123.19Y-110.998
X123.19Y-118.618
X125.73Y-60.452
X125.73Y-68.072
X125.73Y-74.93
X125.73Y-82.55
X125.73Y-86.614
X125.73Y-94.234
X125.73Y-98.806
X125.73Y-106.426
X125.73Y-110.998
X125.73Y-118.618
X128.27Y-60.452
X128.27Y-68.072
X128.27Y-74.93
X128.27Y-82.55
X128.27Y-86.614
X128.27Y-94.234
X128.27Y-98.806
X128.27Y-106.426
X128.27Y-110.998
X128.27Y-118.618
X130.81Y-60.452
X130.81Y-68.072
X130.81Y-74.93
X130.81Y-82.55
X130.81Y-86.614
X130.81Y-94.234
X130.81Y-98.806
X130.81Y-106.426
X130.81Y-110.998
X130.81Y-118.618
X133.35Y-60.452
X133.35Y-68.072
X133.35Y-74.93
X133.35Y-82.55
X133.35Y-86.614
X133.35Y-94.234
X133.35Y-98.806
X133.35Y-106.426
X133.35Y-110.998
X133.35Y-118.618
X135.89Y-60.452
X135.89Y-68.072
X135.89Y-74.93
X135.89Y-82.55
X135.89Y-86.614
X135.89Y-94.234
X135.89Y-98.806
X135.89Y-106.426
X135.89Y-110.998
X135.89Y-118.618
X138.43Y-60.452
X138.43Y-68.072
X138.43Y-74.93
X138.43Y-82.55
X138.43Y-86.614
X138.43Y-94.234
X138.43Y-98.806
X138.43Y-106.426
X138.43Y-110.998
X138.43Y-118.618
X148.336Y-56.134
X148.336Y-71.374
X148.336Y-80.264
X148.336Y-95.504
X148.336Y-104.394
X148.336Y-119.634
X148.336Y-128.524
X148.336Y-143.764
X150.876Y-56.134
X150.876Y-71.374
X150.876Y-80.264
X150.876Y-95.504
X150.876Y-104.394
X150.876Y-119.634
X150.876Y-128.524
X150.876Y-143.764
X153.416Y-56.134
X153.416Y-71.374
X153.416Y-80.264
X153.416Y-95.504
X153.416Y-104.394
X153.416Y-119.634
X153.416Y-128.524
X153.416Y-143.764
X155.956Y-56.134
X155.956Y-71.374
X155.956Y-80.264
X155.956Y-95.504
X155.956Y-104.394
X155.956Y-119.634
X155.956Y-128.524
X155.956Y-143.764
X158.496Y-56.134
X158.496Y-71.374
X158.496Y-80.264
X158.496Y-95.504
X158.496Y-104.394
X158.496Y-119.634
X158.496Y-128.524
X158.496Y-143.764
X161.036Y-56.134
X161.036Y-71.374
X161.036Y-80.264
X161.036Y-95.504
X161.036Y-104.394
X161.036Y-119.634
X161.036Y-128.524
X161.036Y-143.764
X163.576Y-56.134
X163.576Y-71.374
X163.576Y-80.264
X163.576Y-95.504
X163.576Y-104.394
X163.576Y-119.634
X163.576Y-128.524
X163.576Y-143.764
X166.116Y-56.134
X166.116Y-71.374
X166.116Y-80.264
X166.116Y-95.504
X166.116Y-104.394
X166.116Y-119.634
X166.116Y-128.524
X166.116Y-143.764
X168.656Y-56.134
X168.656Y-71.374
X168.656Y-80.264
X168.656Y-95.504
X168.656Y-104.394
X168.656Y-119.634
X168.656Y-128.524
X168.656Y-143.764
X171.196Y-56.134
X171.196Y-71.374
X171.196Y-80.264
X171.196Y-95.504
X171.196Y-104.394
X171.196Y-119.634
X171.196Y-128.524
X171.196Y-143.764
X173.736Y-56.134
X173.736Y-71.374
X173.736Y-80.264
X173.736Y-95.504
X173.736Y-104.394
X173.736Y-119.634
X173.736Y-128.524
X173.736Y-143.764
X176.276Y-56.134
X176.276Y-71.374
X176.276Y-80.264
X176.276Y-95.504
X176.276Y-104.394
X176.276Y-119.634
X176.276Y-128.524
X176.276Y-143.764
T3
X202.184Y-97.536
X204.724Y-97.536
T4
X65.3Y-60.633
X65.3Y-63.173
X65.3Y-65.713
X65.3Y-68.253
X65.3Y-70.793
X65.3Y-73.333
X65.3Y-75.873
X65.3Y-78.413
X65.3Y-80.953
X65.3Y-83.493
X65.3Y-86.033
X65.3Y-88.573
X65.3Y-91.113
X65.3Y-93.653
X65.3Y-96.193
X65.3Y-98.733
X65.3Y-101.273
X65.3Y-103.813
X65.3Y-106.353
X65.3Y-108.893
X65.3Y-111.433
X65.3Y-113.973
X65.3Y-116.513
X65.3Y-119.053
X65.3Y-121.593
X65.3Y-124.133
X65.3Y-126.673
X65.3Y-129.213
X65.3Y-131.753
X65.3Y-134.293
X65.3Y-136.833
X65.3Y-139.373
X70.38Y-60.633
X70.38Y-63.173
X70.38Y-65.713
X70.38Y-68.253
X70.38Y-70.793
X70.38Y-73.333
X70.38Y-75.873
X70.38Y-78.413
X70.38Y-80.953
X70.38Y-83.493
X70.38Y-86.033
X70.38Y-88.573
X70.38Y-91.113
X70.38Y-93.653
X70.38Y-96.193
X70.38Y-98.733
X70.38Y-101.273
X70.38Y-103.813
X70.38Y-106.353
X70.38Y-108.893
X70.38Y-111.433
X70.38Y-113.973
X70.38Y-116.513
X70.38Y-119.053
X70.38Y-121.593
X70.38Y-124.133
X70.38Y-126.673
X70.38Y-129.213
X70.38Y-131.753
X70.38Y-134.293
X70.38Y-136.833
X70.38Y-139.373
X85.09Y-73.401
X85.09Y-75.941
X87.63Y-73.401
X87.63Y-75.941
X90.17Y-73.401
X90.17Y-75.941
X92.71Y-73.401
X92.71Y-75.941
X200.0Y-55.118
X200.0Y-57.658
X200.0Y-60.198
X200.0Y-62.738
X200.0Y-65.278
X200.0Y-67.818
X200.0Y-79.121
X200.0Y-81.661
X200.0Y-84.201
X200.0Y-86.741
X200.0Y-89.281
X200.0Y-91.821
X200.0Y-104.0
X200.0Y-106.54
X200.0Y-109.08
X200.0Y-111.62
X200.0Y-114.16
X200.0Y-116.7
X200.0Y-127.0
X200.0Y-129.54
X200.0Y-132.08
X200.0Y-134.62
X200.0Y-137.16
X200.0Y-139.7
X210.0Y-55.0
X210.0Y-57.54
X210.0Y-60.08
X210.0Y-62.62
X210.0Y-65.16
X210.0Y-67.7
X210.0Y-79.0
X210.0Y-81.54
X210.0Y-84.08
X210.0Y-86.62
X210.0Y-89.16
X210.0Y-91.7
X210.0Y-104.0
X210.0Y-106.54
X210.0Y-109.08
X210.0Y-111.62
X210.0Y-114.16
X210.0Y-116.7
X210.0Y-121.666
X210.0Y-127.0
X210.0Y-129.54
X210.0Y-132.08
X210.0Y-134.62
X210.0Y-137.16
X210.0Y-139.7
X210.058Y-73.152
X210.058Y-97.536
X210.058Y-145.034
X212.54Y-121.666
X212.598Y-73.152
X212.598Y-97.536
X212.598Y-145.034
X215.08Y-121.666
X215.138Y-73.152
X215.138Y-97.536
X215.138Y-145.034
T5
X183.007Y-59.309
X183.007Y-69.469
X183.007Y-83.566
X183.007Y-93.726
X183.007Y-108.204
X183.007Y-118.364
X183.388Y-131.826
X183.388Y-141.986
T6
X62.76Y-55.553
X62.76Y-144.453
M30
