G04 #@! TF.GenerationSoftware,KiCad,Pcbnew,9.0.3-9.0.3-0~ubuntu22.04.1*
G04 #@! TF.CreationDate,2025-08-22T11:52:41+02:00*
G04 #@! TF.ProjectId,CPU09US4,43505530-3955-4533-942e-6b696361645f,rev?*
G04 #@! TF.SameCoordinates,Original*
G04 #@! TF.FileFunction,Soldermask,Top*
G04 #@! TF.FilePolarity,Negative*
%FSLAX46Y46*%
G04 Gerber Fmt 4.6, Leading zero omitted, Abs format (unit mm)*
G04 Created by KiCad (PCBNEW 9.0.3-9.0.3-0~ubuntu22.04.1) date 2025-08-22 11:52:41*
%MOMM*%
%LPD*%
G01*
G04 APERTURE LIST*
G04 Aperture macros list*
%AMRoundRect*
0 Rectangle with rounded corners*
0 $1 Rounding radius*
0 $2 $3 $4 $5 $6 $7 $8 $9 X,Y pos of 4 corners*
0 Add a 4 corners polygon primitive as box body*
4,1,4,$2,$3,$4,$5,$6,$7,$8,$9,$2,$3,0*
0 Add four circle primitives for the rounded corners*
1,1,$1+$1,$2,$3*
1,1,$1+$1,$4,$5*
1,1,$1+$1,$6,$7*
1,1,$1+$1,$8,$9*
0 Add four rect primitives between the rounded corners*
20,1,$1+$1,$2,$3,$4,$5,0*
20,1,$1+$1,$4,$5,$6,$7,0*
20,1,$1+$1,$6,$7,$8,$9,0*
20,1,$1+$1,$8,$9,$2,$3,0*%
G04 Aperture macros list end*
%ADD10C,2.100000*%
%ADD11RoundRect,0.200000X-0.850000X-0.850000X0.850000X-0.850000X0.850000X0.850000X-0.850000X0.850000X0*%
%ADD12RoundRect,0.294545X1.027955X1.200455X-1.027955X1.200455X-1.027955X-1.200455X1.027955X-1.200455X0*%
%ADD13RoundRect,0.294545X-1.027955X-1.200455X1.027955X-1.200455X1.027955X1.200455X-1.027955X1.200455X0*%
%ADD14RoundRect,0.250000X0.687500X0.250000X-0.687500X0.250000X-0.687500X-0.250000X0.687500X-0.250000X0*%
%ADD15RoundRect,0.250000X-0.687500X-0.250000X0.687500X-0.250000X0.687500X0.250000X-0.687500X0.250000X0*%
%ADD16C,2.000000*%
%ADD17RoundRect,0.312500X-0.687500X0.687500X-0.687500X-0.687500X0.687500X-0.687500X0.687500X0.687500X0*%
%ADD18RoundRect,0.312500X0.687500X-0.687500X0.687500X0.687500X-0.687500X0.687500X-0.687500X-0.687500X0*%
%ADD19RoundRect,0.312500X-0.687500X-0.687500X0.687500X-0.687500X0.687500X0.687500X-0.687500X0.687500X0*%
%ADD20RoundRect,0.325471X-0.537029X-0.774529X0.537029X-0.774529X0.537029X0.774529X-0.537029X0.774529X0*%
%ADD21RoundRect,0.325471X0.537029X0.774529X-0.537029X0.774529X-0.537029X-0.774529X0.537029X-0.774529X0*%
%ADD22RoundRect,0.326924X0.523076X0.748076X-0.523076X0.748076X-0.523076X-0.748076X0.523076X-0.748076X0*%
%ADD23RoundRect,0.291668X-1.108332X1.108332X-1.108332X-1.108332X1.108332X-1.108332X1.108332X1.108332X0*%
%ADD24C,2.800000*%
%ADD25RoundRect,0.325471X0.774529X-0.537029X0.774529X0.537029X-0.774529X0.537029X-0.774529X-0.537029X0*%
%ADD26RoundRect,0.325471X-0.774529X0.537029X-0.774529X-0.537029X0.774529X-0.537029X0.774529X0.537029X0*%
%ADD27RoundRect,0.200000X0.850000X-0.850000X0.850000X0.850000X-0.850000X0.850000X-0.850000X-0.850000X0*%
%ADD28RoundRect,0.326924X-0.523076X-0.748076X0.523076X-0.748076X0.523076X0.748076X-0.523076X0.748076X0*%
%ADD29C,3.250000*%
%ADD30RoundRect,0.314516X0.660484X-0.660484X0.660484X0.660484X-0.660484X0.660484X-0.660484X-0.660484X0*%
%ADD31C,1.950000*%
%ADD32RoundRect,0.326924X-0.748076X0.523076X-0.748076X-0.523076X0.748076X-0.523076X0.748076X0.523076X0*%
%ADD33RoundRect,0.200000X-0.850000X0.850000X-0.850000X-0.850000X0.850000X-0.850000X0.850000X0.850000X0*%
%ADD34RoundRect,0.200000X-0.900000X-0.900000X0.900000X-0.900000X0.900000X0.900000X-0.900000X0.900000X0*%
%ADD35C,2.200000*%
G04 APERTURE END LIST*
D10*
X200000000Y-116700000D03*
X200000000Y-114160000D03*
X200000000Y-111620000D03*
X200000000Y-109080000D03*
X200000000Y-106540000D03*
D11*
X200000000Y-104000000D03*
D12*
X183326000Y-124333000D03*
X176911000Y-124333000D03*
X183326000Y-76073000D03*
X176911000Y-76073000D03*
D13*
X83755000Y-108458000D03*
X90170000Y-108458000D03*
D14*
X111125000Y-67818000D03*
X111125000Y-65918000D03*
X109250000Y-66868000D03*
D15*
X73182000Y-60518000D03*
X73182000Y-62418000D03*
X75057000Y-61468000D03*
D16*
X97536000Y-87884000D03*
X94996000Y-87884000D03*
X92456000Y-87884000D03*
X89916000Y-87884000D03*
X87376000Y-87884000D03*
X84836000Y-87884000D03*
X82296000Y-87884000D03*
X79756000Y-87884000D03*
X79756000Y-80264000D03*
X82296000Y-80264000D03*
X84836000Y-80264000D03*
X87376000Y-80264000D03*
X89916000Y-80264000D03*
X92456000Y-80264000D03*
X94996000Y-80264000D03*
D17*
X97536000Y-80264000D03*
D18*
X123190000Y-68072000D03*
D16*
X125730000Y-68072000D03*
X128270000Y-68072000D03*
X130810000Y-68072000D03*
X133350000Y-68072000D03*
X135890000Y-68072000D03*
X138430000Y-68072000D03*
X138430000Y-60452000D03*
X135890000Y-60452000D03*
X133350000Y-60452000D03*
X130810000Y-60452000D03*
X128270000Y-60452000D03*
X125730000Y-60452000D03*
X123190000Y-60452000D03*
D19*
X92456000Y-113792000D03*
D16*
X92456000Y-116332000D03*
X92456000Y-118872000D03*
X92456000Y-121412000D03*
X92456000Y-123952000D03*
X92456000Y-126492000D03*
X92456000Y-129032000D03*
X92456000Y-131572000D03*
X92456000Y-134112000D03*
X92456000Y-136652000D03*
X100076000Y-136652000D03*
X100076000Y-134112000D03*
X100076000Y-131572000D03*
X100076000Y-129032000D03*
X100076000Y-126492000D03*
X100076000Y-123952000D03*
X100076000Y-121412000D03*
X100076000Y-118872000D03*
X100076000Y-116332000D03*
X100076000Y-113792000D03*
D19*
X105918000Y-113792000D03*
D16*
X105918000Y-116332000D03*
X105918000Y-118872000D03*
X105918000Y-121412000D03*
X105918000Y-123952000D03*
X105918000Y-126492000D03*
X105918000Y-129032000D03*
X105918000Y-131572000D03*
X105918000Y-134112000D03*
X105918000Y-136652000D03*
X113538000Y-136652000D03*
X113538000Y-134112000D03*
X113538000Y-131572000D03*
X113538000Y-129032000D03*
X113538000Y-126492000D03*
X113538000Y-123952000D03*
X113538000Y-121412000D03*
X113538000Y-118872000D03*
X113538000Y-116332000D03*
X113538000Y-113792000D03*
D18*
X120650000Y-82550000D03*
D16*
X123190000Y-82550000D03*
X125730000Y-82550000D03*
X128270000Y-82550000D03*
X130810000Y-82550000D03*
X133350000Y-82550000D03*
X135890000Y-82550000D03*
X138430000Y-82550000D03*
X138430000Y-74930000D03*
X135890000Y-74930000D03*
X133350000Y-74930000D03*
X130810000Y-74930000D03*
X128270000Y-74930000D03*
X125730000Y-74930000D03*
X123190000Y-74930000D03*
X120650000Y-74930000D03*
D18*
X120650000Y-94234000D03*
D16*
X123190000Y-94234000D03*
X125730000Y-94234000D03*
X128270000Y-94234000D03*
X130810000Y-94234000D03*
X133350000Y-94234000D03*
X135890000Y-94234000D03*
X138430000Y-94234000D03*
X138430000Y-86614000D03*
X135890000Y-86614000D03*
X133350000Y-86614000D03*
X130810000Y-86614000D03*
X128270000Y-86614000D03*
X125730000Y-86614000D03*
X123190000Y-86614000D03*
X120650000Y-86614000D03*
D18*
X120650000Y-106426000D03*
D16*
X123190000Y-106426000D03*
X125730000Y-106426000D03*
X128270000Y-106426000D03*
X130810000Y-106426000D03*
X133350000Y-106426000D03*
X135890000Y-106426000D03*
X138430000Y-106426000D03*
X138430000Y-98806000D03*
X135890000Y-98806000D03*
X133350000Y-98806000D03*
X130810000Y-98806000D03*
X128270000Y-98806000D03*
X125730000Y-98806000D03*
X123190000Y-98806000D03*
X120650000Y-98806000D03*
D17*
X93091000Y-60579000D03*
D16*
X90551000Y-60579000D03*
X88011000Y-60579000D03*
X85471000Y-60579000D03*
X82931000Y-60579000D03*
X80391000Y-60579000D03*
X77851000Y-60579000D03*
X77851000Y-68199000D03*
X80391000Y-68199000D03*
X82931000Y-68199000D03*
X85471000Y-68199000D03*
X88011000Y-68199000D03*
X90551000Y-68199000D03*
X93091000Y-68199000D03*
D19*
X79756000Y-113792000D03*
D16*
X79756000Y-116332000D03*
X79756000Y-118872000D03*
X79756000Y-121412000D03*
X79756000Y-123952000D03*
X79756000Y-126492000D03*
X79756000Y-129032000D03*
X79756000Y-131572000D03*
X79756000Y-134112000D03*
X79756000Y-136652000D03*
X87376000Y-136652000D03*
X87376000Y-134112000D03*
X87376000Y-131572000D03*
X87376000Y-129032000D03*
X87376000Y-126492000D03*
X87376000Y-123952000D03*
X87376000Y-121412000D03*
X87376000Y-118872000D03*
X87376000Y-116332000D03*
X87376000Y-113792000D03*
D20*
X113969000Y-83566000D03*
X117094000Y-83566000D03*
D21*
X84151000Y-54737000D03*
X81026000Y-54737000D03*
D20*
X127215500Y-123317000D03*
X130340500Y-123317000D03*
D17*
X176276000Y-104394000D03*
D16*
X173736000Y-104394000D03*
X171196000Y-104394000D03*
X168656000Y-104394000D03*
X166116000Y-104394000D03*
X163576000Y-104394000D03*
X161036000Y-104394000D03*
X158496000Y-104394000D03*
X155956000Y-104394000D03*
X153416000Y-104394000D03*
X150876000Y-104394000D03*
X148336000Y-104394000D03*
X148336000Y-119634000D03*
X150876000Y-119634000D03*
X153416000Y-119634000D03*
X155956000Y-119634000D03*
X158496000Y-119634000D03*
X161036000Y-119634000D03*
X163576000Y-119634000D03*
X166116000Y-119634000D03*
X168656000Y-119634000D03*
X171196000Y-119634000D03*
X173736000Y-119634000D03*
X176276000Y-119634000D03*
D22*
X111405000Y-70104000D03*
X108305000Y-70104000D03*
X111405000Y-73406000D03*
X108305000Y-73406000D03*
D17*
X176276000Y-80264000D03*
D16*
X173736000Y-80264000D03*
X171196000Y-80264000D03*
X168656000Y-80264000D03*
X166116000Y-80264000D03*
X163576000Y-80264000D03*
X161036000Y-80264000D03*
X158496000Y-80264000D03*
X155956000Y-80264000D03*
X153416000Y-80264000D03*
X150876000Y-80264000D03*
X148336000Y-80264000D03*
X148336000Y-95504000D03*
X150876000Y-95504000D03*
X153416000Y-95504000D03*
X155956000Y-95504000D03*
X158496000Y-95504000D03*
X161036000Y-95504000D03*
X163576000Y-95504000D03*
X166116000Y-95504000D03*
X168656000Y-95504000D03*
X171196000Y-95504000D03*
X173736000Y-95504000D03*
X176276000Y-95504000D03*
D11*
X210000000Y-127000000D03*
D10*
X210000000Y-129540000D03*
X210000000Y-132080000D03*
X210000000Y-134620000D03*
X210000000Y-137160000D03*
X210000000Y-139700000D03*
D23*
X183388000Y-131826000D03*
D24*
X183388000Y-141986000D03*
D22*
X111405000Y-81280000D03*
X108305000Y-81280000D03*
D23*
X183007000Y-83566000D03*
D24*
X183007000Y-93726000D03*
D22*
X111405000Y-78486000D03*
X108305000Y-78486000D03*
D25*
X98044000Y-66586500D03*
X98044000Y-63461500D03*
D11*
X210000000Y-55000000D03*
D10*
X210000000Y-57540000D03*
X210000000Y-60080000D03*
X210000000Y-62620000D03*
X210000000Y-65160000D03*
X210000000Y-67700000D03*
D26*
X109601000Y-103682000D03*
X109601000Y-106807000D03*
X74041000Y-71043000D03*
X74041000Y-74168000D03*
D22*
X111659000Y-59690000D03*
X108559000Y-59690000D03*
D21*
X180886500Y-100457000D03*
X177761500Y-100457000D03*
D27*
X210058000Y-97536000D03*
D10*
X212598000Y-97536000D03*
X215138000Y-97536000D03*
D28*
X186436000Y-69469000D03*
X189536000Y-69469000D03*
D17*
X107696000Y-93726000D03*
D16*
X105156000Y-93726000D03*
X102616000Y-93726000D03*
X100076000Y-93726000D03*
X97536000Y-93726000D03*
X94996000Y-93726000D03*
X92456000Y-93726000D03*
X89916000Y-93726000D03*
X87376000Y-93726000D03*
X84836000Y-93726000D03*
X82296000Y-93726000D03*
X79756000Y-93726000D03*
X79756000Y-101346000D03*
X82296000Y-101346000D03*
X84836000Y-101346000D03*
X87376000Y-101346000D03*
X89916000Y-101346000D03*
X92456000Y-101346000D03*
X94996000Y-101346000D03*
X97536000Y-101346000D03*
X100076000Y-101346000D03*
X102616000Y-101346000D03*
X105156000Y-101346000D03*
X107696000Y-101346000D03*
D28*
X186563000Y-93726000D03*
X189663000Y-93726000D03*
D23*
X183007000Y-59309000D03*
D24*
X183007000Y-69469000D03*
D27*
X210000000Y-121666000D03*
D10*
X212540000Y-121666000D03*
X215080000Y-121666000D03*
D23*
X183007000Y-108204000D03*
D24*
X183007000Y-118364000D03*
D22*
X103023000Y-55245000D03*
X99923000Y-55245000D03*
D28*
X187019000Y-141986000D03*
X190119000Y-141986000D03*
D29*
X62760000Y-144453000D03*
X62760000Y-55553000D03*
D30*
X65300000Y-139373000D03*
D31*
X65300000Y-136833000D03*
X65300000Y-134293000D03*
X65300000Y-131753000D03*
X65300000Y-129213000D03*
X65300000Y-126673000D03*
X65300000Y-124133000D03*
X65300000Y-121593000D03*
X65300000Y-119053000D03*
X65300000Y-116513000D03*
X65300000Y-113973000D03*
X65300000Y-111433000D03*
X65300000Y-108893000D03*
X65300000Y-106353000D03*
X65300000Y-103813000D03*
X65300000Y-101273000D03*
X65300000Y-98733000D03*
X65300000Y-96193000D03*
X65300000Y-93653000D03*
X65300000Y-91113000D03*
X65300000Y-88573000D03*
X65300000Y-86033000D03*
X65300000Y-83493000D03*
X65300000Y-80953000D03*
X65300000Y-78413000D03*
X65300000Y-75873000D03*
X65300000Y-73333000D03*
X65300000Y-70793000D03*
X65300000Y-68253000D03*
X65300000Y-65713000D03*
X65300000Y-63173000D03*
X65300000Y-60633000D03*
X70380000Y-139373000D03*
X70380000Y-136833000D03*
X70380000Y-134293000D03*
X70380000Y-131753000D03*
X70380000Y-129213000D03*
X70380000Y-126673000D03*
X70380000Y-124133000D03*
X70380000Y-121593000D03*
X70380000Y-119053000D03*
X70380000Y-116513000D03*
X70380000Y-113973000D03*
X70380000Y-111433000D03*
X70380000Y-108893000D03*
X70380000Y-106353000D03*
X70380000Y-103813000D03*
X70380000Y-101273000D03*
X70380000Y-98733000D03*
X70380000Y-96193000D03*
X70380000Y-93653000D03*
X70380000Y-91113000D03*
X70380000Y-88573000D03*
X70380000Y-86033000D03*
X70380000Y-83493000D03*
X70380000Y-80953000D03*
X70380000Y-78413000D03*
X70380000Y-75873000D03*
X70380000Y-73333000D03*
X70380000Y-70793000D03*
X70380000Y-68253000D03*
X70380000Y-65713000D03*
X70380000Y-63173000D03*
X70380000Y-60633000D03*
D32*
X74041000Y-78053000D03*
X74041000Y-81153000D03*
D17*
X176276000Y-128524000D03*
D16*
X173736000Y-128524000D03*
X171196000Y-128524000D03*
X168656000Y-128524000D03*
X166116000Y-128524000D03*
X163576000Y-128524000D03*
X161036000Y-128524000D03*
X158496000Y-128524000D03*
X155956000Y-128524000D03*
X153416000Y-128524000D03*
X150876000Y-128524000D03*
X148336000Y-128524000D03*
X148336000Y-143764000D03*
X150876000Y-143764000D03*
X153416000Y-143764000D03*
X155956000Y-143764000D03*
X158496000Y-143764000D03*
X161036000Y-143764000D03*
X163576000Y-143764000D03*
X166116000Y-143764000D03*
X168656000Y-143764000D03*
X171196000Y-143764000D03*
X173736000Y-143764000D03*
X176276000Y-143764000D03*
D33*
X92710000Y-73401000D03*
D10*
X92710000Y-75941000D03*
X90170000Y-73401000D03*
X90170000Y-75941000D03*
X87630000Y-73401000D03*
X87630000Y-75941000D03*
X85090000Y-73401000D03*
X85090000Y-75941000D03*
D32*
X76454000Y-71068000D03*
X76454000Y-74168000D03*
D27*
X210058000Y-73152000D03*
D10*
X212598000Y-73152000D03*
X215138000Y-73152000D03*
D16*
X176276000Y-71374000D03*
X173736000Y-71374000D03*
X171196000Y-71374000D03*
X168656000Y-71374000D03*
X166116000Y-71374000D03*
X163576000Y-71374000D03*
X161036000Y-71374000D03*
X158496000Y-71374000D03*
X155956000Y-71374000D03*
X153416000Y-71374000D03*
X150876000Y-71374000D03*
X148336000Y-71374000D03*
X148336000Y-56134000D03*
X150876000Y-56134000D03*
X153416000Y-56134000D03*
X155956000Y-56134000D03*
X158496000Y-56134000D03*
X161036000Y-56134000D03*
X163576000Y-56134000D03*
X166116000Y-56134000D03*
X168656000Y-56134000D03*
X171196000Y-56134000D03*
X173736000Y-56134000D03*
D17*
X176276000Y-56134000D03*
D34*
X202184000Y-97536000D03*
D35*
X204724000Y-97536000D03*
D27*
X210058000Y-145034000D03*
D10*
X212598000Y-145034000D03*
X215138000Y-145034000D03*
D18*
X120650000Y-118618000D03*
D16*
X123190000Y-118618000D03*
X125730000Y-118618000D03*
X128270000Y-118618000D03*
X130810000Y-118618000D03*
X133350000Y-118618000D03*
X135890000Y-118618000D03*
X138430000Y-118618000D03*
X138430000Y-110998000D03*
X135890000Y-110998000D03*
X133350000Y-110998000D03*
X130810000Y-110998000D03*
X128270000Y-110998000D03*
X125730000Y-110998000D03*
X123190000Y-110998000D03*
X120650000Y-110998000D03*
D22*
X111405000Y-75946000D03*
X108305000Y-75946000D03*
D11*
X200000000Y-127000000D03*
D10*
X200000000Y-129540000D03*
X200000000Y-132080000D03*
X200000000Y-134620000D03*
X200000000Y-137160000D03*
X200000000Y-139700000D03*
D11*
X210000000Y-79000000D03*
D10*
X210000000Y-81540000D03*
X210000000Y-84080000D03*
X210000000Y-86620000D03*
X210000000Y-89160000D03*
X210000000Y-91700000D03*
D28*
X186690000Y-118364000D03*
X189790000Y-118364000D03*
D11*
X200000000Y-55118000D03*
D10*
X200000000Y-57658000D03*
X200000000Y-60198000D03*
X200000000Y-62738000D03*
X200000000Y-65278000D03*
X200000000Y-67818000D03*
D11*
X210000000Y-104000000D03*
D10*
X210000000Y-106540000D03*
X210000000Y-109080000D03*
X210000000Y-111620000D03*
X210000000Y-114160000D03*
X210000000Y-116700000D03*
D11*
X200000000Y-79121000D03*
D10*
X200000000Y-81661000D03*
X200000000Y-84201000D03*
X200000000Y-86741000D03*
X200000000Y-89281000D03*
X200000000Y-91821000D03*
M02*
