G04 #@! TF.GenerationSoftware,KiCad,Pcbnew,9.0.3-9.0.3-0~ubuntu22.04.1*
G04 #@! TF.CreationDate,2025-08-22T11:52:41+02:00*
G04 #@! TF.ProjectId,CPU09US4,43505530-3955-4533-942e-6b696361645f,rev?*
G04 #@! TF.SameCoordinates,Original*
G04 #@! TF.FileFunction,Paste,Top*
G04 #@! TF.FilePolarity,Positive*
%FSLAX46Y46*%
G04 Gerber Fmt 4.6, Leading zero omitted, Abs format (unit mm)*
G04 Created by KiCad (PCBNEW 9.0.3-9.0.3-0~ubuntu22.04.1) date 2025-08-22 11:52:41*
%MOMM*%
%LPD*%
G01*
G04 APERTURE LIST*
G04 Aperture macros list*
%AMRoundRect*
0 Rectangle with rounded corners*
0 $1 Rounding radius*
0 $2 $3 $4 $5 $6 $7 $8 $9 X,Y pos of 4 corners*
0 Add a 4 corners polygon primitive as box body*
4,1,4,$2,$3,$4,$5,$6,$7,$8,$9,$2,$3,0*
0 Add four circle primitives for the rounded corners*
1,1,$1+$1,$2,$3*
1,1,$1+$1,$4,$5*
1,1,$1+$1,$6,$7*
1,1,$1+$1,$8,$9*
0 Add four rect primitives between the rounded corners*
20,1,$1+$1,$2,$3,$4,$5,0*
20,1,$1+$1,$4,$5,$6,$7,0*
20,1,$1+$1,$6,$7,$8,$9,0*
20,1,$1+$1,$8,$9,$2,$3,0*%
G04 Aperture macros list end*
%ADD10RoundRect,0.250001X0.872499X1.044999X-0.872499X1.044999X-0.872499X-1.044999X0.872499X-1.044999X0*%
%ADD11RoundRect,0.250001X-0.872499X-1.044999X0.872499X-1.044999X0.872499X1.044999X-0.872499X1.044999X0*%
%ADD12RoundRect,0.150000X0.587500X0.150000X-0.587500X0.150000X-0.587500X-0.150000X0.587500X-0.150000X0*%
%ADD13RoundRect,0.150000X-0.587500X-0.150000X0.587500X-0.150000X0.587500X0.150000X-0.587500X0.150000X0*%
%ADD14RoundRect,0.250000X-0.412500X-0.650000X0.412500X-0.650000X0.412500X0.650000X-0.412500X0.650000X0*%
%ADD15RoundRect,0.250000X0.412500X0.650000X-0.412500X0.650000X-0.412500X-0.650000X0.412500X-0.650000X0*%
%ADD16RoundRect,0.250000X0.400000X0.625000X-0.400000X0.625000X-0.400000X-0.625000X0.400000X-0.625000X0*%
%ADD17RoundRect,0.250000X0.650000X-0.412500X0.650000X0.412500X-0.650000X0.412500X-0.650000X-0.412500X0*%
%ADD18RoundRect,0.250000X-0.650000X0.412500X-0.650000X-0.412500X0.650000X-0.412500X0.650000X0.412500X0*%
%ADD19RoundRect,0.250000X-0.400000X-0.625000X0.400000X-0.625000X0.400000X0.625000X-0.400000X0.625000X0*%
%ADD20RoundRect,0.250000X-0.625000X0.400000X-0.625000X-0.400000X0.625000X-0.400000X0.625000X0.400000X0*%
G04 APERTURE END LIST*
D10*
X183326000Y-124333000D03*
X176911000Y-124333000D03*
X183326000Y-76073000D03*
X176911000Y-76073000D03*
D11*
X83755000Y-108458000D03*
X90170000Y-108458000D03*
D12*
X111125000Y-67818000D03*
X111125000Y-65918000D03*
X109250000Y-66868000D03*
D13*
X73182000Y-60518000D03*
X73182000Y-62418000D03*
X75057000Y-61468000D03*
D14*
X113969000Y-83566000D03*
X117094000Y-83566000D03*
D15*
X84151000Y-54737000D03*
X81026000Y-54737000D03*
D14*
X127215500Y-123317000D03*
X130340500Y-123317000D03*
D16*
X111405000Y-70104000D03*
X108305000Y-70104000D03*
X111405000Y-73406000D03*
X108305000Y-73406000D03*
X111405000Y-81280000D03*
X108305000Y-81280000D03*
X111405000Y-78486000D03*
X108305000Y-78486000D03*
D17*
X98044000Y-66586500D03*
X98044000Y-63461500D03*
D18*
X109601000Y-103682000D03*
X109601000Y-106807000D03*
X74041000Y-71043000D03*
X74041000Y-74168000D03*
D16*
X111659000Y-59690000D03*
X108559000Y-59690000D03*
D15*
X180886500Y-100457000D03*
X177761500Y-100457000D03*
D19*
X186436000Y-69469000D03*
X189536000Y-69469000D03*
X186563000Y-93726000D03*
X189663000Y-93726000D03*
D16*
X103023000Y-55245000D03*
X99923000Y-55245000D03*
D19*
X187019000Y-141986000D03*
X190119000Y-141986000D03*
D20*
X74041000Y-78053000D03*
X74041000Y-81153000D03*
X76454000Y-71068000D03*
X76454000Y-74168000D03*
D16*
X111405000Y-75946000D03*
X108305000Y-75946000D03*
D19*
X186690000Y-118364000D03*
X189790000Y-118364000D03*
M02*
