G04 #@! TF.GenerationSoftware,KiCad,Pcbnew,9.0.3-9.0.3-0~ubuntu22.04.1*
G04 #@! TF.CreationDate,2025-08-22T11:52:41+02:00*
G04 #@! TF.ProjectId,CPU09US4,43505530-3955-4533-942e-6b696361645f,rev?*
G04 #@! TF.SameCoordinates,Original*
G04 #@! TF.FileFunction,Legend,Bot*
G04 #@! TF.FilePolarity,Positive*
%FSLAX46Y46*%
G04 Gerber Fmt 4.6, Leading zero omitted, Abs format (unit mm)*
G04 Created by KiCad (PCBNEW 9.0.3-9.0.3-0~ubuntu22.04.1) date 2025-08-22 11:52:41*
%MOMM*%
%LPD*%
G01*
G04 APERTURE LIST*
%ADD10C,0.150000*%
%ADD11C,0.120000*%
G04 APERTURE END LIST*
D10*
X204175333Y-52772819D02*
X204175333Y-53487104D01*
X204175333Y-53487104D02*
X204222952Y-53629961D01*
X204222952Y-53629961D02*
X204318190Y-53725200D01*
X204318190Y-53725200D02*
X204461047Y-53772819D01*
X204461047Y-53772819D02*
X204556285Y-53772819D01*
X203699142Y-53772819D02*
X203699142Y-52772819D01*
X203699142Y-52772819D02*
X203318190Y-52772819D01*
X203318190Y-52772819D02*
X203222952Y-52820438D01*
X203222952Y-52820438D02*
X203175333Y-52868057D01*
X203175333Y-52868057D02*
X203127714Y-52963295D01*
X203127714Y-52963295D02*
X203127714Y-53106152D01*
X203127714Y-53106152D02*
X203175333Y-53201390D01*
X203175333Y-53201390D02*
X203222952Y-53249009D01*
X203222952Y-53249009D02*
X203318190Y-53296628D01*
X203318190Y-53296628D02*
X203699142Y-53296628D01*
X202270571Y-53106152D02*
X202270571Y-53772819D01*
X202508666Y-52725200D02*
X202746761Y-53439485D01*
X202746761Y-53439485D02*
X202127714Y-53439485D01*
X204287333Y-76902819D02*
X204287333Y-77617104D01*
X204287333Y-77617104D02*
X204334952Y-77759961D01*
X204334952Y-77759961D02*
X204430190Y-77855200D01*
X204430190Y-77855200D02*
X204573047Y-77902819D01*
X204573047Y-77902819D02*
X204668285Y-77902819D01*
X203811142Y-77902819D02*
X203811142Y-76902819D01*
X203811142Y-76902819D02*
X203430190Y-76902819D01*
X203430190Y-76902819D02*
X203334952Y-76950438D01*
X203334952Y-76950438D02*
X203287333Y-76998057D01*
X203287333Y-76998057D02*
X203239714Y-77093295D01*
X203239714Y-77093295D02*
X203239714Y-77236152D01*
X203239714Y-77236152D02*
X203287333Y-77331390D01*
X203287333Y-77331390D02*
X203334952Y-77379009D01*
X203334952Y-77379009D02*
X203430190Y-77426628D01*
X203430190Y-77426628D02*
X203811142Y-77426628D01*
X202906380Y-76902819D02*
X202287333Y-76902819D01*
X202287333Y-76902819D02*
X202620666Y-77283771D01*
X202620666Y-77283771D02*
X202477809Y-77283771D01*
X202477809Y-77283771D02*
X202382571Y-77331390D01*
X202382571Y-77331390D02*
X202334952Y-77379009D01*
X202334952Y-77379009D02*
X202287333Y-77474247D01*
X202287333Y-77474247D02*
X202287333Y-77712342D01*
X202287333Y-77712342D02*
X202334952Y-77807580D01*
X202334952Y-77807580D02*
X202382571Y-77855200D01*
X202382571Y-77855200D02*
X202477809Y-77902819D01*
X202477809Y-77902819D02*
X202763523Y-77902819D01*
X202763523Y-77902819D02*
X202858761Y-77855200D01*
X202858761Y-77855200D02*
X202906380Y-77807580D01*
X204429333Y-101794819D02*
X204429333Y-102509104D01*
X204429333Y-102509104D02*
X204476952Y-102651961D01*
X204476952Y-102651961D02*
X204572190Y-102747200D01*
X204572190Y-102747200D02*
X204715047Y-102794819D01*
X204715047Y-102794819D02*
X204810285Y-102794819D01*
X203953142Y-102794819D02*
X203953142Y-101794819D01*
X203953142Y-101794819D02*
X203572190Y-101794819D01*
X203572190Y-101794819D02*
X203476952Y-101842438D01*
X203476952Y-101842438D02*
X203429333Y-101890057D01*
X203429333Y-101890057D02*
X203381714Y-101985295D01*
X203381714Y-101985295D02*
X203381714Y-102128152D01*
X203381714Y-102128152D02*
X203429333Y-102223390D01*
X203429333Y-102223390D02*
X203476952Y-102271009D01*
X203476952Y-102271009D02*
X203572190Y-102318628D01*
X203572190Y-102318628D02*
X203953142Y-102318628D01*
X203000761Y-101890057D02*
X202953142Y-101842438D01*
X202953142Y-101842438D02*
X202857904Y-101794819D01*
X202857904Y-101794819D02*
X202619809Y-101794819D01*
X202619809Y-101794819D02*
X202524571Y-101842438D01*
X202524571Y-101842438D02*
X202476952Y-101890057D01*
X202476952Y-101890057D02*
X202429333Y-101985295D01*
X202429333Y-101985295D02*
X202429333Y-102080533D01*
X202429333Y-102080533D02*
X202476952Y-102223390D01*
X202476952Y-102223390D02*
X203048380Y-102794819D01*
X203048380Y-102794819D02*
X202429333Y-102794819D01*
X204429333Y-124654819D02*
X204429333Y-125369104D01*
X204429333Y-125369104D02*
X204476952Y-125511961D01*
X204476952Y-125511961D02*
X204572190Y-125607200D01*
X204572190Y-125607200D02*
X204715047Y-125654819D01*
X204715047Y-125654819D02*
X204810285Y-125654819D01*
X203953142Y-125654819D02*
X203953142Y-124654819D01*
X203953142Y-124654819D02*
X203572190Y-124654819D01*
X203572190Y-124654819D02*
X203476952Y-124702438D01*
X203476952Y-124702438D02*
X203429333Y-124750057D01*
X203429333Y-124750057D02*
X203381714Y-124845295D01*
X203381714Y-124845295D02*
X203381714Y-124988152D01*
X203381714Y-124988152D02*
X203429333Y-125083390D01*
X203429333Y-125083390D02*
X203476952Y-125131009D01*
X203476952Y-125131009D02*
X203572190Y-125178628D01*
X203572190Y-125178628D02*
X203953142Y-125178628D01*
X202429333Y-125654819D02*
X203000761Y-125654819D01*
X202715047Y-125654819D02*
X202715047Y-124654819D01*
X202715047Y-124654819D02*
X202810285Y-124797676D01*
X202810285Y-124797676D02*
X202905523Y-124892914D01*
X202905523Y-124892914D02*
X203000761Y-124940533D01*
X201302857Y-120596819D02*
X201636190Y-120120628D01*
X201874285Y-120596819D02*
X201874285Y-119596819D01*
X201874285Y-119596819D02*
X201493333Y-119596819D01*
X201493333Y-119596819D02*
X201398095Y-119644438D01*
X201398095Y-119644438D02*
X201350476Y-119692057D01*
X201350476Y-119692057D02*
X201302857Y-119787295D01*
X201302857Y-119787295D02*
X201302857Y-119930152D01*
X201302857Y-119930152D02*
X201350476Y-120025390D01*
X201350476Y-120025390D02*
X201398095Y-120073009D01*
X201398095Y-120073009D02*
X201493333Y-120120628D01*
X201493333Y-120120628D02*
X201874285Y-120120628D01*
X200350476Y-120596819D02*
X200921904Y-120596819D01*
X200636190Y-120596819D02*
X200636190Y-119596819D01*
X200636190Y-119596819D02*
X200731428Y-119739676D01*
X200731428Y-119739676D02*
X200826666Y-119834914D01*
X200826666Y-119834914D02*
X200921904Y-119882533D01*
X199779047Y-120025390D02*
X199874285Y-119977771D01*
X199874285Y-119977771D02*
X199921904Y-119930152D01*
X199921904Y-119930152D02*
X199969523Y-119834914D01*
X199969523Y-119834914D02*
X199969523Y-119787295D01*
X199969523Y-119787295D02*
X199921904Y-119692057D01*
X199921904Y-119692057D02*
X199874285Y-119644438D01*
X199874285Y-119644438D02*
X199779047Y-119596819D01*
X199779047Y-119596819D02*
X199588571Y-119596819D01*
X199588571Y-119596819D02*
X199493333Y-119644438D01*
X199493333Y-119644438D02*
X199445714Y-119692057D01*
X199445714Y-119692057D02*
X199398095Y-119787295D01*
X199398095Y-119787295D02*
X199398095Y-119834914D01*
X199398095Y-119834914D02*
X199445714Y-119930152D01*
X199445714Y-119930152D02*
X199493333Y-119977771D01*
X199493333Y-119977771D02*
X199588571Y-120025390D01*
X199588571Y-120025390D02*
X199779047Y-120025390D01*
X199779047Y-120025390D02*
X199874285Y-120073009D01*
X199874285Y-120073009D02*
X199921904Y-120120628D01*
X199921904Y-120120628D02*
X199969523Y-120215866D01*
X199969523Y-120215866D02*
X199969523Y-120406342D01*
X199969523Y-120406342D02*
X199921904Y-120501580D01*
X199921904Y-120501580D02*
X199874285Y-120549200D01*
X199874285Y-120549200D02*
X199779047Y-120596819D01*
X199779047Y-120596819D02*
X199588571Y-120596819D01*
X199588571Y-120596819D02*
X199493333Y-120549200D01*
X199493333Y-120549200D02*
X199445714Y-120501580D01*
X199445714Y-120501580D02*
X199398095Y-120406342D01*
X199398095Y-120406342D02*
X199398095Y-120215866D01*
X199398095Y-120215866D02*
X199445714Y-120120628D01*
X199445714Y-120120628D02*
X199493333Y-120073009D01*
X199493333Y-120073009D02*
X199588571Y-120025390D01*
X201302857Y-75130819D02*
X201636190Y-74654628D01*
X201874285Y-75130819D02*
X201874285Y-74130819D01*
X201874285Y-74130819D02*
X201493333Y-74130819D01*
X201493333Y-74130819D02*
X201398095Y-74178438D01*
X201398095Y-74178438D02*
X201350476Y-74226057D01*
X201350476Y-74226057D02*
X201302857Y-74321295D01*
X201302857Y-74321295D02*
X201302857Y-74464152D01*
X201302857Y-74464152D02*
X201350476Y-74559390D01*
X201350476Y-74559390D02*
X201398095Y-74607009D01*
X201398095Y-74607009D02*
X201493333Y-74654628D01*
X201493333Y-74654628D02*
X201874285Y-74654628D01*
X200921904Y-74226057D02*
X200874285Y-74178438D01*
X200874285Y-74178438D02*
X200779047Y-74130819D01*
X200779047Y-74130819D02*
X200540952Y-74130819D01*
X200540952Y-74130819D02*
X200445714Y-74178438D01*
X200445714Y-74178438D02*
X200398095Y-74226057D01*
X200398095Y-74226057D02*
X200350476Y-74321295D01*
X200350476Y-74321295D02*
X200350476Y-74416533D01*
X200350476Y-74416533D02*
X200398095Y-74559390D01*
X200398095Y-74559390D02*
X200969523Y-75130819D01*
X200969523Y-75130819D02*
X200350476Y-75130819D01*
X199398095Y-75130819D02*
X199969523Y-75130819D01*
X199683809Y-75130819D02*
X199683809Y-74130819D01*
X199683809Y-74130819D02*
X199779047Y-74273676D01*
X199779047Y-74273676D02*
X199874285Y-74368914D01*
X199874285Y-74368914D02*
X199969523Y-74416533D01*
X95670666Y-57604819D02*
X96003999Y-57128628D01*
X96242094Y-57604819D02*
X96242094Y-56604819D01*
X96242094Y-56604819D02*
X95861142Y-56604819D01*
X95861142Y-56604819D02*
X95765904Y-56652438D01*
X95765904Y-56652438D02*
X95718285Y-56700057D01*
X95718285Y-56700057D02*
X95670666Y-56795295D01*
X95670666Y-56795295D02*
X95670666Y-56938152D01*
X95670666Y-56938152D02*
X95718285Y-57033390D01*
X95718285Y-57033390D02*
X95765904Y-57081009D01*
X95765904Y-57081009D02*
X95861142Y-57128628D01*
X95861142Y-57128628D02*
X96242094Y-57128628D01*
X95337332Y-56604819D02*
X94670666Y-56604819D01*
X94670666Y-56604819D02*
X95099237Y-57604819D01*
X201354857Y-72590819D02*
X201688190Y-72114628D01*
X201926285Y-72590819D02*
X201926285Y-71590819D01*
X201926285Y-71590819D02*
X201545333Y-71590819D01*
X201545333Y-71590819D02*
X201450095Y-71638438D01*
X201450095Y-71638438D02*
X201402476Y-71686057D01*
X201402476Y-71686057D02*
X201354857Y-71781295D01*
X201354857Y-71781295D02*
X201354857Y-71924152D01*
X201354857Y-71924152D02*
X201402476Y-72019390D01*
X201402476Y-72019390D02*
X201450095Y-72067009D01*
X201450095Y-72067009D02*
X201545333Y-72114628D01*
X201545333Y-72114628D02*
X201926285Y-72114628D01*
X200973904Y-71686057D02*
X200926285Y-71638438D01*
X200926285Y-71638438D02*
X200831047Y-71590819D01*
X200831047Y-71590819D02*
X200592952Y-71590819D01*
X200592952Y-71590819D02*
X200497714Y-71638438D01*
X200497714Y-71638438D02*
X200450095Y-71686057D01*
X200450095Y-71686057D02*
X200402476Y-71781295D01*
X200402476Y-71781295D02*
X200402476Y-71876533D01*
X200402476Y-71876533D02*
X200450095Y-72019390D01*
X200450095Y-72019390D02*
X201021523Y-72590819D01*
X201021523Y-72590819D02*
X200402476Y-72590819D01*
X200021523Y-71686057D02*
X199973904Y-71638438D01*
X199973904Y-71638438D02*
X199878666Y-71590819D01*
X199878666Y-71590819D02*
X199640571Y-71590819D01*
X199640571Y-71590819D02*
X199545333Y-71638438D01*
X199545333Y-71638438D02*
X199497714Y-71686057D01*
X199497714Y-71686057D02*
X199450095Y-71781295D01*
X199450095Y-71781295D02*
X199450095Y-71876533D01*
X199450095Y-71876533D02*
X199497714Y-72019390D01*
X199497714Y-72019390D02*
X200069142Y-72590819D01*
X200069142Y-72590819D02*
X199450095Y-72590819D01*
X201504857Y-144980819D02*
X201838190Y-144504628D01*
X202076285Y-144980819D02*
X202076285Y-143980819D01*
X202076285Y-143980819D02*
X201695333Y-143980819D01*
X201695333Y-143980819D02*
X201600095Y-144028438D01*
X201600095Y-144028438D02*
X201552476Y-144076057D01*
X201552476Y-144076057D02*
X201504857Y-144171295D01*
X201504857Y-144171295D02*
X201504857Y-144314152D01*
X201504857Y-144314152D02*
X201552476Y-144409390D01*
X201552476Y-144409390D02*
X201600095Y-144457009D01*
X201600095Y-144457009D02*
X201695333Y-144504628D01*
X201695333Y-144504628D02*
X202076285Y-144504628D01*
X200552476Y-144980819D02*
X201123904Y-144980819D01*
X200838190Y-144980819D02*
X200838190Y-143980819D01*
X200838190Y-143980819D02*
X200933428Y-144123676D01*
X200933428Y-144123676D02*
X201028666Y-144218914D01*
X201028666Y-144218914D02*
X201123904Y-144266533D01*
X199695333Y-143980819D02*
X199885809Y-143980819D01*
X199885809Y-143980819D02*
X199981047Y-144028438D01*
X199981047Y-144028438D02*
X200028666Y-144076057D01*
X200028666Y-144076057D02*
X200123904Y-144218914D01*
X200123904Y-144218914D02*
X200171523Y-144409390D01*
X200171523Y-144409390D02*
X200171523Y-144790342D01*
X200171523Y-144790342D02*
X200123904Y-144885580D01*
X200123904Y-144885580D02*
X200076285Y-144933200D01*
X200076285Y-144933200D02*
X199981047Y-144980819D01*
X199981047Y-144980819D02*
X199790571Y-144980819D01*
X199790571Y-144980819D02*
X199695333Y-144933200D01*
X199695333Y-144933200D02*
X199647714Y-144885580D01*
X199647714Y-144885580D02*
X199600095Y-144790342D01*
X199600095Y-144790342D02*
X199600095Y-144552247D01*
X199600095Y-144552247D02*
X199647714Y-144457009D01*
X199647714Y-144457009D02*
X199695333Y-144409390D01*
X199695333Y-144409390D02*
X199790571Y-144361771D01*
X199790571Y-144361771D02*
X199981047Y-144361771D01*
X199981047Y-144361771D02*
X200076285Y-144409390D01*
X200076285Y-144409390D02*
X200123904Y-144457009D01*
X200123904Y-144457009D02*
X200171523Y-144552247D01*
X201302857Y-123136819D02*
X201636190Y-122660628D01*
X201874285Y-123136819D02*
X201874285Y-122136819D01*
X201874285Y-122136819D02*
X201493333Y-122136819D01*
X201493333Y-122136819D02*
X201398095Y-122184438D01*
X201398095Y-122184438D02*
X201350476Y-122232057D01*
X201350476Y-122232057D02*
X201302857Y-122327295D01*
X201302857Y-122327295D02*
X201302857Y-122470152D01*
X201302857Y-122470152D02*
X201350476Y-122565390D01*
X201350476Y-122565390D02*
X201398095Y-122613009D01*
X201398095Y-122613009D02*
X201493333Y-122660628D01*
X201493333Y-122660628D02*
X201874285Y-122660628D01*
X200350476Y-123136819D02*
X200921904Y-123136819D01*
X200636190Y-123136819D02*
X200636190Y-122136819D01*
X200636190Y-122136819D02*
X200731428Y-122279676D01*
X200731428Y-122279676D02*
X200826666Y-122374914D01*
X200826666Y-122374914D02*
X200921904Y-122422533D01*
X200017142Y-122136819D02*
X199350476Y-122136819D01*
X199350476Y-122136819D02*
X199779047Y-123136819D01*
X201536666Y-147266819D02*
X201869999Y-146790628D01*
X202108094Y-147266819D02*
X202108094Y-146266819D01*
X202108094Y-146266819D02*
X201727142Y-146266819D01*
X201727142Y-146266819D02*
X201631904Y-146314438D01*
X201631904Y-146314438D02*
X201584285Y-146362057D01*
X201584285Y-146362057D02*
X201536666Y-146457295D01*
X201536666Y-146457295D02*
X201536666Y-146600152D01*
X201536666Y-146600152D02*
X201584285Y-146695390D01*
X201584285Y-146695390D02*
X201631904Y-146743009D01*
X201631904Y-146743009D02*
X201727142Y-146790628D01*
X201727142Y-146790628D02*
X202108094Y-146790628D01*
X200631904Y-146266819D02*
X201108094Y-146266819D01*
X201108094Y-146266819D02*
X201155713Y-146743009D01*
X201155713Y-146743009D02*
X201108094Y-146695390D01*
X201108094Y-146695390D02*
X201012856Y-146647771D01*
X201012856Y-146647771D02*
X200774761Y-146647771D01*
X200774761Y-146647771D02*
X200679523Y-146695390D01*
X200679523Y-146695390D02*
X200631904Y-146743009D01*
X200631904Y-146743009D02*
X200584285Y-146838247D01*
X200584285Y-146838247D02*
X200584285Y-147076342D01*
X200584285Y-147076342D02*
X200631904Y-147171580D01*
X200631904Y-147171580D02*
X200679523Y-147219200D01*
X200679523Y-147219200D02*
X200774761Y-147266819D01*
X200774761Y-147266819D02*
X201012856Y-147266819D01*
X201012856Y-147266819D02*
X201108094Y-147219200D01*
X201108094Y-147219200D02*
X201155713Y-147171580D01*
X201302857Y-101038819D02*
X201636190Y-100562628D01*
X201874285Y-101038819D02*
X201874285Y-100038819D01*
X201874285Y-100038819D02*
X201493333Y-100038819D01*
X201493333Y-100038819D02*
X201398095Y-100086438D01*
X201398095Y-100086438D02*
X201350476Y-100134057D01*
X201350476Y-100134057D02*
X201302857Y-100229295D01*
X201302857Y-100229295D02*
X201302857Y-100372152D01*
X201302857Y-100372152D02*
X201350476Y-100467390D01*
X201350476Y-100467390D02*
X201398095Y-100515009D01*
X201398095Y-100515009D02*
X201493333Y-100562628D01*
X201493333Y-100562628D02*
X201874285Y-100562628D01*
X200350476Y-101038819D02*
X200921904Y-101038819D01*
X200636190Y-101038819D02*
X200636190Y-100038819D01*
X200636190Y-100038819D02*
X200731428Y-100181676D01*
X200731428Y-100181676D02*
X200826666Y-100276914D01*
X200826666Y-100276914D02*
X200921904Y-100324533D01*
X199874285Y-101038819D02*
X199683809Y-101038819D01*
X199683809Y-101038819D02*
X199588571Y-100991200D01*
X199588571Y-100991200D02*
X199540952Y-100943580D01*
X199540952Y-100943580D02*
X199445714Y-100800723D01*
X199445714Y-100800723D02*
X199398095Y-100610247D01*
X199398095Y-100610247D02*
X199398095Y-100229295D01*
X199398095Y-100229295D02*
X199445714Y-100134057D01*
X199445714Y-100134057D02*
X199493333Y-100086438D01*
X199493333Y-100086438D02*
X199588571Y-100038819D01*
X199588571Y-100038819D02*
X199779047Y-100038819D01*
X199779047Y-100038819D02*
X199874285Y-100086438D01*
X199874285Y-100086438D02*
X199921904Y-100134057D01*
X199921904Y-100134057D02*
X199969523Y-100229295D01*
X199969523Y-100229295D02*
X199969523Y-100467390D01*
X199969523Y-100467390D02*
X199921904Y-100562628D01*
X199921904Y-100562628D02*
X199874285Y-100610247D01*
X199874285Y-100610247D02*
X199779047Y-100657866D01*
X199779047Y-100657866D02*
X199588571Y-100657866D01*
X199588571Y-100657866D02*
X199493333Y-100610247D01*
X199493333Y-100610247D02*
X199445714Y-100562628D01*
X199445714Y-100562628D02*
X199398095Y-100467390D01*
X201328857Y-95196819D02*
X201662190Y-94720628D01*
X201900285Y-95196819D02*
X201900285Y-94196819D01*
X201900285Y-94196819D02*
X201519333Y-94196819D01*
X201519333Y-94196819D02*
X201424095Y-94244438D01*
X201424095Y-94244438D02*
X201376476Y-94292057D01*
X201376476Y-94292057D02*
X201328857Y-94387295D01*
X201328857Y-94387295D02*
X201328857Y-94530152D01*
X201328857Y-94530152D02*
X201376476Y-94625390D01*
X201376476Y-94625390D02*
X201424095Y-94673009D01*
X201424095Y-94673009D02*
X201519333Y-94720628D01*
X201519333Y-94720628D02*
X201900285Y-94720628D01*
X200947904Y-94292057D02*
X200900285Y-94244438D01*
X200900285Y-94244438D02*
X200805047Y-94196819D01*
X200805047Y-94196819D02*
X200566952Y-94196819D01*
X200566952Y-94196819D02*
X200471714Y-94244438D01*
X200471714Y-94244438D02*
X200424095Y-94292057D01*
X200424095Y-94292057D02*
X200376476Y-94387295D01*
X200376476Y-94387295D02*
X200376476Y-94482533D01*
X200376476Y-94482533D02*
X200424095Y-94625390D01*
X200424095Y-94625390D02*
X200995523Y-95196819D01*
X200995523Y-95196819D02*
X200376476Y-95196819D01*
X199757428Y-94196819D02*
X199662190Y-94196819D01*
X199662190Y-94196819D02*
X199566952Y-94244438D01*
X199566952Y-94244438D02*
X199519333Y-94292057D01*
X199519333Y-94292057D02*
X199471714Y-94387295D01*
X199471714Y-94387295D02*
X199424095Y-94577771D01*
X199424095Y-94577771D02*
X199424095Y-94815866D01*
X199424095Y-94815866D02*
X199471714Y-95006342D01*
X199471714Y-95006342D02*
X199519333Y-95101580D01*
X199519333Y-95101580D02*
X199566952Y-95149200D01*
X199566952Y-95149200D02*
X199662190Y-95196819D01*
X199662190Y-95196819D02*
X199757428Y-95196819D01*
X199757428Y-95196819D02*
X199852666Y-95149200D01*
X199852666Y-95149200D02*
X199900285Y-95101580D01*
X199900285Y-95101580D02*
X199947904Y-95006342D01*
X199947904Y-95006342D02*
X199995523Y-94815866D01*
X199995523Y-94815866D02*
X199995523Y-94577771D01*
X199995523Y-94577771D02*
X199947904Y-94387295D01*
X199947904Y-94387295D02*
X199900285Y-94292057D01*
X199900285Y-94292057D02*
X199852666Y-94244438D01*
X199852666Y-94244438D02*
X199757428Y-94196819D01*
D11*
X204742000Y-54118000D02*
X201942000Y-54118000D01*
X204742000Y-56118000D02*
X204742000Y-54118000D01*
X201942000Y-54118000D02*
X201942000Y-56118000D01*
X201942000Y-56118000D02*
X204742000Y-56118000D01*
X204854000Y-78248000D02*
X202054000Y-78248000D01*
X204854000Y-80248000D02*
X204854000Y-78248000D01*
X202054000Y-78248000D02*
X202054000Y-80248000D01*
X202054000Y-80248000D02*
X204854000Y-80248000D01*
X204996000Y-103140000D02*
X202196000Y-103140000D01*
X204996000Y-105140000D02*
X204996000Y-103140000D01*
X202196000Y-103140000D02*
X202196000Y-105140000D01*
X202196000Y-105140000D02*
X204996000Y-105140000D01*
X204996000Y-126000000D02*
X202196000Y-126000000D01*
X204996000Y-128000000D02*
X204996000Y-126000000D01*
X202196000Y-126000000D02*
X202196000Y-128000000D01*
X202196000Y-128000000D02*
X204996000Y-128000000D01*
X203970936Y-121052000D02*
X205425064Y-121052000D01*
X203970936Y-119232000D02*
X205425064Y-119232000D01*
X203970936Y-75586000D02*
X205425064Y-75586000D01*
X203970936Y-73766000D02*
X205425064Y-73766000D01*
X90839936Y-58060000D02*
X92294064Y-58060000D01*
X90839936Y-56240000D02*
X92294064Y-56240000D01*
X204022936Y-73046000D02*
X205477064Y-73046000D01*
X204022936Y-71226000D02*
X205477064Y-71226000D01*
X204224936Y-145436000D02*
X205679064Y-145436000D01*
X204224936Y-143616000D02*
X205679064Y-143616000D01*
X203970936Y-123592000D02*
X205425064Y-123592000D01*
X203970936Y-121772000D02*
X205425064Y-121772000D01*
X204224936Y-147976000D02*
X205679064Y-147976000D01*
X204224936Y-146156000D02*
X205679064Y-146156000D01*
X203970936Y-99674000D02*
X205425064Y-99674000D01*
X203970936Y-101494000D02*
X205425064Y-101494000D01*
X203996936Y-93832000D02*
X205451064Y-93832000D01*
X203996936Y-95652000D02*
X205451064Y-95652000D01*
M02*
