G04 #@! TF.GenerationSoftware,KiCad,Pcbnew,8.0.9-8.0.9-0~ubuntu22.04.1*
G04 #@! TF.CreationDate,2025-03-29T10:12:52+01:00*
G04 #@! TF.ProjectId,CPU09RAM,43505530-3952-4414-9d2e-6b696361645f,rev?*
G04 #@! TF.SameCoordinates,Original*
G04 #@! TF.FileFunction,Legend,Bot*
G04 #@! TF.FilePolarity,Positive*
%FSLAX46Y46*%
G04 Gerber Fmt 4.6, Leading zero omitted, Abs format (unit mm)*
G04 Created by KiCad (PCBNEW 8.0.9-8.0.9-0~ubuntu22.04.1) date 2025-03-29 10:12:52*
%MOMM*%
%LPD*%
G01*
G04 APERTURE LIST*
%ADD10C,0.150000*%
%ADD11C,0.120000*%
G04 APERTURE END LIST*
D10*
X89122094Y-104737819D02*
X89122094Y-105547342D01*
X89122094Y-105547342D02*
X89074475Y-105642580D01*
X89074475Y-105642580D02*
X89026856Y-105690200D01*
X89026856Y-105690200D02*
X88931618Y-105737819D01*
X88931618Y-105737819D02*
X88741142Y-105737819D01*
X88741142Y-105737819D02*
X88645904Y-105690200D01*
X88645904Y-105690200D02*
X88598285Y-105642580D01*
X88598285Y-105642580D02*
X88550666Y-105547342D01*
X88550666Y-105547342D02*
X88550666Y-104737819D01*
X87550666Y-105737819D02*
X88122094Y-105737819D01*
X87836380Y-105737819D02*
X87836380Y-104737819D01*
X87836380Y-104737819D02*
X87931618Y-104880676D01*
X87931618Y-104880676D02*
X88026856Y-104975914D01*
X88026856Y-104975914D02*
X88122094Y-105023533D01*
X86693523Y-104737819D02*
X86883999Y-104737819D01*
X86883999Y-104737819D02*
X86979237Y-104785438D01*
X86979237Y-104785438D02*
X87026856Y-104833057D01*
X87026856Y-104833057D02*
X87122094Y-104975914D01*
X87122094Y-104975914D02*
X87169713Y-105166390D01*
X87169713Y-105166390D02*
X87169713Y-105547342D01*
X87169713Y-105547342D02*
X87122094Y-105642580D01*
X87122094Y-105642580D02*
X87074475Y-105690200D01*
X87074475Y-105690200D02*
X86979237Y-105737819D01*
X86979237Y-105737819D02*
X86788761Y-105737819D01*
X86788761Y-105737819D02*
X86693523Y-105690200D01*
X86693523Y-105690200D02*
X86645904Y-105642580D01*
X86645904Y-105642580D02*
X86598285Y-105547342D01*
X86598285Y-105547342D02*
X86598285Y-105309247D01*
X86598285Y-105309247D02*
X86645904Y-105214009D01*
X86645904Y-105214009D02*
X86693523Y-105166390D01*
X86693523Y-105166390D02*
X86788761Y-105118771D01*
X86788761Y-105118771D02*
X86979237Y-105118771D01*
X86979237Y-105118771D02*
X87074475Y-105166390D01*
X87074475Y-105166390D02*
X87122094Y-105214009D01*
X87122094Y-105214009D02*
X87169713Y-105309247D01*
X88772904Y-118580819D02*
X88772904Y-119390342D01*
X88772904Y-119390342D02*
X88725285Y-119485580D01*
X88725285Y-119485580D02*
X88677666Y-119533200D01*
X88677666Y-119533200D02*
X88582428Y-119580819D01*
X88582428Y-119580819D02*
X88391952Y-119580819D01*
X88391952Y-119580819D02*
X88296714Y-119533200D01*
X88296714Y-119533200D02*
X88249095Y-119485580D01*
X88249095Y-119485580D02*
X88201476Y-119390342D01*
X88201476Y-119390342D02*
X88201476Y-118580819D01*
X87820523Y-118580819D02*
X87201476Y-118580819D01*
X87201476Y-118580819D02*
X87534809Y-118961771D01*
X87534809Y-118961771D02*
X87391952Y-118961771D01*
X87391952Y-118961771D02*
X87296714Y-119009390D01*
X87296714Y-119009390D02*
X87249095Y-119057009D01*
X87249095Y-119057009D02*
X87201476Y-119152247D01*
X87201476Y-119152247D02*
X87201476Y-119390342D01*
X87201476Y-119390342D02*
X87249095Y-119485580D01*
X87249095Y-119485580D02*
X87296714Y-119533200D01*
X87296714Y-119533200D02*
X87391952Y-119580819D01*
X87391952Y-119580819D02*
X87677666Y-119580819D01*
X87677666Y-119580819D02*
X87772904Y-119533200D01*
X87772904Y-119533200D02*
X87820523Y-119485580D01*
X157145357Y-62534580D02*
X157192976Y-62582200D01*
X157192976Y-62582200D02*
X157335833Y-62629819D01*
X157335833Y-62629819D02*
X157431071Y-62629819D01*
X157431071Y-62629819D02*
X157573928Y-62582200D01*
X157573928Y-62582200D02*
X157669166Y-62486961D01*
X157669166Y-62486961D02*
X157716785Y-62391723D01*
X157716785Y-62391723D02*
X157764404Y-62201247D01*
X157764404Y-62201247D02*
X157764404Y-62058390D01*
X157764404Y-62058390D02*
X157716785Y-61867914D01*
X157716785Y-61867914D02*
X157669166Y-61772676D01*
X157669166Y-61772676D02*
X157573928Y-61677438D01*
X157573928Y-61677438D02*
X157431071Y-61629819D01*
X157431071Y-61629819D02*
X157335833Y-61629819D01*
X157335833Y-61629819D02*
X157192976Y-61677438D01*
X157192976Y-61677438D02*
X157145357Y-61725057D01*
X156192976Y-62629819D02*
X156764404Y-62629819D01*
X156478690Y-62629819D02*
X156478690Y-61629819D01*
X156478690Y-61629819D02*
X156573928Y-61772676D01*
X156573928Y-61772676D02*
X156669166Y-61867914D01*
X156669166Y-61867914D02*
X156764404Y-61915533D01*
X155573928Y-61629819D02*
X155478690Y-61629819D01*
X155478690Y-61629819D02*
X155383452Y-61677438D01*
X155383452Y-61677438D02*
X155335833Y-61725057D01*
X155335833Y-61725057D02*
X155288214Y-61820295D01*
X155288214Y-61820295D02*
X155240595Y-62010771D01*
X155240595Y-62010771D02*
X155240595Y-62248866D01*
X155240595Y-62248866D02*
X155288214Y-62439342D01*
X155288214Y-62439342D02*
X155335833Y-62534580D01*
X155335833Y-62534580D02*
X155383452Y-62582200D01*
X155383452Y-62582200D02*
X155478690Y-62629819D01*
X155478690Y-62629819D02*
X155573928Y-62629819D01*
X155573928Y-62629819D02*
X155669166Y-62582200D01*
X155669166Y-62582200D02*
X155716785Y-62534580D01*
X155716785Y-62534580D02*
X155764404Y-62439342D01*
X155764404Y-62439342D02*
X155812023Y-62248866D01*
X155812023Y-62248866D02*
X155812023Y-62010771D01*
X155812023Y-62010771D02*
X155764404Y-61820295D01*
X155764404Y-61820295D02*
X155716785Y-61725057D01*
X155716785Y-61725057D02*
X155669166Y-61677438D01*
X155669166Y-61677438D02*
X155573928Y-61629819D01*
X101187094Y-85941819D02*
X101187094Y-86751342D01*
X101187094Y-86751342D02*
X101139475Y-86846580D01*
X101139475Y-86846580D02*
X101091856Y-86894200D01*
X101091856Y-86894200D02*
X100996618Y-86941819D01*
X100996618Y-86941819D02*
X100806142Y-86941819D01*
X100806142Y-86941819D02*
X100710904Y-86894200D01*
X100710904Y-86894200D02*
X100663285Y-86846580D01*
X100663285Y-86846580D02*
X100615666Y-86751342D01*
X100615666Y-86751342D02*
X100615666Y-85941819D01*
X99615666Y-86941819D02*
X100187094Y-86941819D01*
X99901380Y-86941819D02*
X99901380Y-85941819D01*
X99901380Y-85941819D02*
X99996618Y-86084676D01*
X99996618Y-86084676D02*
X100091856Y-86179914D01*
X100091856Y-86179914D02*
X100187094Y-86227533D01*
X99282332Y-85941819D02*
X98663285Y-85941819D01*
X98663285Y-85941819D02*
X98996618Y-86322771D01*
X98996618Y-86322771D02*
X98853761Y-86322771D01*
X98853761Y-86322771D02*
X98758523Y-86370390D01*
X98758523Y-86370390D02*
X98710904Y-86418009D01*
X98710904Y-86418009D02*
X98663285Y-86513247D01*
X98663285Y-86513247D02*
X98663285Y-86751342D01*
X98663285Y-86751342D02*
X98710904Y-86846580D01*
X98710904Y-86846580D02*
X98758523Y-86894200D01*
X98758523Y-86894200D02*
X98853761Y-86941819D01*
X98853761Y-86941819D02*
X99139475Y-86941819D01*
X99139475Y-86941819D02*
X99234713Y-86894200D01*
X99234713Y-86894200D02*
X99282332Y-86846580D01*
X210123666Y-84486819D02*
X210456999Y-84010628D01*
X210695094Y-84486819D02*
X210695094Y-83486819D01*
X210695094Y-83486819D02*
X210314142Y-83486819D01*
X210314142Y-83486819D02*
X210218904Y-83534438D01*
X210218904Y-83534438D02*
X210171285Y-83582057D01*
X210171285Y-83582057D02*
X210123666Y-83677295D01*
X210123666Y-83677295D02*
X210123666Y-83820152D01*
X210123666Y-83820152D02*
X210171285Y-83915390D01*
X210171285Y-83915390D02*
X210218904Y-83963009D01*
X210218904Y-83963009D02*
X210314142Y-84010628D01*
X210314142Y-84010628D02*
X210695094Y-84010628D01*
X209171285Y-84486819D02*
X209742713Y-84486819D01*
X209456999Y-84486819D02*
X209456999Y-83486819D01*
X209456999Y-83486819D02*
X209552237Y-83629676D01*
X209552237Y-83629676D02*
X209647475Y-83724914D01*
X209647475Y-83724914D02*
X209742713Y-83772533D01*
X156852857Y-141909580D02*
X156900476Y-141957200D01*
X156900476Y-141957200D02*
X157043333Y-142004819D01*
X157043333Y-142004819D02*
X157138571Y-142004819D01*
X157138571Y-142004819D02*
X157281428Y-141957200D01*
X157281428Y-141957200D02*
X157376666Y-141861961D01*
X157376666Y-141861961D02*
X157424285Y-141766723D01*
X157424285Y-141766723D02*
X157471904Y-141576247D01*
X157471904Y-141576247D02*
X157471904Y-141433390D01*
X157471904Y-141433390D02*
X157424285Y-141242914D01*
X157424285Y-141242914D02*
X157376666Y-141147676D01*
X157376666Y-141147676D02*
X157281428Y-141052438D01*
X157281428Y-141052438D02*
X157138571Y-141004819D01*
X157138571Y-141004819D02*
X157043333Y-141004819D01*
X157043333Y-141004819D02*
X156900476Y-141052438D01*
X156900476Y-141052438D02*
X156852857Y-141100057D01*
X155900476Y-142004819D02*
X156471904Y-142004819D01*
X156186190Y-142004819D02*
X156186190Y-141004819D01*
X156186190Y-141004819D02*
X156281428Y-141147676D01*
X156281428Y-141147676D02*
X156376666Y-141242914D01*
X156376666Y-141242914D02*
X156471904Y-141290533D01*
X155519523Y-141100057D02*
X155471904Y-141052438D01*
X155471904Y-141052438D02*
X155376666Y-141004819D01*
X155376666Y-141004819D02*
X155138571Y-141004819D01*
X155138571Y-141004819D02*
X155043333Y-141052438D01*
X155043333Y-141052438D02*
X154995714Y-141100057D01*
X154995714Y-141100057D02*
X154948095Y-141195295D01*
X154948095Y-141195295D02*
X154948095Y-141290533D01*
X154948095Y-141290533D02*
X154995714Y-141433390D01*
X154995714Y-141433390D02*
X155567142Y-142004819D01*
X155567142Y-142004819D02*
X154948095Y-142004819D01*
X157195357Y-121589580D02*
X157242976Y-121637200D01*
X157242976Y-121637200D02*
X157385833Y-121684819D01*
X157385833Y-121684819D02*
X157481071Y-121684819D01*
X157481071Y-121684819D02*
X157623928Y-121637200D01*
X157623928Y-121637200D02*
X157719166Y-121541961D01*
X157719166Y-121541961D02*
X157766785Y-121446723D01*
X157766785Y-121446723D02*
X157814404Y-121256247D01*
X157814404Y-121256247D02*
X157814404Y-121113390D01*
X157814404Y-121113390D02*
X157766785Y-120922914D01*
X157766785Y-120922914D02*
X157719166Y-120827676D01*
X157719166Y-120827676D02*
X157623928Y-120732438D01*
X157623928Y-120732438D02*
X157481071Y-120684819D01*
X157481071Y-120684819D02*
X157385833Y-120684819D01*
X157385833Y-120684819D02*
X157242976Y-120732438D01*
X157242976Y-120732438D02*
X157195357Y-120780057D01*
X156242976Y-121684819D02*
X156814404Y-121684819D01*
X156528690Y-121684819D02*
X156528690Y-120684819D01*
X156528690Y-120684819D02*
X156623928Y-120827676D01*
X156623928Y-120827676D02*
X156719166Y-120922914D01*
X156719166Y-120922914D02*
X156814404Y-120970533D01*
X155290595Y-121684819D02*
X155862023Y-121684819D01*
X155576309Y-121684819D02*
X155576309Y-120684819D01*
X155576309Y-120684819D02*
X155671547Y-120827676D01*
X155671547Y-120827676D02*
X155766785Y-120922914D01*
X155766785Y-120922914D02*
X155862023Y-120970533D01*
X130087666Y-141147580D02*
X130135285Y-141195200D01*
X130135285Y-141195200D02*
X130278142Y-141242819D01*
X130278142Y-141242819D02*
X130373380Y-141242819D01*
X130373380Y-141242819D02*
X130516237Y-141195200D01*
X130516237Y-141195200D02*
X130611475Y-141099961D01*
X130611475Y-141099961D02*
X130659094Y-141004723D01*
X130659094Y-141004723D02*
X130706713Y-140814247D01*
X130706713Y-140814247D02*
X130706713Y-140671390D01*
X130706713Y-140671390D02*
X130659094Y-140480914D01*
X130659094Y-140480914D02*
X130611475Y-140385676D01*
X130611475Y-140385676D02*
X130516237Y-140290438D01*
X130516237Y-140290438D02*
X130373380Y-140242819D01*
X130373380Y-140242819D02*
X130278142Y-140242819D01*
X130278142Y-140242819D02*
X130135285Y-140290438D01*
X130135285Y-140290438D02*
X130087666Y-140338057D01*
X129516237Y-140671390D02*
X129611475Y-140623771D01*
X129611475Y-140623771D02*
X129659094Y-140576152D01*
X129659094Y-140576152D02*
X129706713Y-140480914D01*
X129706713Y-140480914D02*
X129706713Y-140433295D01*
X129706713Y-140433295D02*
X129659094Y-140338057D01*
X129659094Y-140338057D02*
X129611475Y-140290438D01*
X129611475Y-140290438D02*
X129516237Y-140242819D01*
X129516237Y-140242819D02*
X129325761Y-140242819D01*
X129325761Y-140242819D02*
X129230523Y-140290438D01*
X129230523Y-140290438D02*
X129182904Y-140338057D01*
X129182904Y-140338057D02*
X129135285Y-140433295D01*
X129135285Y-140433295D02*
X129135285Y-140480914D01*
X129135285Y-140480914D02*
X129182904Y-140576152D01*
X129182904Y-140576152D02*
X129230523Y-140623771D01*
X129230523Y-140623771D02*
X129325761Y-140671390D01*
X129325761Y-140671390D02*
X129516237Y-140671390D01*
X129516237Y-140671390D02*
X129611475Y-140719009D01*
X129611475Y-140719009D02*
X129659094Y-140766628D01*
X129659094Y-140766628D02*
X129706713Y-140861866D01*
X129706713Y-140861866D02*
X129706713Y-141052342D01*
X129706713Y-141052342D02*
X129659094Y-141147580D01*
X129659094Y-141147580D02*
X129611475Y-141195200D01*
X129611475Y-141195200D02*
X129516237Y-141242819D01*
X129516237Y-141242819D02*
X129325761Y-141242819D01*
X129325761Y-141242819D02*
X129230523Y-141195200D01*
X129230523Y-141195200D02*
X129182904Y-141147580D01*
X129182904Y-141147580D02*
X129135285Y-141052342D01*
X129135285Y-141052342D02*
X129135285Y-140861866D01*
X129135285Y-140861866D02*
X129182904Y-140766628D01*
X129182904Y-140766628D02*
X129230523Y-140719009D01*
X129230523Y-140719009D02*
X129325761Y-140671390D01*
X101187094Y-99403819D02*
X101187094Y-100213342D01*
X101187094Y-100213342D02*
X101139475Y-100308580D01*
X101139475Y-100308580D02*
X101091856Y-100356200D01*
X101091856Y-100356200D02*
X100996618Y-100403819D01*
X100996618Y-100403819D02*
X100806142Y-100403819D01*
X100806142Y-100403819D02*
X100710904Y-100356200D01*
X100710904Y-100356200D02*
X100663285Y-100308580D01*
X100663285Y-100308580D02*
X100615666Y-100213342D01*
X100615666Y-100213342D02*
X100615666Y-99403819D01*
X99615666Y-100403819D02*
X100187094Y-100403819D01*
X99901380Y-100403819D02*
X99901380Y-99403819D01*
X99901380Y-99403819D02*
X99996618Y-99546676D01*
X99996618Y-99546676D02*
X100091856Y-99641914D01*
X100091856Y-99641914D02*
X100187094Y-99689533D01*
X98758523Y-99737152D02*
X98758523Y-100403819D01*
X98996618Y-99356200D02*
X99234713Y-100070485D01*
X99234713Y-100070485D02*
X98615666Y-100070485D01*
X200438253Y-139047285D02*
X200485872Y-139190142D01*
X200485872Y-139190142D02*
X200533491Y-139237761D01*
X200533491Y-139237761D02*
X200628729Y-139285380D01*
X200628729Y-139285380D02*
X200771586Y-139285380D01*
X200771586Y-139285380D02*
X200866824Y-139237761D01*
X200866824Y-139237761D02*
X200914444Y-139190142D01*
X200914444Y-139190142D02*
X200962063Y-139094904D01*
X200962063Y-139094904D02*
X200962063Y-138713952D01*
X200962063Y-138713952D02*
X199962063Y-138713952D01*
X199962063Y-138713952D02*
X199962063Y-139047285D01*
X199962063Y-139047285D02*
X200009682Y-139142523D01*
X200009682Y-139142523D02*
X200057301Y-139190142D01*
X200057301Y-139190142D02*
X200152539Y-139237761D01*
X200152539Y-139237761D02*
X200247777Y-139237761D01*
X200247777Y-139237761D02*
X200343015Y-139190142D01*
X200343015Y-139190142D02*
X200390634Y-139142523D01*
X200390634Y-139142523D02*
X200438253Y-139047285D01*
X200438253Y-139047285D02*
X200438253Y-138713952D01*
X199962063Y-139571095D02*
X199962063Y-140142523D01*
X200962063Y-139856809D02*
X199962063Y-139856809D01*
X200962063Y-140999666D02*
X200962063Y-140428238D01*
X200962063Y-140713952D02*
X199962063Y-140713952D01*
X199962063Y-140713952D02*
X200104920Y-140618714D01*
X200104920Y-140618714D02*
X200200158Y-140523476D01*
X200200158Y-140523476D02*
X200247777Y-140428238D01*
X130049166Y-119049580D02*
X130096785Y-119097200D01*
X130096785Y-119097200D02*
X130239642Y-119144819D01*
X130239642Y-119144819D02*
X130334880Y-119144819D01*
X130334880Y-119144819D02*
X130477737Y-119097200D01*
X130477737Y-119097200D02*
X130572975Y-119001961D01*
X130572975Y-119001961D02*
X130620594Y-118906723D01*
X130620594Y-118906723D02*
X130668213Y-118716247D01*
X130668213Y-118716247D02*
X130668213Y-118573390D01*
X130668213Y-118573390D02*
X130620594Y-118382914D01*
X130620594Y-118382914D02*
X130572975Y-118287676D01*
X130572975Y-118287676D02*
X130477737Y-118192438D01*
X130477737Y-118192438D02*
X130334880Y-118144819D01*
X130334880Y-118144819D02*
X130239642Y-118144819D01*
X130239642Y-118144819D02*
X130096785Y-118192438D01*
X130096785Y-118192438D02*
X130049166Y-118240057D01*
X129715832Y-118144819D02*
X129049166Y-118144819D01*
X129049166Y-118144819D02*
X129477737Y-119144819D01*
X157354166Y-94284580D02*
X157401785Y-94332200D01*
X157401785Y-94332200D02*
X157544642Y-94379819D01*
X157544642Y-94379819D02*
X157639880Y-94379819D01*
X157639880Y-94379819D02*
X157782737Y-94332200D01*
X157782737Y-94332200D02*
X157877975Y-94236961D01*
X157877975Y-94236961D02*
X157925594Y-94141723D01*
X157925594Y-94141723D02*
X157973213Y-93951247D01*
X157973213Y-93951247D02*
X157973213Y-93808390D01*
X157973213Y-93808390D02*
X157925594Y-93617914D01*
X157925594Y-93617914D02*
X157877975Y-93522676D01*
X157877975Y-93522676D02*
X157782737Y-93427438D01*
X157782737Y-93427438D02*
X157639880Y-93379819D01*
X157639880Y-93379819D02*
X157544642Y-93379819D01*
X157544642Y-93379819D02*
X157401785Y-93427438D01*
X157401785Y-93427438D02*
X157354166Y-93475057D01*
X156877975Y-94379819D02*
X156687499Y-94379819D01*
X156687499Y-94379819D02*
X156592261Y-94332200D01*
X156592261Y-94332200D02*
X156544642Y-94284580D01*
X156544642Y-94284580D02*
X156449404Y-94141723D01*
X156449404Y-94141723D02*
X156401785Y-93951247D01*
X156401785Y-93951247D02*
X156401785Y-93570295D01*
X156401785Y-93570295D02*
X156449404Y-93475057D01*
X156449404Y-93475057D02*
X156497023Y-93427438D01*
X156497023Y-93427438D02*
X156592261Y-93379819D01*
X156592261Y-93379819D02*
X156782737Y-93379819D01*
X156782737Y-93379819D02*
X156877975Y-93427438D01*
X156877975Y-93427438D02*
X156925594Y-93475057D01*
X156925594Y-93475057D02*
X156973213Y-93570295D01*
X156973213Y-93570295D02*
X156973213Y-93808390D01*
X156973213Y-93808390D02*
X156925594Y-93903628D01*
X156925594Y-93903628D02*
X156877975Y-93951247D01*
X156877975Y-93951247D02*
X156782737Y-93998866D01*
X156782737Y-93998866D02*
X156592261Y-93998866D01*
X156592261Y-93998866D02*
X156497023Y-93951247D01*
X156497023Y-93951247D02*
X156449404Y-93903628D01*
X156449404Y-93903628D02*
X156401785Y-93808390D01*
X195647094Y-62193819D02*
X195647094Y-63003342D01*
X195647094Y-63003342D02*
X195599475Y-63098580D01*
X195599475Y-63098580D02*
X195551856Y-63146200D01*
X195551856Y-63146200D02*
X195456618Y-63193819D01*
X195456618Y-63193819D02*
X195266142Y-63193819D01*
X195266142Y-63193819D02*
X195170904Y-63146200D01*
X195170904Y-63146200D02*
X195123285Y-63098580D01*
X195123285Y-63098580D02*
X195075666Y-63003342D01*
X195075666Y-63003342D02*
X195075666Y-62193819D01*
X194075666Y-63193819D02*
X194647094Y-63193819D01*
X194361380Y-63193819D02*
X194361380Y-62193819D01*
X194361380Y-62193819D02*
X194456618Y-62336676D01*
X194456618Y-62336676D02*
X194551856Y-62431914D01*
X194551856Y-62431914D02*
X194647094Y-62479533D01*
X193170904Y-62193819D02*
X193647094Y-62193819D01*
X193647094Y-62193819D02*
X193694713Y-62670009D01*
X193694713Y-62670009D02*
X193647094Y-62622390D01*
X193647094Y-62622390D02*
X193551856Y-62574771D01*
X193551856Y-62574771D02*
X193313761Y-62574771D01*
X193313761Y-62574771D02*
X193218523Y-62622390D01*
X193218523Y-62622390D02*
X193170904Y-62670009D01*
X193170904Y-62670009D02*
X193123285Y-62765247D01*
X193123285Y-62765247D02*
X193123285Y-63003342D01*
X193123285Y-63003342D02*
X193170904Y-63098580D01*
X193170904Y-63098580D02*
X193218523Y-63146200D01*
X193218523Y-63146200D02*
X193313761Y-63193819D01*
X193313761Y-63193819D02*
X193551856Y-63193819D01*
X193551856Y-63193819D02*
X193647094Y-63146200D01*
X193647094Y-63146200D02*
X193694713Y-63098580D01*
X130475357Y-63169580D02*
X130522976Y-63217200D01*
X130522976Y-63217200D02*
X130665833Y-63264819D01*
X130665833Y-63264819D02*
X130761071Y-63264819D01*
X130761071Y-63264819D02*
X130903928Y-63217200D01*
X130903928Y-63217200D02*
X130999166Y-63121961D01*
X130999166Y-63121961D02*
X131046785Y-63026723D01*
X131046785Y-63026723D02*
X131094404Y-62836247D01*
X131094404Y-62836247D02*
X131094404Y-62693390D01*
X131094404Y-62693390D02*
X131046785Y-62502914D01*
X131046785Y-62502914D02*
X130999166Y-62407676D01*
X130999166Y-62407676D02*
X130903928Y-62312438D01*
X130903928Y-62312438D02*
X130761071Y-62264819D01*
X130761071Y-62264819D02*
X130665833Y-62264819D01*
X130665833Y-62264819D02*
X130522976Y-62312438D01*
X130522976Y-62312438D02*
X130475357Y-62360057D01*
X129522976Y-63264819D02*
X130094404Y-63264819D01*
X129808690Y-63264819D02*
X129808690Y-62264819D01*
X129808690Y-62264819D02*
X129903928Y-62407676D01*
X129903928Y-62407676D02*
X129999166Y-62502914D01*
X129999166Y-62502914D02*
X130094404Y-62550533D01*
X128665833Y-62598152D02*
X128665833Y-63264819D01*
X128903928Y-62217200D02*
X129142023Y-62931485D01*
X129142023Y-62931485D02*
X128522976Y-62931485D01*
X130525357Y-89839580D02*
X130572976Y-89887200D01*
X130572976Y-89887200D02*
X130715833Y-89934819D01*
X130715833Y-89934819D02*
X130811071Y-89934819D01*
X130811071Y-89934819D02*
X130953928Y-89887200D01*
X130953928Y-89887200D02*
X131049166Y-89791961D01*
X131049166Y-89791961D02*
X131096785Y-89696723D01*
X131096785Y-89696723D02*
X131144404Y-89506247D01*
X131144404Y-89506247D02*
X131144404Y-89363390D01*
X131144404Y-89363390D02*
X131096785Y-89172914D01*
X131096785Y-89172914D02*
X131049166Y-89077676D01*
X131049166Y-89077676D02*
X130953928Y-88982438D01*
X130953928Y-88982438D02*
X130811071Y-88934819D01*
X130811071Y-88934819D02*
X130715833Y-88934819D01*
X130715833Y-88934819D02*
X130572976Y-88982438D01*
X130572976Y-88982438D02*
X130525357Y-89030057D01*
X129572976Y-89934819D02*
X130144404Y-89934819D01*
X129858690Y-89934819D02*
X129858690Y-88934819D01*
X129858690Y-88934819D02*
X129953928Y-89077676D01*
X129953928Y-89077676D02*
X130049166Y-89172914D01*
X130049166Y-89172914D02*
X130144404Y-89220533D01*
X129239642Y-88934819D02*
X128620595Y-88934819D01*
X128620595Y-88934819D02*
X128953928Y-89315771D01*
X128953928Y-89315771D02*
X128811071Y-89315771D01*
X128811071Y-89315771D02*
X128715833Y-89363390D01*
X128715833Y-89363390D02*
X128668214Y-89411009D01*
X128668214Y-89411009D02*
X128620595Y-89506247D01*
X128620595Y-89506247D02*
X128620595Y-89744342D01*
X128620595Y-89744342D02*
X128668214Y-89839580D01*
X128668214Y-89839580D02*
X128715833Y-89887200D01*
X128715833Y-89887200D02*
X128811071Y-89934819D01*
X128811071Y-89934819D02*
X129096785Y-89934819D01*
X129096785Y-89934819D02*
X129192023Y-89887200D01*
X129192023Y-89887200D02*
X129239642Y-89839580D01*
X85851904Y-94831819D02*
X85851904Y-95641342D01*
X85851904Y-95641342D02*
X85804285Y-95736580D01*
X85804285Y-95736580D02*
X85756666Y-95784200D01*
X85756666Y-95784200D02*
X85661428Y-95831819D01*
X85661428Y-95831819D02*
X85470952Y-95831819D01*
X85470952Y-95831819D02*
X85375714Y-95784200D01*
X85375714Y-95784200D02*
X85328095Y-95736580D01*
X85328095Y-95736580D02*
X85280476Y-95641342D01*
X85280476Y-95641342D02*
X85280476Y-94831819D01*
X84280476Y-95831819D02*
X84851904Y-95831819D01*
X84566190Y-95831819D02*
X84566190Y-94831819D01*
X84566190Y-94831819D02*
X84661428Y-94974676D01*
X84661428Y-94974676D02*
X84756666Y-95069914D01*
X84756666Y-95069914D02*
X84851904Y-95117533D01*
D11*
X76432000Y-104615000D02*
X80292000Y-104615000D01*
X76432000Y-104850000D02*
X76432000Y-104615000D01*
X76432000Y-117400000D02*
X76432000Y-117635000D01*
X76432000Y-117635000D02*
X80292000Y-117635000D01*
X84152000Y-104615000D02*
X80292000Y-104615000D01*
X84152000Y-104850000D02*
X84152000Y-104615000D01*
X84152000Y-117400000D02*
X84152000Y-117635000D01*
X84152000Y-117635000D02*
X80292000Y-117635000D01*
X84942000Y-104850000D02*
X84602000Y-104380000D01*
X85282000Y-104380000D01*
X84942000Y-104850000D01*
G36*
X84942000Y-104850000D02*
G01*
X84602000Y-104380000D01*
X85282000Y-104380000D01*
X84942000Y-104850000D01*
G37*
X76520598Y-118250828D02*
X80380598Y-118250828D01*
X76520598Y-118485828D02*
X76520598Y-118250828D01*
X76520598Y-131035828D02*
X76520598Y-131270828D01*
X76520598Y-131270828D02*
X80380598Y-131270828D01*
X84240598Y-118250828D02*
X80380598Y-118250828D01*
X84240598Y-118485828D02*
X84240598Y-118250828D01*
X84240598Y-131035828D02*
X84240598Y-131270828D01*
X84240598Y-131270828D02*
X80380598Y-131270828D01*
X85093098Y-118485828D02*
X84753098Y-118015828D01*
X85433098Y-118015828D01*
X85093098Y-118485828D01*
G36*
X85093098Y-118485828D02*
G01*
X84753098Y-118015828D01*
X85433098Y-118015828D01*
X85093098Y-118485828D01*
G37*
X157213752Y-59415000D02*
X155791248Y-59415000D01*
X157213752Y-61235000D02*
X155791248Y-61235000D01*
X103473624Y-74022398D02*
X107333624Y-74022398D01*
X103473624Y-74257398D02*
X103473624Y-74022398D01*
X103473624Y-86807398D02*
X103473624Y-87042398D01*
X103473624Y-87042398D02*
X107333624Y-87042398D01*
X111193624Y-74022398D02*
X107333624Y-74022398D01*
X111193624Y-74257398D02*
X111193624Y-74022398D01*
X111193624Y-86807398D02*
X111193624Y-87042398D01*
X111193624Y-87042398D02*
X107333624Y-87042398D01*
X103023624Y-87277398D02*
X102343624Y-87277398D01*
X102683624Y-86807398D01*
X103023624Y-87277398D01*
G36*
X103023624Y-87277398D02*
G01*
X102343624Y-87277398D01*
X102683624Y-86807398D01*
X103023624Y-87277398D01*
G37*
X209229936Y-84942000D02*
X210684064Y-84942000D01*
X209229936Y-86762000D02*
X210684064Y-86762000D01*
X156921252Y-138790000D02*
X155498748Y-138790000D01*
X156921252Y-140610000D02*
X155498748Y-140610000D01*
X157263752Y-118470000D02*
X155841248Y-118470000D01*
X157263752Y-120290000D02*
X155841248Y-120290000D01*
X130632252Y-138028000D02*
X129209748Y-138028000D01*
X130632252Y-139848000D02*
X129209748Y-139848000D01*
X103455000Y-87470000D02*
X107315000Y-87470000D01*
X103455000Y-87705000D02*
X103455000Y-87470000D01*
X103455000Y-100255000D02*
X103455000Y-100490000D01*
X103455000Y-100490000D02*
X107315000Y-100490000D01*
X111175000Y-87470000D02*
X107315000Y-87470000D01*
X111175000Y-87705000D02*
X111175000Y-87470000D01*
X111175000Y-100255000D02*
X111175000Y-100490000D01*
X111175000Y-100490000D02*
X107315000Y-100490000D01*
X103005000Y-100725000D02*
X102325000Y-100725000D01*
X102665000Y-100255000D01*
X103005000Y-100725000D01*
G36*
X103005000Y-100725000D02*
G01*
X102325000Y-100725000D01*
X102665000Y-100255000D01*
X103005000Y-100725000D01*
G37*
X199357244Y-126733000D02*
X199357244Y-134633000D01*
X199357244Y-134633000D02*
X204157244Y-141483000D01*
X204157244Y-119933000D02*
X199357244Y-126733000D01*
X207457244Y-115133000D02*
X207457244Y-119933000D01*
X207457244Y-141433000D02*
X207457244Y-146233000D01*
X207457244Y-146233000D02*
X212957244Y-146233000D01*
X212957244Y-115133000D02*
X207457244Y-115133000D01*
X212957244Y-119933000D02*
X212957244Y-115133000D01*
X212957244Y-146233000D02*
X212957244Y-141433000D01*
X219707244Y-126833000D02*
X219707244Y-120133000D01*
X219707244Y-134533000D02*
X219707244Y-141233000D01*
X219707244Y-126833000D02*
G75*
G02*
X219708708Y-134529385I-9500000J-3850000D01*
G01*
X130593752Y-115930000D02*
X129171248Y-115930000D01*
X130593752Y-117750000D02*
X129171248Y-117750000D01*
X157898752Y-91165000D02*
X156476248Y-91165000D01*
X157898752Y-92985000D02*
X156476248Y-92985000D01*
X190549000Y-63579000D02*
X194409000Y-63579000D01*
X190549000Y-63814000D02*
X190549000Y-63579000D01*
X190549000Y-76364000D02*
X190549000Y-76599000D01*
X190549000Y-76599000D02*
X194409000Y-76599000D01*
X198269000Y-63579000D02*
X194409000Y-63579000D01*
X198269000Y-63814000D02*
X198269000Y-63579000D01*
X198269000Y-76364000D02*
X198269000Y-76599000D01*
X198269000Y-76599000D02*
X194409000Y-76599000D01*
X199059000Y-63814000D02*
X198719000Y-63344000D01*
X199399000Y-63344000D01*
X199059000Y-63814000D01*
G36*
X199059000Y-63814000D02*
G01*
X198719000Y-63344000D01*
X199399000Y-63344000D01*
X199059000Y-63814000D01*
G37*
X130543752Y-60050000D02*
X129121248Y-60050000D01*
X130543752Y-61870000D02*
X129121248Y-61870000D01*
X130593752Y-86720000D02*
X129171248Y-86720000D01*
X130593752Y-88540000D02*
X129171248Y-88540000D01*
X78249000Y-94879000D02*
X80199000Y-94879000D01*
X78249000Y-103749000D02*
X80199000Y-103749000D01*
X82149000Y-94879000D02*
X80199000Y-94879000D01*
X82149000Y-103749000D02*
X80199000Y-103749000D01*
X82899000Y-94944000D02*
X82659000Y-94614000D01*
X83139000Y-94614000D01*
X82899000Y-94944000D01*
G36*
X82899000Y-94944000D02*
G01*
X82659000Y-94614000D01*
X83139000Y-94614000D01*
X82899000Y-94944000D01*
G37*
M02*
