G04 #@! TF.GenerationSoftware,KiCad,Pcbnew,8.0.9-8.0.9-0~ubuntu22.04.1*
G04 #@! TF.CreationDate,2025-03-29T10:12:52+01:00*
G04 #@! TF.ProjectId,CPU09RAM,43505530-3952-4414-9d2e-6b696361645f,rev?*
G04 #@! TF.SameCoordinates,Original*
G04 #@! TF.FileFunction,Paste,Top*
G04 #@! TF.FilePolarity,Positive*
%FSLAX46Y46*%
G04 Gerber Fmt 4.6, Leading zero omitted, Abs format (unit mm)*
G04 Created by KiCad (PCBNEW 8.0.9-8.0.9-0~ubuntu22.04.1) date 2025-03-29 10:12:52*
%MOMM*%
%LPD*%
G01*
G04 APERTURE LIST*
G04 Aperture macros list*
%AMRoundRect*
0 Rectangle with rounded corners*
0 $1 Rounding radius*
0 $2 $3 $4 $5 $6 $7 $8 $9 X,Y pos of 4 corners*
0 Add a 4 corners polygon primitive as box body*
4,1,4,$2,$3,$4,$5,$6,$7,$8,$9,$2,$3,0*
0 Add four circle primitives for the rounded corners*
1,1,$1+$1,$2,$3*
1,1,$1+$1,$4,$5*
1,1,$1+$1,$6,$7*
1,1,$1+$1,$8,$9*
0 Add four rect primitives between the rounded corners*
20,1,$1+$1,$2,$3,$4,$5,0*
20,1,$1+$1,$4,$5,$6,$7,0*
20,1,$1+$1,$6,$7,$8,$9,0*
20,1,$1+$1,$8,$9,$2,$3,0*%
G04 Aperture macros list end*
%ADD10RoundRect,0.150000X0.825000X0.150000X-0.825000X0.150000X-0.825000X-0.150000X0.825000X-0.150000X0*%
%ADD11RoundRect,0.150000X0.150000X-0.875000X0.150000X0.875000X-0.150000X0.875000X-0.150000X-0.875000X0*%
%ADD12RoundRect,0.250000X0.412500X0.650000X-0.412500X0.650000X-0.412500X-0.650000X0.412500X-0.650000X0*%
%ADD13RoundRect,0.150000X-0.825000X-0.150000X0.825000X-0.150000X0.825000X0.150000X-0.825000X0.150000X0*%
%ADD14RoundRect,0.250000X0.875000X1.025000X-0.875000X1.025000X-0.875000X-1.025000X0.875000X-1.025000X0*%
%ADD15RoundRect,0.250000X-0.650000X0.412500X-0.650000X-0.412500X0.650000X-0.412500X0.650000X0.412500X0*%
%ADD16R,5.100000X5.100000*%
G04 APERTURE END LIST*
D10*
X106615000Y-133350000D03*
X106615000Y-132080000D03*
X106615000Y-130810000D03*
X106615000Y-129540000D03*
X101665000Y-129540000D03*
X101665000Y-130810000D03*
X101665000Y-132080000D03*
X101665000Y-133350000D03*
D11*
X120015000Y-123825000D03*
X121285000Y-123825000D03*
X122555000Y-123825000D03*
X123825000Y-123825000D03*
X125095000Y-123825000D03*
X126365000Y-123825000D03*
X127635000Y-123825000D03*
X128905000Y-123825000D03*
X130175000Y-123825000D03*
X131445000Y-123825000D03*
X132715000Y-123825000D03*
X133985000Y-123825000D03*
X135255000Y-123825000D03*
X136525000Y-123825000D03*
X137795000Y-123825000D03*
X139065000Y-123825000D03*
X139065000Y-110725000D03*
X137795000Y-110725000D03*
X136525000Y-110725000D03*
X135255000Y-110725000D03*
X133985000Y-110725000D03*
X132715000Y-110725000D03*
X131445000Y-110725000D03*
X130175000Y-110725000D03*
X128905000Y-110725000D03*
X127635000Y-110725000D03*
X126365000Y-110725000D03*
X125095000Y-110725000D03*
X123825000Y-110725000D03*
X122555000Y-110725000D03*
X121285000Y-110725000D03*
X120015000Y-110725000D03*
D12*
X90882000Y-58928000D03*
X87757000Y-58928000D03*
X112599000Y-76708000D03*
X109474000Y-76708000D03*
D11*
X120015000Y-142875000D03*
X121285000Y-142875000D03*
X122555000Y-142875000D03*
X123825000Y-142875000D03*
X125095000Y-142875000D03*
X126365000Y-142875000D03*
X127635000Y-142875000D03*
X128905000Y-142875000D03*
X130175000Y-142875000D03*
X131445000Y-142875000D03*
X132715000Y-142875000D03*
X133985000Y-142875000D03*
X135255000Y-142875000D03*
X136525000Y-142875000D03*
X137795000Y-142875000D03*
X139065000Y-142875000D03*
X139065000Y-129775000D03*
X137795000Y-129775000D03*
X136525000Y-129775000D03*
X135255000Y-129775000D03*
X133985000Y-129775000D03*
X132715000Y-129775000D03*
X131445000Y-129775000D03*
X130175000Y-129775000D03*
X128905000Y-129775000D03*
X127635000Y-129775000D03*
X126365000Y-129775000D03*
X125095000Y-129775000D03*
X123825000Y-129775000D03*
X122555000Y-129775000D03*
X121285000Y-129775000D03*
X120015000Y-129775000D03*
D13*
X105540000Y-62230000D03*
X105540000Y-63500000D03*
X105540000Y-64770000D03*
X105540000Y-66040000D03*
X105540000Y-67310000D03*
X105540000Y-68580000D03*
X105540000Y-69850000D03*
X105540000Y-71120000D03*
X110490000Y-71120000D03*
X110490000Y-69850000D03*
X110490000Y-68580000D03*
X110490000Y-67310000D03*
X110490000Y-66040000D03*
X110490000Y-64770000D03*
X110490000Y-63500000D03*
X110490000Y-62230000D03*
D12*
X109805000Y-58674000D03*
X106680000Y-58674000D03*
D11*
X147320000Y-68780000D03*
X148590000Y-68780000D03*
X149860000Y-68780000D03*
X151130000Y-68780000D03*
X152400000Y-68780000D03*
X153670000Y-68780000D03*
X154940000Y-68780000D03*
X156210000Y-68780000D03*
X157480000Y-68780000D03*
X158750000Y-68780000D03*
X160020000Y-68780000D03*
X161290000Y-68780000D03*
X162560000Y-68780000D03*
X163830000Y-68780000D03*
X165100000Y-68780000D03*
X166370000Y-68780000D03*
X166370000Y-55680000D03*
X165100000Y-55680000D03*
X163830000Y-55680000D03*
X162560000Y-55680000D03*
X161290000Y-55680000D03*
X160020000Y-55680000D03*
X158750000Y-55680000D03*
X157480000Y-55680000D03*
X156210000Y-55680000D03*
X154940000Y-55680000D03*
X153670000Y-55680000D03*
X152400000Y-55680000D03*
X151130000Y-55680000D03*
X149860000Y-55680000D03*
X148590000Y-55680000D03*
X147320000Y-55680000D03*
D12*
X105233000Y-120015000D03*
X102108000Y-120015000D03*
D11*
X146685000Y-123825000D03*
X147955000Y-123825000D03*
X149225000Y-123825000D03*
X150495000Y-123825000D03*
X151765000Y-123825000D03*
X153035000Y-123825000D03*
X154305000Y-123825000D03*
X155575000Y-123825000D03*
X156845000Y-123825000D03*
X158115000Y-123825000D03*
X159385000Y-123825000D03*
X160655000Y-123825000D03*
X161925000Y-123825000D03*
X163195000Y-123825000D03*
X164465000Y-123825000D03*
X165735000Y-123825000D03*
X165735000Y-110725000D03*
X164465000Y-110725000D03*
X163195000Y-110725000D03*
X161925000Y-110725000D03*
X160655000Y-110725000D03*
X159385000Y-110725000D03*
X158115000Y-110725000D03*
X156845000Y-110725000D03*
X155575000Y-110725000D03*
X154305000Y-110725000D03*
X153035000Y-110725000D03*
X151765000Y-110725000D03*
X150495000Y-110725000D03*
X149225000Y-110725000D03*
X147955000Y-110725000D03*
X146685000Y-110725000D03*
X120650000Y-87830000D03*
X121920000Y-87830000D03*
X123190000Y-87830000D03*
X124460000Y-87830000D03*
X125730000Y-87830000D03*
X127000000Y-87830000D03*
X128270000Y-87830000D03*
X129540000Y-87830000D03*
X130810000Y-87830000D03*
X132080000Y-87830000D03*
X133350000Y-87830000D03*
X134620000Y-87830000D03*
X135890000Y-87830000D03*
X137160000Y-87830000D03*
X138430000Y-87830000D03*
X139700000Y-87830000D03*
X139700000Y-74730000D03*
X138430000Y-74730000D03*
X137160000Y-74730000D03*
X135890000Y-74730000D03*
X134620000Y-74730000D03*
X133350000Y-74730000D03*
X132080000Y-74730000D03*
X130810000Y-74730000D03*
X129540000Y-74730000D03*
X128270000Y-74730000D03*
X127000000Y-74730000D03*
X125730000Y-74730000D03*
X124460000Y-74730000D03*
X123190000Y-74730000D03*
X121920000Y-74730000D03*
X120650000Y-74730000D03*
X147320000Y-87830000D03*
X148590000Y-87830000D03*
X149860000Y-87830000D03*
X151130000Y-87830000D03*
X152400000Y-87830000D03*
X153670000Y-87830000D03*
X154940000Y-87830000D03*
X156210000Y-87830000D03*
X157480000Y-87830000D03*
X158750000Y-87830000D03*
X160020000Y-87830000D03*
X161290000Y-87830000D03*
X162560000Y-87830000D03*
X163830000Y-87830000D03*
X165100000Y-87830000D03*
X166370000Y-87830000D03*
X166370000Y-74730000D03*
X165100000Y-74730000D03*
X163830000Y-74730000D03*
X162560000Y-74730000D03*
X161290000Y-74730000D03*
X160020000Y-74730000D03*
X158750000Y-74730000D03*
X157480000Y-74730000D03*
X156210000Y-74730000D03*
X154940000Y-74730000D03*
X153670000Y-74730000D03*
X152400000Y-74730000D03*
X151130000Y-74730000D03*
X149860000Y-74730000D03*
X148590000Y-74730000D03*
X147320000Y-74730000D03*
D14*
X198120000Y-58547000D03*
X191720000Y-58547000D03*
D12*
X107900000Y-102616000D03*
X104775000Y-102616000D03*
D13*
X101095000Y-108585000D03*
X101095000Y-109855000D03*
X101095000Y-111125000D03*
X101095000Y-112395000D03*
X101095000Y-113665000D03*
X101095000Y-114935000D03*
X101095000Y-116205000D03*
X101095000Y-117475000D03*
X106045000Y-117475000D03*
X106045000Y-116205000D03*
X106045000Y-114935000D03*
X106045000Y-113665000D03*
X106045000Y-112395000D03*
X106045000Y-111125000D03*
X106045000Y-109855000D03*
X106045000Y-108585000D03*
D15*
X194691000Y-69011000D03*
X194691000Y-72136000D03*
D11*
X146685000Y-142875000D03*
X147955000Y-142875000D03*
X149225000Y-142875000D03*
X150495000Y-142875000D03*
X151765000Y-142875000D03*
X153035000Y-142875000D03*
X154305000Y-142875000D03*
X155575000Y-142875000D03*
X156845000Y-142875000D03*
X158115000Y-142875000D03*
X159385000Y-142875000D03*
X160655000Y-142875000D03*
X161925000Y-142875000D03*
X163195000Y-142875000D03*
X164465000Y-142875000D03*
X165735000Y-142875000D03*
X165735000Y-129775000D03*
X164465000Y-129775000D03*
X163195000Y-129775000D03*
X161925000Y-129775000D03*
X160655000Y-129775000D03*
X159385000Y-129775000D03*
X158115000Y-129775000D03*
X156845000Y-129775000D03*
X155575000Y-129775000D03*
X154305000Y-129775000D03*
X153035000Y-129775000D03*
X151765000Y-129775000D03*
X150495000Y-129775000D03*
X149225000Y-129775000D03*
X147955000Y-129775000D03*
X146685000Y-129775000D03*
X120650000Y-68780000D03*
X121920000Y-68780000D03*
X123190000Y-68780000D03*
X124460000Y-68780000D03*
X125730000Y-68780000D03*
X127000000Y-68780000D03*
X128270000Y-68780000D03*
X129540000Y-68780000D03*
X130810000Y-68780000D03*
X132080000Y-68780000D03*
X133350000Y-68780000D03*
X134620000Y-68780000D03*
X135890000Y-68780000D03*
X137160000Y-68780000D03*
X138430000Y-68780000D03*
X139700000Y-68780000D03*
X139700000Y-55680000D03*
X138430000Y-55680000D03*
X137160000Y-55680000D03*
X135890000Y-55680000D03*
X134620000Y-55680000D03*
X133350000Y-55680000D03*
X132080000Y-55680000D03*
X130810000Y-55680000D03*
X129540000Y-55680000D03*
X128270000Y-55680000D03*
X127000000Y-55680000D03*
X125730000Y-55680000D03*
X124460000Y-55680000D03*
X123190000Y-55680000D03*
X121920000Y-55680000D03*
X120650000Y-55680000D03*
D16*
X210207244Y-117883000D03*
X210207244Y-143483000D03*
M02*
