G04 #@! TF.GenerationSoftware,KiCad,Pcbnew,8.0.9-8.0.9-0~ubuntu22.04.1*
G04 #@! TF.CreationDate,2025-03-29T10:12:52+01:00*
G04 #@! TF.ProjectId,CPU09RAM,43505530-3952-4414-9d2e-6b696361645f,rev?*
G04 #@! TF.SameCoordinates,Original*
G04 #@! TF.FileFunction,Soldermask,Bot*
G04 #@! TF.FilePolarity,Negative*
%FSLAX46Y46*%
G04 Gerber Fmt 4.6, Leading zero omitted, Abs format (unit mm)*
G04 Created by KiCad (PCBNEW 8.0.9-8.0.9-0~ubuntu22.04.1) date 2025-03-29 10:12:52*
%MOMM*%
%LPD*%
G01*
G04 APERTURE LIST*
G04 Aperture macros list*
%AMRoundRect*
0 Rectangle with rounded corners*
0 $1 Rounding radius*
0 $2 $3 $4 $5 $6 $7 $8 $9 X,Y pos of 4 corners*
0 Add a 4 corners polygon primitive as box body*
4,1,4,$2,$3,$4,$5,$6,$7,$8,$9,$2,$3,0*
0 Add four circle primitives for the rounded corners*
1,1,$1+$1,$2,$3*
1,1,$1+$1,$4,$5*
1,1,$1+$1,$6,$7*
1,1,$1+$1,$8,$9*
0 Add four rect primitives between the rounded corners*
20,1,$1+$1,$2,$3,$4,$5,0*
20,1,$1+$1,$4,$5,$6,$7,0*
20,1,$1+$1,$6,$7,$8,$9,0*
20,1,$1+$1,$8,$9,$2,$3,0*%
G04 Aperture macros list end*
%ADD10C,3.200000*%
%ADD11RoundRect,0.200000X-0.850000X-0.850000X0.850000X-0.850000X0.850000X0.850000X-0.850000X0.850000X0*%
%ADD12O,2.100000X2.100000*%
%ADD13C,3.400000*%
%ADD14RoundRect,0.200000X-0.800000X-0.800000X0.800000X-0.800000X0.800000X0.800000X-0.800000X0.800000X0*%
%ADD15O,2.000000X2.000000*%
%ADD16RoundRect,0.200000X0.900000X-0.900000X0.900000X0.900000X-0.900000X0.900000X-0.900000X-0.900000X0*%
%ADD17C,2.200000*%
%ADD18RoundRect,0.200000X1.200000X-1.200000X1.200000X1.200000X-1.200000X1.200000X-1.200000X-1.200000X0*%
%ADD19O,2.800000X2.800000*%
%ADD20RoundRect,0.200000X-0.800000X0.800000X-0.800000X-0.800000X0.800000X-0.800000X0.800000X0.800000X0*%
%ADD21C,3.250000*%
%ADD22RoundRect,0.314516X0.660484X-0.660484X0.660484X0.660484X-0.660484X0.660484X-0.660484X-0.660484X0*%
%ADD23C,1.950000*%
%ADD24RoundRect,0.250000X0.900000X0.250000X-0.900000X0.250000X-0.900000X-0.250000X0.900000X-0.250000X0*%
%ADD25RoundRect,0.250000X0.975000X0.250000X-0.975000X0.250000X-0.975000X-0.250000X0.975000X-0.250000X0*%
%ADD26RoundRect,0.325471X-0.537029X-0.774529X0.537029X-0.774529X0.537029X0.774529X-0.537029X0.774529X0*%
%ADD27RoundRect,0.250000X-0.900000X-0.250000X0.900000X-0.250000X0.900000X0.250000X-0.900000X0.250000X0*%
%ADD28RoundRect,0.326924X0.523076X0.748076X-0.523076X0.748076X-0.523076X-0.748076X0.523076X-0.748076X0*%
%ADD29RoundRect,0.200000X2.550000X-2.550000X2.550000X2.550000X-2.550000X2.550000X-2.550000X-2.550000X0*%
%ADD30C,18.200000*%
%ADD31RoundRect,0.250000X0.925000X0.250000X-0.925000X0.250000X-0.925000X-0.250000X0.925000X-0.250000X0*%
G04 APERTURE END LIST*
D10*
X217297000Y-117602000D03*
D11*
X216408000Y-100711000D03*
D12*
X216408000Y-103251000D03*
D11*
X212598000Y-100711000D03*
D12*
X212598000Y-103251000D03*
D13*
X62760000Y-55550000D03*
X62760000Y-144450000D03*
X76510000Y-55550000D03*
X76510000Y-144450000D03*
X216430000Y-55550000D03*
X216430000Y-144450000D03*
D14*
X82550000Y-62230000D03*
D15*
X82550000Y-64770000D03*
X82550000Y-67310000D03*
X82550000Y-69850000D03*
X82550000Y-72390000D03*
X82550000Y-74930000D03*
X82550000Y-77470000D03*
X82550000Y-80010000D03*
X82550000Y-82550000D03*
X82550000Y-85090000D03*
X90170000Y-85090000D03*
X90170000Y-82550000D03*
X90170000Y-80010000D03*
X90170000Y-77470000D03*
X90170000Y-74930000D03*
X90170000Y-72390000D03*
X90170000Y-69850000D03*
X90170000Y-67310000D03*
X90170000Y-64770000D03*
X90170000Y-62230000D03*
D16*
X216535000Y-85598000D03*
D17*
X216535000Y-83058000D03*
D18*
X81534000Y-144272000D03*
D19*
X81534000Y-134112000D03*
D14*
X208661000Y-61087000D03*
D15*
X208661000Y-63627000D03*
X208661000Y-66167000D03*
X208661000Y-68707000D03*
X208661000Y-71247000D03*
X208661000Y-73787000D03*
X208661000Y-76327000D03*
X208661000Y-78867000D03*
X216281000Y-78867000D03*
X216281000Y-76327000D03*
X216281000Y-73787000D03*
X216281000Y-71247000D03*
X216281000Y-68707000D03*
X216281000Y-66167000D03*
X216281000Y-63627000D03*
X216281000Y-61087000D03*
D20*
X204851000Y-58532000D03*
D15*
X204851000Y-61072000D03*
X204851000Y-63612000D03*
X204851000Y-66152000D03*
X204851000Y-68692000D03*
X204851000Y-71232000D03*
X204851000Y-73772000D03*
X204851000Y-76312000D03*
X204851000Y-78852000D03*
D21*
X62760000Y-144453000D03*
X62760000Y-55553000D03*
D22*
X65300000Y-139373000D03*
D23*
X65300000Y-136833000D03*
X65300000Y-134293000D03*
X65300000Y-131753000D03*
X65300000Y-129213000D03*
X65300000Y-126673000D03*
X65300000Y-124133000D03*
X65300000Y-121593000D03*
X65300000Y-119053000D03*
X65300000Y-116513000D03*
X65300000Y-113973000D03*
X65300000Y-111433000D03*
X65300000Y-108893000D03*
X65300000Y-106353000D03*
X65300000Y-103813000D03*
X65300000Y-101273000D03*
X65300000Y-98733000D03*
X65300000Y-96193000D03*
X65300000Y-93653000D03*
X65300000Y-91113000D03*
X65300000Y-88573000D03*
X65300000Y-86033000D03*
X65300000Y-83493000D03*
X65300000Y-80953000D03*
X65300000Y-78413000D03*
X65300000Y-75873000D03*
X65300000Y-73333000D03*
X65300000Y-70793000D03*
X65300000Y-68253000D03*
X65300000Y-65713000D03*
X65300000Y-63173000D03*
X65300000Y-60633000D03*
X70380000Y-139373000D03*
X70380000Y-136833000D03*
X70380000Y-134293000D03*
X70380000Y-131753000D03*
X70380000Y-129213000D03*
X70380000Y-126673000D03*
X70380000Y-124133000D03*
X70380000Y-121593000D03*
X70380000Y-119053000D03*
X70380000Y-116513000D03*
X70380000Y-113973000D03*
X70380000Y-111433000D03*
X70380000Y-108893000D03*
X70380000Y-106353000D03*
X70380000Y-103813000D03*
X70380000Y-101273000D03*
X70380000Y-98733000D03*
X70380000Y-96193000D03*
X70380000Y-93653000D03*
X70380000Y-91113000D03*
X70380000Y-88573000D03*
X70380000Y-86033000D03*
X70380000Y-83493000D03*
X70380000Y-80953000D03*
X70380000Y-78413000D03*
X70380000Y-75873000D03*
X70380000Y-73333000D03*
X70380000Y-70793000D03*
X70380000Y-68253000D03*
X70380000Y-65713000D03*
X70380000Y-63173000D03*
X70380000Y-60633000D03*
D20*
X111760000Y-103505000D03*
D15*
X111760000Y-106045000D03*
X111760000Y-108585000D03*
X111760000Y-111125000D03*
X111760000Y-113665000D03*
X111760000Y-116205000D03*
X111760000Y-118745000D03*
X111760000Y-121285000D03*
X111760000Y-123825000D03*
D11*
X208661000Y-100711000D03*
D12*
X208661000Y-103251000D03*
D24*
X84892000Y-105410000D03*
X84892000Y-106680000D03*
X84892000Y-107950000D03*
X84892000Y-109220000D03*
X84892000Y-110490000D03*
X84892000Y-111760000D03*
X84892000Y-113030000D03*
X84892000Y-114300000D03*
X84892000Y-115570000D03*
X84892000Y-116840000D03*
X75692000Y-116840000D03*
X75692000Y-115570000D03*
X75692000Y-114300000D03*
X75692000Y-113030000D03*
X75692000Y-111760000D03*
X75692000Y-110490000D03*
X75692000Y-109220000D03*
X75692000Y-107950000D03*
X75692000Y-106680000D03*
X75692000Y-105410000D03*
D25*
X85030598Y-119045828D03*
X85030598Y-120315828D03*
X85030598Y-121585828D03*
X85030598Y-122855828D03*
X85030598Y-124125828D03*
X85030598Y-125395828D03*
X85030598Y-126665828D03*
X85030598Y-127935828D03*
X85030598Y-129205828D03*
X85030598Y-130475828D03*
X75730598Y-130475828D03*
X75730598Y-129205828D03*
X75730598Y-127935828D03*
X75730598Y-126665828D03*
X75730598Y-125395828D03*
X75730598Y-124125828D03*
X75730598Y-122855828D03*
X75730598Y-121585828D03*
X75730598Y-120315828D03*
X75730598Y-119045828D03*
D26*
X154940000Y-60325000D03*
X158065000Y-60325000D03*
D27*
X102733624Y-86247398D03*
X102733624Y-84977398D03*
X102733624Y-83707398D03*
X102733624Y-82437398D03*
X102733624Y-81167398D03*
X102733624Y-79897398D03*
X102733624Y-78627398D03*
X102733624Y-77357398D03*
X102733624Y-76087398D03*
X102733624Y-74817398D03*
X111933624Y-74817398D03*
X111933624Y-76087398D03*
X111933624Y-77357398D03*
X111933624Y-78627398D03*
X111933624Y-79897398D03*
X111933624Y-81167398D03*
X111933624Y-82437398D03*
X111933624Y-83707398D03*
X111933624Y-84977398D03*
X111933624Y-86247398D03*
D28*
X211507000Y-85852000D03*
X208407000Y-85852000D03*
D26*
X154647500Y-139700000D03*
X157772500Y-139700000D03*
X154990000Y-119380000D03*
X158115000Y-119380000D03*
X128358500Y-138938000D03*
X131483500Y-138938000D03*
D27*
X102715000Y-99695000D03*
X102715000Y-98425000D03*
X102715000Y-97155000D03*
X102715000Y-95885000D03*
X102715000Y-94615000D03*
X102715000Y-93345000D03*
X102715000Y-92075000D03*
X102715000Y-90805000D03*
X102715000Y-89535000D03*
X102715000Y-88265000D03*
X111915000Y-88265000D03*
X111915000Y-89535000D03*
X111915000Y-90805000D03*
X111915000Y-92075000D03*
X111915000Y-93345000D03*
X111915000Y-94615000D03*
X111915000Y-95885000D03*
X111915000Y-97155000D03*
X111915000Y-98425000D03*
X111915000Y-99695000D03*
D29*
X210207244Y-143483000D03*
X210207244Y-117883000D03*
D30*
X210207244Y-130683000D03*
D26*
X128320000Y-116840000D03*
X131445000Y-116840000D03*
X155625000Y-92075000D03*
X158750000Y-92075000D03*
D24*
X199009000Y-64374000D03*
X199009000Y-65644000D03*
X199009000Y-66914000D03*
X199009000Y-68184000D03*
X199009000Y-69454000D03*
X199009000Y-70724000D03*
X199009000Y-71994000D03*
X199009000Y-73264000D03*
X199009000Y-74534000D03*
X199009000Y-75804000D03*
X189809000Y-75804000D03*
X189809000Y-74534000D03*
X189809000Y-73264000D03*
X189809000Y-71994000D03*
X189809000Y-70724000D03*
X189809000Y-69454000D03*
X189809000Y-68184000D03*
X189809000Y-66914000D03*
X189809000Y-65644000D03*
X189809000Y-64374000D03*
D26*
X128270000Y-60960000D03*
X131395000Y-60960000D03*
X128320000Y-87630000D03*
X131445000Y-87630000D03*
D31*
X82674000Y-95504000D03*
X82674000Y-96774000D03*
X82674000Y-98044000D03*
X82674000Y-99314000D03*
X82674000Y-100584000D03*
X82674000Y-101854000D03*
X82674000Y-103124000D03*
X77724000Y-103124000D03*
X77724000Y-101854000D03*
X77724000Y-100584000D03*
X77724000Y-99314000D03*
X77724000Y-98044000D03*
X77724000Y-96774000D03*
X77724000Y-95504000D03*
M02*
